<svg version="1.1" viewBox="0.0 0.0 960.0 540.0" fill="none" stroke="none" stroke-linecap="square" stroke-miterlimit="10" xmlns:xlink="http://www.w3.org/1999/xlink" xmlns="http://www.w3.org/2000/svg"><clipPath id="g9a39d377b2_1_0.0"><path d="m0 0l960.0 0l0 540.0l-960.0 0l0 -540.0z" clip-rule="nonzero"/></clipPath><g clip-path="url(#g9a39d377b2_1_0.0)"><defs><linearGradient id="g9a39d377b2_1_0.1" gradientUnits="userSpaceOnUse" gradientTransform="matrix(23.238126853633812 0.0 0.0 23.238126853633812 0.0 0.0)" spreadMethod="pad" x1="41.31141920545468" y1="23.23812685503607" x2="41.311673335740146" y2="2.7918307161143867E-9"><stop offset="0.0" stop-color="#d4e5f5"/><stop offset="1.0" stop-color="#70a4d5"/></linearGradient></defs><path fill="url(#g9a39d377b2_1_0.1)" d="m0 0l960.0 0l0 540.0l-960.0 0z" fill-rule="evenodd"/><defs><linearGradient id="g9a39d377b2_1_0.2" gradientUnits="userSpaceOnUse" gradientTransform="matrix(16.0490528212222 0.0 0.0 16.0490528212222 0.0 0.0)" spreadMethod="pad" x1="-0.5227949369682432" y1="8.516004278626959" x2="-0.5228530306181606" y2="24.56505709974402"><stop offset="0.0" stop-color="#45818e"/><stop offset="1.0" stop-color="#2f5a63"/></linearGradient></defs><path fill="url(#g9a39d377b2_1_0.2)" d="m-8.390364 341.38016c65.60477 -34.096863 229.08723 -209.97615 393.6286 -204.58107c164.54141 5.3950806 489.39243 195.94893 593.61975 236.95155c104.227356 41.002655 26.453613 7.553589 31.744324 9.064301" fill-rule="evenodd"/><defs><linearGradient id="g9a39d377b2_1_0.3" gradientUnits="userSpaceOnUse" gradientTransform="matrix(12.75562282740728 0.0 0.0 12.75562282740728 0.0 0.0)" spreadMethod="pad" x1="-34.443320527903204" y1="14.502243967421805" x2="-34.44336875428059" y2="27.257866794737915"><stop offset="0.0" stop-color="#93c47d"/><stop offset="1.0" stop-color="#6aa84f"/></linearGradient></defs><path fill="url(#g9a39d377b2_1_0.3)" d="m500.9863 345.0663c-68.726105 -26.679443 -255.63467 -160.51414 -412.35672 -160.07668c-156.72205 0.43745422 -439.97968 135.58452 -527.9756 162.70143" fill-rule="evenodd"/><defs><linearGradient id="g9a39d377b2_1_0.4" gradientUnits="userSpaceOnUse" gradientTransform="matrix(15.859863785138023 0.0 0.0 15.859863785138023 0.0 0.0)" spreadMethod="pad" x1="5.364244510956032" y1="10.16070659075683" x2="5.364187300043269" y2="26.020570375791667"><stop offset="0.0" stop-color="#93c47d"/><stop offset="1.0" stop-color="#6aa84f"/></linearGradient></defs><path fill="url(#g9a39d377b2_1_0.4)" d="m85.07619 412.68268c119.56378 -41.859283 486.16083 -241.72287 717.38275 -251.15567c231.22186 -9.4328 558.2906 162.13239 669.94867 194.55887" fill-rule="evenodd"/><defs><radialGradient id="g9a39d377b2_1_0.5" gradientUnits="userSpaceOnUse" gradientTransform="matrix(7.310991218822934 0.0 0.0 7.310991218822934 0.0 0.0)" spreadMethod="pad" cx="28.84378247877291" cy="11.70638826879203" fx="28.84378247877291" fy="11.70638826879203" r="7.310991287231445"><stop offset="0.0" stop-color="#ffd966"/><stop offset="1.0" stop-color="#f1c232"/></radialGradient></defs><path fill="url(#g9a39d377b2_1_0.5)" d="m173.08136 85.585304l0 0c0 -20.873756 16.921524 -37.795277 37.795288 -37.795277l0 0c10.023926 0 19.637299 3.9819908 26.72528 11.069977c7.0879974 7.0879936 11.069992 16.701366 11.069992 26.7253l0 0c0 20.873749 -16.921524 37.795273 -37.795273 37.795273l0 0c-20.873764 0 -37.795288 -16.921524 -37.795288 -37.795273z" fill-rule="evenodd"/><defs><linearGradient id="g9a39d377b2_1_0.6" gradientUnits="userSpaceOnUse" gradientTransform="matrix(9.539005090299106 0.0 0.0 9.539005090299106 0.0 0.0)" spreadMethod="pad" x1="82.98908288934693" y1="27.55193591309125" x2="73.45007779931159" y2="27.55186497558551"><stop offset="0.0" stop-color="#cccccc"/><stop offset="0.5" stop-color="#efefef"/><stop offset="1.0" stop-color="#b3b3b3"/></linearGradient></defs><path fill="url(#g9a39d377b2_1_0.6)" d="m700.6406 262.81805l90.99213 0l0 75.24408l-90.99213 0z" fill-rule="evenodd"/><path fill="#efefef" d="m723.3818 310.30627l45.480286 0l0 27.685028l-45.480286 0z" fill-rule="evenodd"/><path fill="#b7b7b7" d="m650.3179 244.46974l50.098022 0l0 93.60185l-50.098022 0z" fill-rule="evenodd"/><path fill="#ffffff" d="m662.0144 249.78304l7.255371 0l0 13.78035l-7.255371 0z" fill-rule="evenodd"/><path fill="#ffffff" d="m681.46405 249.78304l7.25531 0l0 13.78035l-7.25531 0z" fill-rule="evenodd"/><path fill="#ffffff" d="m681.46405 267.08224l7.25531 0l0 13.780334l-7.25531 0z" fill-rule="evenodd"/><path fill="#ffffff" d="m662.0144 267.08224l7.255371 0l0 13.780334l-7.255371 0z" fill-rule="evenodd"/><path fill="#ffffff" d="m681.46405 301.68063l7.25531 0l0 13.780334l-7.25531 0z" fill-rule="evenodd"/><path fill="#ffffff" d="m662.0144 301.68063l7.255371 0l0 13.780334l-7.255371 0z" fill-rule="evenodd"/><path fill="#ffffff" d="m662.0144 318.97983l7.255371 0l0 13.780334l-7.255371 0z" fill-rule="evenodd"/><path fill="#ffffff" d="m681.46405 318.97983l7.25531 0l0 13.780334l-7.25531 0z" fill-rule="evenodd"/><path fill="#ffffff" d="m662.0144 284.38144l7.255371 0l0 13.780334l-7.255371 0z" fill-rule="evenodd"/><path fill="#ffffff" d="m681.46405 284.38144l7.25531 0l0 13.780334l-7.25531 0z" fill-rule="evenodd"/><path fill="#ffffff" d="m735.6951 288.02686l0 0c0 -8.13205 5.6052856 -14.724396 12.519714 -14.724396l0 0c3.3204346 0 6.504822 1.5513 8.852722 4.312683c2.3479004 2.7613525 3.6669312 6.5065613 3.6669312 10.411713l0 0c0 8.13208 -5.6052246 14.724426 -12.519653 14.724426l0 0c-6.9144287 0 -12.519714 -6.592346 -12.519714 -14.724426z" fill-rule="evenodd"/><path fill="#cc0000" d="m739.8662 282.38226l4.173218 0l0 -4.173218l8.346497 0l0 4.173218l4.173218 0l0 11.275604l-4.173218 0l0 4.173218l-8.346497 0l0 -4.173218l-4.173218 0z" fill-rule="evenodd"/><path fill="#b7b7b7" d="m791.5787 244.46974l50.098022 0l0 93.60185l-50.098022 0z" fill-rule="evenodd"/><path fill="#ffffff" d="m803.2752 249.78304l7.25531 0l0 13.78035l-7.25531 0z" fill-rule="evenodd"/><path fill="#ffffff" d="m822.72485 249.78304l7.25531 0l0 13.78035l-7.25531 0z" fill-rule="evenodd"/><path fill="#ffffff" d="m822.72485 267.08224l7.25531 0l0 13.780334l-7.25531 0z" fill-rule="evenodd"/><path fill="#ffffff" d="m803.2752 267.08224l7.25531 0l0 13.780334l-7.25531 0z" fill-rule="evenodd"/><path fill="#ffffff" d="m822.72485 301.68063l7.25531 0l0 13.780334l-7.25531 0z" fill-rule="evenodd"/><path fill="#ffffff" d="m803.2752 301.68063l7.25531 0l0 13.780334l-7.25531 0z" fill-rule="evenodd"/><path fill="#ffffff" d="m803.2752 318.97983l7.25531 0l0 13.780334l-7.25531 0z" fill-rule="evenodd"/><path fill="#ffffff" d="m822.72485 318.97983l7.25531 0l0 13.780334l-7.25531 0z" fill-rule="evenodd"/><path fill="#ffffff" d="m803.2752 284.38144l7.25531 0l0 13.780334l-7.25531 0z" fill-rule="evenodd"/><path fill="#ffffff" d="m822.72485 284.38144l7.25531 0l0 13.780334l-7.25531 0z" fill-rule="evenodd"/><path fill="#6aa84f" d="m571.15546 294.69458l0 0c-0.3381958 -2.6734009 0.7722168 -5.3199463 2.8600464 -6.8165283c2.0878296 -1.4966125 4.7869263 -1.5808411 6.9519653 -0.21694946l0 0c0.7669678 -1.5544434 2.1706543 -2.627655 3.786499 -2.89505c1.6159058 -0.26739502 3.2541504 0.30245972 4.4192505 1.5371704l0 0c0.6533203 -1.4093628 1.9361572 -2.3562622 3.3932495 -2.5046997c1.4570923 -0.1484375 2.8822021 0.522583 3.7697144 1.7749634l0 0c1.1803589 -1.493927 3.0582275 -2.1229248 4.821167 -1.6148376c1.7629395 0.50808716 3.0942383 2.0620117 3.4178467 3.9893494l0 0c1.446106 0.4242859 2.6506958 1.5028381 3.3024902 2.9570312c0.65185547 1.4541931 0.6869507 3.1413574 0.09631348 4.62558l0 0c1.4239502 1.9934692 1.7570801 4.6497498 0.875 6.9775696c-0.8820801 2.3277893 -2.8468018 3.977417 -5.1610107 4.3332214c-0.016296387 2.184723 -1.130249 4.1894226 -2.9124146 5.2413635c-1.7822266 1.0519409 -3.9544067 0.98687744 -5.6792603 -0.17010498c-0.7347412 2.6165771 -2.8026733 4.54187 -5.310486 4.9440002c-2.5077515 0.40216064 -5.0057983 -0.79089355 -6.414795 -3.0637207c-1.7271729 1.1202698 -3.7996826 1.4429932 -5.749939 0.8953552c-1.9502563 -0.54763794 -3.6140137 -1.9195251 -4.615967 -3.8061523l0 0c-1.7649536 0.22213745 -3.4714355 -0.7614441 -4.272461 -2.462616c-0.8010864 -1.7011719 -0.5262451 -3.7578125 0.6881714 -5.1492004l0 0c-1.5744019 -0.9967041 -2.3777466 -2.9745483 -1.9911499 -4.90213c0.38659668 -1.9275513 1.8755493 -3.3680725 3.6904297 -3.5703735z" fill-rule="evenodd"/><path fill="#000000" fill-opacity="0.0" d="m569.42126 303.27014l0 0c0.74298096 0.4703369 1.6012573 0.6837158 2.4596558 0.6114502m1.1242676 7.000519c0.36914062 -0.04647827 0.73095703 -0.14486694 1.0761719 -0.29263306m9.289185 3.203308c-0.25958252 -0.41879272 -0.47698975 -0.8663025 -0.64837646 -1.3348999m12.3741455 -0.5454407l0 0c0.13391113 -0.47705078 0.22070312 -0.9680481 0.25891113 -1.4647522m8.3324585 -3.6063232c0.017333984 -2.3259888 -1.2108765 -4.4556885 -3.1571655 -5.4743347m7.443115 -5.836212c-0.31518555 0.7920227 -0.7963867 1.4946289 -1.4058228 2.0527344m-1.9926758 -9.635559l0 0c0.053710938 0.31985474 0.078552246 0.64450073 0.07421875 0.9694519m-8.31311 -3.343872l0 0c-0.2944336 0.37265015 -0.5369873 0.789093 -0.7201538 1.2363281m-6.442871 -0.5067444l0 0c-0.15692139 0.33847046 -0.27404785 0.6966553 -0.34881592 1.0662537m-7.8570557 0.2916565l0 0c0.45812988 0.28860474 0.881958 0.6359558 1.262146 1.0344543m-11.074036 5.999054l0 0c0.04663086 0.36846924 0.12023926 0.73239136 0.22027588 1.0883789" fill-rule="evenodd"/><path fill="#b45f06" d="m586.02954 303.68524l0 0c0 -0.28656006 0.2322998 -0.51885986 0.51885986 -0.51885986l2.0753174 0l0 0c0.13763428 0 0.2695923 0.054656982 0.36688232 0.15197754c0.09729004 0.09729004 0.15197754 0.22927856 0.15197754 0.36688232l0 32.10309c0 0.28656006 -0.2322998 0.51885986 -0.51885986 0.51885986l-2.0753174 0c-0.28656006 0 -0.51885986 -0.2322998 -0.51885986 -0.51885986z" fill-rule="evenodd"/><path fill="#b45f06" d="m591.6684 301.9027l0 0c6.1035156E-5 -3.0517578E-5 6.1035156E-5 -3.0517578E-5 6.1035156E-5 -3.0517578E-5l2.7033691 1.3644409c0 0 0 0 0 0c0 0 0 0 0 3.0517578E-5l-5.638916 8.557434c0 0 0 3.0517578E-5 -6.1035156E-5 0l-2.7033691 -1.3644104l0 0c0 0 0 -3.0517578E-5 0 -3.0517578E-5z" fill-rule="evenodd"/><path fill="#274e13" d="m18.31788 192.9366l25.378717 -33.164352l25.37872 33.164352z" fill-rule="evenodd"/><path fill="#38761d" d="m20.422268 182.20076l23.27433 -25.9971l23.274334 25.9971z" fill-rule="evenodd"/><path fill="#6aa84f" d="m23.719463 172.02458l19.977135 -24.444489l19.977135 24.444489z" fill-rule="evenodd"/><path fill="#274e13" d="m58.569847 192.84999l25.378716 -33.164352l25.378723 33.164352z" fill-rule="evenodd"/><path fill="#38761d" d="m60.674236 182.11415l23.274326 -25.9971l23.274338 25.9971z" fill-rule="evenodd"/><path fill="#6aa84f" d="m63.97143 171.93797l19.97713 -24.444504l19.977135 24.444504z" fill-rule="evenodd"/><path fill="#274e13" d="m34.31788 215.08359l25.37872 -33.164352l25.37872 33.164352z" fill-rule="evenodd"/><path fill="#38761d" d="m36.422268 204.34775l23.27433 -25.9971l23.274334 25.9971z" fill-rule="evenodd"/><path fill="#6aa84f" d="m39.719463 194.17157l19.977135 -24.444504l19.97713 24.444504z" fill-rule="evenodd"/><path fill="#274e13" d="m161.62366 230.37886l25.378708 -33.164352l25.378723 33.164352z" fill-rule="evenodd"/><path fill="#38761d" d="m163.72804 219.64302l23.274323 -25.9971l23.274338 25.9971z" fill-rule="evenodd"/><path fill="#6aa84f" d="m167.02524 209.46684l19.977127 -24.444504l19.977142 24.444504z" fill-rule="evenodd"/><path fill="#274e13" d="m201.87563 230.29225l25.378708 -33.164368l25.378723 33.164368z" fill-rule="evenodd"/><path fill="#38761d" d="m203.98001 219.55641l23.274323 -25.9971l23.274338 25.9971z" fill-rule="evenodd"/><path fill="#6aa84f" d="m207.2772 209.38023l19.977127 -24.444504l19.977142 24.444504z" fill-rule="evenodd"/><path fill="#274e13" d="m225.87563 252.52585l25.378708 -33.164368l25.378723 33.164368z" fill-rule="evenodd"/><path fill="#38761d" d="m227.98001 241.79001l23.274323 -25.9971l23.274353 25.9971z" fill-rule="evenodd"/><path fill="#6aa84f" d="m231.2772 231.61383l19.977127 -24.444504l19.977142 24.444504z" fill-rule="evenodd"/><path fill="#274e13" d="m177.62366 252.52585l25.378708 -33.164368l25.378723 33.164368z" fill-rule="evenodd"/><path fill="#38761d" d="m179.72804 241.79001l23.274323 -25.9971l23.274338 25.9971z" fill-rule="evenodd"/><path fill="#6aa84f" d="m183.02524 231.61383l19.977127 -24.444504l19.977142 24.444504z" fill-rule="evenodd"/><path fill="#000000" fill-opacity="0.0" d="m109.32809 196.35301c-1.5721817 5.5021973 -8.773804E-4 26.724854 -9.433075 33.013123c-9.432198 6.2882843 -37.92432 -2.9470673 -47.160103 4.7165375c-9.235783 7.6636047 3.1430435 32.618988 -8.254593 41.265106c-11.39764 8.646088 -47.161858 2.9475098 -60.131233 10.611542c-12.969379 7.664032 -7.073929 27.512238 -17.685038 35.37271c-10.611111 7.860443 -38.318027 9.825012 -45.981632 11.790009" fill-rule="evenodd"/><path stroke="#6d9eeb" stroke-width="12.0" stroke-linejoin="round" stroke-linecap="butt" d="m109.32809 196.35301c-1.5721817 5.5021973 -8.773804E-4 26.724854 -9.433075 33.013123c-9.432198 6.2882843 -37.92432 -2.9470673 -47.160103 4.7165375c-9.235783 7.6636047 3.1430435 32.618988 -8.254593 41.265106c-11.39764 8.646088 -47.161858 2.9475098 -60.131233 10.611542c-12.969379 7.664032 -7.073929 27.512238 -17.685038 35.37271c-10.611111 7.860443 -38.318027 9.825012 -45.981632 11.790009" fill-rule="evenodd"/><path fill="#274e13" d="m82.56985 215.08359l25.378716 -33.164352l25.378723 33.164352z" fill-rule="evenodd"/><path fill="#38761d" d="m84.67423 204.34775l23.27433 -25.9971l23.274338 25.9971z" fill-rule="evenodd"/><path fill="#6aa84f" d="m87.971436 194.17157l19.977127 -24.444504l19.977135 24.444504z" fill-rule="evenodd"/><path fill="#a61c00" d="m25.452085 290.82922l103.25391 0l0 42.034332l-103.25391 0z" fill-rule="evenodd"/><path fill="#d9d9d9" d="m21.726196 332.61218l112.791275 0l0 4.7012024l-112.791275 0z" fill-rule="evenodd"/><path fill="#efefef" d="m35.709553 330.35583l32.18018 0l0 6.850708l-32.18018 0z" fill-rule="evenodd"/><path fill="#d9d9d9" d="m39.62427 303.78268l24.350742 0l0 26.57315l-24.350742 0z" fill-rule="evenodd"/><path fill="#1c4587" d="m15.57228 291.65274l17.32148 -17.019897l85.60573 0l17.32148 17.019897z" fill-rule="evenodd"/><path fill="#999999" d="m43.682728 302.52588l8.116917 -6.850708l8.116913 6.850708z" fill-rule="evenodd"/><path fill="#073763" d="m15.57228 288.59595l120.24869 0l0 3.2933655l-120.24869 0z" fill-rule="evenodd"/><path fill="#efefef" d="m35.709553 304.14093l16.090092 -17.019897l16.090088 17.019897z" fill-rule="evenodd"/><path fill="#666666" d="m43.682728 301.26657l7.8519783 -9.377258l8.381851 9.377258z" fill-rule="evenodd"/><path fill="#b45f06" d="m43.682728 305.0114l16.23383 0l0 24.473938l-16.23383 0z" fill-rule="evenodd"/><path fill="#073763" d="m53.19499 285.35458l15.963261 18.792267l-3.7709808 1.7472229l-15.963261 -18.792267z" fill-rule="evenodd"/><path fill="#073763" d="m51.838078 286.88394l-16.149277 18.716858l-2.5365334 -1.2192993l16.149277 -18.716858z" fill-rule="evenodd"/><path fill="#3d85c6" d="m86.38812 303.22333l27.2593 0l0 12.067261l-27.2593 0z" fill-rule="evenodd"/><path fill="#9fc5e8" d="m90.68332 308.4399l19.734245 0l0 6.8506775l-19.734245 0z" fill-rule="evenodd"/><path fill="#cc0000" d="m89.64898 300.44324l1.0146179 0l0 18.100922l-1.0146179 0z" fill-rule="evenodd"/><path fill="#cc0000" d="m98.23938 300.44324l1.0146103 0l0 18.100922l-1.0146103 0z" fill-rule="evenodd"/><path fill="#cc0000" d="m106.82978 300.44324l1.0146103 0l0 18.100922l-1.0146103 0z" fill-rule="evenodd"/><path fill="#a61c00" d="m122.2956 306.00446l0 0.678772l-35.73133 0l0 -0.678772z" fill-rule="evenodd"/><path fill="#a61c00" d="m118.0004 312.39005l0 0.6788025l-35.731323 0l0 -0.6788025z" fill-rule="evenodd"/><path fill="#f3f3f3" d="m118.0004 315.58286l0 1.8100891l-35.731323 0l0 -1.8100891z" fill-rule="evenodd"/><path fill="#6aa84f" d="m902.4783 298.67883l0 0c-0.3381958 -2.6734009 0.7722168 -5.3199463 2.8600464 -6.8165283c2.0878296 -1.4966125 4.7869263 -1.5808411 6.9520264 -0.21694946l0 0c0.76690674 -1.5544434 2.1705933 -2.627655 3.786499 -2.89505c1.6158447 -0.26739502 3.2540894 0.30245972 4.4192505 1.5371704l0 0c0.6533203 -1.4093628 1.9360962 -2.3562622 3.3931885 -2.5046997c1.4570923 -0.1484375 2.8822632 0.522583 3.7697754 1.7749634l0 0c1.1802979 -1.493927 3.0582275 -2.1229248 4.821167 -1.6148376c1.7629395 0.50808716 3.0942383 2.0619812 3.4178467 3.9893494l0 0c1.446106 0.4242859 2.6506348 1.5028381 3.3024902 2.9570312c0.65179443 1.4541931 0.68688965 3.1413574 0.09625244 4.62558l0 0c1.4240112 1.9934692 1.7570801 4.6497498 0.875 6.9775696c-0.8820801 2.3277893 -2.8468018 3.977417 -5.1610107 4.3332214c-0.016296387 2.184723 -1.130249 4.1894226 -2.9124146 5.2413635c-1.7822266 1.0519409 -3.9543457 0.98687744 -5.6792603 -0.17010498c-0.7346802 2.6165771 -2.8026733 4.54187 -5.310425 4.9440002c-2.5078125 0.40216064 -5.0057983 -0.79089355 -6.414856 -3.0637207c-1.7271729 1.1202698 -3.7996216 1.4429932 -5.749878 0.8953552c-1.9502563 -0.54763794 -3.6140137 -1.9195251 -4.615967 -3.8061523l0 0c-1.7650146 0.22213745 -3.4714355 -0.7614441 -4.272522 -2.462616c-0.8010864 -1.7011719 -0.5262451 -3.7578125 0.6881714 -5.1492004l0 0c-1.5744019 -0.9967041 -2.3777466 -2.9745483 -1.9911499 -4.90213c0.38659668 -1.9275513 1.8755493 -3.3680725 3.6904297 -3.5703735z" fill-rule="evenodd"/><path fill="#000000" fill-opacity="0.0" d="m900.7441 307.2544l0 0c0.74298096 0.4703369 1.6012573 0.6837158 2.4596558 0.6114502m1.1243286 7.000519c0.3690796 -0.04647827 0.73095703 -0.14486694 1.0761108 -0.29263306m9.289246 3.203308c-0.25964355 -0.41879272 -0.47705078 -0.8663025 -0.6484375 -1.3348999m12.3741455 -0.5454407l0 0c0.13397217 -0.47705078 0.22076416 -0.9680481 0.25891113 -1.4647827m8.3324585 -3.6062927c0.017333984 -2.3259888 -1.2108765 -4.4556885 -3.1571045 -5.4743347m7.443054 -5.836212c-0.31518555 0.7920227 -0.7963257 1.4946289 -1.4057617 2.0527344m-1.9927368 -9.635559l0 0c0.053710938 0.31985474 0.07861328 0.64450073 0.07421875 0.9694519m-8.313049 -3.343872l0 0c-0.2944336 0.37265015 -0.53704834 0.789093 -0.72021484 1.2363281m-6.44281 -0.5067444l0 0c-0.15692139 0.33847046 -0.2741089 0.6966553 -0.34881592 1.0662537m-7.8571167 0.2916565l0 0c0.45812988 0.28860474 0.881958 0.6359558 1.262207 1.0344543m-11.074097 5.999054l0 0c0.04663086 0.36846924 0.12030029 0.73239136 0.22027588 1.0883789" fill-rule="evenodd"/><path fill="#b45f06" d="m917.3524 307.6695l0 0c0 -0.28656006 0.2322998 -0.51885986 0.5187988 -0.51885986l2.0753174 0l0 0c0.13763428 0 0.2695923 0.054656982 0.36688232 0.15197754c0.09729004 0.09729004 0.15197754 0.22927856 0.15197754 0.36688232l0 32.10309c0 0.28656006 -0.2322998 0.51885986 -0.51885986 0.51885986l-2.0753174 0c-0.28649902 0 -0.5187988 -0.2322998 -0.5187988 -0.51885986z" fill-rule="evenodd"/><path fill="#b45f06" d="m922.9913 305.88696l0 0c0 -3.0517578E-5 0 -3.0517578E-5 0 -3.0517578E-5l2.7033691 1.3644104c0 3.0517578E-5 0 3.0517578E-5 0 3.0517578E-5c0 0 0 0 0 3.0517578E-5l-5.638916 8.557434c0 0 0 3.0517578E-5 0 0l-2.7033691 -1.3644104l0 0c0 0 -6.1035156E-5 -3.0517578E-5 0 -3.0517578E-5z" fill-rule="evenodd"/><defs><linearGradient id="g9a39d377b2_1_0.7" gradientUnits="userSpaceOnUse" gradientTransform="matrix(8.694928870504139 0.0 0.0 8.694928870504139 0.0 0.0)" spreadMethod="pad" x1="116.75040682429115" y1="53.73068281305093" x2="116.750510589484" y2="45.03575394316596"><stop offset="0.0" stop-color="#5c9344"/><stop offset="1.0" stop-color="#6aa84f"/></linearGradient></defs><path fill="url(#g9a39d377b2_1_0.7)" d="m-8.391076 391.58267l1023.5275 0l0 75.590546l-1023.5275 0z" fill-rule="evenodd"/><defs><linearGradient id="g9a39d377b2_1_0.8" gradientUnits="userSpaceOnUse" gradientTransform="matrix(5.758141061519197 0.0 0.0 5.758141061519197 0.0 0.0)" spreadMethod="pad" x1="159.42968554580688" y1="49.28292440980641" x2="159.42967130145328" y2="55.04106547130799"><stop offset="0.0" stop-color="#93c47d"/><stop offset="1.0" stop-color="#6aa84f"/></linearGradient></defs><path fill="url(#g9a39d377b2_1_0.8)" d="m921.83997 294.69473l0 0c-0.33813477 -2.673462 0.7720947 -5.3200073 2.8596802 -6.8166504c2.0875854 -1.4966125 4.786316 -1.5808411 6.95105 -0.21691895l0 0c0.7668457 -1.5544434 2.1703491 -2.627716 3.7860107 -2.895111c1.6156616 -0.26739502 3.2537231 0.30245972 4.418701 1.5372009l0 0c0.65319824 -1.4093628 1.935852 -2.3562927 3.3927612 -2.5047302c1.4569092 -0.1484375 2.881836 0.522583 3.769226 1.7749634l0 0c1.1801758 -1.493927 3.0578613 -2.1229248 4.8205566 -1.6148376c1.7626953 0.50808716 3.093811 2.0620422 3.4174194 3.9894104l0 0c1.4458618 0.4242859 2.6502686 1.5028687 3.302002 2.9570618c0.6517334 1.4542236 0.68688965 3.1414185 0.09631348 4.625641l0 0c1.4237671 1.9934998 1.7568359 4.649811 0.8748779 6.977661c-0.881958 2.3278503 -2.8464355 3.977478 -5.1603394 4.3332825c-0.016296387 2.184784 -1.1300659 4.1894836 -2.9120483 5.241455c-1.7819824 1.0519409 -3.9538574 0.98687744 -5.678528 -0.1701355c-0.7345581 2.6166382 -2.802246 4.541931 -5.3096924 4.944092c-2.5074463 0.40216064 -5.005188 -0.7909241 -6.4140015 -3.0637817c-1.7269897 1.1203003 -3.7991333 1.4430237 -5.7491455 0.89538574c-1.9500122 -0.54766846 -3.6135254 -1.9195557 -4.6153564 -3.8062134l0 0c-1.7647705 0.22216797 -3.4710083 -0.7614441 -4.2719727 -2.4626465c-0.80096436 -1.7012024 -0.52612305 -3.7578735 0.68811035 -5.1492615l0 0c-1.5742188 -0.9967346 -2.3774414 -2.9745789 -1.9909058 -4.902191c0.38659668 -1.9276123 1.8753662 -3.3681335 3.6900024 -3.5704346z" fill-rule="evenodd"/><path fill="#000000" fill-opacity="0.0" d="m920.106 303.27042l0 0c0.7428589 0.4703369 1.6010742 0.6837158 2.4593506 0.6114502m1.1241455 7.0006104c0.3690796 -0.046447754 0.73083496 -0.14486694 1.0759888 -0.29263306m9.287964 3.2033691c-0.25958252 -0.41879272 -0.4769287 -0.866333 -0.6483154 -1.3349304m12.372498 -0.5454712l0 0c0.13397217 -0.47705078 0.22070312 -0.9680176 0.25891113 -1.4647522m8.33136 -3.6063843c0.017333984 -2.3260193 -1.2106934 -4.4557495 -3.1567383 -5.4743958m7.4421387 -5.8363037c-0.31518555 0.7920532 -0.79626465 1.4946594 -1.4056396 2.052765m-1.9924316 -9.635681l0 0c0.053710938 0.31985474 0.078552246 0.64450073 0.07421875 0.9694519m-8.312012 -3.3439026l0 0c-0.29437256 0.37265015 -0.53692627 0.789093 -0.72003174 1.2363586m-6.4420166 -0.5067749l0 0c-0.15692139 0.33850098 -0.27404785 0.6966553 -0.34875488 1.0662842m-7.856079 0.2916565l0 0c0.45806885 0.28860474 0.88183594 0.6359558 1.2620239 1.0344543m-11.072632 5.9991455l0 0c0.04663086 0.36846924 0.12030029 0.73239136 0.22027588 1.0883789" fill-rule="evenodd"/><path fill="#b45f06" d="m936.7146 303.6861l0 0c0 -0.28701782 0.23266602 -0.51971436 0.51971436 -0.51971436l2.0786743 0l0 0c0.13787842 0 0.27001953 0.054748535 0.36749268 0.15222168c0.097473145 0.097473145 0.15222168 0.22964478 0.15222168 0.36749268l0 32.09445c0 0.28701782 -0.23266602 0.51971436 -0.51971436 0.51971436l-2.0786743 0c-0.28704834 0 -0.51971436 -0.23269653 -0.51971436 -0.51971436z" fill-rule="evenodd"/><path fill="#b45f06" d="m942.35345 301.9027l0 0c0 -3.0517578E-5 0 -3.0517578E-5 6.1035156E-5 -3.0517578E-5l2.7086182 1.3543396c0 0 0 3.0517578E-5 0 3.0517578E-5c0 0 0 0 0 0l-5.6378174 8.566895c0 3.0517578E-5 0 3.0517578E-5 0 3.0517578E-5l-2.7086792 -1.3543396l0 0c0 -3.0517578E-5 0 -3.0517578E-5 0 -3.0517578E-5z" fill-rule="evenodd"/><defs><linearGradient id="g9a39d377b2_1_0.9" gradientUnits="userSpaceOnUse" gradientTransform="matrix(5.758169550325506 0.0 0.0 5.758169550325506 0.0 0.0)" spreadMethod="pad" x1="103.0413849808238" y1="55.04087505775578" x2="103.04144908009789" y2="49.28270550778704"><stop offset="0.0" stop-color="#5c9344"/><stop offset="1.0" stop-color="#6aa84f"/></linearGradient></defs><path fill="url(#g9a39d377b2_1_0.9)" d="m555.15497 294.69473l0 0c-0.3381958 -2.673462 0.7720947 -5.3200073 2.8596191 -6.8166504c2.0875854 -1.4966125 4.786316 -1.5808411 6.951111 -0.21691895l0 0c0.76678467 -1.5544434 2.1703491 -2.627716 3.7860107 -2.895111c1.6156616 -0.26739502 3.253662 0.30245972 4.41864 1.5372009l0 0c0.6532593 -1.4093628 1.935852 -2.3562927 3.3927612 -2.5047302c1.4569092 -0.1484375 2.881897 0.522583 3.769226 1.7749634l0 0c1.1801758 -1.493927 3.0578613 -2.1229248 4.8205566 -1.6148376c1.7626953 0.50808716 3.093811 2.0620422 3.4174194 3.9894104l0 0c1.4459229 0.4242859 2.6503296 1.5028687 3.302002 2.9570618c0.6517334 1.4542236 0.68688965 3.1414185 0.09631348 4.625641l0 0c1.4237671 1.9934998 1.7568359 4.649811 0.8748779 6.977661c-0.881958 2.3278503 -2.8464355 3.977478 -5.1603394 4.3332825c-0.016296387 2.184784 -1.1300659 4.1894836 -2.9120483 5.241455c-1.7819214 1.0519409 -3.9537964 0.98687744 -5.678467 -0.1701355c-0.73461914 2.6166382 -2.8023071 4.541931 -5.3097534 4.944092c-2.5074463 0.40216064 -5.005127 -0.7909241 -6.4140015 -3.0637817c-1.7269287 1.1203003 -3.7991333 1.4430237 -5.7491455 0.89538574c-1.9500122 -0.54766846 -3.6135254 -1.9195557 -4.6153564 -3.8062134l0 0c-1.7647095 0.22216797 -3.4709473 -0.7614441 -4.2719116 -2.4626465c-0.80096436 -1.7012024 -0.5261841 -3.7578735 0.6880493 -5.1492615l0 0c-1.5741577 -0.9967346 -2.3774414 -2.9745789 -1.9908447 -4.902191c0.38653564 -1.9276123 1.8753052 -3.3681335 3.6899414 -3.5704346z" fill-rule="evenodd"/><path fill="#000000" fill-opacity="0.0" d="m553.42096 303.27042l0 0c0.7429199 0.4703369 1.6010742 0.6837158 2.4593506 0.6114502m1.1241455 7.0006104c0.3690796 -0.046447754 0.73083496 -0.14486694 1.0759888 -0.29263306m9.288025 3.2033691c-0.25958252 -0.41879272 -0.4769287 -0.866333 -0.64837646 -1.3349304m12.372559 -0.5454712l0 0c0.13391113 -0.47705078 0.22070312 -0.9680176 0.2588501 -1.4647522m8.33136 -3.6063843c0.017333984 -2.3260193 -1.2106934 -4.4557495 -3.1566772 -5.4743958m7.4420776 -5.8363037c-0.3151245 0.7920532 -0.79626465 1.4946594 -1.4055786 2.052765m-1.9924316 -9.635681l0 0c0.053649902 0.31985474 0.078552246 0.64450073 0.074157715 0.9694519m-8.312012 -3.3439026l0 0c-0.29437256 0.37265015 -0.53692627 0.789093 -0.72003174 1.2363586m-6.4420166 -0.5067749l0 0c-0.15686035 0.33850098 -0.27404785 0.6966553 -0.34875488 1.0662842m-7.856018 0.2916565l0 0c0.45806885 0.28860474 0.88183594 0.6359558 1.2619629 1.0344543m-11.072571 5.9991455l0 0c0.046569824 0.36846924 0.12023926 0.73239136 0.22021484 1.0883789" fill-rule="evenodd"/><path fill="#b45f06" d="m570.02954 311.6861l0 0c0 -0.28701782 0.23266602 -0.51971436 0.51971436 -0.51971436l2.0787354 0l0 0c0.13781738 0 0.27001953 0.054748535 0.36743164 0.15222168c0.097473145 0.097473145 0.15222168 0.22964478 0.15222168 0.36749268l0 32.09445c0 0.28701782 -0.23266602 0.51971436 -0.5196533 0.51971436l-2.0787354 0c-0.28704834 0 -0.51971436 -0.23269653 -0.51971436 -0.51971436z" fill-rule="evenodd"/><path fill="#b45f06" d="m575.6684 309.9027l0 0c6.1035156E-5 -3.0517578E-5 6.1035156E-5 -3.0517578E-5 6.1035156E-5 -3.0517578E-5l2.7086182 1.3543396c0 0 0 3.0517578E-5 0 3.0517578E-5c0 0 0 0 0 0l-5.6378174 8.566895c0 3.0517578E-5 0 3.0517578E-5 0 3.0517578E-5l-2.7086182 -1.3543396l0 0c0 -3.0517578E-5 -6.1035156E-5 -3.0517578E-5 0 -3.0517578E-5z" fill-rule="evenodd"/><defs><linearGradient id="g9a39d377b2_1_0.10" gradientUnits="userSpaceOnUse" gradientTransform="matrix(5.758141061530209 0.0 0.0 5.758141061530209 0.0 0.0)" spreadMethod="pad" x1="90.19119449442817" y1="49.282924409712166" x2="90.19117312789777" y2="55.04106547120273"><stop offset="0.0" stop-color="#93c47d"/><stop offset="1.0" stop-color="#6aa84f"/></linearGradient></defs><path fill="url(#g9a39d377b2_1_0.10)" d="m523.15497 294.69473l0 0c-0.3381958 -2.673462 0.7720947 -5.3200073 2.8596191 -6.8166504c2.0875854 -1.4966125 4.786316 -1.5808411 6.951111 -0.21691895l0 0c0.76678467 -1.5544434 2.1703491 -2.627716 3.7860107 -2.895111c1.6156616 -0.26739502 3.253662 0.30245972 4.41864 1.5372009l0 0c0.6532593 -1.4093628 1.935852 -2.3562927 3.3927612 -2.5047302c1.4569092 -0.1484375 2.881897 0.522583 3.769226 1.7749634l0 0c1.1801758 -1.493927 3.0578613 -2.1229248 4.8205566 -1.6148376c1.7626953 0.50808716 3.093811 2.0620422 3.4174194 3.9894104l0 0c1.4459229 0.4242859 2.6503296 1.5028687 3.302002 2.9570618c0.6517334 1.4542236 0.68688965 3.1414185 0.09631348 4.625641l0 0c1.4237671 1.9934998 1.7568359 4.649811 0.8748779 6.977661c-0.881958 2.3278503 -2.8464355 3.977478 -5.1603394 4.3332825c-0.016296387 2.184784 -1.1300659 4.1894836 -2.9120483 5.241455c-1.7819214 1.0519409 -3.9537964 0.98687744 -5.678467 -0.1701355c-0.73461914 2.6166382 -2.8023071 4.541931 -5.3097534 4.944092c-2.5074463 0.40216064 -5.005127 -0.7909241 -6.4140015 -3.0637817c-1.7269287 1.1203003 -3.7991333 1.4430237 -5.7491455 0.89538574c-1.9500122 -0.54766846 -3.6135254 -1.9195557 -4.6153564 -3.8062134l0 0c-1.7647095 0.22216797 -3.4709473 -0.7614441 -4.2719116 -2.4626465c-0.80096436 -1.7012024 -0.5261841 -3.7578735 0.6880493 -5.1492615l0 0c-1.5741577 -0.9967346 -2.3774414 -2.9745789 -1.9908447 -4.902191c0.38653564 -1.9276123 1.8753052 -3.3681335 3.6899414 -3.5704346z" fill-rule="evenodd"/><path fill="#000000" fill-opacity="0.0" d="m521.42096 303.27042l0 0c0.7429199 0.4703369 1.6010742 0.6837158 2.4593506 0.6114502m1.1241455 7.0006104c0.3690796 -0.046447754 0.73083496 -0.14486694 1.0759888 -0.29263306m9.288025 3.2033691c-0.25958252 -0.41879272 -0.4769287 -0.866333 -0.64837646 -1.3349304m12.372559 -0.5454712l0 0c0.13391113 -0.47705078 0.22070312 -0.9680176 0.2588501 -1.4647522m8.33136 -3.6063843c0.017333984 -2.3260193 -1.2106934 -4.4557495 -3.1566772 -5.4743958m7.4420776 -5.8363037c-0.3151245 0.7920532 -0.79626465 1.4946594 -1.4055786 2.052765m-1.9924316 -9.635681l0 0c0.053649902 0.31985474 0.078552246 0.64450073 0.074157715 0.9694519m-8.312012 -3.3439026l0 0c-0.29437256 0.37265015 -0.53692627 0.789093 -0.72003174 1.2363586m-6.4420166 -0.5067749l0 0c-0.15686035 0.33850098 -0.27404785 0.6966553 -0.34875488 1.0662842m-7.856018 0.2916565l0 0c0.45806885 0.28860474 0.88183594 0.6359558 1.2619629 1.0344543m-11.072571 5.9991455l0 0c0.046569824 0.36846924 0.12023926 0.73239136 0.22021484 1.0883789" fill-rule="evenodd"/><path fill="#b45f06" d="m538.02954 303.6861l0 0c0 -0.28701782 0.23266602 -0.51971436 0.51971436 -0.51971436l2.0787354 0l0 0c0.13781738 0 0.27001953 0.054748535 0.36743164 0.15222168c0.097473145 0.097473145 0.15222168 0.22964478 0.15222168 0.36749268l0 32.09445c0 0.28701782 -0.23266602 0.51971436 -0.5196533 0.51971436l-2.0787354 0c-0.28704834 0 -0.51971436 -0.23269653 -0.51971436 -0.51971436z" fill-rule="evenodd"/><path fill="#b45f06" d="m543.6684 301.9027l0 0c6.1035156E-5 -3.0517578E-5 6.1035156E-5 -3.0517578E-5 6.1035156E-5 -3.0517578E-5l2.7086182 1.3543396c0 0 0 3.0517578E-5 0 3.0517578E-5c0 0 0 0 0 0l-5.6378174 8.566895c0 3.0517578E-5 0 3.0517578E-5 0 3.0517578E-5l-2.7086182 -1.3543396l0 0c0 -3.0517578E-5 -6.1035156E-5 -3.0517578E-5 0 -3.0517578E-5z" fill-rule="evenodd"/><path fill="#fff2cc" d="m211.0269 337.30896l0 -44.049652l17.483139 -17.483154l17.483139 17.483154l0 44.049652z" fill-rule="evenodd"/><path fill="#f9cb9c" d="m166.81773 298.29633l44.3732 0l0 38.94104l-44.3732 0z" fill-rule="evenodd"/><path fill="#cc4125" d="m164.36702 299.2636l22.996918 -24.149567l43.47702 0.9187012l-22.996918 24.149567z" fill-rule="evenodd"/><path fill="#ea9999" d="m224.46938 300.31647l0 0c0 -2.5610962 2.3062286 -4.637268 5.151108 -4.637268l0 0c2.8448944 0 5.151123 2.0761719 5.151123 4.637268l0 0c0 2.5610962 -2.3062286 4.6372375 -5.151123 4.6372375l0 0c-2.8448792 0 -5.151108 -2.0761414 -5.151108 -4.6372375z" fill-rule="evenodd"/><path fill="#666666" d="m-91.99213 336.54068l1107.1182 0l0 60.629913l-1107.1182 0z" fill-rule="evenodd"/><defs><linearGradient id="g9a39d377b2_1_0.11" gradientUnits="userSpaceOnUse" gradientTransform="matrix(7.786778524129656 0.0 0.0 7.786778524129656 0.0 0.0)" spreadMethod="pad" x1="-11.558053143685562" y1="43.14955156810921" x2="-11.55808079377442" y2="50.93633009218978"><stop offset="0.0" stop-color="#8c8c8c"/><stop offset="1.0" stop-color="#404040"/></linearGradient></defs><path fill="url(#g9a39d377b2_1_0.11)" d="m-90.0 336.0l1105.1338 0l0 60.629913l-1105.1338 0z" fill-rule="evenodd"/><path fill="#000000" fill-opacity="0.0" d="m10.753281 365.937l964.126 0" fill-rule="evenodd"/><path stroke="#ffffff" stroke-width="3.0" stroke-linejoin="round" stroke-linecap="butt" stroke-dasharray="24.0,9.0" d="m10.753281 365.937l964.126 0" fill-rule="evenodd"/><path fill="#fff2cc" d="m478.34973 332.67377l0 -44.049652l17.483124 -17.483124l17.483124 17.483124l0 44.049652z" fill-rule="evenodd"/><path fill="#f9cb9c" d="m434.14056 293.66116l44.3732 0l0 38.94104l-44.3732 0z" fill-rule="evenodd"/><path fill="#cc4125" d="m431.68985 294.62845l22.996918 -24.149567l43.47702 0.9187012l-22.996918 24.149536z" fill-rule="evenodd"/><path fill="#ffd966" d="m491.7922 295.6813l0 0c0 -2.5610962 2.306244 -4.637268 5.151123 -4.637268l0 0c2.8448792 0 5.151123 2.0761719 5.151123 4.637268l0 0c0 2.5610657 -2.306244 4.6372375 -5.151123 4.6372375l0 0c-2.8448792 0 -5.151123 -2.0761719 -5.151123 -4.6372375z" fill-rule="evenodd"/><path fill="#999999" d="m-2.4278216 397.1706l960.0 0l0 5.2913513l-960.0 0z" fill-rule="evenodd"/><path stroke="#595959" stroke-width="1.0" stroke-linejoin="round" stroke-linecap="butt" d="m-2.4278216 397.1706l960.0 0l0 5.2913513l-960.0 0z" fill-rule="evenodd"/><path fill="#5c9344" d="m-9.753281 465.55118l980.9134 0l0 15.338593l-980.9134 0z" fill-rule="evenodd"/><defs><linearGradient id="g9a39d377b2_1_0.12" gradientUnits="userSpaceOnUse" gradientTransform="matrix(8.69489585419 0.0 0.0 8.69489585419 0.0 0.0)" spreadMethod="pad" x1="111.3293812325094" y1="62.69797869406553" x2="111.32947556486111" y2="54.00308284038725"><stop offset="0.0" stop-color="#3d85c6"/><stop offset="1.0" stop-color="#70a4d5"/></linearGradient></defs><path fill="url(#g9a39d377b2_1_0.12)" d="m-2.4278216 469.55118l970.4252 0l0 75.590546l-970.4252 0z" fill-rule="evenodd"/><path fill="#e69138" d="m322.74435 516.0111l0 0c0 3.3485107 9.793335 6.0629883 21.874023 6.0629883l0 0c12.080688 0 21.874023 -2.7144775 21.874023 -6.0629883l0 0c0 -3.3485107 -9.793335 -6.063019 -21.874023 -6.063019l0 0c-12.080688 0 -21.874023 2.714508 -21.874023 6.063019z" fill-rule="evenodd"/><path fill="#000000" d="m357.75394 516.82214l0 0c0 0.67840576 0.42303467 1.2283325 0.94488525 1.2283325l0 0c0.25061035 0 0.49093628 -0.12939453 0.66815186 -0.35980225c0.17718506 -0.23034668 0.2767334 -0.54278564 0.2767334 -0.8685303l0 0c0 -0.67840576 -0.42303467 -1.2283936 -0.94488525 -1.2283936l0 0c-0.5218506 0 -0.94488525 0.5499878 -0.94488525 1.2283936z" fill-rule="evenodd"/><path fill="#000000" fill-opacity="0.0" d="m324.35065 518.2757c-0.7993164 2.2495117 -2.8980103 4.2591553 -5.2474365 5.1399536c-0.8417969 0.3156128 -1.9830322 1.2713013 -2.624176 0.6706543c-0.5622864 -0.52679443 0.35577393 -1.5687866 0 -2.2351074c-0.67678833 -1.2675781 -1.1462708 -3.1123047 -0.23858643 -4.246155c1.5539856 -1.9412842 4.80484 -2.2346802 7.3948364 -2.2346802" fill-rule="evenodd"/><path stroke="#cc0000" stroke-width="3.0" stroke-linejoin="round" stroke-linecap="butt" d="m324.35065 518.2757c-0.7993164 2.2495117 -2.8980103 4.2591553 -5.2474365 5.1399536c-0.8417969 0.3156128 -1.9830322 1.2713013 -2.624176 0.6706543c-0.5622864 -0.52679443 0.35577393 -1.5687866 0 -2.2351074c-0.67678833 -1.2675781 -1.1462708 -3.1123047 -0.23858643 -4.246155c1.5539856 -1.9412842 4.80484 -2.2346802 7.3948364 -2.2346802" fill-rule="evenodd"/><path fill="#000000" fill-opacity="0.0" d="m324.35065 514.9642c-0.7993164 -2.2495117 -2.8980103 -4.2591553 -5.2474365 -5.139984c-0.8417969 -0.31558228 -1.9830322 -1.2713013 -2.624176 -0.6706238c-0.5622864 0.52679443 0.35577393 1.5687561 0 2.235077c-0.67678833 1.2676086 -1.1462708 3.1122742 -0.23858643 4.2461853c1.5539856 1.9412842 4.80484 2.2346191 7.3948364 2.2346191" fill-rule="evenodd"/><path stroke="#cc0000" stroke-width="3.0" stroke-linejoin="round" stroke-linecap="butt" d="m324.35065 514.9642c-0.7993164 -2.2495117 -2.8980103 -4.2591553 -5.2474365 -5.139984c-0.8417969 -0.31558228 -1.9830322 -1.2713013 -2.624176 -0.6706238c-0.5622864 0.52679443 0.35577393 1.5687561 0 2.235077c-0.67678833 1.2676086 -1.1462708 3.1122742 -0.23858643 4.2461853c1.5539856 1.9412842 4.80484 2.2346191 7.3948364 2.2346191" fill-rule="evenodd"/><path fill="#e69138" d="m466.74435 492.01108l0 0c0 3.3485107 9.793335 6.063019 21.874023 6.063019l0 0c12.080688 0 21.874023 -2.714508 21.874023 -6.063019l0 0c0 -3.3484802 -9.793335 -6.0629883 -21.874023 -6.0629883l0 0c-12.080688 0 -21.874023 2.714508 -21.874023 6.0629883z" fill-rule="evenodd"/><path fill="#000000" d="m503.6437 492.8221l0 0c0 0.67840576 -0.42303467 1.228363 -0.94488525 1.228363l0 0c-0.25057983 0 -0.49093628 -0.12942505 -0.66812134 -0.35977173c-0.17721558 -0.2303772 -0.27676392 -0.54281616 -0.27676392 -0.8685913l0 0c0 -0.67837524 0.42303467 -1.2283325 0.94488525 -1.2283325l0 0c0.5218506 0 0.94488525 0.5499573 0.94488525 1.2283325z" fill-rule="evenodd"/><path fill="#000000" fill-opacity="0.0" d="m468.35065 494.2757c-0.7993164 2.2495117 -2.8980103 4.2591248 -5.2474365 5.1399536c-0.8417969 0.31558228 -1.9830322 1.2713318 -2.624176 0.6706543c-0.5622864 -0.52682495 0.35577393 -1.5687866 0 -2.235077c-0.67678833 -1.2676086 -1.1462708 -3.1123047 -0.23858643 -4.2461853c1.5539856 -1.9412842 4.80484 -2.2346497 7.3948364 -2.2346497" fill-rule="evenodd"/><path stroke="#cc0000" stroke-width="3.0" stroke-linejoin="round" stroke-linecap="butt" d="m468.35065 494.2757c-0.7993164 2.2495117 -2.8980103 4.2591248 -5.2474365 5.1399536c-0.8417969 0.31558228 -1.9830322 1.2713318 -2.624176 0.6706543c-0.5622864 -0.52682495 0.35577393 -1.5687866 0 -2.235077c-0.67678833 -1.2676086 -1.1462708 -3.1123047 -0.23858643 -4.2461853c1.5539856 -1.9412842 4.80484 -2.2346497 7.3948364 -2.2346497" fill-rule="evenodd"/><path fill="#000000" fill-opacity="0.0" d="m468.35065 490.96417c-0.7993164 -2.2495117 -2.8980103 -4.2591553 -5.2474365 -5.139984c-0.8417969 -0.31558228 -1.9830322 -1.2713013 -2.624176 -0.6706238c-0.5622864 0.52679443 0.35577393 1.5687561 0 2.235077c-0.67678833 1.2675781 -1.1462708 3.1122742 -0.23858643 4.246155c1.5539856 1.9412842 4.80484 2.2346802 7.3948364 2.2346802" fill-rule="evenodd"/><path stroke="#cc0000" stroke-width="3.0" stroke-linejoin="round" stroke-linecap="butt" d="m468.35065 490.96417c-0.7993164 -2.2495117 -2.8980103 -4.2591553 -5.2474365 -5.139984c-0.8417969 -0.31558228 -1.9830322 -1.2713013 -2.624176 -0.6706238c-0.5622864 0.52679443 0.35577393 1.5687561 0 2.235077c-0.67678833 1.2675781 -1.1462708 3.1122742 -0.23858643 4.246155c1.5539856 1.9412842 4.80484 2.2346802 7.3948364 2.2346802" fill-rule="evenodd"/><path fill="#4782b8" fill-opacity="0.3838" d="m-2.0 485.7l0 0c0 5.909424 108.61854 10.699982 242.6063 10.699982c133.98776 0 242.6063 -4.790558 242.6063 -10.699982l0 0c0 -5.9094543 108.61853 -10.700012 242.60632 -10.700012c133.98773 0 242.60626 4.790558 242.60626 10.700012l0 85.599976c0 -5.909424 -108.61853 -10.700012 -242.60626 -10.700012c-133.9878 0 -242.60632 4.7905884 -242.60632 10.700012c0 5.909485 -108.61853 10.700012 -242.6063 10.700012c-133.98776 0 -242.6063 -4.7905273 -242.6063 -10.700012z" fill-rule="evenodd"/><path fill="#e69138" d="m202.74435 492.01108l0 0c0 3.3485107 9.793335 6.063019 21.874023 6.063019l0 0c12.080688 0 21.874008 -2.714508 21.874008 -6.063019l0 0c0 -3.3484802 -9.79332 -6.0629883 -21.874008 -6.0629883l0 0c-12.080688 0 -21.874023 2.714508 -21.874023 6.0629883z" fill-rule="evenodd"/><path fill="#000000" d="m237.75395 492.8221l0 0c0 0.67840576 0.42303467 1.228363 0.94487 1.228363l0 0c0.25061035 0 0.49093628 -0.12942505 0.6681366 -0.35977173c0.17720032 -0.2303772 0.27674866 -0.54281616 0.27674866 -0.8685913l0 0c0 -0.67837524 -0.42303467 -1.2283325 -0.94488525 -1.2283325l0 0c-0.5218353 0 -0.94487 0.5499573 -0.94487 1.2283325z" fill-rule="evenodd"/><path fill="#000000" fill-opacity="0.0" d="m204.35065 494.2757c-0.7993164 2.2495117 -2.8980255 4.2591248 -5.2474365 5.1399536c-0.8417816 0.31558228 -1.9830475 1.2713318 -2.6241608 0.6706543c-0.5622864 -0.52682495 0.3557434 -1.5687866 0 -2.235077c-0.6768036 -1.2676086 -1.146286 -3.1123047 -0.23860168 -4.2461853c1.5539856 -1.9412842 4.8048553 -2.2346497 7.3948517 -2.2346497" fill-rule="evenodd"/><path stroke="#cc0000" stroke-width="3.0" stroke-linejoin="round" stroke-linecap="butt" d="m204.35065 494.2757c-0.7993164 2.2495117 -2.8980255 4.2591248 -5.2474365 5.1399536c-0.8417816 0.31558228 -1.9830475 1.2713318 -2.6241608 0.6706543c-0.5622864 -0.52682495 0.3557434 -1.5687866 0 -2.235077c-0.6768036 -1.2676086 -1.146286 -3.1123047 -0.23860168 -4.2461853c1.5539856 -1.9412842 4.8048553 -2.2346497 7.3948517 -2.2346497" fill-rule="evenodd"/><path fill="#000000" fill-opacity="0.0" d="m204.35065 490.96417c-0.7993164 -2.2495117 -2.8980255 -4.2591553 -5.2474365 -5.139984c-0.8417816 -0.31558228 -1.9830475 -1.2713013 -2.6241608 -0.6706238c-0.5622864 0.52679443 0.3557434 1.5687561 0 2.235077c-0.6768036 1.2675781 -1.146286 3.1122742 -0.23860168 4.246155c1.5539856 1.9412842 4.8048553 2.2346802 7.3948517 2.2346802" fill-rule="evenodd"/><path stroke="#cc0000" stroke-width="3.0" stroke-linejoin="round" stroke-linecap="butt" d="m204.35065 490.96417c-0.7993164 -2.2495117 -2.8980255 -4.2591553 -5.2474365 -5.139984c-0.8417816 -0.31558228 -1.9830475 -1.2713013 -2.6241608 -0.6706238c-0.5622864 0.52679443 0.3557434 1.5687561 0 2.235077c-0.6768036 1.2675781 -1.146286 3.1122742 -0.23860168 4.246155c1.5539856 1.9412842 4.8048553 2.2346802 7.3948517 2.2346802" fill-rule="evenodd"/><path fill="#e69138" d="m538.7444 516.0111l0 0c0 3.3485107 9.793274 6.0629883 21.873962 6.0629883l0 0c12.080688 0 21.874023 -2.7144775 21.874023 -6.0629883l0 0c0 -3.3485107 -9.793335 -6.063019 -21.874023 -6.063019l0 0c-12.080688 0 -21.873962 2.714508 -21.873962 6.063019z" fill-rule="evenodd"/><path fill="#000000" d="m573.75397 516.82214l0 0c0 0.67840576 0.42303467 1.2283325 0.94488525 1.2283325l0 0c0.25054932 0 0.49090576 -0.12939453 0.6680908 -0.35980225c0.1772461 -0.23034668 0.27679443 -0.54278564 0.27679443 -0.8685303l0 0c0 -0.67840576 -0.4230957 -1.2283936 -0.94488525 -1.2283936l0 0c-0.5218506 0 -0.94488525 0.5499878 -0.94488525 1.2283936z" fill-rule="evenodd"/><path fill="#000000" fill-opacity="0.0" d="m540.35065 518.2757c-0.7993164 2.2495117 -2.8980103 4.2591553 -5.2474365 5.1399536c-0.8417969 0.3156128 -1.9830322 1.2713013 -2.6241455 0.6706543c-0.5623169 -0.52679443 0.3557129 -1.5687866 0 -2.2351074c-0.67681885 -1.2675781 -1.1463013 -3.1123047 -0.23864746 -4.246155c1.5540161 -1.9412842 4.8048706 -2.2346802 7.3948975 -2.2346802" fill-rule="evenodd"/><path stroke="#cc0000" stroke-width="3.0" stroke-linejoin="round" stroke-linecap="butt" d="m540.35065 518.2757c-0.7993164 2.2495117 -2.8980103 4.2591553 -5.2474365 5.1399536c-0.8417969 0.3156128 -1.9830322 1.2713013 -2.6241455 0.6706543c-0.5623169 -0.52679443 0.3557129 -1.5687866 0 -2.2351074c-0.67681885 -1.2675781 -1.1463013 -3.1123047 -0.23864746 -4.246155c1.5540161 -1.9412842 4.8048706 -2.2346802 7.3948975 -2.2346802" fill-rule="evenodd"/><path fill="#000000" fill-opacity="0.0" d="m540.35065 514.9642c-0.7993164 -2.2495117 -2.8980103 -4.2591553 -5.2474365 -5.139984c-0.8417969 -0.31558228 -1.9830322 -1.2713013 -2.6241455 -0.6706238c-0.5623169 0.52679443 0.3557129 1.5687561 0 2.235077c-0.67681885 1.2676086 -1.1463013 3.1122742 -0.23864746 4.2461853c1.5540161 1.9412842 4.8048706 2.2346191 7.3948975 2.2346191" fill-rule="evenodd"/><path stroke="#cc0000" stroke-width="3.0" stroke-linejoin="round" stroke-linecap="butt" d="m540.35065 514.9642c-0.7993164 -2.2495117 -2.8980103 -4.2591553 -5.2474365 -5.139984c-0.8417969 -0.31558228 -1.9830322 -1.2713013 -2.6241455 -0.6706238c-0.5623169 0.52679443 0.3557129 1.5687561 0 2.235077c-0.67681885 1.2676086 -1.1463013 3.1122742 -0.23864746 4.2461853c1.5540161 1.9412842 4.8048706 2.2346191 7.3948975 2.2346191" fill-rule="evenodd"/><path fill="#e69138" d="m759.4695 508.01108l0 0c0 3.3485107 -9.793335 6.063019 -21.874023 6.063019l0 0c-12.080688 0 -21.874023 -2.714508 -21.874023 -6.063019l0 0c0 -3.3484802 9.793335 -6.0629883 21.874023 -6.0629883l0 0c12.080688 0 21.874023 2.714508 21.874023 6.0629883z" fill-rule="evenodd"/><path fill="#000000" d="m724.4599 508.8221l0 0c0 0.67840576 -0.42303467 1.228363 -0.94488525 1.228363l0 0c-0.25061035 0 -0.4909668 -0.12942505 -0.66815186 -0.35977173c-0.17718506 -0.2303772 -0.2767334 -0.54281616 -0.2767334 -0.8685913l0 0c0 -0.67837524 0.42303467 -1.2283325 0.94488525 -1.2283325l0 0c0.5218506 0 0.94488525 0.5499573 0.94488525 1.2283325z" fill-rule="evenodd"/><path fill="#000000" fill-opacity="0.0" d="m757.8632 510.2757c0.7993164 2.2495117 2.8980103 4.2591553 5.2474365 5.1399536c0.84173584 0.3156128 1.9830322 1.2713013 2.6241455 0.6706543c0.56225586 -0.52679443 -0.35577393 -1.5687866 0 -2.2351074c0.6767578 -1.2675781 1.1462402 -3.1122742 0.23858643 -4.246155c-1.5540161 -1.9412842 -4.8048706 -2.2346497 -7.3948364 -2.2346497" fill-rule="evenodd"/><path stroke="#cc0000" stroke-width="3.0" stroke-linejoin="round" stroke-linecap="butt" d="m757.8632 510.2757c0.7993164 2.2495117 2.8980103 4.2591553 5.2474365 5.1399536c0.84173584 0.3156128 1.9830322 1.2713013 2.6241455 0.6706543c0.56225586 -0.52679443 -0.35577393 -1.5687866 0 -2.2351074c0.6767578 -1.2675781 1.1462402 -3.1122742 0.23858643 -4.246155c-1.5540161 -1.9412842 -4.8048706 -2.2346497 -7.3948364 -2.2346497" fill-rule="evenodd"/><path fill="#000000" fill-opacity="0.0" d="m757.8632 506.96417c0.7993164 -2.2495117 2.8980103 -4.2591553 5.2474365 -5.139984c0.84173584 -0.31558228 1.9830322 -1.2713013 2.6241455 -0.6706238c0.56225586 0.52679443 -0.35577393 1.5687561 0 2.235077c0.6767578 1.2675781 1.1462402 3.1122742 0.23858643 4.246155c-1.5540161 1.9412842 -4.8048706 2.2346802 -7.3948364 2.2346802" fill-rule="evenodd"/><path stroke="#cc0000" stroke-width="3.0" stroke-linejoin="round" stroke-linecap="butt" d="m757.8632 506.96417c0.7993164 -2.2495117 2.8980103 -4.2591553 5.2474365 -5.139984c0.84173584 -0.31558228 1.9830322 -1.2713013 2.6241455 -0.6706238c0.56225586 0.52679443 -0.35577393 1.5687561 0 2.235077c0.6767578 1.2675781 1.1462402 3.1122742 0.23858643 4.246155c-1.5540161 1.9412842 -4.8048706 2.2346802 -7.3948364 2.2346802" fill-rule="evenodd"/><path fill="#4782b8" fill-opacity="0.3838" d="m968.4252 485.7l0 0c0 5.909424 -108.61853 10.699982 -242.60626 10.699982c-133.9878 0 -242.60632 -4.790558 -242.60632 -10.699982l0 0c0 -5.9094543 -108.61853 -10.700012 -242.6063 -10.700012c-133.98776 0 -242.6063 4.790558 -242.6063 10.700012l0 85.599976c0 -5.909424 108.61854 -10.700012 242.6063 -10.700012c133.98776 0 242.6063 4.7905884 242.6063 10.700012c0 5.909485 108.61853 10.700012 242.60632 10.700012c133.98773 0 242.60626 -4.7905273 242.60626 -10.700012z" fill-rule="evenodd"/><defs><radialGradient id="g9a39d377b2_1_0.13" gradientUnits="userSpaceOnUse" gradientTransform="matrix(9.928084274696985 0.0 0.0 9.928084274696985 0.0 0.0)" spreadMethod="pad" cx="21.15132387820722" cy="8.779939471785468" fx="21.15132387820722" fy="8.779939471785468" r="9.928084373474121"><stop offset="0.0" stop-color="#ffd966" stop-opacity="0.6745098"/><stop offset="0.71" stop-color="#ffd966" stop-opacity="0.0"/><stop offset="0.71000004" stop-color="#ffffff" stop-opacity="0.0"/><stop offset="1.0" stop-color="#ffffff" stop-opacity="0.0"/></radialGradient></defs><path fill="url(#g9a39d377b2_1_0.13)" d="m139.0 87.16798l0 0c0 -37.7641 31.784256 -68.37795 70.99213 -68.37795l0 0c18.828278 0 36.885406 7.2040863 50.199005 20.027441c13.313629 12.823353 20.793121 30.215553 20.793121 48.35051l0 0c0 37.764107 -31.784256 68.37795 -70.99213 68.37795l0 0c-39.20787 0 -70.99213 -30.613846 -70.99213 -68.37795z" fill-rule="evenodd"/></g></svg>