<?xml version="1.0" encoding="utf-8"?>
<!-- Generator: Adobe Illustrator 24.3.0, SVG Export Plug-In . SVG Version: 6.00 Build 0)  -->
<svg version="1.1" id="Calque_1" xmlns="http://www.w3.org/2000/svg" xmlns:xlink="http://www.w3.org/1999/xlink" x="0px" y="0px"
	 viewBox="0 0 960 540" style="enable-background:new 0 0 960 540;" xml:space="preserve">
<style type="text/css">
	.st0{fill-rule:evenodd;clip-rule:evenodd;fill:#F1C232;}
	.st1{fill-rule:evenodd;clip-rule:evenodd;fill:#660000;}
	.st2{fill-rule:evenodd;clip-rule:evenodd;fill:url(#SVGID_1_);}
	.st3{fill-rule:evenodd;clip-rule:evenodd;}
	.st4{fill-rule:evenodd;clip-rule:evenodd;fill:#434343;}
	.st5{fill-rule:evenodd;clip-rule:evenodd;fill:#666666;}
	.st6{fill-rule:evenodd;clip-rule:evenodd;fill:#0C282D;stroke:#FFFFFF;stroke-miterlimit:10;}
	.st7{fill-rule:evenodd;clip-rule:evenodd;fill-opacity:0;}
	.st8{fill-rule:evenodd;clip-rule:evenodd;fill:#434343;stroke:#595959;stroke-miterlimit:10;}
	.st9{fill:none;}
	.st10{fill:#FFFFFF;}
	.st11{font-family:'Andika-Regular';}
	.st12{font-size:8px;}
	.st13{font-size:16px;}
	.st14{font-size:9px;}
	.st15{font-size:5.247px;}
	.st16{font-size:7px;}
	.st17{letter-spacing:3;}
	.st18{font-size:10px;}
	.st19{letter-spacing:5;}
	.st20{letter-spacing:7;}
	.st21{letter-spacing:1;}
	.st22{letter-spacing:14;}
	.st23{fill-rule:evenodd;clip-rule:evenodd;fill:#999999;}
</style>
<path class="st0" d="M-7.5-5.9h972.1V559H-7.5V-5.9z"/>
<path class="st1" d="M0,409.5h960v25.6H0V409.5z"/>
<radialGradient id="SVGID_1_" cx="-87.8707" cy="767.7366" r="21.932" gradientTransform="matrix(21.9327 0 0 -21.9327 2407.2415 17216.3867)" gradientUnits="userSpaceOnUse">
	<stop  offset="0" style="stop-color:#DB0000"/>
	<stop  offset="1" style="stop-color:#540303"/>
</radialGradient>
<path class="st2" d="M0,409.5l104-63.3h752l104,63.3H0z"/>
<path class="st3" d="M102.3,5.1h756.8v341.2H102.3V5.1z"/>
<path class="st4" d="M109.4,299.3h51.7v86.1h-51.7C109.4,385.4,109.4,299.3,109.4,299.3z"/>
<path class="st4" d="M102.3,383.2h65.9v11.1h-65.9C102.3,394.3,102.3,383.2,102.3,383.2z"/>
<path class="st4" d="M102.3,294.3h65.9v11.1h-65.9C102.3,305.4,102.3,294.3,102.3,294.3z"/>
<path class="st5" d="M116.6,308.5H154v71.6h-37.4V308.5z"/>
<path class="st6" d="M578.1,43.6h281V326h-281V43.6z"/>
<path class="st7" d="M591.7,284.2h144.9v11.1H591.7V284.2z"/>
<g>
	<g>
		<g>
			<path class="st8" d="M116.4,443.6L116.4,443.6c0-3.4,2.8-6.2,6.2-6.2h24.9l0,0c1.7,0,3.2,0.7,4.4,1.8c1.2,1.2,1.8,2.8,1.8,4.4
				v33.9c0,3.4-2.8,6.2-6.2,6.2h-24.9c-3.4,0-6.2-2.8-6.2-6.2V443.6z"/>
			<path class="st8" d="M805.8,443.6L805.8,443.6c0-3.4,2.8-6.2,6.2-6.2h25l0,0c1.7,0,3.2,0.7,4.4,1.8c1.2,1.2,1.8,2.8,1.8,4.4v33.9
				c0,3.4-2.8,6.2-6.2,6.2h-25c-3.4,0-6.2-2.8-6.2-6.2V443.6z"/>
			<path class="st8" d="M752.8,443.6L752.8,443.6c0-3.4,2.8-6.2,6.2-6.2h24.9l0,0c1.7,0,3.2,0.7,4.4,1.8c1.2,1.2,1.8,2.8,1.8,4.4
				v33.9c0,3.4-2.8,6.2-6.2,6.2H759c-3.4,0-6.2-2.8-6.2-6.2V443.6z"/>
			<path class="st8" d="M699.8,443.6L699.8,443.6c0-3.4,2.8-6.2,6.2-6.2h24.9l0,0c1.7,0,3.2,0.7,4.4,1.8s1.8,2.8,1.8,4.4v33.9
				c0,3.4-2.8,6.2-6.2,6.2H706c-3.4,0-6.2-2.8-6.2-6.2V443.6z"/>
			<path class="st8" d="M646.7,443.6L646.7,443.6c0-3.4,2.8-6.2,6.2-6.2h24.9l0,0c1.7,0,3.2,0.7,4.4,1.8c1.2,1.2,1.8,2.8,1.8,4.4
				v33.9c0,3.4-2.8,6.2-6.2,6.2H653c-3.4,0-6.2-2.8-6.2-6.2L646.7,443.6L646.7,443.6z"/>
			<path class="st8" d="M593.7,443.6L593.7,443.6c0-3.4,2.8-6.2,6.2-6.2h24.9l0,0c1.7,0,3.2,0.7,4.4,1.8c1.2,1.2,1.8,2.8,1.8,4.4
				v33.9c0,3.4-2.8,6.2-6.2,6.2h-24.9c-3.4,0-6.2-2.8-6.2-6.2V443.6z"/>
			<path class="st8" d="M540.7,443.6L540.7,443.6c0-3.4,2.8-6.2,6.2-6.2h24.9l0,0c1.7,0,3.2,0.7,4.4,1.8s1.8,2.8,1.8,4.4v33.9
				c0,3.4-2.8,6.2-6.2,6.2h-24.9c-3.4,0-6.2-2.8-6.2-6.2V443.6z"/>
			<path class="st8" d="M487.6,443.6L487.6,443.6c0-3.4,2.8-6.2,6.2-6.2h24.9l0,0c1.7,0,3.2,0.7,4.4,1.8c1.2,1.2,1.8,2.8,1.8,4.4
				v33.9c0,3.4-2.8,6.2-6.2,6.2h-24.9c-3.4,0-6.2-2.8-6.2-6.2V443.6z"/>
			<path class="st8" d="M434.6,443.6L434.6,443.6c0-3.4,2.8-6.2,6.2-6.2h24.9l0,0c1.7,0,3.2,0.7,4.4,1.8s1.8,2.8,1.8,4.4v33.9
				c0,3.4-2.8,6.2-6.2,6.2h-24.9c-3.4,0-6.2-2.8-6.2-6.2L434.6,443.6L434.6,443.6z"/>
			<path class="st8" d="M381.6,443.6L381.6,443.6c0-3.4,2.8-6.2,6.2-6.2h24.9l0,0c1.7,0,3.2,0.7,4.4,1.8s1.8,2.8,1.8,4.4v33.9
				c0,3.4-2.8,6.2-6.2,6.2h-24.9c-3.4,0-6.2-2.8-6.2-6.2L381.6,443.6L381.6,443.6z"/>
			<path class="st8" d="M328.6,443.6L328.6,443.6c0-3.4,2.8-6.2,6.2-6.2h24.9l0,0c1.7,0,3.2,0.7,4.4,1.8c1.2,1.2,1.8,2.8,1.8,4.4
				v33.9c0,3.4-2.8,6.2-6.2,6.2h-24.9c-3.4,0-6.2-2.8-6.2-6.2L328.6,443.6L328.6,443.6z"/>
			<path class="st8" d="M275.5,443.6L275.5,443.6c0-3.4,2.8-6.2,6.2-6.2h24.9l0,0c1.7,0,3.2,0.7,4.4,1.8s1.8,2.8,1.8,4.4v33.9
				c0,3.4-2.8,6.2-6.2,6.2h-24.9c-3.4,0-6.2-2.8-6.2-6.2L275.5,443.6L275.5,443.6z"/>
			<path class="st8" d="M222.5,443.6L222.5,443.6c0-3.4,2.8-6.2,6.2-6.2h24.9l0,0c1.7,0,3.2,0.7,4.4,1.8c1.2,1.2,1.8,2.8,1.8,4.4
				v33.9c0,3.4-2.8,6.2-6.2,6.2h-24.9c-3.4,0-6.2-2.8-6.2-6.2V443.6z"/>
			<path class="st8" d="M169.5,443.6L169.5,443.6c0-3.4,2.8-6.2,6.2-6.2h24.9l0,0c1.7,0,3.2,0.7,4.4,1.8c1.2,1.2,1.8,2.8,1.8,4.4
				v33.9c0,3.4-2.8,6.2-6.2,6.2h-24.9c-3.4,0-6.2-2.8-6.2-6.2V443.6z"/>
		</g>
		<g>
			<path class="st8" d="M779.3,460.2L779.3,460.2c0-3.4,2.8-6.2,6.2-6.2h24.9l0,0c1.7,0,3.2,0.7,4.4,1.8s1.8,2.8,1.8,4.4v33.9
				c0,3.4-2.8,6.2-6.2,6.2h-24.9c-3.4,0-6.2-2.8-6.2-6.2V460.2z"/>
			<path class="st8" d="M726.3,460.2L726.3,460.2c0-3.4,2.8-6.2,6.2-6.2h24.9l0,0c1.7,0,3.2,0.7,4.4,1.8c1.2,1.2,1.8,2.8,1.8,4.4
				v33.9c0,3.4-2.8,6.2-6.2,6.2h-24.9c-3.4,0-6.2-2.8-6.2-6.2V460.2z"/>
			<path class="st8" d="M673.3,460.2L673.3,460.2c0-3.4,2.8-6.2,6.2-6.2h24.9l0,0c1.7,0,3.2,0.7,4.4,1.8c1.2,1.2,1.8,2.8,1.8,4.4
				v33.9c0,3.4-2.8,6.2-6.2,6.2h-24.9c-3.4,0-6.2-2.8-6.2-6.2V460.2z"/>
			<path class="st8" d="M620.3,460.2L620.3,460.2c0-3.4,2.8-6.2,6.2-6.2h24.9l0,0c1.7,0,3.2,0.7,4.4,1.8c1.2,1.2,1.8,2.8,1.8,4.4
				v33.9c0,3.4-2.8,6.2-6.2,6.2h-24.9c-3.4,0-6.2-2.8-6.2-6.2V460.2z"/>
			<path class="st8" d="M567.3,460.2L567.3,460.2c0-3.4,2.8-6.2,6.2-6.2h24.9l0,0c1.7,0,3.2,0.7,4.4,1.8c1.2,1.2,1.8,2.8,1.8,4.4
				v33.9c0,3.4-2.8,6.2-6.2,6.2h-24.9c-3.4,0-6.2-2.8-6.2-6.2V460.2z"/>
			<path class="st8" d="M514.3,460.2L514.3,460.2c0-3.4,2.8-6.2,6.2-6.2h24.9l0,0c1.7,0,3.2,0.7,4.4,1.8c1.2,1.2,1.8,2.8,1.8,4.4
				v33.9c0,3.4-2.8,6.2-6.2,6.2h-24.9c-3.4,0-6.2-2.8-6.2-6.2V460.2z"/>
			<path class="st8" d="M461.3,460.2L461.3,460.2c0-3.4,2.8-6.2,6.2-6.2h24.9l0,0c1.7,0,3.2,0.7,4.4,1.8c1.2,1.2,1.8,2.8,1.8,4.4
				v33.9c0,3.4-2.8,6.2-6.2,6.2h-24.9c-3.4,0-6.2-2.8-6.2-6.2L461.3,460.2L461.3,460.2z"/>
			<path class="st8" d="M408.3,460.2L408.3,460.2c0-3.4,2.8-6.2,6.2-6.2h24.9l0,0c1.7,0,3.2,0.7,4.4,1.8s1.8,2.8,1.8,4.4v33.9
				c0,3.4-2.8,6.2-6.2,6.2h-24.9c-3.4,0-6.2-2.8-6.2-6.2L408.3,460.2L408.3,460.2z"/>
			<path class="st8" d="M355.3,460.2L355.3,460.2c0-3.4,2.8-6.2,6.2-6.2h24.9l0,0c1.7,0,3.2,0.7,4.4,1.8c1.2,1.2,1.8,2.8,1.8,4.4
				v33.9c0,3.4-2.8,6.2-6.2,6.2h-24.9c-3.4,0-6.2-2.8-6.2-6.2L355.3,460.2L355.3,460.2z"/>
			<path class="st8" d="M302.3,460.2L302.3,460.2c0-3.4,2.8-6.2,6.2-6.2h24.9l0,0c1.7,0,3.2,0.7,4.4,1.8c1.2,1.2,1.8,2.8,1.8,4.4
				v33.9c0,3.4-2.8,6.2-6.2,6.2h-24.9c-3.4,0-6.2-2.8-6.2-6.2L302.3,460.2L302.3,460.2z"/>
			<path class="st8" d="M249.3,460.2L249.3,460.2c0-3.4,2.8-6.2,6.2-6.2h24.9l0,0c1.7,0,3.2,0.7,4.4,1.8s1.8,2.8,1.8,4.4v33.9
				c0,3.4-2.8,6.2-6.2,6.2h-24.9c-3.4,0-6.2-2.8-6.2-6.2L249.3,460.2L249.3,460.2z"/>
			<path class="st8" d="M832.3,460.2L832.3,460.2c0-3.4,2.8-6.2,6.2-6.2h24.9l0,0c1.7,0,3.2,0.7,4.4,1.8s1.8,2.8,1.8,4.4v33.9
				c0,3.4-2.8,6.2-6.2,6.2h-24.9c-3.4,0-6.2-2.8-6.2-6.2V460.2z"/>
			<path class="st8" d="M196.3,460.2L196.3,460.2c0-3.4,2.8-6.2,6.2-6.2h24.9l0,0c1.7,0,3.2,0.7,4.4,1.8c1.2,1.2,1.8,2.8,1.8,4.4
				v33.9c0,3.4-2.8,6.2-6.2,6.2h-24.9c-3.4,0-6.2-2.8-6.2-6.2V460.2z"/>
			<path class="st8" d="M90.3,460.2L90.3,460.2c0-3.4,2.8-6.2,6.2-6.2h24.9l0,0c1.7,0,3.2,0.7,4.4,1.8c1.2,1.2,1.8,2.8,1.8,4.4v33.9
				c0,3.4-2.8,6.2-6.2,6.2H96.5c-3.4,0-6.2-2.8-6.2-6.2V460.2z"/>
			<path class="st8" d="M143.3,460.2L143.3,460.2c0-3.4,2.8-6.2,6.2-6.2h24.9l0,0c1.7,0,3.2,0.7,4.4,1.8c1.2,1.2,1.8,2.8,1.8,4.4
				v33.9c0,3.4-2.8,6.2-6.2,6.2h-24.9c-3.4,0-6.2-2.8-6.2-6.2V460.2z"/>
		</g>
	</g>
	<g>
		<g>
			<path class="st8" d="M116.4,474.4L116.4,474.4c0-3.4,2.8-6.2,6.2-6.2h24.9l0,0c1.7,0,3.2,0.7,4.4,1.8c1.2,1.2,1.8,2.8,1.8,4.4
				v33.9c0,3.4-2.8,6.2-6.2,6.2h-24.9c-3.4,0-6.2-2.8-6.2-6.2V474.4z"/>
			<path class="st8" d="M805.8,474.4L805.8,474.4c0-3.4,2.8-6.2,6.2-6.2h25l0,0c1.7,0,3.2,0.7,4.4,1.8c1.2,1.2,1.8,2.8,1.8,4.4v33.9
				c0,3.4-2.8,6.2-6.2,6.2h-25c-3.4,0-6.2-2.8-6.2-6.2V474.4z"/>
			<path class="st8" d="M752.8,474.4L752.8,474.4c0-3.4,2.8-6.2,6.2-6.2h24.9l0,0c1.7,0,3.2,0.7,4.4,1.8c1.2,1.2,1.8,2.8,1.8,4.4
				v33.9c0,3.4-2.8,6.2-6.2,6.2H759c-3.4,0-6.2-2.8-6.2-6.2V474.4z"/>
			<path class="st8" d="M699.8,474.4L699.8,474.4c0-3.4,2.8-6.2,6.2-6.2h24.9l0,0c1.7,0,3.2,0.7,4.4,1.8s1.8,2.8,1.8,4.4v33.9
				c0,3.4-2.8,6.2-6.2,6.2H706c-3.4,0-6.2-2.8-6.2-6.2V474.4z"/>
			<path class="st8" d="M646.7,474.4L646.7,474.4c0-3.4,2.8-6.2,6.2-6.2h24.9l0,0c1.7,0,3.2,0.7,4.4,1.8c1.2,1.2,1.8,2.8,1.8,4.4
				v33.9c0,3.4-2.8,6.2-6.2,6.2H653c-3.4,0-6.2-2.8-6.2-6.2L646.7,474.4L646.7,474.4z"/>
			<path class="st8" d="M593.7,474.4L593.7,474.4c0-3.4,2.8-6.2,6.2-6.2h24.9l0,0c1.7,0,3.2,0.7,4.4,1.8c1.2,1.2,1.8,2.8,1.8,4.4
				v33.9c0,3.4-2.8,6.2-6.2,6.2h-24.9c-3.4,0-6.2-2.8-6.2-6.2V474.4z"/>
			<path class="st8" d="M540.7,474.4L540.7,474.4c0-3.4,2.8-6.2,6.2-6.2h24.9l0,0c1.7,0,3.2,0.7,4.4,1.8s1.8,2.8,1.8,4.4v33.9
				c0,3.4-2.8,6.2-6.2,6.2h-24.9c-3.4,0-6.2-2.8-6.2-6.2V474.4z"/>
			<path class="st8" d="M487.6,474.4L487.6,474.4c0-3.4,2.8-6.2,6.2-6.2h24.9l0,0c1.7,0,3.2,0.7,4.4,1.8c1.2,1.2,1.8,2.8,1.8,4.4
				v33.9c0,3.4-2.8,6.2-6.2,6.2h-24.9c-3.4,0-6.2-2.8-6.2-6.2V474.4z"/>
			<path class="st8" d="M434.6,474.4L434.6,474.4c0-3.4,2.8-6.2,6.2-6.2h24.9l0,0c1.7,0,3.2,0.7,4.4,1.8s1.8,2.8,1.8,4.4v33.9
				c0,3.4-2.8,6.2-6.2,6.2h-24.9c-3.4,0-6.2-2.8-6.2-6.2L434.6,474.4L434.6,474.4z"/>
			<path class="st8" d="M381.6,474.4L381.6,474.4c0-3.4,2.8-6.2,6.2-6.2h24.9l0,0c1.7,0,3.2,0.7,4.4,1.8s1.8,2.8,1.8,4.4v33.9
				c0,3.4-2.8,6.2-6.2,6.2h-24.9c-3.4,0-6.2-2.8-6.2-6.2L381.6,474.4L381.6,474.4z"/>
			<path class="st8" d="M328.6,474.4L328.6,474.4c0-3.4,2.8-6.2,6.2-6.2h24.9l0,0c1.7,0,3.2,0.7,4.4,1.8c1.2,1.2,1.8,2.8,1.8,4.4
				v33.9c0,3.4-2.8,6.2-6.2,6.2h-24.9c-3.4,0-6.2-2.8-6.2-6.2L328.6,474.4L328.6,474.4z"/>
			<path class="st8" d="M275.5,474.4L275.5,474.4c0-3.4,2.8-6.2,6.2-6.2h24.9l0,0c1.7,0,3.2,0.7,4.4,1.8s1.8,2.8,1.8,4.4v33.9
				c0,3.4-2.8,6.2-6.2,6.2h-24.9c-3.4,0-6.2-2.8-6.2-6.2L275.5,474.4L275.5,474.4z"/>
			<path class="st8" d="M222.5,474.4L222.5,474.4c0-3.4,2.8-6.2,6.2-6.2h24.9l0,0c1.7,0,3.2,0.7,4.4,1.8c1.2,1.2,1.8,2.8,1.8,4.4
				v33.9c0,3.4-2.8,6.2-6.2,6.2h-24.9c-3.4,0-6.2-2.8-6.2-6.2V474.4z"/>
			<path class="st8" d="M169.5,474.4L169.5,474.4c0-3.4,2.8-6.2,6.2-6.2h24.9l0,0c1.7,0,3.2,0.7,4.4,1.8c1.2,1.2,1.8,2.8,1.8,4.4
				v33.9c0,3.4-2.8,6.2-6.2,6.2h-24.9c-3.4,0-6.2-2.8-6.2-6.2V474.4z"/>
		</g>
		<g>
			<path class="st8" d="M779.3,491L779.3,491c0-3.4,2.8-6.2,6.2-6.2h24.9l0,0c1.7,0,3.2,0.7,4.4,1.8s1.8,2.8,1.8,4.4v34
				c0,3.4-2.8,6.2-6.2,6.2h-24.9c-3.4,0-6.2-2.8-6.2-6.2V491z"/>
			<path class="st8" d="M726.3,491L726.3,491c0-3.4,2.8-6.2,6.2-6.2h24.9l0,0c1.7,0,3.2,0.7,4.4,1.8c1.2,1.2,1.8,2.8,1.8,4.4v34
				c0,3.4-2.8,6.2-6.2,6.2h-24.9c-3.4,0-6.2-2.8-6.2-6.2V491z"/>
			<path class="st8" d="M673.3,491L673.3,491c0-3.4,2.8-6.2,6.2-6.2h24.9l0,0c1.7,0,3.2,0.7,4.4,1.8c1.2,1.2,1.8,2.8,1.8,4.4v34
				c0,3.4-2.8,6.2-6.2,6.2h-24.9c-3.4,0-6.2-2.8-6.2-6.2V491z"/>
			<path class="st8" d="M620.3,491L620.3,491c0-3.4,2.8-6.2,6.2-6.2h24.9l0,0c1.7,0,3.2,0.7,4.4,1.8c1.2,1.2,1.8,2.8,1.8,4.4v34
				c0,3.4-2.8,6.2-6.2,6.2h-24.9c-3.4,0-6.2-2.8-6.2-6.2V491z"/>
			<path class="st8" d="M567.3,491L567.3,491c0-3.4,2.8-6.2,6.2-6.2h24.9l0,0c1.7,0,3.2,0.7,4.4,1.8c1.2,1.2,1.8,2.8,1.8,4.4v34
				c0,3.4-2.8,6.2-6.2,6.2h-24.9c-3.4,0-6.2-2.8-6.2-6.2V491z"/>
			<path class="st8" d="M514.3,491L514.3,491c0-3.4,2.8-6.2,6.2-6.2h24.9l0,0c1.7,0,3.2,0.7,4.4,1.8c1.2,1.2,1.8,2.8,1.8,4.4v34
				c0,3.4-2.8,6.2-6.2,6.2h-24.9c-3.4,0-6.2-2.8-6.2-6.2V491z"/>
			<path class="st8" d="M461.3,491L461.3,491c0-3.4,2.8-6.2,6.2-6.2h24.9l0,0c1.7,0,3.2,0.7,4.4,1.8s1.8,2.8,1.8,4.4v34
				c0,3.4-2.8,6.2-6.2,6.2h-24.9c-3.4,0-6.2-2.8-6.2-6.2L461.3,491L461.3,491z"/>
			<path class="st8" d="M408.3,491L408.3,491c0-3.4,2.8-6.2,6.2-6.2h24.9l0,0c1.7,0,3.2,0.7,4.4,1.8s1.8,2.8,1.8,4.4v34
				c0,3.4-2.8,6.2-6.2,6.2h-24.9c-3.4,0-6.2-2.8-6.2-6.2L408.3,491L408.3,491z"/>
			<path class="st8" d="M355.3,491L355.3,491c0-3.4,2.8-6.2,6.2-6.2h24.9l0,0c1.7,0,3.2,0.7,4.4,1.8c1.2,1.2,1.8,2.8,1.8,4.4v34
				c0,3.4-2.8,6.2-6.2,6.2h-24.9c-3.4,0-6.2-2.8-6.2-6.2L355.3,491L355.3,491z"/>
			<path class="st8" d="M302.3,491L302.3,491c0-3.4,2.8-6.2,6.2-6.2h24.9l0,0c1.7,0,3.2,0.7,4.4,1.8c1.2,1.2,1.8,2.8,1.8,4.4v34
				c0,3.4-2.8,6.2-6.2,6.2h-24.9c-3.4,0-6.2-2.8-6.2-6.2L302.3,491L302.3,491z"/>
			<path class="st8" d="M249.3,491L249.3,491c0-3.4,2.8-6.2,6.2-6.2h24.9l0,0c1.7,0,3.2,0.7,4.4,1.8s1.8,2.8,1.8,4.4v34
				c0,3.4-2.8,6.2-6.2,6.2h-24.9c-3.4,0-6.2-2.8-6.2-6.2L249.3,491L249.3,491z"/>
			<path class="st8" d="M832.3,491L832.3,491c0-3.4,2.8-6.2,6.2-6.2h24.9l0,0c1.7,0,3.2,0.7,4.4,1.8s1.8,2.8,1.8,4.4v34
				c0,3.4-2.8,6.2-6.2,6.2h-24.9c-3.4,0-6.2-2.8-6.2-6.2V491z"/>
			<path class="st8" d="M196.3,491L196.3,491c0-3.4,2.8-6.2,6.2-6.2h24.9l0,0c1.7,0,3.2,0.7,4.4,1.8c1.2,1.2,1.8,2.8,1.8,4.4v34
				c0,3.4-2.8,6.2-6.2,6.2h-24.9c-3.4,0-6.2-2.8-6.2-6.2V491z"/>
			<path class="st8" d="M90.3,491L90.3,491c0-3.4,2.8-6.2,6.2-6.2h24.9l0,0c1.7,0,3.2,0.7,4.4,1.8c1.2,1.2,1.8,2.8,1.8,4.4v34
				c0,3.4-2.8,6.2-6.2,6.2H96.5c-3.4,0-6.2-2.8-6.2-6.2V491z"/>
			<path class="st8" d="M143.3,491L143.3,491c0-3.4,2.8-6.2,6.2-6.2h24.9l0,0c1.7,0,3.2,0.7,4.4,1.8c1.2,1.2,1.8,2.8,1.8,4.4v34
				c0,3.4-2.8,6.2-6.2,6.2h-24.9c-3.4,0-6.2-2.8-6.2-6.2V491z"/>
		</g>
	</g>
</g>
<rect x="580.5" y="48.7" class="st9" width="156.8" height="14.4"/>
<text transform="matrix(1 0 0 1 580.5339 54.9601)" class="st10 st11 st12">Journal de Nounoursologie | Numéro 42</text>
<rect x="580.6" y="60.5" class="st9" width="258.3" height="17.4"/>
<text transform="matrix(1 0 0 1 580.5816 73.006)" class="st10 st11 st13">Blastouille : dernières découvertes</text>
<rect x="580.7" y="77.9" class="st9" width="258.2" height="55.1"/>
<text transform="matrix(1 0 0 1 580.6702 84.9408)" class="st10 st11 st14">Toi</text>
<text transform="matrix(1 0 0 1 593.7217 81.9435)" class="st10 st11 st15">1</text>
<text transform="matrix(1 0 0 1 596.7961 84.9408)" class="st10 st11 st14">, Julie</text>
<text transform="matrix(1 0 0 1 621.2939 81.9435)" class="st10 st11 st15">2</text>
<text transform="matrix(1 0 0 1 624.3684 84.9408)" class="st10 st11 st14">, Xavier</text>
<text transform="matrix(1 0 0 1 656.4258 81.9435)" class="st10 st11 st15">2</text>
<text transform="matrix(1 0 0 1 659.5002 84.9408)" class="st10 st11 st14">, Amaury</text>
<text transform="matrix(1 0 0 1 697.1387 81.9435)" class="st10 st11 st15">3</text>
<text transform="matrix(1 0 0 1 700.2131 84.9408)" class="st10 st11 st14">, Julien</text>
<text transform="matrix(1 0 0 1 729.9189 81.9435)" class="st10 st11 st15">2</text>
<text transform="matrix(1 0 0 1 732.9934 84.9408)" class="st10 st11 st14"> et Florence</text>
<text transform="matrix(1 0 0 1 782.0791 81.9435)" class="st10 st11 st15">2</text>
<text transform="matrix(1 0 0 1 785.1536 84.9408)" class="st10 st11 st14"> </text>
<text transform="matrix(1 0 0 1 580.6702 93.3407)" class="st10 st11 st16">1 Devant ton ordinateur</text>
<text transform="matrix(1 0 0 1 580.6702 101.7411)" class="st10 st11 st16">2 JeBiF</text>
<text transform="matrix(1 0 0 1 580.6702 110.141)" class="st10 st11 st16">3 Sous la pluie bretonne</text>
<rect x="587.7" y="134" class="st9" width="248.1" height="57"/>
<text transform="matrix(1 0 0 1 587.745 140.2489)" class="st10 st11 st12">La</text>
<text transform="matrix(1 0 0 1 596.445 140.2489)" class="st10 st11 st12"> </text>
<text transform="matrix(1 0 0 1 599.145 140.2489)" class="st10 st11 st12">blastouille,</text>
<text transform="matrix(1 0 0 1 639.945 140.2489)" class="st10 st11 st12"> </text>
<text transform="matrix(1 0 0 1 642.645 140.2489)" class="st10 st11 st12">maladie</text>
<text transform="matrix(1 0 0 1 671.545 140.2489)" class="st10 st11 st12"> </text>
<text transform="matrix(1 0 0 1 674.245 140.2489)" class="st10 st11 st12">des</text>
<text transform="matrix(1 0 0 1 686.945 140.2489)" class="st10 st11 st12"> </text>
<text transform="matrix(1 0 0 1 689.645 140.2489)" class="st10 st11 st12">ours</text>
<text transform="matrix(1 0 0 1 706.045 140.2489)" class="st10 st11 st12"> </text>
<text transform="matrix(1 0 0 1 708.745 140.2489)" class="st10 st11 st12">en</text>
<text transform="matrix(1 0 0 1 717.645 140.2489)" class="st10 st11 st12"> </text>
<text transform="matrix(1 0 0 1 720.345 140.2489)" class="st10 st11 st12">peluche</text>
<text transform="matrix(1 0 0 1 748.845 140.2489)" class="st10 st11 st12"> </text>
<text transform="matrix(1 0 0 1 751.645 140.2489)" class="st10 st11 st12">est</text>
<text transform="matrix(1 0 0 1 762.945 140.2489)" class="st10 st11 st12"> </text>
<text transform="matrix(1 0 0 1 765.645 140.2489)" class="st10 st11 st12">une</text>
<text transform="matrix(1 0 0 1 779.145 140.2489)" class="st10 st11 st12"> </text>
<text transform="matrix(1 0 0 1 781.845 140.2489)" class="st10 st11 st12">maladie</text>
<text transform="matrix(1 0 0 1 810.745 140.2489)" class="st10 st11 st12"> </text>
<text transform="matrix(1 0 0 1 813.545 140.2489)" class="st10 st11 st12">connu </text>
<text transform="matrix(1 0 0 1 587.745 149.8489)" class="st10 st11 st12">des</text>
<text transform="matrix(1 0 0 1 600.445 149.8489)" class="st10 st11 st12"> </text>
<text transform="matrix(1 0 0 1 603.345 149.8489)" class="st10 st11 st12">Nounoursologue.</text>
<text transform="matrix(1 0 0 1 666.145 149.8489)" class="st10 st11 st12"> </text>
<text transform="matrix(1 0 0 1 668.945 149.8489)" class="st10 st11 st12">cependant</text>
<text transform="matrix(1 0 0 1 707.745 149.8489)" class="st10 st11 st12"> </text>
<text transform="matrix(1 0 0 1 710.545 149.8489)" class="st10 st11 st12">on</text>
<text transform="matrix(1 0 0 1 719.645 149.8489)" class="st10 st11 st12"> </text>
<text transform="matrix(1 0 0 1 722.545 149.8489)" class="st10 st11 st12">ne</text>
<text transform="matrix(1 0 0 1 731.445 149.8489)" class="st10 st11 st12"> </text>
<text transform="matrix(1 0 0 1 734.245 149.8489)" class="st10 st11 st12">connaissait</text>
<text transform="matrix(1 0 0 1 776.145 149.8489)" class="st10 st11 st12"> </text>
<text transform="matrix(1 0 0 1 779.045 149.8489)" class="st10 st11 st12">pas</text>
<text transform="matrix(1 0 0 1 791.845 149.8489)" class="st10 st11 st12"> </text>
<text transform="matrix(1 0 0 1 794.745 149.8489)" class="st10 st11 st12">la</text>
<text transform="matrix(1 0 0 1 801.445 149.8489)" class="st10 st11 st12"> </text>
<text transform="matrix(1 0 0 1 804.245 149.8489)" class="st10 st11 st12">cause</text>
<text transform="matrix(1 0 0 1 825.445 149.8489)" class="st10 st11 st12"> </text>
<text transform="matrix(1 0 0 1 828.245 149.8489)" class="st10 st11 st12">et </text>
<text transform="matrix(1 0 0 1 587.745 159.4489)" class="st10 st11 st12">n’avions</text>
<text transform="matrix(1 0 0 1 618.245 159.4489)" class="st10 st11 st12"> </text>
<text transform="matrix(1 0 0 1 619.945 159.4489)" class="st10 st11 st12">pas</text>
<text transform="matrix(1 0 0 1 632.845 159.4489)" class="st10 st11 st12"> </text>
<text transform="matrix(1 0 0 1 634.545 159.4489)" class="st10 st11 st12">de</text>
<text transform="matrix(1 0 0 1 643.545 159.4489)" class="st10 st11 st12"> </text>
<text transform="matrix(1 0 0 1 645.245 159.4489)" class="st10 st11 st12">traitement</text>
<text transform="matrix(1 0 0 1 685.045 159.4489)" class="st10 st11 st12"> </text>
<text transform="matrix(1 0 0 1 686.745 159.4489)" class="st10 st11 st12">efficace.</text>
<text transform="matrix(1 0 0 1 717.245 159.4489)" class="st10 st11 st12"> </text>
<text transform="matrix(1 0 0 1 719.045 159.4489)" class="st10 st11 st12">Grâce</text>
<text transform="matrix(1 0 0 1 740.845 159.4489)" class="st10 st11 st12"> </text>
<text transform="matrix(1 0 0 1 742.545 159.4489)" class="st10 st11 st12">au</text>
<text transform="matrix(1 0 0 1 751.645 159.4489)" class="st10 st11 st12"> </text>
<text transform="matrix(1 0 0 1 753.445 159.4489)" class="st10 st11 st12">cas</text>
<text transform="matrix(1 0 0 1 765.645 159.4489)" class="st10 st11 st12"> </text>
<text transform="matrix(1 0 0 1 767.445 159.4489)" class="st10 st11 st12">de</text>
<text transform="matrix(1 0 0 1 776.345 159.4489)" class="st10 st11 st12"> </text>
<text transform="matrix(1 0 0 1 778.145 159.4489)" class="st10 st11 st12">Nounours,</text>
<text transform="matrix(1 0 0 1 816.545 159.4489)" class="st10 st11 st12"> </text>
<text transform="matrix(1 0 0 1 818.345 159.4489)" class="st10 st11 st12">nous </text>
<text transform="matrix(1 0 0 1 587.745 169.0489)" class="st10 st11 st12">avons</text>
<text transform="matrix(1 0 0 1 609.245 169.0489)" class="st10 st11 st12 st17"> </text>
<text transform="matrix(1 0 0 1 615.245 169.0489)" class="st10 st11 st12">pu</text>
<text transform="matrix(1 0 0 1 624.445 169.0489)" class="st10 st11 st12 st17"> </text>
<text transform="matrix(1 0 0 1 630.345 169.0489)" class="st10 st11 st12">mettre</text>
<text transform="matrix(1 0 0 1 655.545 169.0489)" class="st10 st11 st12 st17"> </text>
<text transform="matrix(1 0 0 1 661.445 169.0489)" class="st10 st11 st12">en</text>
<text transform="matrix(1 0 0 1 670.345 169.0489)" class="st10 st11 st12 st17"> </text>
<text transform="matrix(1 0 0 1 676.345 169.0489)" class="st10 st11 st12">évidence</text>
<text transform="matrix(1 0 0 1 708.845 169.0489)" class="st10 st11 st12 st17"> </text>
<text transform="matrix(1 0 0 1 714.745 169.0489)" class="st10 st11 st12">la</text>
<text transform="matrix(1 0 0 1 721.445 169.0489)" class="st10 st11 st12 st17"> </text>
<text transform="matrix(1 0 0 1 727.445 169.0489)" class="st10 st11 st12">bactérie</text>
<text transform="matrix(1 0 0 1 757.945 169.0489)" class="st10 st11 st12 st17"> </text>
<text transform="matrix(1 0 0 1 763.845 169.0489)" class="st10 st11 st12">responsable</text>
<text transform="matrix(1 0 0 1 808.245 169.0489)" class="st10 st11 st12 st17"> </text>
<text transform="matrix(1 0 0 1 814.245 169.0489)" class="st10 st11 st12">de</text>
<text transform="matrix(1 0 0 1 823.145 169.0489)" class="st10 st11 st12 st17"> </text>
<text transform="matrix(1 0 0 1 829.145 169.0489)" class="st10 st11 st12">la </text>
<text transform="matrix(1 0 0 1 587.745 178.6489)" class="st10 st11 st12">blastouille</text>
<text transform="matrix(1 0 0 1 625.945 178.6489)" class="st10 st11 st12 st17"> </text>
<text transform="matrix(1 0 0 1 631.345 178.6489)" class="st10 st11 st12">ainsi</text>
<text transform="matrix(1 0 0 1 648.645 178.6489)" class="st10 st11 st12 st17"> </text>
<text transform="matrix(1 0 0 1 654.145 178.6489)" class="st10 st11 st12">qu’un</text>
<text transform="matrix(1 0 0 1 674.545 178.6489)" class="st10 st11 st12 st17"> </text>
<text transform="matrix(1 0 0 1 679.945 178.6489)" class="st10 st11 st12">traitement</text>
<text transform="matrix(1 0 0 1 719.645 178.6489)" class="st10 st11 st12 st17"> </text>
<text transform="matrix(1 0 0 1 725.045 178.6489)" class="st10 st11 st12">permettant</text>
<text transform="matrix(1 0 0 1 767.145 178.6489)" class="st10 st11 st12 st17"> </text>
<text transform="matrix(1 0 0 1 772.545 178.6489)" class="st10 st11 st12">de</text>
<text transform="matrix(1 0 0 1 781.545 178.6489)" class="st10 st11 st12 st17"> </text>
<text transform="matrix(1 0 0 1 786.945 178.6489)" class="st10 st11 st12">guérir</text>
<text transform="matrix(1 0 0 1 809.345 178.6489)" class="st10 st11 st12 st17"> </text>
<text transform="matrix(1 0 0 1 814.745 178.6489)" class="st10 st11 st12">de</text>
<text transform="matrix(1 0 0 1 823.745 178.6489)" class="st10 st11 st12 st17"> </text>
<text transform="matrix(1 0 0 1 829.145 178.6489)" class="st10 st11 st12">la </text>
<text transform="matrix(1 0 0 1 587.745 188.2489)" class="st10 st11 st12">blastouille.</text>
<rect x="586.6" y="121" class="st9" width="155" height="60.5"/>
<text transform="matrix(1 0 0 1 586.603 128.8508)" class="st10 st11 st18">Résumé</text>
<rect x="587.9" y="199.3" class="st9" width="247.6" height="117.3"/>
<text transform="matrix(1 0 0 1 587.8985 207.0831)" class="st10 st11 st18">Introduction</text>
<text transform="matrix(1 0 0 1 587.8985 216.6831)" class="st10 st11 st12">Grâce</text>
<text transform="matrix(1 0 0 1 609.6985 216.6831)" class="st10 st11 st12"> </text>
<text transform="matrix(1 0 0 1 611.5985 216.6831)" class="st10 st11 st12">à</text>
<text transform="matrix(1 0 0 1 616.0985 216.6831)" class="st10 st11 st12"> </text>
<text transform="matrix(1 0 0 1 617.9985 216.6831)" class="st10 st11 st12">la</text>
<text transform="matrix(1 0 0 1 624.6985 216.6831)" class="st10 st11 st12"> </text>
<text transform="matrix(1 0 0 1 626.6985 216.6831)" class="st10 st11 st12">bioinformatique,</text>
<text transform="matrix(1 0 0 1 687.8985 216.6831)" class="st10 st11 st12"> </text>
<text transform="matrix(1 0 0 1 689.8985 216.6831)" class="st10 st11 st12">nos </text>
<text transform="matrix(1 0 0 1 587.8985 226.2831)" class="st10 st11 st12">experts</text>
<text transform="matrix(1 0 0 1 615.7985 226.2831)" class="st10 st11 st12 st19"> </text>
<text transform="matrix(1 0 0 1 623.4985 226.2831)" class="st10 st11 st12">ont</text>
<text transform="matrix(1 0 0 1 635.8985 226.2831)" class="st10 st11 st12 st19"> </text>
<text transform="matrix(1 0 0 1 643.5985 226.2831)" class="st10 st11 st12">pu</text>
<text transform="matrix(1 0 0 1 652.7985 226.2831)" class="st10 st11 st12 st19"> </text>
<text transform="matrix(1 0 0 1 660.4985 226.2831)" class="st10 st11 st12">trouver</text>
<text transform="matrix(1 0 0 1 688.2985 226.2831)" class="st10 st11 st12 st19"> </text>
<text transform="matrix(1 0 0 1 695.9985 226.2831)" class="st10 st11 st12">la </text>
<text transform="matrix(1 0 0 1 587.8985 235.8831)" class="st10 st11 st12">bactérie</text>
<text transform="matrix(1 0 0 1 618.3985 235.8831)" class="st10 st11 st12 st19"> </text>
<text transform="matrix(1 0 0 1 626.4985 235.8831)" class="st10 st11 st12">responsable</text>
<text transform="matrix(1 0 0 1 670.8985 235.8831)" class="st10 st11 st12 st19"> </text>
<text transform="matrix(1 0 0 1 678.9985 235.8831)" class="st10 st11 st12">de</text>
<text transform="matrix(1 0 0 1 687.8985 235.8831)" class="st10 st11 st12 st19"> </text>
<text transform="matrix(1 0 0 1 695.9985 235.8831)" class="st10 st11 st12">la </text>
<text transform="matrix(1 0 0 1 587.8985 245.4831)" class="st10 st11 st12">Blastouille</text>
<text transform="matrix(1 0 0 1 626.5985 245.4831)" class="st10 st11 st12 st20"> </text>
<text transform="matrix(1 0 0 1 636.1985 245.4831)" class="st10 st11 st12">de</text>
<text transform="matrix(1 0 0 1 645.0985 245.4831)" class="st10 st11 st12 st20"> </text>
<text transform="matrix(1 0 0 1 654.6985 245.4831)" class="st10 st11 st12">Nounours</text>
<text transform="matrix(1 0 0 1 690.5985 245.4831)" class="st10 st11 st12 st20"> </text>
<text transform="matrix(1 0 0 1 700.1985 245.4831)" class="st10 st11 st12">: </text>
<text transform="matrix(1 0 0 1 587.8985 255.0831)" class="st10 st11 st12">Versinia</text>
<text transform="matrix(1 0 0 1 618.2985 255.0831)" class="st10 st11 st12"> </text>
<text transform="matrix(1 0 0 1 620.3985 255.0831)" class="st10 st11 st12">pustulus.</text>
<text transform="matrix(1 0 0 1 654.2985 255.0831)" class="st10 st11 st12"> </text>
<text transform="matrix(1 0 0 1 656.3985 255.0831)" class="st10 st11 st12">Cette</text>
<text transform="matrix(1 0 0 1 676.7985 255.0831)" class="st10 st11 st12"> </text>
<text transform="matrix(1 0 0 1 678.7985 255.0831)" class="st10 st11 st12">bacté</text>
<text transform="matrix(1 0 0 1 699.3985 255.0831)" class="st10 st11 st12">-</text>
<text transform="matrix(1 0 0 1 587.8985 264.6831)" class="st10 st11 st12">rie</text>
<text transform="matrix(1 0 0 1 597.8985 264.6831)" class="st10 st11 st12 st21"> </text>
<text transform="matrix(1 0 0 1 601.0985 264.6831)" class="st10 st11 st12">prduit</text>
<text transform="matrix(1 0 0 1 623.8985 264.6831)" class="st10 st11 st12 st21"> </text>
<text transform="matrix(1 0 0 1 627.0985 264.6831)" class="st10 st11 st12">une</text>
<text transform="matrix(1 0 0 1 640.6985 264.6831)" class="st10 st11 st12 st21"> </text>
<text transform="matrix(1 0 0 1 643.8985 264.6831)" class="st10 st11 st12">petite</text>
<text transform="matrix(1 0 0 1 665.7985 264.6831)" class="st10 st11 st12 st21"> </text>
<text transform="matrix(1 0 0 1 668.9985 264.6831)" class="st10 st11 st12">protéine, </text>
<text transform="matrix(1 0 0 1 587.8985 274.2831)" class="st10 st11 st12">la</text>
<text transform="matrix(1 0 0 1 594.5985 274.2831)" class="st10 st11 st12"> </text>
<text transform="matrix(1 0 0 1 597.4985 274.2831)" class="st10 st11 st12">versine,</text>
<text transform="matrix(1 0 0 1 626.8985 274.2831)" class="st10 st11 st12"> </text>
<text transform="matrix(1 0 0 1 629.7985 274.2831)" class="st10 st11 st12">qui</text>
<text transform="matrix(1 0 0 1 641.0985 274.2831)" class="st10 st11 st12"> </text>
<text transform="matrix(1 0 0 1 643.9985 274.2831)" class="st10 st11 st12">est</text>
<text transform="matrix(1 0 0 1 655.2985 274.2831)" class="st10 st11 st12"> </text>
<text transform="matrix(1 0 0 1 658.2985 274.2831)" class="st10 st11 st12">responsable </text>
<text transform="matrix(1 0 0 1 587.8985 283.8831)" class="st10 st11 st12">des</text>
<text transform="matrix(1 0 0 1 600.5985 283.8831)" class="st10 st11 st12"> </text>
<text transform="matrix(1 0 0 1 603.1985 283.8831)" class="st10 st11 st12">douleurs</text>
<text transform="matrix(1 0 0 1 635.2985 283.8831)" class="st10 st11 st12"> </text>
<text transform="matrix(1 0 0 1 637.8985 283.8831)" class="st10 st11 st12">de</text>
<text transform="matrix(1 0 0 1 646.7985 283.8831)" class="st10 st11 st12"> </text>
<text transform="matrix(1 0 0 1 649.3985 283.8831)" class="st10 st11 st12">Nounours.</text>
<text transform="matrix(1 0 0 1 687.7985 283.8831)" class="st10 st11 st12"> </text>
<text transform="matrix(1 0 0 1 690.3985 283.8831)" class="st10 st11 st12">Les </text>
<text transform="matrix(1 0 0 1 587.8985 293.4831)" class="st10 st11 st12">experts</text>
<text transform="matrix(1 0 0 1 615.7985 293.4831)" class="st10 st11 st12"> </text>
<text transform="matrix(1 0 0 1 617.4985 293.4831)" class="st10 st11 st12">ont</text>
<text transform="matrix(1 0 0 1 629.8985 293.4831)" class="st10 st11 st12"> </text>
<text transform="matrix(1 0 0 1 631.5985 293.4831)" class="st10 st11 st12">identifé</text>
<text transform="matrix(1 0 0 1 660.0985 293.4831)" class="st10 st11 st12"> </text>
<text transform="matrix(1 0 0 1 661.7985 293.4831)" class="st10 st11 st12">la</text>
<text transform="matrix(1 0 0 1 668.4985 293.4831)" class="st10 st11 st12"> </text>
<text transform="matrix(1 0 0 1 670.2985 293.4831)" class="st10 st11 st12">forme</text>
<text transform="matrix(1 0 0 1 691.9985 293.4831)" class="st10 st11 st12"> </text>
<text transform="matrix(1 0 0 1 693.7985 293.4831)" class="st10 st11 st12">de </text>
<text transform="matrix(1 0 0 1 587.8985 303.0831)" class="st10 st11 st12">la</text>
<text transform="matrix(1 0 0 1 594.5985 303.0831)" class="st10 st11 st12 st17"> </text>
<text transform="matrix(1 0 0 1 600.5985 303.0831)" class="st10 st11 st12">versine.</text>
<text transform="matrix(1 0 0 1 629.8985 303.0831)" class="st10 st11 st12 st17"> </text>
<text transform="matrix(1 0 0 1 635.9985 303.0831)" class="st10 st11 st12">Ils</text>
<text transform="matrix(1 0 0 1 645.7985 303.0831)" class="st10 st11 st12 st17"> </text>
<text transform="matrix(1 0 0 1 651.7985 303.0831)" class="st10 st11 st12">ont</text>
<text transform="matrix(1 0 0 1 664.0985 303.0831)" class="st10 st11 st12 st17"> </text>
<text transform="matrix(1 0 0 1 670.1985 303.0831)" class="st10 st11 st12">ainsi</text>
<text transform="matrix(1 0 0 1 687.4985 303.0831)" class="st10 st11 st12 st17"> </text>
<text transform="matrix(1 0 0 1 693.4985 303.0831)" class="st10 st11 st12">pu </text>
<text transform="matrix(1 0 0 1 587.8985 312.6831)" class="st10 st11 st12">trouver</text>
<text transform="matrix(1 0 0 1 615.6985 312.6831)" class="st10 st11 st12 st22"> </text>
<text transform="matrix(1 0 0 1 632.0985 312.6831)" class="st10 st11 st12">un</text>
<text transform="matrix(1 0 0 1 641.2985 312.6831)" class="st10 st11 st12 st22"> </text>
<text transform="matrix(1 0 0 1 657.7985 312.6831)" class="st10 st11 st12">médicament </text>
<text transform="matrix(1 0 0 1 720.6985 205.4831)" class="st10 st11 st12">l’empechant</text>
<text transform="matrix(1 0 0 1 765.6985 205.4831)" class="st10 st11 st12"> </text>
<text transform="matrix(1 0 0 1 767.4985 205.4831)" class="st10 st11 st12">d’agir</text>
<text transform="matrix(1 0 0 1 788.7985 205.4831)" class="st10 st11 st12"> </text>
<text transform="matrix(1 0 0 1 790.5985 205.4831)" class="st10 st11 st12">rapidement. </text>
<text transform="matrix(1 0 0 1 720.6985 215.0831)" class="st10 st11 st12">Nounours est désormais guéri. </text>
<image style="overflow:visible;enable-background:new    ;" width="757" height="1018" xlink:href="F8C3EFC2DD8131AB.png"  transform="matrix(8.506688e-02 0 0 8.506688e-02 746.5683 227.951)">
</image>
<path class="st23" d="M779.9,212.8h101.5v172.6H779.9V212.8z"/>
<image style="overflow:visible;enable-background:new    ;" width="1148" height="1184" xlink:href="F8C3EFC2DD8131A9.png"  transform="matrix(6.312912e-02 0 0 6.312912e-02 794.4139 265.7108)">
</image>
</svg>
