<?xml version="1.0" encoding="utf-8"?>
<!-- Generator: Adobe Illustrator 24.3.0, SVG Export Plug-In . SVG Version: 6.00 Build 0)  -->
<svg version="1.1" id="Calque_1" xmlns="http://www.w3.org/2000/svg" xmlns:xlink="http://www.w3.org/1999/xlink" x="0px" y="0px"
	 viewBox="0 0 960 540" style="enable-background:new 0 0 960 540;" xml:space="preserve">
<style type="text/css">
	.st0{fill-rule:evenodd;clip-rule:evenodd;fill:#F1C232;}
	.st1{fill-rule:evenodd;clip-rule:evenodd;fill:#660000;}
	.st2{fill-rule:evenodd;clip-rule:evenodd;fill:url(#SVGID_1_);}
	.st3{fill-rule:evenodd;clip-rule:evenodd;}
	.st4{fill-rule:evenodd;clip-rule:evenodd;fill:#434343;}
	.st5{fill-rule:evenodd;clip-rule:evenodd;fill:#666666;}
	.st6{fill-rule:evenodd;clip-rule:evenodd;fill:#0C282D;stroke:#FFFFFF;stroke-miterlimit:10;}
	.st7{fill-rule:evenodd;clip-rule:evenodd;fill-opacity:0;}
	.st8{fill-rule:evenodd;clip-rule:evenodd;fill:#434343;stroke:#595959;stroke-miterlimit:10;}
	.st9{fill-rule:evenodd;clip-rule:evenodd;fill:none;}
	.st10{fill:#FFFFFF;}
	.st11{font-family:'Andika-Regular';}
	.st12{font-size:8px;}
	.st13{font-size:16px;}
	.st14{font-size:9px;}
	.st15{font-size:7px;}
	.st16{letter-spacing:3;}
	.st17{font-size:10px;}
	.st18{letter-spacing:5;}
	.st19{letter-spacing:7;}
	.st20{letter-spacing:1;}
	.st21{letter-spacing:14;}
	.st22{fill-rule:evenodd;clip-rule:evenodd;fill:#999999;}
</style>
<path class="st0" d="M-7.5-5.9h972.1v564.9H-7.5V-5.9z"/>
<path class="st1" d="M0,409.5h960v25.6H0V409.5z"/>
<radialGradient id="SVGID_1_" cx="-435.2752" cy="781.5054" r="21.9327" gradientTransform="matrix(21.9327 0 0 -21.9327 10026.7441 17518.3867)" gradientUnits="userSpaceOnUse">
	<stop  offset="0" style="stop-color:#DB0000"/>
	<stop  offset="1" style="stop-color:#540303"/>
</radialGradient>
<path class="st2" d="M0,409.5l104-63.3H856l104,63.3H0z"/>
<path class="st3" d="M102.3,5.1h756.8v341.2H102.3L102.3,5.1z"/>
<path class="st4" d="M109.4,299.3h51.7v86.1h-51.7V299.3z"/>
<path class="st4" d="M102.3,383.2h65.9v11.1h-65.9V383.2z"/>
<path class="st4" d="M102.3,294.3h65.9v11.1h-65.9V294.3z"/>
<path class="st5" d="M116.6,308.5H154v71.6h-37.4V308.5z"/>
<path class="st6" d="M578.1,43.6h265.1V326H578.1V43.6z"/>
<path class="st7" d="M591.7,284.2h144.9v11.1H591.7V284.2z"/>
<g>
	<g>
		<g>
			<path class="st8" d="M116.4,443.6L116.4,443.6c0-3.4,2.8-6.2,6.2-6.2h24.9l0,0c1.7,0,3.2,0.7,4.4,1.8c1.2,1.2,1.8,2.8,1.8,4.4
				v33.9c0,3.4-2.8,6.2-6.2,6.2h-24.9c-3.4,0-6.2-2.8-6.2-6.2V443.6z"/>
			<path class="st8" d="M805.8,443.6L805.8,443.6c0-3.4,2.8-6.2,6.2-6.2H837l0,0c1.7,0,3.2,0.7,4.4,1.8c1.2,1.2,1.8,2.8,1.8,4.4
				v33.9c0,3.4-2.8,6.2-6.2,6.2H812c-3.4,0-6.2-2.8-6.2-6.2V443.6z"/>
			<path class="st8" d="M752.8,443.6L752.8,443.6c0-3.4,2.8-6.2,6.2-6.2h24.9l0,0c1.7,0,3.2,0.7,4.4,1.8c1.2,1.2,1.8,2.8,1.8,4.4
				v33.9c0,3.4-2.8,6.2-6.2,6.2H759c-3.4,0-6.2-2.8-6.2-6.2V443.6z"/>
			<path class="st8" d="M699.8,443.6L699.8,443.6c0-3.4,2.8-6.2,6.2-6.2h24.9l0,0c1.7,0,3.2,0.7,4.4,1.8s1.8,2.8,1.8,4.4v33.9
				c0,3.4-2.8,6.2-6.2,6.2H706c-3.4,0-6.2-2.8-6.2-6.2V443.6z"/>
			<path class="st8" d="M646.7,443.6L646.7,443.6c0-3.4,2.8-6.2,6.2-6.2h24.9l0,0c1.7,0,3.2,0.7,4.4,1.8c1.2,1.2,1.8,2.8,1.8,4.4
				v33.9c0,3.4-2.8,6.2-6.2,6.2H653c-3.4,0-6.2-2.8-6.2-6.2V443.6z"/>
			<path class="st8" d="M593.7,443.6L593.7,443.6c0-3.4,2.8-6.2,6.2-6.2h24.9l0,0c1.7,0,3.2,0.7,4.4,1.8c1.2,1.2,1.8,2.8,1.8,4.4
				v33.9c0,3.4-2.8,6.2-6.2,6.2h-24.9c-3.4,0-6.2-2.8-6.2-6.2V443.6z"/>
			<path class="st8" d="M540.7,443.6L540.7,443.6c0-3.4,2.8-6.2,6.2-6.2h24.9l0,0c1.7,0,3.2,0.7,4.4,1.8s1.8,2.8,1.8,4.4v33.9
				c0,3.4-2.8,6.2-6.2,6.2h-24.9c-3.4,0-6.2-2.8-6.2-6.2V443.6z"/>
			<path class="st8" d="M487.6,443.6L487.6,443.6c0-3.4,2.8-6.2,6.2-6.2h24.9l0,0c1.7,0,3.2,0.7,4.4,1.8c1.2,1.2,1.8,2.8,1.8,4.4
				v33.9c0,3.4-2.8,6.2-6.2,6.2h-24.9c-3.4,0-6.2-2.8-6.2-6.2V443.6z"/>
			<path class="st8" d="M434.6,443.6L434.6,443.6c0-3.4,2.8-6.2,6.2-6.2h24.9l0,0c1.7,0,3.2,0.7,4.4,1.8s1.8,2.8,1.8,4.4v33.9
				c0,3.4-2.8,6.2-6.2,6.2h-24.9c-3.4,0-6.2-2.8-6.2-6.2V443.6z"/>
			<path class="st8" d="M381.6,443.6L381.6,443.6c0-3.4,2.8-6.2,6.2-6.2h24.9l0,0c1.7,0,3.2,0.7,4.4,1.8s1.8,2.8,1.8,4.4v33.9
				c0,3.4-2.8,6.2-6.2,6.2h-24.9c-3.4,0-6.2-2.8-6.2-6.2V443.6z"/>
			<path class="st8" d="M328.6,443.6L328.6,443.6c0-3.4,2.8-6.2,6.2-6.2h24.9l0,0c1.7,0,3.2,0.7,4.4,1.8c1.2,1.2,1.8,2.8,1.8,4.4
				v33.9c0,3.4-2.8,6.2-6.2,6.2h-24.9c-3.4,0-6.2-2.8-6.2-6.2V443.6z"/>
			<path class="st8" d="M275.5,443.6L275.5,443.6c0-3.4,2.8-6.2,6.2-6.2h24.9l0,0c1.7,0,3.2,0.7,4.4,1.8s1.8,2.8,1.8,4.4v33.9
				c0,3.4-2.8,6.2-6.2,6.2h-24.9c-3.4,0-6.2-2.8-6.2-6.2V443.6z"/>
			<path class="st8" d="M222.5,443.6L222.5,443.6c0-3.4,2.8-6.2,6.2-6.2h24.9l0,0c1.7,0,3.2,0.7,4.4,1.8c1.2,1.2,1.8,2.8,1.8,4.4
				v33.9c0,3.4-2.8,6.2-6.2,6.2h-24.9c-3.4,0-6.2-2.8-6.2-6.2V443.6z"/>
			<path class="st8" d="M169.5,443.6L169.5,443.6c0-3.4,2.8-6.2,6.2-6.2h24.9l0,0c1.7,0,3.2,0.7,4.4,1.8c1.2,1.2,1.8,2.8,1.8,4.4
				v33.9c0,3.4-2.8,6.2-6.2,6.2h-24.9c-3.4,0-6.2-2.8-6.2-6.2V443.6z"/>
		</g>
		<g>
			<path class="st8" d="M779.3,460.2L779.3,460.2c0-3.4,2.8-6.2,6.2-6.2h24.9l0,0c1.7,0,3.2,0.7,4.4,1.8s1.8,2.8,1.8,4.4v33.9
				c0,3.4-2.8,6.2-6.2,6.2h-24.9c-3.4,0-6.2-2.8-6.2-6.2V460.2z"/>
			<path class="st8" d="M726.3,460.2L726.3,460.2c0-3.4,2.8-6.2,6.2-6.2h24.9l0,0c1.7,0,3.2,0.7,4.4,1.8c1.2,1.2,1.8,2.8,1.8,4.4
				v33.9c0,3.4-2.8,6.2-6.2,6.2h-24.9c-3.4,0-6.2-2.8-6.2-6.2V460.2z"/>
			<path class="st8" d="M673.3,460.2L673.3,460.2c0-3.4,2.8-6.2,6.2-6.2h24.9l0,0c1.7,0,3.2,0.7,4.4,1.8c1.2,1.2,1.8,2.8,1.8,4.4
				v33.9c0,3.4-2.8,6.2-6.2,6.2h-24.9c-3.4,0-6.2-2.8-6.2-6.2V460.2z"/>
			<path class="st8" d="M620.3,460.2L620.3,460.2c0-3.4,2.8-6.2,6.2-6.2h24.9l0,0c1.7,0,3.2,0.7,4.4,1.8c1.2,1.2,1.8,2.8,1.8,4.4
				v33.9c0,3.4-2.8,6.2-6.2,6.2h-24.9c-3.4,0-6.2-2.8-6.2-6.2V460.2z"/>
			<path class="st8" d="M567.3,460.2L567.3,460.2c0-3.4,2.8-6.2,6.2-6.2h24.9l0,0c1.7,0,3.2,0.7,4.4,1.8c1.2,1.2,1.8,2.8,1.8,4.4
				v33.9c0,3.4-2.8,6.2-6.2,6.2h-24.9c-3.4,0-6.2-2.8-6.2-6.2V460.2z"/>
			<path class="st8" d="M514.3,460.2L514.3,460.2c0-3.4,2.8-6.2,6.2-6.2h24.9l0,0c1.7,0,3.2,0.7,4.4,1.8c1.2,1.2,1.8,2.8,1.8,4.4
				v33.9c0,3.4-2.8,6.2-6.2,6.2h-24.9c-3.4,0-6.2-2.8-6.2-6.2V460.2z"/>
			<path class="st8" d="M461.3,460.2L461.3,460.2c0-3.4,2.8-6.2,6.2-6.2h24.9l0,0c1.7,0,3.2,0.7,4.4,1.8c1.2,1.2,1.8,2.8,1.8,4.4
				v33.9c0,3.4-2.8,6.2-6.2,6.2h-24.9c-3.4,0-6.2-2.8-6.2-6.2V460.2z"/>
			<path class="st8" d="M408.3,460.2L408.3,460.2c0-3.4,2.8-6.2,6.2-6.2h24.9l0,0c1.7,0,3.2,0.7,4.4,1.8s1.8,2.8,1.8,4.4v33.9
				c0,3.4-2.8,6.2-6.2,6.2h-24.9c-3.4,0-6.2-2.8-6.2-6.2V460.2z"/>
			<path class="st8" d="M355.3,460.2L355.3,460.2c0-3.4,2.8-6.2,6.2-6.2h24.9l0,0c1.7,0,3.2,0.7,4.4,1.8c1.2,1.2,1.8,2.8,1.8,4.4
				v33.9c0,3.4-2.8,6.2-6.2,6.2h-24.9c-3.4,0-6.2-2.8-6.2-6.2V460.2z"/>
			<path class="st8" d="M302.3,460.2L302.3,460.2c0-3.4,2.8-6.2,6.2-6.2h24.9l0,0c1.7,0,3.2,0.7,4.4,1.8c1.2,1.2,1.8,2.8,1.8,4.4
				v33.9c0,3.4-2.8,6.2-6.2,6.2h-24.9c-3.4,0-6.2-2.8-6.2-6.2V460.2z"/>
			<path class="st8" d="M249.3,460.2L249.3,460.2c0-3.4,2.8-6.2,6.2-6.2h24.9l0,0c1.7,0,3.2,0.7,4.4,1.8s1.8,2.8,1.8,4.4v33.9
				c0,3.4-2.8,6.2-6.2,6.2h-24.9c-3.4,0-6.2-2.8-6.2-6.2V460.2z"/>
			<path class="st8" d="M832.3,460.2L832.3,460.2c0-3.4,2.8-6.2,6.2-6.2h24.9l0,0c1.7,0,3.2,0.7,4.4,1.8s1.8,2.8,1.8,4.4v33.9
				c0,3.4-2.8,6.2-6.2,6.2h-24.9c-3.4,0-6.2-2.8-6.2-6.2V460.2z"/>
			<path class="st8" d="M196.3,460.2L196.3,460.2c0-3.4,2.8-6.2,6.2-6.2h24.9l0,0c1.7,0,3.2,0.7,4.4,1.8c1.2,1.2,1.8,2.8,1.8,4.4
				v33.9c0,3.4-2.8,6.2-6.2,6.2h-24.9c-3.4,0-6.2-2.8-6.2-6.2V460.2z"/>
			<path class="st8" d="M90.3,460.2L90.3,460.2c0-3.4,2.8-6.2,6.2-6.2h24.9l0,0c1.7,0,3.2,0.7,4.4,1.8c1.2,1.2,1.8,2.8,1.8,4.4v33.9
				c0,3.4-2.8,6.2-6.2,6.2H96.5c-3.4,0-6.2-2.8-6.2-6.2V460.2z"/>
			<path class="st8" d="M143.3,460.2L143.3,460.2c0-3.4,2.8-6.2,6.2-6.2h24.9l0,0c1.7,0,3.2,0.7,4.4,1.8c1.2,1.2,1.8,2.8,1.8,4.4
				v33.9c0,3.4-2.8,6.2-6.2,6.2h-24.9c-3.4,0-6.2-2.8-6.2-6.2V460.2z"/>
		</g>
	</g>
	<g>
		<g>
			<path class="st8" d="M116.4,474.4L116.4,474.4c0-3.4,2.8-6.2,6.2-6.2h24.9l0,0c1.7,0,3.2,0.7,4.4,1.8c1.2,1.2,1.8,2.8,1.8,4.4
				v33.9c0,3.4-2.8,6.2-6.2,6.2h-24.9c-3.4,0-6.2-2.8-6.2-6.2V474.4z"/>
			<path class="st8" d="M805.8,474.4L805.8,474.4c0-3.4,2.8-6.2,6.2-6.2H837l0,0c1.7,0,3.2,0.7,4.4,1.8c1.2,1.2,1.8,2.8,1.8,4.4
				v33.9c0,3.4-2.8,6.2-6.2,6.2H812c-3.4,0-6.2-2.8-6.2-6.2V474.4z"/>
			<path class="st8" d="M752.8,474.4L752.8,474.4c0-3.4,2.8-6.2,6.2-6.2h24.9l0,0c1.7,0,3.2,0.7,4.4,1.8c1.2,1.2,1.8,2.8,1.8,4.4
				v33.9c0,3.4-2.8,6.2-6.2,6.2H759c-3.4,0-6.2-2.8-6.2-6.2V474.4z"/>
			<path class="st8" d="M699.8,474.4L699.8,474.4c0-3.4,2.8-6.2,6.2-6.2h24.9l0,0c1.7,0,3.2,0.7,4.4,1.8s1.8,2.8,1.8,4.4v33.9
				c0,3.4-2.8,6.2-6.2,6.2H706c-3.4,0-6.2-2.8-6.2-6.2V474.4z"/>
			<path class="st8" d="M646.7,474.4L646.7,474.4c0-3.4,2.8-6.2,6.2-6.2h24.9l0,0c1.7,0,3.2,0.7,4.4,1.8c1.2,1.2,1.8,2.8,1.8,4.4
				v33.9c0,3.4-2.8,6.2-6.2,6.2H653c-3.4,0-6.2-2.8-6.2-6.2V474.4z"/>
			<path class="st8" d="M593.7,474.4L593.7,474.4c0-3.4,2.8-6.2,6.2-6.2h24.9l0,0c1.7,0,3.2,0.7,4.4,1.8c1.2,1.2,1.8,2.8,1.8,4.4
				v33.9c0,3.4-2.8,6.2-6.2,6.2h-24.9c-3.4,0-6.2-2.8-6.2-6.2V474.4z"/>
			<path class="st8" d="M540.7,474.4L540.7,474.4c0-3.4,2.8-6.2,6.2-6.2h24.9l0,0c1.7,0,3.2,0.7,4.4,1.8s1.8,2.8,1.8,4.4v33.9
				c0,3.4-2.8,6.2-6.2,6.2h-24.9c-3.4,0-6.2-2.8-6.2-6.2V474.4z"/>
			<path class="st8" d="M487.6,474.4L487.6,474.4c0-3.4,2.8-6.2,6.2-6.2h24.9l0,0c1.7,0,3.2,0.7,4.4,1.8c1.2,1.2,1.8,2.8,1.8,4.4
				v33.9c0,3.4-2.8,6.2-6.2,6.2h-24.9c-3.4,0-6.2-2.8-6.2-6.2V474.4z"/>
			<path class="st8" d="M434.6,474.4L434.6,474.4c0-3.4,2.8-6.2,6.2-6.2h24.9l0,0c1.7,0,3.2,0.7,4.4,1.8s1.8,2.8,1.8,4.4v33.9
				c0,3.4-2.8,6.2-6.2,6.2h-24.9c-3.4,0-6.2-2.8-6.2-6.2V474.4z"/>
			<path class="st8" d="M381.6,474.4L381.6,474.4c0-3.4,2.8-6.2,6.2-6.2h24.9l0,0c1.7,0,3.2,0.7,4.4,1.8s1.8,2.8,1.8,4.4v33.9
				c0,3.4-2.8,6.2-6.2,6.2h-24.9c-3.4,0-6.2-2.8-6.2-6.2V474.4z"/>
			<path class="st8" d="M328.6,474.4L328.6,474.4c0-3.4,2.8-6.2,6.2-6.2h24.9l0,0c1.7,0,3.2,0.7,4.4,1.8c1.2,1.2,1.8,2.8,1.8,4.4
				v33.9c0,3.4-2.8,6.2-6.2,6.2h-24.9c-3.4,0-6.2-2.8-6.2-6.2V474.4z"/>
			<path class="st8" d="M275.5,474.4L275.5,474.4c0-3.4,2.8-6.2,6.2-6.2h24.9l0,0c1.7,0,3.2,0.7,4.4,1.8s1.8,2.8,1.8,4.4v33.9
				c0,3.4-2.8,6.2-6.2,6.2h-24.9c-3.4,0-6.2-2.8-6.2-6.2V474.4z"/>
			<path class="st8" d="M222.5,474.4L222.5,474.4c0-3.4,2.8-6.2,6.2-6.2h24.9l0,0c1.7,0,3.2,0.7,4.4,1.8c1.2,1.2,1.8,2.8,1.8,4.4
				v33.9c0,3.4-2.8,6.2-6.2,6.2h-24.9c-3.4,0-6.2-2.8-6.2-6.2V474.4z"/>
			<path class="st8" d="M169.5,474.4L169.5,474.4c0-3.4,2.8-6.2,6.2-6.2h24.9l0,0c1.7,0,3.2,0.7,4.4,1.8c1.2,1.2,1.8,2.8,1.8,4.4
				v33.9c0,3.4-2.8,6.2-6.2,6.2h-24.9c-3.4,0-6.2-2.8-6.2-6.2V474.4z"/>
		</g>
		<g>
			<path class="st8" d="M779.3,491L779.3,491c0-3.4,2.8-6.2,6.2-6.2h24.9l0,0c1.7,0,3.2,0.7,4.4,1.8s1.8,2.8,1.8,4.4V525
				c0,3.4-2.8,6.2-6.2,6.2h-24.9c-3.4,0-6.2-2.8-6.2-6.2V491z"/>
			<path class="st8" d="M726.3,491L726.3,491c0-3.4,2.8-6.2,6.2-6.2h24.9l0,0c1.7,0,3.2,0.7,4.4,1.8c1.2,1.2,1.8,2.8,1.8,4.4V525
				c0,3.4-2.8,6.2-6.2,6.2h-24.9c-3.4,0-6.2-2.8-6.2-6.2V491z"/>
			<path class="st8" d="M673.3,491L673.3,491c0-3.4,2.8-6.2,6.2-6.2h24.9l0,0c1.7,0,3.2,0.7,4.4,1.8c1.2,1.2,1.8,2.8,1.8,4.4V525
				c0,3.4-2.8,6.2-6.2,6.2h-24.9c-3.4,0-6.2-2.8-6.2-6.2V491z"/>
			<path class="st8" d="M620.3,491L620.3,491c0-3.4,2.8-6.2,6.2-6.2h24.9l0,0c1.7,0,3.2,0.7,4.4,1.8c1.2,1.2,1.8,2.8,1.8,4.4V525
				c0,3.4-2.8,6.2-6.2,6.2h-24.9c-3.4,0-6.2-2.8-6.2-6.2V491z"/>
			<path class="st8" d="M567.3,491L567.3,491c0-3.4,2.8-6.2,6.2-6.2h24.9l0,0c1.7,0,3.2,0.7,4.4,1.8c1.2,1.2,1.8,2.8,1.8,4.4V525
				c0,3.4-2.8,6.2-6.2,6.2h-24.9c-3.4,0-6.2-2.8-6.2-6.2V491z"/>
			<path class="st8" d="M514.3,491L514.3,491c0-3.4,2.8-6.2,6.2-6.2h24.9l0,0c1.7,0,3.2,0.7,4.4,1.8c1.2,1.2,1.8,2.8,1.8,4.4V525
				c0,3.4-2.8,6.2-6.2,6.2h-24.9c-3.4,0-6.2-2.8-6.2-6.2V491z"/>
			<path class="st8" d="M461.3,491L461.3,491c0-3.4,2.8-6.2,6.2-6.2h24.9l0,0c1.7,0,3.2,0.7,4.4,1.8s1.8,2.8,1.8,4.4V525
				c0,3.4-2.8,6.2-6.2,6.2h-24.9c-3.4,0-6.2-2.8-6.2-6.2V491z"/>
			<path class="st8" d="M408.3,491L408.3,491c0-3.4,2.8-6.2,6.2-6.2h24.9l0,0c1.7,0,3.2,0.7,4.4,1.8s1.8,2.8,1.8,4.4V525
				c0,3.4-2.8,6.2-6.2,6.2h-24.9c-3.4,0-6.2-2.8-6.2-6.2V491z"/>
			<path class="st8" d="M355.3,491L355.3,491c0-3.4,2.8-6.2,6.2-6.2h24.9l0,0c1.7,0,3.2,0.7,4.4,1.8c1.2,1.2,1.8,2.8,1.8,4.4V525
				c0,3.4-2.8,6.2-6.2,6.2h-24.9c-3.4,0-6.2-2.8-6.2-6.2V491z"/>
			<path class="st8" d="M302.3,491L302.3,491c0-3.4,2.8-6.2,6.2-6.2h24.9l0,0c1.7,0,3.2,0.7,4.4,1.8c1.2,1.2,1.8,2.8,1.8,4.4V525
				c0,3.4-2.8,6.2-6.2,6.2h-24.9c-3.4,0-6.2-2.8-6.2-6.2V491z"/>
			<path class="st8" d="M249.3,491L249.3,491c0-3.4,2.8-6.2,6.2-6.2h24.9l0,0c1.7,0,3.2,0.7,4.4,1.8s1.8,2.8,1.8,4.4V525
				c0,3.4-2.8,6.2-6.2,6.2h-24.9c-3.4,0-6.2-2.8-6.2-6.2V491z"/>
			<path class="st8" d="M832.3,491L832.3,491c0-3.4,2.8-6.2,6.2-6.2h24.9l0,0c1.7,0,3.2,0.7,4.4,1.8s1.8,2.8,1.8,4.4V525
				c0,3.4-2.8,6.2-6.2,6.2h-24.9c-3.4,0-6.2-2.8-6.2-6.2V491z"/>
			<path class="st8" d="M196.3,491L196.3,491c0-3.4,2.8-6.2,6.2-6.2h24.9l0,0c1.7,0,3.2,0.7,4.4,1.8c1.2,1.2,1.8,2.8,1.8,4.4V525
				c0,3.4-2.8,6.2-6.2,6.2h-24.9c-3.4,0-6.2-2.8-6.2-6.2V491z"/>
			<path class="st8" d="M90.3,491L90.3,491c0-3.4,2.8-6.2,6.2-6.2h24.9l0,0c1.7,0,3.2,0.7,4.4,1.8c1.2,1.2,1.8,2.8,1.8,4.4V525
				c0,3.4-2.8,6.2-6.2,6.2H96.5c-3.4,0-6.2-2.8-6.2-6.2V491z"/>
			<path class="st8" d="M143.3,491L143.3,491c0-3.4,2.8-6.2,6.2-6.2h24.9l0,0c1.7,0,3.2,0.7,4.4,1.8c1.2,1.2,1.8,2.8,1.8,4.4V525
				c0,3.4-2.8,6.2-6.2,6.2h-24.9c-3.4,0-6.2-2.8-6.2-6.2V491z"/>
		</g>
	</g>
</g>
<rect x="580.5" y="48.7" class="st9" width="156.8" height="14.4"/>
<text transform="matrix(1 0 0 1 580.5339 54.9601)" class="st10 st11 st12">Journal de Nounoursologie | Numéro 42</text>
<rect x="580.6" y="60.5" class="st9" width="258.3" height="17.4"/>
<text transform="matrix(1 0 0 1 580.5816 73.006)" class="st10 st11 st13">Blastouille : dernières découvertes</text>
<rect x="580.7" y="77.9" class="st9" width="258.2" height="55.1"/>
<text transform="matrix(1 0 0 1 580.6702 84.9408)" class="st10 st11 st14">Toi</text>
<text transform="matrix(0.583 0 0 0.583 593.7219 81.9437)" class="st10 st11 st14">1</text>
<text transform="matrix(1 0 0 1 596.7961 84.9408)" class="st10 st11 st14">, Julie</text>
<text transform="matrix(0.583 0 0 0.583 621.2942 81.9437)" class="st10 st11 st14">2</text>
<text transform="matrix(1 0 0 1 624.3684 84.9408)" class="st10 st11 st14">, Xavier</text>
<text transform="matrix(0.583 0 0 0.583 656.426 81.9437)" class="st10 st11 st14">2</text>
<text transform="matrix(1 0 0 1 659.5002 84.9408)" class="st10 st11 st14">, Amaury</text>
<text transform="matrix(0.583 0 0 0.583 697.1389 81.9437)" class="st10 st11 st14">3</text>
<text transform="matrix(1 0 0 1 700.2131 84.9408)" class="st10 st11 st14">, Julien</text>
<text transform="matrix(0.583 0 0 0.583 729.9192 81.9437)" class="st10 st11 st14">2</text>
<text transform="matrix(1 0 0 1 732.9934 84.9408)" class="st10 st11 st14"> et Florence</text>
<text transform="matrix(0.583 0 0 0.583 782.0793 81.9437)" class="st10 st11 st14">2</text>
<text transform="matrix(1 0 0 1 785.1536 84.9408)" class="st10 st11 st14"> </text>
<text transform="matrix(1 0 0 1 580.6702 93.3407)" class="st10 st11 st15">1 Devant ton ordinateur</text>
<text transform="matrix(1 0 0 1 580.6702 101.7411)" class="st10 st11 st15">2 JeBiF</text>
<text transform="matrix(1 0 0 1 580.6702 110.141)" class="st10 st11 st15">3 Sous la pluie bretonne</text>
<rect x="587.7" y="134" class="st9" width="248.1" height="57"/>
<text transform="matrix(1 0 0 1 587.745 140.2489)"><tspan x="0" y="0" class="st10 st11 st12">La</tspan><tspan x="8.7" y="0" class="st10 st11 st12"> </tspan><tspan x="11.4" y="0" class="st10 st11 st12">blastouille,</tspan><tspan x="52.2" y="0" class="st10 st11 st12"> </tspan><tspan x="54.9" y="0" class="st10 st11 st12">maladie</tspan><tspan x="83.8" y="0" class="st10 st11 st12"> </tspan><tspan x="86.5" y="0" class="st10 st11 st12">des</tspan><tspan x="99.2" y="0" class="st10 st11 st12"> </tspan><tspan x="101.9" y="0" class="st10 st11 st12">ours</tspan><tspan x="118.3" y="0" class="st10 st11 st12"> </tspan><tspan x="121" y="0" class="st10 st11 st12">en</tspan><tspan x="129.9" y="0" class="st10 st11 st12"> </tspan><tspan x="132.6" y="0" class="st10 st11 st12">peluche</tspan><tspan x="161.1" y="0" class="st10 st11 st12"> </tspan><tspan x="163.9" y="0" class="st10 st11 st12">est</tspan><tspan x="175.2" y="0" class="st10 st11 st12"> </tspan><tspan x="177.9" y="0" class="st10 st11 st12">une</tspan><tspan x="191.4" y="0" class="st10 st11 st12"> </tspan><tspan x="194.1" y="0" class="st10 st11 st12">maladie</tspan><tspan x="223" y="0" class="st10 st11 st12"> </tspan><tspan x="225.8" y="0" class="st10 st11 st12">connu </tspan><tspan x="0" y="9.6" class="st10 st11 st12">des</tspan><tspan x="12.7" y="9.6" class="st10 st11 st12"> </tspan><tspan x="15.6" y="9.6" class="st10 st11 st12">Nounoursologue.</tspan><tspan x="78.4" y="9.6" class="st10 st11 st12"> </tspan><tspan x="81.2" y="9.6" class="st10 st11 st12">cependant</tspan><tspan x="120" y="9.6" class="st10 st11 st12"> </tspan><tspan x="122.8" y="9.6" class="st10 st11 st12">on</tspan><tspan x="131.9" y="9.6" class="st10 st11 st12"> </tspan><tspan x="134.8" y="9.6" class="st10 st11 st12">ne</tspan><tspan x="143.7" y="9.6" class="st10 st11 st12"> </tspan><tspan x="146.5" y="9.6" class="st10 st11 st12">connaissait</tspan><tspan x="188.4" y="9.6" class="st10 st11 st12"> </tspan><tspan x="191.3" y="9.6" class="st10 st11 st12">pas</tspan><tspan x="204.1" y="9.6" class="st10 st11 st12"> </tspan><tspan x="207" y="9.6" class="st10 st11 st12">la</tspan><tspan x="213.7" y="9.6" class="st10 st11 st12"> </tspan><tspan x="216.5" y="9.6" class="st10 st11 st12">cause</tspan><tspan x="237.7" y="9.6" class="st10 st11 st12"> </tspan><tspan x="240.5" y="9.6" class="st10 st11 st12">et </tspan><tspan x="0" y="19.2" class="st10 st11 st12">n’avions</tspan><tspan x="30.5" y="19.2" class="st10 st11 st12"> </tspan><tspan x="32.2" y="19.2" class="st10 st11 st12">pas</tspan><tspan x="45.1" y="19.2" class="st10 st11 st12"> </tspan><tspan x="46.8" y="19.2" class="st10 st11 st12">de</tspan><tspan x="55.8" y="19.2" class="st10 st11 st12"> </tspan><tspan x="57.5" y="19.2" class="st10 st11 st12">traitement</tspan><tspan x="97.3" y="19.2" class="st10 st11 st12"> </tspan><tspan x="99" y="19.2" class="st10 st11 st12">efficace.</tspan><tspan x="129.5" y="19.2" class="st10 st11 st12"> </tspan><tspan x="131.3" y="19.2" class="st10 st11 st12">Grâce</tspan><tspan x="153.1" y="19.2" class="st10 st11 st12"> </tspan><tspan x="154.8" y="19.2" class="st10 st11 st12">au</tspan><tspan x="163.9" y="19.2" class="st10 st11 st12"> </tspan><tspan x="165.7" y="19.2" class="st10 st11 st12">cas</tspan><tspan x="177.9" y="19.2" class="st10 st11 st12"> </tspan><tspan x="179.7" y="19.2" class="st10 st11 st12">de</tspan><tspan x="188.6" y="19.2" class="st10 st11 st12"> </tspan><tspan x="190.4" y="19.2" class="st10 st11 st12">Nounours,</tspan><tspan x="228.8" y="19.2" class="st10 st11 st12"> </tspan><tspan x="230.6" y="19.2" class="st10 st11 st12">nous </tspan><tspan x="0" y="28.8" class="st10 st11 st12">avons</tspan><tspan x="21.5" y="28.8" class="st10 st11 st12 st16"> </tspan><tspan x="27.5" y="28.8" class="st10 st11 st12">pu</tspan><tspan x="36.7" y="28.8" class="st10 st11 st12 st16"> </tspan><tspan x="42.6" y="28.8" class="st10 st11 st12">mettre</tspan><tspan x="67.8" y="28.8" class="st10 st11 st12 st16"> </tspan><tspan x="73.7" y="28.8" class="st10 st11 st12">en</tspan><tspan x="82.6" y="28.8" class="st10 st11 st12 st16"> </tspan><tspan x="88.6" y="28.8" class="st10 st11 st12">évidence</tspan><tspan x="121.1" y="28.8" class="st10 st11 st12 st16"> </tspan><tspan x="127" y="28.8" class="st10 st11 st12">la</tspan><tspan x="133.7" y="28.8" class="st10 st11 st12 st16"> </tspan><tspan x="139.7" y="28.8" class="st10 st11 st12">bactérie</tspan><tspan x="170.2" y="28.8" class="st10 st11 st12 st16"> </tspan><tspan x="176.1" y="28.8" class="st10 st11 st12">responsable</tspan><tspan x="220.5" y="28.8" class="st10 st11 st12 st16"> </tspan><tspan x="226.5" y="28.8" class="st10 st11 st12">de</tspan><tspan x="235.4" y="28.8" class="st10 st11 st12 st16"> </tspan><tspan x="241.4" y="28.8" class="st10 st11 st12">la </tspan><tspan x="0" y="38.4" class="st10 st11 st12">blastouille</tspan><tspan x="38.2" y="38.4" class="st10 st11 st12 st16"> </tspan><tspan x="43.6" y="38.4" class="st10 st11 st12">ainsi</tspan><tspan x="60.9" y="38.4" class="st10 st11 st12 st16"> </tspan><tspan x="66.4" y="38.4" class="st10 st11 st12">qu’un</tspan><tspan x="86.8" y="38.4" class="st10 st11 st12 st16"> </tspan><tspan x="92.2" y="38.4" class="st10 st11 st12">traitement</tspan><tspan x="131.9" y="38.4" class="st10 st11 st12 st16"> </tspan><tspan x="137.3" y="38.4" class="st10 st11 st12">permettant</tspan><tspan x="179.4" y="38.4" class="st10 st11 st12 st16"> </tspan><tspan x="184.8" y="38.4" class="st10 st11 st12">de</tspan><tspan x="193.8" y="38.4" class="st10 st11 st12 st16"> </tspan><tspan x="199.2" y="38.4" class="st10 st11 st12">guérir</tspan><tspan x="221.6" y="38.4" class="st10 st11 st12 st16"> </tspan><tspan x="227" y="38.4" class="st10 st11 st12">de</tspan><tspan x="236" y="38.4" class="st10 st11 st12 st16"> </tspan><tspan x="241.4" y="38.4" class="st10 st11 st12">la </tspan><tspan x="0" y="48" class="st10 st11 st12">blastouille.</tspan></text>
<rect x="586.6" y="121" class="st9" width="155" height="60.5"/>
<text transform="matrix(1 0 0 1 586.603 128.8508)" class="st10 st11 st17">Résumé</text>
<rect x="587.9" y="199.3" class="st9" width="247.6" height="117.3"/>
<text transform="matrix(1 0 0 1 587.8985 207.0831)"><tspan x="0" y="0" class="st10 st11 st17">Introduction</tspan><tspan x="0" y="9.6" class="st10 st11 st12">Grâce</tspan><tspan x="21.8" y="9.6" class="st10 st11 st12"> </tspan><tspan x="23.7" y="9.6" class="st10 st11 st12">à</tspan><tspan x="28.2" y="9.6" class="st10 st11 st12"> </tspan><tspan x="30.1" y="9.6" class="st10 st11 st12">la</tspan><tspan x="36.8" y="9.6" class="st10 st11 st12"> </tspan><tspan x="38.8" y="9.6" class="st10 st11 st12">bioinformatique,</tspan><tspan x="100" y="9.6" class="st10 st11 st12"> </tspan><tspan x="102" y="9.6" class="st10 st11 st12">nos </tspan><tspan x="0" y="19.2" class="st10 st11 st12">experts</tspan><tspan x="27.9" y="19.2" class="st10 st11 st12 st18"> </tspan><tspan x="35.6" y="19.2" class="st10 st11 st12">ont</tspan><tspan x="48" y="19.2" class="st10 st11 st12 st18"> </tspan><tspan x="55.7" y="19.2" class="st10 st11 st12">pu</tspan><tspan x="64.9" y="19.2" class="st10 st11 st12 st18"> </tspan><tspan x="72.6" y="19.2" class="st10 st11 st12">trouver</tspan><tspan x="100.4" y="19.2" class="st10 st11 st12 st18"> </tspan><tspan x="108.1" y="19.2" class="st10 st11 st12">la </tspan><tspan x="0" y="28.8" class="st10 st11 st12">bactérie</tspan><tspan x="30.5" y="28.8" class="st10 st11 st12 st18"> </tspan><tspan x="38.6" y="28.8" class="st10 st11 st12">responsable</tspan><tspan x="83" y="28.8" class="st10 st11 st12 st18"> </tspan><tspan x="91.1" y="28.8" class="st10 st11 st12">de</tspan><tspan x="100" y="28.8" class="st10 st11 st12 st18"> </tspan><tspan x="108.1" y="28.8" class="st10 st11 st12">la </tspan><tspan x="0" y="38.4" class="st10 st11 st12">Blastouille</tspan><tspan x="38.7" y="38.4" class="st10 st11 st12 st19"> </tspan><tspan x="48.3" y="38.4" class="st10 st11 st12">de</tspan><tspan x="57.2" y="38.4" class="st10 st11 st12 st19"> </tspan><tspan x="66.8" y="38.4" class="st10 st11 st12">Nounours</tspan><tspan x="102.7" y="38.4" class="st10 st11 st12 st19"> </tspan><tspan x="112.3" y="38.4" class="st10 st11 st12">: </tspan><tspan x="0" y="48" class="st10 st11 st12">Versinia</tspan><tspan x="30.4" y="48" class="st10 st11 st12"> </tspan><tspan x="32.5" y="48" class="st10 st11 st12">pustulus.</tspan><tspan x="66.4" y="48" class="st10 st11 st12"> </tspan><tspan x="68.5" y="48" class="st10 st11 st12">Cette</tspan><tspan x="88.9" y="48" class="st10 st11 st12"> </tspan><tspan x="90.9" y="48" class="st10 st11 st12">bacté</tspan><tspan x="111.5" y="48" class="st10 st11 st12">-</tspan><tspan x="0" y="57.6" class="st10 st11 st12">rie</tspan><tspan x="10" y="57.6" class="st10 st11 st12 st20"> </tspan><tspan x="13.2" y="57.6" class="st10 st11 st12">prduit</tspan><tspan x="36" y="57.6" class="st10 st11 st12 st20"> </tspan><tspan x="39.2" y="57.6" class="st10 st11 st12">une</tspan><tspan x="52.8" y="57.6" class="st10 st11 st12 st20"> </tspan><tspan x="56" y="57.6" class="st10 st11 st12">petite</tspan><tspan x="77.9" y="57.6" class="st10 st11 st12 st20"> </tspan><tspan x="81.1" y="57.6" class="st10 st11 st12">protéine, </tspan><tspan x="0" y="67.2" class="st10 st11 st12">la</tspan><tspan x="6.7" y="67.2" class="st10 st11 st12"> </tspan><tspan x="9.6" y="67.2" class="st10 st11 st12">versine,</tspan><tspan x="39" y="67.2" class="st10 st11 st12"> </tspan><tspan x="41.9" y="67.2" class="st10 st11 st12">qui</tspan><tspan x="53.2" y="67.2" class="st10 st11 st12"> </tspan><tspan x="56.1" y="67.2" class="st10 st11 st12">est</tspan><tspan x="67.4" y="67.2" class="st10 st11 st12"> </tspan><tspan x="70.4" y="67.2" class="st10 st11 st12">responsable </tspan><tspan x="0" y="76.8" class="st10 st11 st12">des</tspan><tspan x="12.7" y="76.8" class="st10 st11 st12"> </tspan><tspan x="15.3" y="76.8" class="st10 st11 st12">douleurs</tspan><tspan x="47.4" y="76.8" class="st10 st11 st12"> </tspan><tspan x="50" y="76.8" class="st10 st11 st12">de</tspan><tspan x="58.9" y="76.8" class="st10 st11 st12"> </tspan><tspan x="61.5" y="76.8" class="st10 st11 st12">Nounours.</tspan><tspan x="99.9" y="76.8" class="st10 st11 st12"> </tspan><tspan x="102.5" y="76.8" class="st10 st11 st12">Les </tspan><tspan x="0" y="86.4" class="st10 st11 st12">experts</tspan><tspan x="27.9" y="86.4" class="st10 st11 st12"> </tspan><tspan x="29.6" y="86.4" class="st10 st11 st12">ont</tspan><tspan x="42" y="86.4" class="st10 st11 st12"> </tspan><tspan x="43.7" y="86.4" class="st10 st11 st12">identifé</tspan><tspan x="72.2" y="86.4" class="st10 st11 st12"> </tspan><tspan x="73.9" y="86.4" class="st10 st11 st12">la</tspan><tspan x="80.6" y="86.4" class="st10 st11 st12"> </tspan><tspan x="82.4" y="86.4" class="st10 st11 st12">forme</tspan><tspan x="104.1" y="86.4" class="st10 st11 st12"> </tspan><tspan x="105.9" y="86.4" class="st10 st11 st12">de </tspan><tspan x="0" y="96" class="st10 st11 st12">la</tspan><tspan x="6.7" y="96" class="st10 st11 st12 st16"> </tspan><tspan x="12.7" y="96" class="st10 st11 st12">versine.</tspan><tspan x="42" y="96" class="st10 st11 st12 st16"> </tspan><tspan x="48.1" y="96" class="st10 st11 st12">Ils</tspan><tspan x="57.9" y="96" class="st10 st11 st12 st16"> </tspan><tspan x="63.9" y="96" class="st10 st11 st12">ont</tspan><tspan x="76.2" y="96" class="st10 st11 st12 st16"> </tspan><tspan x="82.3" y="96" class="st10 st11 st12">ainsi</tspan><tspan x="99.6" y="96" class="st10 st11 st12 st16"> </tspan><tspan x="105.6" y="96" class="st10 st11 st12">pu </tspan><tspan x="0" y="105.6" class="st10 st11 st12">trouver</tspan><tspan x="27.8" y="105.6" class="st10 st11 st12 st21"> </tspan><tspan x="44.2" y="105.6" class="st10 st11 st12">un</tspan><tspan x="53.4" y="105.6" class="st10 st11 st12 st21"> </tspan><tspan x="69.9" y="105.6" class="st10 st11 st12">médicament </tspan><tspan x="132.8" y="-1.6" class="st10 st11 st12">l’empechant</tspan><tspan x="177.8" y="-1.6" class="st10 st11 st12"> </tspan><tspan x="179.6" y="-1.6" class="st10 st11 st12">d’agir</tspan><tspan x="200.9" y="-1.6" class="st10 st11 st12"> </tspan><tspan x="202.7" y="-1.6" class="st10 st11 st12">rapidement. </tspan><tspan x="132.8" y="8" class="st10 st11 st12">Nounours est désormais guéri. </tspan></text>
<path class="st22" d="M779.9,212.8h101.5v172.6H779.9V212.8z"/>
</svg>
