<svg version="1.1" viewBox="0.0 0.0 960.0 540.0" fill="none" stroke="none" stroke-linecap="square" stroke-miterlimit="10" xmlns:xlink="http://www.w3.org/1999/xlink" xmlns="http://www.w3.org/2000/svg"><clipPath id="g983658d215_0_642.0"><path d="m0 0l960.0 0l0 540.0l-960.0 0l0 -540.0z" clip-rule="nonzero"/></clipPath><g clip-path="url(#g983658d215_0_642.0)"><defs><linearGradient id="g983658d215_0_642.1" gradientUnits="userSpaceOnUse" gradientTransform="matrix(23.237974851393545 0.0 0.0 23.237974851393545 0.0 0.0)" spreadMethod="pad" x1="5.413619158564821E-10" y1="-1.4954790521761285E-4" x2="-8.4120700051006E-5" y2="23.237825303336063"><stop offset="0.0" stop-color="#3177ee"/><stop offset="1.0" stop-color="#113d8a"/></linearGradient></defs><path fill="url(#g983658d215_0_642.1)" d="m0 0l960.0 0l0 540.0l-960.0 0z" fill-rule="evenodd"/><defs><linearGradient id="g983658d215_0_642.2" gradientUnits="userSpaceOnUse" gradientTransform="matrix(22.365677906820494 0.0 0.0 22.365677906820494 0.0 0.0)" spreadMethod="pad" x1="-2.753976425903055" y1="7.9951600815247135" x2="-2.7540575642693716" y2="30.360837988198025"><stop offset="0.0" stop-color="#d4e5f5"/><stop offset="1.0" stop-color="#70a4d5"/></linearGradient></defs><path fill="url(#g983658d215_0_642.2)" d="m35.940914 278.56552c28.594486 -77.35214 58.655727 -104.84688 145.17322 -98.98161c86.51752 5.865265 238.47333 133.98994 373.93176 134.17323c135.45844 0.18328857 359.08398 -150.48732 438.8189 -133.0735c79.734924 17.413818 38.124207 161.12074 39.590515 237.55644c1.4663086 76.4357 139.85876 183.4816 -30.792603 221.05771c-170.65137 37.57611 -831.99524 64.520996 -993.1155 4.398987c-161.1203 -60.12207 -2.200787 -287.7791 26.393703 -365.13126z" fill-rule="evenodd"/><path fill="#ffffff" d="m733.0656 31.89239l140.78741 0l0 191.37007l-140.78741 0z" fill-rule="evenodd"/><path stroke="#0097a7" stroke-width="3.0" stroke-linejoin="round" stroke-linecap="butt" d="m733.0656 31.89239l140.78741 0l0 191.37007l-140.78741 0z" fill-rule="evenodd"/><path fill="#45818e" d="m96.78215 356.33334l750.04724 0l0 31.905487l-750.04724 0z" fill-rule="evenodd"/><path fill="#073763" d="m145.17323 386.82678l646.6772 0l0 20.094482l-646.6772 0z" fill-rule="evenodd"/><path fill="#0b5394" d="m145.17323 395.9265l646.6772 0l0 144.06299l-646.6772 0z" fill-rule="evenodd"/><path fill="#0b5394" d="m169.17323 113.27821l7.685028 0l0 243.05513l-7.685028 0z" fill-rule="evenodd"/><path fill="#0b5394" d="m337.17322 113.27821l7.6850586 0l0 243.05513l-7.6850586 0z" fill-rule="evenodd"/><path fill="#0b5394" d="m382.5433 110.96326l0 7.6850357l-243.05511 0l0 -7.6850357z" fill-rule="evenodd"/><path fill="#efefef" d="m446.5433 110.96326l0 7.6850357l-243.05511 0l0 -7.6850357z" fill-rule="evenodd"/><path fill="#efefef" d="m437.16534 231.68504l-7.685028 0l0 -118.29922l7.685028 0z" fill-rule="evenodd"/><path fill="#0b5394" d="m342.5433 166.96326l0 7.6850433l-171.2126 0l0 -7.6850433z" fill-rule="evenodd"/><path fill="#d9d9d9" d="m226.07764 215.7048l0 0c0 -18.411362 13.4422455 -33.336716 30.024109 -33.336716l0 0c7.9628906 0 15.59964 3.5122528 21.230255 9.764099c5.630615 6.2518463 8.793854 14.731171 8.793854 23.572617l0 0c0 18.411346 -13.442261 33.3367 -30.024109 33.3367l0 0c-16.581863 0 -30.024109 -14.925354 -30.024109 -33.3367z" fill-rule="evenodd"/><path stroke="#ffffff" stroke-width="4.0" stroke-linejoin="round" stroke-linecap="butt" d="m226.07764 215.7048l0 0c0 -18.411362 13.4422455 -33.336716 30.024109 -33.336716l0 0c7.9628906 0 15.59964 3.5122528 21.230255 9.764099c5.630615 6.2518463 8.793854 14.731171 8.793854 23.572617l0 0c0 18.411346 -13.442261 33.3367 -30.024109 33.3367l0 0c-16.581863 0 -30.024109 -14.925354 -30.024109 -33.3367z" fill-rule="evenodd"/><path fill="#d9d9d9" d="m246.51653 151.06876l20.304703 0l0 44.721634l-20.304703 0z" fill-rule="evenodd"/><path stroke="#ffffff" stroke-width="4.0" stroke-linejoin="round" stroke-linecap="butt" d="m246.51653 151.06876l20.304703 0l0 44.721634l-20.304703 0z" fill-rule="evenodd"/><path fill="#ffffff" d="m240.94173 140.44421l31.600235 0l0 10.624542l-31.600235 0z" fill-rule="evenodd"/><path stroke="#ffffff" stroke-width="1.0" stroke-linejoin="round" stroke-linecap="butt" d="m240.94173 140.44421l31.600235 0l0 10.624542l-31.600235 0z" fill-rule="evenodd"/><path fill="#ff9900" d="m280.85992 204.68436c5.904419 12.7378845 2.8765259 27.846603 -7.3082275 36.466904c-10.184723 8.6203 -24.842102 8.48027 -35.377502 -0.33798218c-10.5354 -8.818237 -14.172195 -23.990631 -8.777878 -36.620575z" fill-rule="evenodd"/><path fill="#ff9900" d="m256.71915 209.57799l0 0c0 -6.701889 6.0611877 -12.134827 13.538086 -12.134827l0 0c7.4768677 0 13.538086 5.4329376 13.538086 12.134827l0 0c0 6.701889 -6.0612183 12.134842 -13.538086 12.134842l0 0c-7.476898 0 -13.538086 -5.432953 -13.538086 -12.134842z" fill-rule="evenodd"/><path fill="#ff9900" d="m244.63312 212.1996l0 0c0 -6.701889 6.0612183 -12.134842 13.538086 -12.134842l0 0c7.476898 0 13.538086 5.432953 13.538086 12.134842l0 0c0 6.701889 -6.0611877 12.134827 -13.538086 12.134827l0 0c-7.4768677 0 -13.538086 -5.4329376 -13.538086 -12.134827z" fill-rule="evenodd"/><path fill="#ff9900" d="m229.53593 209.57799l0 0c0 -6.701889 6.0612183 -12.134827 13.538086 -12.134827l0 0c7.476883 0 13.538101 5.4329376 13.538101 12.134827l0 0c0 6.701889 -6.0612183 12.134842 -13.538101 12.134842l0 0c-7.4768677 0 -13.538086 -5.432953 -13.538086 -12.134842z" fill-rule="evenodd"/><path fill="#f6b26b" d="m254.51793 211.21939l0 0c0 -0.6950989 0.5227051 -1.2585907 1.1674957 -1.2585907l0 0c0.30963135 0 0.6065979 0.13261414 0.825531 0.36863708c0.21896362 0.23603821 0.34194946 0.55615234 0.34194946 0.8899536l0 0c0 0.6950989 -0.5227051 1.2585754 -1.1674805 1.2585754l0 0c-0.64479065 0 -1.1674957 -0.56347656 -1.1674957 -1.2585754z" fill-rule="evenodd"/><path fill="#f6b26b" d="m264.4027 215.77127l0 0c0 -1.7377472 1.3067627 -3.146469 2.9187622 -3.146469l0 0c0.77407837 0 1.5164795 0.33151245 2.0638428 0.9215851c0.5473633 0.59007263 0.8548889 1.3903809 0.8548889 2.224884l0 0c0 1.7377319 -1.3067627 3.1464539 -2.9187317 3.1464539l0 0c-1.6119995 0 -2.9187622 -1.4087219 -2.9187622 -3.1464539z" fill-rule="evenodd"/><path fill="#f6b26b" d="m259.46033 226.42726l0 0c0 -1.7377319 1.3067627 -3.1464539 2.9187317 -3.1464539l0 0c0.7741089 0 1.5164795 0.3314972 2.0638733 0.9215698c0.5473633 0.5900879 0.8548584 1.3903961 0.8548584 2.224884l0 0c0 1.7377472 -1.3067627 3.1464539 -2.9187317 3.1464539l0 0c-1.611969 0 -2.9187317 -1.4087067 -2.9187317 -3.1464539z" fill-rule="evenodd"/><path fill="#f6b26b" d="m247.10432 231.75526l0 0c0 -1.7377472 1.3067627 -3.1464539 2.9187317 -3.1464539l0 0c0.7741089 0 1.5164948 0.3314972 2.0638733 0.9215698c0.5473633 0.59007263 0.85487366 1.3903961 0.85487366 2.224884l0 0c0 1.7377472 -1.3067627 3.1464539 -2.918747 3.1464539l0 0c-1.611969 0 -2.9187317 -1.4087067 -2.9187317 -3.1464539z" fill-rule="evenodd"/><path fill="#f6b26b" d="m269.34512 231.75526l0 0c0 -1.7377472 1.3067627 -3.1464539 2.9187317 -3.1464539l0 0c0.7741089 0 1.51651 0.3314972 2.0638733 0.9215698c0.5473633 0.59007263 0.8548584 1.3903961 0.8548584 2.224884l0 0c0 1.7377472 -1.3067627 3.1464539 -2.9187317 3.1464539l0 0c-1.611969 0 -2.9187317 -1.4087067 -2.9187317 -3.1464539z" fill-rule="evenodd"/><path fill="#f6b26b" d="m274.28754 210.44327l0 0c0 -1.7377472 1.3067627 -3.1464539 2.9187317 -3.1464539l0 0c0.77407837 0 1.5164795 0.3314972 2.0638428 0.9215698c0.5473938 0.59007263 0.8548889 1.3903809 0.8548889 2.224884l0 0c0 1.7377319 -1.3067627 3.1464539 -2.9187317 3.1464539l0 0c-1.611969 0 -2.9187317 -1.4087219 -2.9187317 -3.1464539z" fill-rule="evenodd"/><path fill="#f6b26b" d="m254.51793 184.57939l0 0c0 -0.6950989 0.5227051 -1.2585907 1.1674957 -1.2585907l0 0c0.30963135 0 0.6065979 0.13261414 0.825531 0.36863708c0.21896362 0.23602295 0.34194946 0.55615234 0.34194946 0.8899536l0 0c0 0.6950989 -0.5227051 1.2585754 -1.1674805 1.2585754l0 0c-0.64479065 0 -1.1674957 -0.56347656 -1.1674957 -1.2585754z" fill-rule="evenodd"/><path fill="#d9d9d9" d="m242.9289 186.3283l24.91632 0l0 10.624542l-24.91632 0z" fill-rule="evenodd"/><path fill="#f6b26b" d="m244.63312 211.21939l0 0c0 -0.6950989 0.5227051 -1.2585907 1.1674957 -1.2585907l0 0c0.3096466 0 0.6065979 0.13261414 0.82554626 0.36863708c0.21894836 0.23603821 0.34194946 0.55615234 0.34194946 0.8899536l0 0c0 0.6950989 -0.5227051 1.2585754 -1.1674957 1.2585754l0 0c-0.64479065 0 -1.1674957 -0.56347656 -1.1674957 -1.2585754z" fill-rule="evenodd"/><path fill="#f6b26b" d="m249.57552 192.5714l0 0c0 -0.6950989 0.5227051 -1.2585907 1.1674957 -1.2585907l0 0c0.3096466 0 0.6065979 0.13259888 0.82554626 0.36863708c0.21894836 0.23602295 0.34194946 0.55615234 0.34194946 0.8899536l0 0c0 0.6950836 -0.5227051 1.2585754 -1.1674957 1.2585754l0 0c-0.64479065 0 -1.1674957 -0.5634918 -1.1674957 -1.2585754z" fill-rule="evenodd"/><path fill="#6fa8dc" d="m270.5433 166.96326l0 7.6850433l-27.590546 0l0 -7.6850433z" fill-rule="evenodd"/><path fill="#0b5394" d="m304.75854 300.021l3.7795105 0l0 49.51181l-3.7795105 0z" fill-rule="evenodd"/><path fill="#0b5394" d="m193.51181 290.68503l120.944885 0l0 8.692932l-120.944885 0z" fill-rule="evenodd"/><path fill="#0b5394" d="m193.51181 338.68503l120.97638 0l0 16.251984l-120.97638 0z" fill-rule="evenodd"/><path fill="#0b5394" d="m200.75853 292.021l3.7795258 0l0 49.51181l-3.7795258 0z" fill-rule="evenodd"/><path fill="#eeeeee" d="m214.2179 337.88977l8.314865 0l0 0c0.55133057 0 1.0800781 -0.21902466 1.4699249 -0.6088562c0.3898468 -0.38986206 0.6088562 -0.9186096 0.6088562 -1.4699402l0 -48.566895c0 -3.0517578E-5 -4.5776367E-5 -9.1552734E-5 -9.1552734E-5 -9.1552734E-5l-12.472336 9.1552734E-5l0 0c-6.1035156E-5 0 -1.0681152E-4 6.1035156E-5 -1.0681152E-4 1.2207031E-4l1.0681152E-4 48.566772l0 0c0 1.1481018 0.9306946 2.0787964 2.0787811 2.0787964z" fill-rule="evenodd"/><path fill="#eeeeee" d="m238.2179 337.88977l8.314865 0l0 0c0.55133057 0 1.0800781 -0.21902466 1.4699249 -0.6088562c0.3898468 -0.38986206 0.6088562 -0.9186096 0.6088562 -1.4699402l0 -48.566895c0 -3.0517578E-5 -4.5776367E-5 -9.1552734E-5 -9.1552734E-5 -9.1552734E-5l-12.472336 9.1552734E-5l0 0c-6.1035156E-5 0 -1.0681152E-4 6.1035156E-5 -1.0681152E-4 1.2207031E-4l1.0681152E-4 48.566772l0 0c0 1.1481018 0.9306946 2.0787964 2.0787811 2.0787964z" fill-rule="evenodd"/><path fill="#eeeeee" d="m262.2179 337.88977l8.31488 0l0 0c0.55133057 0 1.0800781 -0.21902466 1.4699097 -0.6088562c0.38986206 -0.38986206 0.6088562 -0.9186096 0.6088562 -1.4699402l0 -48.566895c0 -3.0517578E-5 -3.0517578E-5 -9.1552734E-5 -9.1552734E-5 -9.1552734E-5l-12.472351 9.1552734E-5l0 0c-6.1035156E-5 0 -9.1552734E-5 6.1035156E-5 -9.1552734E-5 1.2207031E-4l9.1552734E-5 48.566772l0 0c0 1.1481018 0.9307251 2.0787964 2.0787964 2.0787964z" fill-rule="evenodd"/><path fill="#eeeeee" d="m286.2179 337.88977l8.31488 0l0 0c0.55133057 0 1.0800781 -0.21902466 1.4699097 -0.6088562c0.38986206 -0.38986206 0.6088562 -0.9186096 0.6088562 -1.4699402l0 -48.566895c0 -3.0517578E-5 -3.0517578E-5 -9.1552734E-5 -9.1552734E-5 -9.1552734E-5l-12.472351 9.1552734E-5l0 0c-6.1035156E-5 0 -9.1552734E-5 6.1035156E-5 -9.1552734E-5 1.2207031E-4l9.1552734E-5 48.566772l0 0c0 1.1481018 0.9307251 2.0787964 2.0787964 2.0787964z" fill-rule="evenodd"/><path fill="#9900ff" d="m215.0184 336.0971l5.795212 0l0 0c0.38426208 0 0.7527771 -0.15264893 1.0244904 -0.42434692c0.27171326 -0.27172852 0.42436218 -0.6402283 0.42436218 -1.0245056l0 -34.078705c0 -3.0517578E-5 -3.0517578E-5 -6.1035156E-5 -7.6293945E-5 -6.1035156E-5l-8.692841 6.1035156E-5l0 0c-3.0517578E-5 0 -6.1035156E-5 3.0517578E-5 -6.1035156E-5 9.1552734E-5l6.1035156E-5 34.078613l0 0c0 0.8002014 0.64868164 1.4488525 1.4488525 1.4488525z" fill-rule="evenodd"/><path fill="#ffff00" d="m239.0184 336.0971l5.795212 0l0 0c0.38426208 0 0.7527771 -0.15264893 1.0244904 -0.42434692c0.27171326 -0.27172852 0.42436218 -0.6402283 0.42436218 -1.0245056l0 -34.078705c0 -3.0517578E-5 -3.0517578E-5 -6.1035156E-5 -7.6293945E-5 -6.1035156E-5l-8.692841 6.1035156E-5l0 0c-3.0517578E-5 0 -6.1035156E-5 3.0517578E-5 -6.1035156E-5 9.1552734E-5l6.1035156E-5 34.078613l0 0c0 0.8002014 0.64868164 1.4488525 1.4488525 1.4488525z" fill-rule="evenodd"/><path fill="#cc4125" d="m263.0184 336.0971l5.795227 0l0 0c0.38424683 0 0.7527771 -0.15264893 1.0244751 -0.42434692c0.27172852 -0.27172852 0.42437744 -0.6402283 0.42437744 -1.0245056l0 -34.078705c0 -3.0517578E-5 -6.1035156E-5 -6.1035156E-5 -9.1552734E-5 -6.1035156E-5l-8.692841 6.1035156E-5l0 0c-3.0517578E-5 0 -6.1035156E-5 3.0517578E-5 -6.1035156E-5 9.1552734E-5l6.1035156E-5 34.078613l0 0c0 0.8002014 0.64868164 1.4488525 1.4488525 1.4488525z" fill-rule="evenodd"/><path fill="#ff9900" d="m287.0184 336.0971l5.795227 0l0 0c0.38424683 0 0.7527771 -0.15264893 1.0244751 -0.42434692c0.27172852 -0.27172852 0.42437744 -0.6402283 0.42437744 -1.0245056l0 -34.078705c0 -3.0517578E-5 -6.1035156E-5 -6.1035156E-5 -9.1552734E-5 -6.1035156E-5l-8.692841 6.1035156E-5l0 0c-3.0517578E-5 0 -6.1035156E-5 3.0517578E-5 -6.1035156E-5 9.1552734E-5l6.1035156E-5 34.078613l0 0c0 0.8002014 0.64868164 1.4488525 1.4488525 1.4488525z" fill-rule="evenodd"/><path fill="#0b5394" d="m465.17322 297.27823l7.6850586 0l0 57.82675l-7.6850586 0z" fill-rule="evenodd"/><path fill="#0b5394" d="m393.17322 297.27823l7.6850586 0l0 57.82675l-7.6850586 0z" fill-rule="evenodd"/><path fill="#0b5394" d="m469.7953 298.3491l0 7.685028l-72.944885 0l0 -7.685028z" fill-rule="evenodd"/><path fill="#ff9900" d="m399.71323 302.605l33.609406 -54.50087l33.609436 54.50087z" fill-rule="evenodd"/><path stroke="#ffffff" stroke-width="3.0" stroke-linejoin="round" stroke-linecap="butt" d="m399.71323 302.605l33.609406 -54.50087l33.609436 54.50087z" fill-rule="evenodd"/><path fill="#ffffff" d="m423.14008 237.3961l20.375092 0l0 40.39012l-20.375092 0z" fill-rule="evenodd"/><path fill="#ffffff" d="m441.3198 278.43375l1.279602 -15.521149l8.725464 16.454987z" fill-rule="evenodd"/><path fill="#ffffff" d="m423.99484 279.8676l-1.279602 -15.521149l-8.725464 16.454987z" fill-rule="evenodd"/><path fill="#ff9900" d="m417.56787 279.9025l0 0c0 -3.6932373 2.5261536 -6.687195 5.642334 -6.687195l0 0c1.4964294 0 2.9315796 0.7045288 3.9897156 1.9586182c1.058136 1.2540894 1.6525879 2.955017 1.6525879 4.7285767l0 0c0 3.6932373 -2.5261536 6.687195 -5.6423035 6.687195l0 0c-3.1161804 0 -5.642334 -2.9939575 -5.642334 -6.687195z" fill-rule="evenodd"/><path stroke="#ff9900" stroke-width="1.0" stroke-linejoin="round" stroke-linecap="butt" d="m417.56787 279.9025l0 0c0 -3.6932373 2.5261536 -6.687195 5.642334 -6.687195l0 0c1.4964294 0 2.9315796 0.7045288 3.9897156 1.9586182c1.058136 1.2540894 1.6525879 2.955017 1.6525879 4.7285767l0 0c0 3.6932373 -2.5261536 6.687195 -5.6423035 6.687195l0 0c-3.1161804 0 -5.642334 -2.9939575 -5.642334 -6.687195z" fill-rule="evenodd"/><path fill="#ff9900" d="m427.80466 279.9025l0 0c0 -3.6932373 2.5261536 -6.687195 5.642334 -6.687195l0 0c1.4964294 0 2.9315796 0.7045288 3.9897156 1.9586182c1.0581665 1.2540894 1.6526184 2.955017 1.6526184 4.7285767l0 0c0 3.6932373 -2.5261536 6.687195 -5.642334 6.687195l0 0c-3.1161804 0 -5.642334 -2.9939575 -5.642334 -6.687195z" fill-rule="evenodd"/><path stroke="#ff9900" stroke-width="1.0" stroke-linejoin="round" stroke-linecap="butt" d="m427.80466 279.9025l0 0c0 -3.6932373 2.5261536 -6.687195 5.642334 -6.687195l0 0c1.4964294 0 2.9315796 0.7045288 3.9897156 1.9586182c1.0581665 1.2540894 1.6526184 2.955017 1.6526184 4.7285767l0 0c0 3.6932373 -2.5261536 6.687195 -5.642334 6.687195l0 0c-3.1161804 0 -5.642334 -2.9939575 -5.642334 -6.687195z" fill-rule="evenodd"/><path fill="#ff9900" d="m440.60065 282.6289l0 0c0 -3.6932373 2.526184 -6.687195 5.642334 -6.687195l0 0c1.49646 0 2.93161 0.7045288 3.989746 1.9586182c1.058136 1.2540894 1.6525879 2.955017 1.6525879 4.7285767l0 0c0 3.6932068 -2.5261536 6.6871643 -5.642334 6.6871643l0 0c-3.11615 0 -5.642334 -2.9939575 -5.642334 -6.6871643z" fill-rule="evenodd"/><path stroke="#ff9900" stroke-width="1.0" stroke-linejoin="round" stroke-linecap="butt" d="m440.60065 282.6289l0 0c0 -3.6932373 2.526184 -6.687195 5.642334 -6.687195l0 0c1.49646 0 2.93161 0.7045288 3.989746 1.9586182c1.058136 1.2540894 1.6525879 2.955017 1.6525879 4.7285767l0 0c0 3.6932068 -2.5261536 6.6871643 -5.642334 6.6871643l0 0c-3.11615 0 -5.642334 -2.9939575 -5.642334 -6.6871643z" fill-rule="evenodd"/><path fill="#ff9900" d="m431.604 274.04895l0 0c0 -3.6932373 2.5261536 -6.687195 5.642334 -6.687195l0 0c1.4964294 0 2.9315796 0.7045593 3.9897156 1.9586487c1.058136 1.2540894 1.6526184 2.955017 1.6526184 4.728546l0 0c0 3.6932373 -2.526184 6.687195 -5.642334 6.687195l0 0c-3.1161804 0 -5.642334 -2.9939575 -5.642334 -6.687195z" fill-rule="evenodd"/><path stroke="#ff9900" stroke-width="1.0" stroke-linejoin="round" stroke-linecap="butt" d="m431.604 274.04895l0 0c0 -3.6932373 2.5261536 -6.687195 5.642334 -6.687195l0 0c1.4964294 0 2.9315796 0.7045593 3.9897156 1.9586487c1.058136 1.2540894 1.6526184 2.955017 1.6526184 4.728546l0 0c0 3.6932373 -2.526184 6.687195 -5.642334 6.687195l0 0c-3.1161804 0 -5.642334 -2.9939575 -5.642334 -6.687195z" fill-rule="evenodd"/><path fill="#f9cb9c" d="m430.32483 264.55396l0 0c0 -0.72320557 0.5503235 -1.3095093 1.2292175 -1.3095093l0 0c0.32598877 0 0.6386719 0.13796997 0.86917114 0.38354492c0.23052979 0.24557495 0.3600464 0.5786743 0.3600464 0.92596436l0 0c0 0.7232361 -0.550354 1.3095398 -1.2292175 1.3095398l0 0c-0.67889404 0 -1.2292175 -0.5863037 -1.2292175 -1.3095398z" fill-rule="evenodd"/><path stroke="#f9cb9c" stroke-width="1.0" stroke-linejoin="round" stroke-linecap="butt" d="m430.32483 264.55396l0 0c0 -0.72320557 0.5503235 -1.3095093 1.2292175 -1.3095093l0 0c0.32598877 0 0.6386719 0.13796997 0.86917114 0.38354492c0.23052979 0.24557495 0.3600464 0.5786743 0.3600464 0.92596436l0 0c0 0.7232361 -0.550354 1.3095398 -1.2292175 1.3095398l0 0c-0.67889404 0 -1.2292175 -0.5863037 -1.2292175 -1.3095398z" fill-rule="evenodd"/><path fill="#000000" d="m638.42255 260.96353l0 0c0 -7.352356 5.960266 -13.312607 13.312622 -13.312607l114.16223 0c3.5307007 0 6.916809 1.4025726 9.413391 3.89917c2.496582 2.4965973 3.89917 5.8827057 3.89917 9.413437l0 53.24881c0 7.3523254 -5.960266 13.312592 -13.312561 13.312592l-114.16223 0c-7.352356 0 -13.312622 -5.960266 -13.312622 -13.312592z" fill-rule="evenodd"/><path stroke="#666666" stroke-width="8.0" stroke-linejoin="round" stroke-linecap="butt" d="m638.42255 260.96353l0 0c0 -7.352356 5.960266 -13.312607 13.312622 -13.312607l114.16223 0c3.5307007 0 6.916809 1.4025726 9.413391 3.89917c2.496582 2.4965973 3.89917 5.8827057 3.89917 9.413437l0 53.24881c0 7.3523254 -5.960266 13.312592 -13.312561 13.312592l-114.16223 0c-7.352356 0 -13.312622 -5.960266 -13.312622 -13.312592z" fill-rule="evenodd"/><path fill="#ffffff" d="m675.20996 351.62204l5.0236206 -20.094482l57.165344 0l5.0236206 20.094482z" fill-rule="evenodd"/><path fill="#ffffff" d="m657.1732 355.97507l50.435852 -17.259857l51.61139 17.259857z" fill-rule="evenodd"/><path stroke="#ffffff" stroke-width="1.0" stroke-linejoin="round" stroke-linecap="butt" d="m657.1732 355.97507l50.435852 -17.259857l51.61139 17.259857z" fill-rule="evenodd"/><path fill="#000000" fill-opacity="0.0" d="m646.42255 258.9134l225.63782 0l0 44.850403l-225.63782 0z" fill-rule="evenodd"/><path fill="#00ff00" d="m656.2819 273.30588l7.015625 2.859375l0 1.21875l-7.015625 2.859375l0 -1.296875l5.65625 -2.171875l-5.65625 -2.1875l0 -1.28125z" fill-rule="nonzero"/><path fill="#00ff00" d="m672.8525 272.9465l-1.8125 5.1875l3.640625 0l-1.828125 -5.1875zm-4.625 9.046875q0.09375 -0.21875 0.1875 -0.453125q0.109375 -0.234375 0.21875 -0.53125q0.125 -0.296875 0.265625 -0.671875q0.15625 -0.390625 0.328125 -0.890625l2.875 -7.90625l1.53125 0l2.859375 7.90625q0.1875 0.5 0.328125 0.890625q0.140625 0.375 0.265625 0.671875q0.125 0.296875 0.21875 0.53125q0.09375 0.234375 0.1875 0.453125l-1.453125 0l-0.984375 -2.75l-4.390625 0l-0.96875 2.75l-1.46875 0zm14.608154 -9.046875l-1.8125 5.1875l3.640625 0l-1.828125 -5.1875zm-4.625 9.046875q0.09375 -0.21875 0.1875 -0.453125q0.109375 -0.234375 0.21875 -0.53125q0.125 -0.296875 0.265625 -0.671875q0.15625 -0.390625 0.328125 -0.890625l2.875 -7.90625l1.53125 0l2.859375 7.90625q0.1875 0.5 0.328125 0.890625q0.140625 0.375 0.265625 0.671875q0.125 0.296875 0.21875 0.53125q0.09375 0.234375 0.1875 0.453125l-1.453125 0l-0.984375 -2.75l-4.390625 0l-0.96875 2.75l-1.46875 0zm18.295593 -10.453125l0 1.328125q-0.4375 -0.09375 -0.859375 -0.109375q-0.40625 -0.03125 -0.90625 -0.03125l-1.71875 0l0 6.15625q0 1.0625 0.03125 1.875q0.03125 0.8125 0.125 1.234375l-1.65625 0q0.09375 -0.421875 0.109375 -1.234375q0.03125 -0.8125 0.03125 -1.875l0 -6.15625l-1.671875 0q-0.484375 0 -0.90625 0.03125q-0.421875 0.015625 -0.84375 0.109375l0 -1.328125l8.265625 0zm9.584106 9.34375q-0.546875 0.390625 -1.046875 0.640625q-0.484375 0.25 -0.9375 0.390625q-0.453125 0.140625 -0.90625 0.1875q-0.4375 0.0625 -0.90625 0.0625q-1.015625 0 -1.875 -0.34375q-0.84375 -0.34375 -1.46875 -1.015625q-0.609375 -0.6875 -0.953125 -1.671875q-0.34375 -1.0 -0.34375 -2.296875q0 -1.28125 0.375 -2.296875q0.390625 -1.015625 1.0625 -1.71875q0.671875 -0.71875 1.5625 -1.078125q0.90625 -0.375 1.9375 -0.375q0.421875 0 0.828125 0.046875q0.421875 0.03125 0.828125 0.140625q0.40625 0.109375 0.828125 0.3125q0.4375 0.1875 0.90625 0.5l-0.46875 1.28125q-0.390625 -0.3125 -0.765625 -0.515625q-0.375 -0.21875 -0.734375 -0.328125q-0.359375 -0.125 -0.71875 -0.171875q-0.359375 -0.046875 -0.703125 -0.046875q-0.828125 0 -1.484375 0.28125q-0.65625 0.28125 -1.125 0.8125q-0.453125 0.53125 -0.703125 1.296875q-0.234375 0.75 -0.234375 1.6875q0 0.984375 0.234375 1.78125q0.234375 0.78125 0.65625 1.34375q0.4375 0.546875 1.0625 0.84375q0.625 0.28125 1.390625 0.28125q0.3125 0 0.59375 -0.03125q0.296875 -0.03125 0.5625 -0.109375q0.28125 -0.078125 0.5625 -0.203125q0.296875 -0.125 0.625 -0.328125l0 -2.40625l-2.5 0l0 -1.171875l3.859375 0l0 4.21875zm9.630798 -9.34375l0 1.328125q-0.4375 -0.09375 -0.859375 -0.109375q-0.40625 -0.03125 -0.90625 -0.03125l-1.71875 0l0 6.15625q0 1.0625 0.03125 1.875q0.03125 0.8125 0.125 1.234375l-1.65625 0q0.09375 -0.421875 0.109375 -1.234375q0.03125 -0.8125 0.03125 -1.875l0 -6.15625l-1.671875 0q-0.484375 0 -0.90625 0.03125q-0.421875 0.015625 -0.84375 0.109375l0 -1.328125l8.265625 0zm9.25592 9.453125q-0.3125 0.296875 -0.734375 0.515625q-0.421875 0.21875 -0.890625 0.375q-0.453125 0.140625 -0.921875 0.203125q-0.46875 0.078125 -0.875 0.078125q-1.09375 0 -1.96875 -0.359375q-0.859375 -0.375 -1.46875 -1.046875q-0.609375 -0.6875 -0.9375 -1.65625q-0.3125 -0.984375 -0.3125 -2.1875q0 -1.390625 0.390625 -2.421875q0.40625 -1.046875 1.0625 -1.734375q0.671875 -0.703125 1.546875 -1.046875q0.875 -0.34375 1.828125 -0.34375q0.375 0 0.78125 0.046875q0.40625 0.046875 0.796875 0.171875q0.40625 0.109375 0.8125 0.3125q0.40625 0.1875 0.78125 0.46875l-0.421875 1.28125q-0.34375 -0.296875 -0.6875 -0.5q-0.34375 -0.203125 -0.703125 -0.328125q-0.34375 -0.125 -0.703125 -0.171875q-0.34375 -0.0625 -0.65625 -0.0625q-0.75 0 -1.390625 0.265625q-0.625 0.25 -1.078125 0.78125q-0.453125 0.515625 -0.71875 1.296875q-0.25 0.765625 -0.25 1.796875q0 0.96875 0.25 1.75q0.25 0.765625 0.703125 1.3125q0.453125 0.546875 1.0625 0.84375q0.609375 0.28125 1.34375 0.28125q0.40625 0 0.828125 -0.09375q0.421875 -0.09375 0.8125 -0.265625q0.40625 -0.171875 0.765625 -0.40625q0.375 -0.25 0.671875 -0.546875l0.28125 1.390625zm9.696899 0q-0.3125 0.296875 -0.734375 0.515625q-0.421875 0.21875 -0.890625 0.375q-0.453125 0.140625 -0.921875 0.203125q-0.46875 0.078125 -0.875 0.078125q-1.09375 0 -1.96875 -0.359375q-0.859375 -0.375 -1.46875 -1.046875q-0.609375 -0.6875 -0.9375 -1.65625q-0.3125 -0.984375 -0.3125 -2.1875q0 -1.390625 0.390625 -2.421875q0.40625 -1.046875 1.0625 -1.734375q0.671875 -0.703125 1.546875 -1.046875q0.875 -0.34375 1.828125 -0.34375q0.375 0 0.78125 0.046875q0.40625 0.046875 0.796875 0.171875q0.40625 0.109375 0.8125 0.3125q0.40625 0.1875 0.78125 0.46875l-0.421875 1.28125q-0.34375 -0.296875 -0.6875 -0.5q-0.34375 -0.203125 -0.703125 -0.328125q-0.34375 -0.125 -0.703125 -0.171875q-0.34375 -0.0625 -0.65625 -0.0625q-0.75 0 -1.390625 0.265625q-0.625 0.25 -1.078125 0.78125q-0.453125 0.515625 -0.71875 1.296875q-0.25 0.765625 -0.25 1.796875q0 0.96875 0.25 1.75q0.25 0.765625 0.703125 1.3125q0.453125 0.546875 1.0625 0.84375q0.609375 0.28125 1.34375 0.28125q0.40625 0 0.828125 -0.09375q0.421875 -0.09375 0.8125 -0.265625q0.40625 -0.171875 0.765625 -0.40625q0.375 -0.25 0.671875 -0.546875l0.28125 1.390625zm10.024963 -0.109375q-0.546875 0.390625 -1.046875 0.640625q-0.484375 0.25 -0.9375 0.390625q-0.453125 0.140625 -0.90625 0.1875q-0.4375 0.0625 -0.90625 0.0625q-1.015625 0 -1.875 -0.34375q-0.84375 -0.34375 -1.46875 -1.015625q-0.609375 -0.6875 -0.953125 -1.671875q-0.34375 -1.0 -0.34375 -2.296875q0 -1.28125 0.375 -2.296875q0.390625 -1.015625 1.0625 -1.71875q0.671875 -0.71875 1.5625 -1.078125q0.90625 -0.375 1.9375 -0.375q0.421875 0 0.828125 0.046875q0.421875 0.03125 0.828125 0.140625q0.40625 0.109375 0.828125 0.3125q0.4375 0.1875 0.90625 0.5l-0.46875 1.28125q-0.390625 -0.3125 -0.765625 -0.515625q-0.375 -0.21875 -0.734375 -0.328125q-0.359375 -0.125 -0.71875 -0.171875q-0.359375 -0.046875 -0.703125 -0.046875q-0.828125 0 -1.484375 0.28125q-0.65625 0.28125 -1.125 0.8125q-0.453125 0.53125 -0.703125 1.296875q-0.234375 0.75 -0.234375 1.6875q0 0.984375 0.234375 1.78125q0.234375 0.78125 0.65625 1.34375q0.4375 0.546875 1.0625 0.84375q0.625 0.28125 1.390625 0.28125q0.3125 0 0.59375 -0.03125q0.296875 -0.03125 0.5625 -0.109375q0.28125 -0.078125 0.5625 -0.203125q0.296875 -0.125 0.625 -0.328125l0 -2.40625l-2.5 0l0 -1.171875l3.859375 0l0 4.21875zm9.630798 -9.34375l0 1.328125q-0.4375 -0.09375 -0.859375 -0.109375q-0.40625 -0.03125 -0.90625 -0.03125l-1.71875 0l0 6.15625q0 1.0625 0.03125 1.875q0.03125 0.8125 0.125 1.234375l-1.65625 0q0.09375 -0.421875 0.109375 -1.234375q0.03125 -0.8125 0.03125 -1.875l0 -6.15625l-1.671875 0q-0.484375 0 -0.90625 0.03125q-0.421875 0.015625 -0.84375 0.109375l0 -1.328125l8.265625 0z" fill-rule="nonzero"/><path fill="#00ff00" d="m664.0163 289.54025l0 1.328125q-0.4375 -0.09375 -0.859375 -0.109375q-0.40625 -0.03125 -0.90625 -0.03125l-1.71875 0l0 6.15625q0 1.0625 0.03125 1.875q0.03125 0.8125 0.125 1.234375l-1.65625 0q0.09375 -0.421875 0.109375 -1.234375q0.03125 -0.8125 0.03125 -1.875l0 -6.15625l-1.671875 0q-0.484375 0 -0.90625 0.03125q-0.421875 0.015625 -0.84375 0.109375l0 -1.328125l8.265625 0zm9.052856 0l0 1.328125q-0.4375 -0.09375 -0.859375 -0.109375q-0.40625 -0.03125 -0.90625 -0.03125l-1.71875 0l0 6.15625q0 1.0625 0.03125 1.875q0.03125 0.8125 0.125 1.234375l-1.65625 0q0.09375 -0.421875 0.109375 -1.234375q0.03125 -0.8125 0.03125 -1.875l0 -6.15625l-1.671875 0q-0.484375 0 -0.90625 0.03125q-0.421875 0.015625 -0.84375 0.109375l0 -1.328125l8.265625 0zm9.584045 9.34375q-0.546875 0.390625 -1.046875 0.640625q-0.484375 0.25 -0.9375 0.390625q-0.453125 0.140625 -0.90625 0.1875q-0.4375 0.0625 -0.90625 0.0625q-1.015625 0 -1.875 -0.34375q-0.84375 -0.34375 -1.46875 -1.015625q-0.609375 -0.6875 -0.953125 -1.671875q-0.34375 -1.0 -0.34375 -2.296875q0 -1.28125 0.375 -2.296875q0.390625 -1.015625 1.0625 -1.71875q0.671875 -0.71875 1.5625 -1.078125q0.90625 -0.375 1.9375 -0.375q0.421875 0 0.828125 0.046875q0.421875 0.03125 0.828125 0.140625q0.40625 0.109375 0.828125 0.3125q0.4375 0.1875 0.90625 0.5l-0.46875 1.28125q-0.390625 -0.3125 -0.765625 -0.515625q-0.375 -0.21875 -0.734375 -0.328125q-0.359375 -0.125 -0.71875 -0.171875q-0.359375 -0.046875 -0.703125 -0.046875q-0.828125 0 -1.484375 0.28125q-0.65625 0.28125 -1.125 0.8125q-0.453125 0.53125 -0.703125 1.296875q-0.234375 0.75 -0.234375 1.6875q0 0.984375 0.234375 1.78125q0.234375 0.78125 0.65625 1.34375q0.4375 0.546875 1.0625 0.84375q0.625 0.28125 1.390625 0.28125q0.3125 0 0.59375 -0.03125q0.296875 -0.03125 0.5625 -0.109375q0.28125 -0.078125 0.5625 -0.203125q0.296875 -0.125 0.625 -0.328125l0 -2.40625l-2.5 0l0 -1.171875l3.859375 0l0 4.21875zm10.162048 0q-0.546875 0.390625 -1.046875 0.640625q-0.484375 0.25 -0.9375 0.390625q-0.453125 0.140625 -0.90625 0.1875q-0.4375 0.0625 -0.90625 0.0625q-1.015625 0 -1.875 -0.34375q-0.84375 -0.34375 -1.46875 -1.015625q-0.609375 -0.6875 -0.953125 -1.671875q-0.34375 -1.0 -0.34375 -2.296875q0 -1.28125 0.375 -2.296875q0.390625 -1.015625 1.0625 -1.71875q0.671875 -0.71875 1.5625 -1.078125q0.90625 -0.375 1.9375 -0.375q0.421875 0 0.828125 0.046875q0.421875 0.03125 0.828125 0.140625q0.40625 0.109375 0.828125 0.3125q0.4375 0.1875 0.90625 0.5l-0.46875 1.28125q-0.390625 -0.3125 -0.765625 -0.515625q-0.375 -0.21875 -0.734375 -0.328125q-0.359375 -0.125 -0.71875 -0.171875q-0.359375 -0.046875 -0.703125 -0.046875q-0.828125 0 -1.484375 0.28125q-0.65625 0.28125 -1.125 0.8125q-0.453125 0.53125 -0.703125 1.296875q-0.234375 0.75 -0.234375 1.6875q0 0.984375 0.234375 1.78125q0.234375 0.78125 0.65625 1.34375q0.4375 0.546875 1.0625 0.84375q0.625 0.28125 1.390625 0.28125q0.3125 0 0.59375 -0.03125q0.296875 -0.03125 0.5625 -0.109375q0.28125 -0.078125 0.5625 -0.203125q0.296875 -0.125 0.625 -0.328125l0 -2.40625l-2.5 0l0 -1.171875l3.859375 0l0 4.21875zm9.833923 0.109375q-0.3125 0.296875 -0.734375 0.515625q-0.421875 0.21875 -0.890625 0.375q-0.453125 0.140625 -0.921875 0.203125q-0.46875 0.078125 -0.875 0.078125q-1.09375 0 -1.96875 -0.359375q-0.859375 -0.375 -1.46875 -1.046875q-0.609375 -0.6875 -0.9375 -1.65625q-0.3125 -0.984375 -0.3125 -2.1875q0 -1.390625 0.390625 -2.421875q0.40625 -1.046875 1.0625 -1.734375q0.671875 -0.703125 1.546875 -1.046875q0.875 -0.34375 1.828125 -0.34375q0.375 0 0.78125 0.046875q0.40625 0.046875 0.796875 0.171875q0.40625 0.109375 0.8125 0.3125q0.40625 0.1875 0.78125 0.46875l-0.421875 1.28125q-0.34375 -0.296875 -0.6875 -0.5q-0.34375 -0.203125 -0.703125 -0.328125q-0.34375 -0.125 -0.703125 -0.171875q-0.34375 -0.0625 -0.65625 -0.0625q-0.75 0 -1.390625 0.265625q-0.625 0.25 -1.078125 0.78125q-0.453125 0.515625 -0.71875 1.296875q-0.25 0.765625 -0.25 1.796875q0 0.96875 0.25 1.75q0.25 0.765625 0.703125 1.3125q0.453125 0.546875 1.0625 0.84375q0.609375 0.28125 1.34375 0.28125q0.40625 0 0.828125 -0.09375q0.421875 -0.09375 0.8125 -0.265625q0.40625 -0.171875 0.765625 -0.40625q0.375 -0.25 0.671875 -0.546875l0.28125 1.390625zm9.696899 0q-0.3125 0.296875 -0.734375 0.515625q-0.421875 0.21875 -0.890625 0.375q-0.453125 0.140625 -0.921875 0.203125q-0.46875 0.078125 -0.875 0.078125q-1.09375 0 -1.96875 -0.359375q-0.859375 -0.375 -1.46875 -1.046875q-0.609375 -0.6875 -0.9375 -1.65625q-0.3125 -0.984375 -0.3125 -2.1875q0 -1.390625 0.390625 -2.421875q0.40625 -1.046875 1.0625 -1.734375q0.671875 -0.703125 1.546875 -1.046875q0.875 -0.34375 1.828125 -0.34375q0.375 0 0.78125 0.046875q0.40625 0.046875 0.796875 0.171875q0.40625 0.109375 0.8125 0.3125q0.40625 0.1875 0.78125 0.46875l-0.421875 1.28125q-0.34375 -0.296875 -0.6875 -0.5q-0.34375 -0.203125 -0.703125 -0.328125q-0.34375 -0.125 -0.703125 -0.171875q-0.34375 -0.0625 -0.65625 -0.0625q-0.75 0 -1.390625 0.265625q-0.625 0.25 -1.078125 0.78125q-0.453125 0.515625 -0.71875 1.296875q-0.25 0.765625 -0.25 1.796875q0 0.96875 0.25 1.75q0.25 0.765625 0.703125 1.3125q0.453125 0.546875 1.0625 0.84375q0.609375 0.28125 1.34375 0.28125q0.40625 0 0.828125 -0.09375q0.421875 -0.09375 0.8125 -0.265625q0.40625 -0.171875 0.765625 -0.40625q0.375 -0.25 0.671875 -0.546875l0.28125 1.390625zm10.024963 -0.109375q-0.546875 0.390625 -1.046875 0.640625q-0.484375 0.25 -0.9375 0.390625q-0.453125 0.140625 -0.90625 0.1875q-0.4375 0.0625 -0.90625 0.0625q-1.015625 0 -1.875 -0.34375q-0.84375 -0.34375 -1.46875 -1.015625q-0.609375 -0.6875 -0.953125 -1.671875q-0.34375 -1.0 -0.34375 -2.296875q0 -1.28125 0.375 -2.296875q0.390625 -1.015625 1.0625 -1.71875q0.671875 -0.71875 1.5625 -1.078125q0.90625 -0.375 1.9375 -0.375q0.421875 0 0.828125 0.046875q0.421875 0.03125 0.828125 0.140625q0.40625 0.109375 0.828125 0.3125q0.4375 0.1875 0.90625 0.5l-0.46875 1.28125q-0.390625 -0.3125 -0.765625 -0.515625q-0.375 -0.21875 -0.734375 -0.328125q-0.359375 -0.125 -0.71875 -0.171875q-0.359375 -0.046875 -0.703125 -0.046875q-0.828125 0 -1.484375 0.28125q-0.65625 0.28125 -1.125 0.8125q-0.453125 0.53125 -0.703125 1.296875q-0.234375 0.75 -0.234375 1.6875q0 0.984375 0.234375 1.78125q0.234375 0.78125 0.65625 1.34375q0.4375 0.546875 1.0625 0.84375q0.625 0.28125 1.390625 0.28125q0.3125 0 0.59375 -0.03125q0.296875 -0.03125 0.5625 -0.109375q0.28125 -0.078125 0.5625 -0.203125q0.296875 -0.125 0.625 -0.328125l0 -2.40625l-2.5 0l0 -1.171875l3.859375 0l0 4.21875zm9.630798 -9.34375l0 1.328125q-0.4375 -0.09375 -0.859375 -0.109375q-0.40625 -0.03125 -0.90625 -0.03125l-1.71875 0l0 6.15625q0 1.0625 0.03125 1.875q0.03125 0.8125 0.125 1.234375l-1.65625 0q0.09375 -0.421875 0.109375 -1.234375q0.03125 -0.8125 0.03125 -1.875l0 -6.15625l-1.671875 0q-0.484375 0 -0.90625 0.03125q-0.421875 0.015625 -0.84375 0.109375l0 -1.328125l8.265625 0zm5.3653564 1.40625l-1.8125 5.1875l3.640625 0l-1.828125 -5.1875zm-4.625 9.046875q0.09375 -0.21875 0.1875 -0.453125q0.109375 -0.234375 0.21875 -0.53125q0.125 -0.296875 0.265625 -0.671875q0.15625 -0.390625 0.328125 -0.890625l2.875 -7.90625l1.53125 0l2.859375 7.90625q0.1875 0.5 0.328125 0.890625q0.140625 0.375 0.265625 0.671875q0.125 0.296875 0.21875 0.53125q0.09375 0.234375 0.1875 0.453125l-1.453125 0l-0.984375 -2.75l-4.390625 0l-0.96875 2.75l-1.46875 0zm14.608093 -9.046875l-1.8125 5.1875l3.640625 0l-1.828125 -5.1875zm-4.625 9.046875q0.09375 -0.21875 0.1875 -0.453125q0.109375 -0.234375 0.21875 -0.53125q0.125 -0.296875 0.265625 -0.671875q0.15625 -0.390625 0.328125 -0.890625l2.875 -7.90625l1.53125 0l2.859375 7.90625q0.1875 0.5 0.328125 0.890625q0.140625 0.375 0.265625 0.671875q0.125 0.296875 0.21875 0.53125q0.09375 0.234375 0.1875 0.453125l-1.453125 0l-0.984375 -2.75l-4.390625 0l-0.96875 2.75l-1.46875 0z" fill-rule="nonzero"/><path fill="#ffffff" d="m573.39136 327.9235l0 0c0 -1.931366 1.5656738 -3.4970398 3.4970093 -3.4970398l13.987732 0l0 0c0.9274292 0 1.8168945 0.36843872 2.4727173 1.0242615c0.65582275 0.65582275 1.024292 1.5453186 1.024292 2.4727783l0 24.912506c0 1.931366 -1.5656738 3.4970398 -3.4970093 3.4970398l-13.987732 0c-1.9313354 0 -3.4970093 -1.5656738 -3.4970093 -3.4970398z" fill-rule="evenodd"/><path stroke="#ffffff" stroke-width="1.0" stroke-linejoin="round" stroke-linecap="butt" d="m573.39136 327.9235l0 0c0 -1.931366 1.5656738 -3.4970398 3.4970093 -3.4970398l13.987732 0l0 0c0.9274292 0 1.8168945 0.36843872 2.4727173 1.0242615c0.65582275 0.65582275 1.024292 1.5453186 1.024292 2.4727783l0 24.912506c0 1.931366 -1.5656738 3.4970398 -3.4970093 3.4970398l-13.987732 0c-1.9313354 0 -3.4970093 -1.5656738 -3.4970093 -3.4970398z" fill-rule="evenodd"/><path fill="#ffffff" d="m567.172 331.5442l11.516296 0l0 19.5607l-11.516296 0zm1.4395142 1.4395447l0 16.68164l8.637207 0l0 -16.68164z" fill-rule="evenodd"/><path stroke="#ffffff" stroke-width="1.0" stroke-linejoin="round" stroke-linecap="butt" d="m567.172 331.5442l11.516296 0l0 19.5607l-11.516296 0zm1.4395142 1.4395447l0 16.68164l8.637207 0l0 -16.68164z" fill-rule="evenodd"/></g></svg>