<svg version="1.1" viewBox="0.0 0.0 960.0 540.0" fill="none" stroke="none" stroke-linecap="square" stroke-miterlimit="10" xmlns:xlink="http://www.w3.org/1999/xlink" xmlns="http://www.w3.org/2000/svg"><clipPath id="g991a0be131_0_481.0"><path d="m0 0l960.0 0l0 540.0l-960.0 0l0 -540.0z" clip-rule="nonzero"/></clipPath><g clip-path="url(#g991a0be131_0_481.0)"><path fill="#9fc5e8" d="m0 0l960.0 0l0 540.0l-960.0 0z" fill-rule="evenodd"/><path fill="#45818e" d="m-8.390364 341.38016c65.60477 -34.096863 229.08723 -209.97615 393.6286 -204.58107c164.54141 5.3950806 489.39243 195.94893 593.61975 236.95155c104.227356 41.002655 26.453613 7.553589 31.744324 9.064301" fill-rule="evenodd"/><path fill="#93c47d" d="m500.9863 345.0663c-68.726105 -26.679443 -255.63467 -160.51414 -412.35672 -160.07668c-156.72205 0.43745422 -439.97968 135.58452 -527.9756 162.70143" fill-rule="evenodd"/><path fill="#38761d" d="m85.07619 412.68268c119.56378 -41.859283 486.16083 -241.72287 717.38275 -251.15567c231.22186 -9.4328 558.2906 162.13239 669.94867 194.55887" fill-rule="evenodd"/><path fill="#ffd966" d="m173.08136 85.585304l0 0c0 -20.873756 16.921524 -37.795277 37.795288 -37.795277l0 0c10.023926 0 19.637299 3.9819908 26.72528 11.069977c7.0879974 7.0879936 11.069992 16.701366 11.069992 26.7253l0 0c0 20.873749 -16.921524 37.795273 -37.795273 37.795273l0 0c-20.873764 0 -37.795288 -16.921524 -37.795288 -37.795273z" fill-rule="evenodd"/><path stroke="#ffd966" stroke-width="1.0" stroke-linejoin="round" stroke-linecap="butt" d="m173.08136 85.585304l0 0c0 -20.873756 16.921524 -37.795277 37.795288 -37.795277l0 0c10.023926 0 19.637299 3.9819908 26.72528 11.069977c7.0879974 7.0879936 11.069992 16.701366 11.069992 26.7253l0 0c0 20.873749 -16.921524 37.795273 -37.795273 37.795273l0 0c-20.873764 0 -37.795288 -16.921524 -37.795288 -37.795273z" fill-rule="evenodd"/><path fill="#cccccc" d="m676.277 238.55383l149.66333 0l0 96.320465l-149.66333 0z" fill-rule="evenodd"/><path fill="#efefef" d="m713.68567 299.33524l74.81738 0l0 35.430023l-74.81738 0z" fill-rule="evenodd"/><path fill="#b7b7b7" d="m593.5053 215.07632l82.411316 0l0 119.80768l-82.411316 0z" fill-rule="evenodd"/><path fill="#ffffff" d="m612.74615 221.8772l11.934998 0l0 17.638443l-11.934998 0z" fill-rule="evenodd"/><path fill="#ffffff" d="m644.7408 221.8772l11.934937 0l0 17.638443l-11.934937 0z" fill-rule="evenodd"/><path fill="#ffffff" d="m644.7408 244.01968l11.934937 0l0 17.638428l-11.934937 0z" fill-rule="evenodd"/><path fill="#ffffff" d="m612.74615 244.01968l11.934998 0l0 17.638428l-11.934998 0z" fill-rule="evenodd"/><path fill="#ffffff" d="m644.7408 288.30466l11.934937 0l0 17.638428l-11.934937 0z" fill-rule="evenodd"/><path fill="#ffffff" d="m612.74615 288.30466l11.934998 0l0 17.638428l-11.934998 0z" fill-rule="evenodd"/><path fill="#ffffff" d="m612.74615 310.4471l11.934998 0l0 17.638458l-11.934998 0z" fill-rule="evenodd"/><path fill="#ffffff" d="m644.7408 310.4471l11.934937 0l0 17.638458l-11.934937 0z" fill-rule="evenodd"/><path fill="#ffffff" d="m612.74615 266.16217l11.934998 0l0 17.638428l-11.934998 0z" fill-rule="evenodd"/><path fill="#ffffff" d="m644.7408 266.16217l11.934937 0l0 17.638428l-11.934937 0z" fill-rule="evenodd"/><path fill="#ffffff" d="m733.941 270.8133l0 0c0 -10.405151 9.215759 -18.840195 20.584045 -18.840195l0 0c11.368286 0 20.584045 8.435043 20.584045 18.840195l0 0c0 10.405151 -9.215759 18.84018 -20.584045 18.84018l0 0c-11.368286 0 -20.584045 -8.435028 -20.584045 -18.84018z" fill-rule="evenodd"/><path fill="#cc0000" d="m740.8023 264.53323l6.2800903 0l0 -6.28006l14.885254 0l0 6.28006l6.2800903 0l0 12.56012l-6.2800903 0l0 6.28006l-14.885254 0l0 -6.28006l-6.2800903 0z" fill-rule="evenodd"/><path fill="#b7b7b7" d="m825.87646 215.07632l82.411316 0l0 119.80768l-82.411316 0z" fill-rule="evenodd"/><path fill="#ffffff" d="m845.1174 221.8772l11.934998 0l0 17.638443l-11.934998 0z" fill-rule="evenodd"/><path fill="#ffffff" d="m877.11194 221.8772l11.934998 0l0 17.638443l-11.934998 0z" fill-rule="evenodd"/><path fill="#ffffff" d="m877.11194 244.01968l11.934998 0l0 17.638428l-11.934998 0z" fill-rule="evenodd"/><path fill="#ffffff" d="m845.1174 244.01968l11.934998 0l0 17.638428l-11.934998 0z" fill-rule="evenodd"/><path fill="#ffffff" d="m877.11194 288.30466l11.934998 0l0 17.638428l-11.934998 0z" fill-rule="evenodd"/><path fill="#ffffff" d="m845.1174 288.30466l11.934998 0l0 17.638428l-11.934998 0z" fill-rule="evenodd"/><path fill="#ffffff" d="m845.1174 310.4471l11.934998 0l0 17.638458l-11.934998 0z" fill-rule="evenodd"/><path fill="#ffffff" d="m877.11194 310.4471l11.934998 0l0 17.638458l-11.934998 0z" fill-rule="evenodd"/><path fill="#ffffff" d="m845.1174 266.16217l11.934998 0l0 17.638428l-11.934998 0z" fill-rule="evenodd"/><path fill="#ffffff" d="m877.11194 266.16217l11.934998 0l0 17.638428l-11.934998 0z" fill-rule="evenodd"/><path fill="#6aa84f" d="m571.15546 294.69458l0 0c-0.3381958 -2.6734009 0.7722168 -5.3199463 2.8600464 -6.8165283c2.0878296 -1.4966125 4.7869263 -1.5808411 6.9519653 -0.21694946l0 0c0.7669678 -1.5544434 2.1706543 -2.627655 3.786499 -2.89505c1.6159058 -0.26739502 3.2541504 0.30245972 4.4192505 1.5371704l0 0c0.6533203 -1.4093628 1.9361572 -2.3562622 3.3932495 -2.5046997c1.4570923 -0.1484375 2.8822021 0.522583 3.7697144 1.7749634l0 0c1.1803589 -1.493927 3.0582275 -2.1229248 4.821167 -1.6148376c1.7629395 0.50808716 3.0942383 2.0620117 3.4178467 3.9893494l0 0c1.446106 0.4242859 2.6506958 1.5028381 3.3024902 2.9570312c0.65185547 1.4541931 0.6869507 3.1413574 0.09631348 4.62558l0 0c1.4239502 1.9934692 1.7570801 4.6497498 0.875 6.9775696c-0.8820801 2.3277893 -2.8468018 3.977417 -5.1610107 4.3332214c-0.016296387 2.184723 -1.130249 4.1894226 -2.9124146 5.2413635c-1.7822266 1.0519409 -3.9544067 0.98687744 -5.6792603 -0.17010498c-0.7347412 2.6165771 -2.8026733 4.54187 -5.310486 4.9440002c-2.5077515 0.40216064 -5.0057983 -0.79089355 -6.414795 -3.0637207c-1.7271729 1.1202698 -3.7996826 1.4429932 -5.749939 0.8953552c-1.9502563 -0.54763794 -3.6140137 -1.9195251 -4.615967 -3.8061523l0 0c-1.7649536 0.22213745 -3.4714355 -0.7614441 -4.272461 -2.462616c-0.8010864 -1.7011719 -0.5262451 -3.7578125 0.6881714 -5.1492004l0 0c-1.5744019 -0.9967041 -2.3777466 -2.9745483 -1.9911499 -4.90213c0.38659668 -1.9275513 1.8755493 -3.3680725 3.6904297 -3.5703735z" fill-rule="evenodd"/><path fill="#000000" fill-opacity="0.0" d="m569.42126 303.27014l0 0c0.74298096 0.4703369 1.6012573 0.6837158 2.4596558 0.6114502m1.1242676 7.000519c0.36914062 -0.04647827 0.73095703 -0.14486694 1.0761719 -0.29263306m9.289185 3.203308c-0.25958252 -0.41879272 -0.47698975 -0.8663025 -0.64837646 -1.3348999m12.3741455 -0.5454407l0 0c0.13391113 -0.47705078 0.22070312 -0.9680481 0.25891113 -1.4647522m8.3324585 -3.6063232c0.017333984 -2.3259888 -1.2108765 -4.4556885 -3.1571655 -5.4743347m7.443115 -5.836212c-0.31518555 0.7920227 -0.7963867 1.4946289 -1.4058228 2.0527344m-1.9926758 -9.635559l0 0c0.053710938 0.31985474 0.078552246 0.64450073 0.07421875 0.9694519m-8.31311 -3.343872l0 0c-0.2944336 0.37265015 -0.5369873 0.789093 -0.7201538 1.2363281m-6.442871 -0.5067444l0 0c-0.15692139 0.33847046 -0.27404785 0.6966553 -0.34881592 1.0662537m-7.8570557 0.2916565l0 0c0.45812988 0.28860474 0.881958 0.6359558 1.262146 1.0344543m-11.074036 5.999054l0 0c0.04663086 0.36846924 0.12023926 0.73239136 0.22027588 1.0883789" fill-rule="evenodd"/><path fill="#b45f06" d="m586.02954 303.68524l0 0c0 -0.28656006 0.2322998 -0.51885986 0.51885986 -0.51885986l2.0753174 0l0 0c0.13763428 0 0.2695923 0.054656982 0.36688232 0.15197754c0.09729004 0.09729004 0.15197754 0.22927856 0.15197754 0.36688232l0 32.10309c0 0.28656006 -0.2322998 0.51885986 -0.51885986 0.51885986l-2.0753174 0c-0.28656006 0 -0.51885986 -0.2322998 -0.51885986 -0.51885986z" fill-rule="evenodd"/><path fill="#b45f06" d="m591.6684 301.9027l0 0c6.1035156E-5 -3.0517578E-5 6.1035156E-5 -3.0517578E-5 6.1035156E-5 -3.0517578E-5l2.7033691 1.3644409c0 0 0 0 0 0c0 0 0 0 0 3.0517578E-5l-5.638916 8.557434c0 0 0 3.0517578E-5 -6.1035156E-5 0l-2.7033691 -1.3644104l0 0c0 0 0 -3.0517578E-5 0 -3.0517578E-5z" fill-rule="evenodd"/><path fill="#274e13" d="m18.31788 192.9366l25.378717 -33.164352l25.37872 33.164352z" fill-rule="evenodd"/><path fill="#38761d" d="m20.422268 182.20076l23.27433 -25.9971l23.274334 25.9971z" fill-rule="evenodd"/><path fill="#6aa84f" d="m23.719463 172.02458l19.977135 -24.444489l19.977135 24.444489z" fill-rule="evenodd"/><path fill="#274e13" d="m58.569847 192.84999l25.378716 -33.164352l25.378723 33.164352z" fill-rule="evenodd"/><path fill="#38761d" d="m60.674236 182.11415l23.274326 -25.9971l23.274338 25.9971z" fill-rule="evenodd"/><path fill="#6aa84f" d="m63.97143 171.93797l19.97713 -24.444504l19.977135 24.444504z" fill-rule="evenodd"/><path fill="#274e13" d="m34.31788 215.08359l25.37872 -33.164352l25.37872 33.164352z" fill-rule="evenodd"/><path fill="#38761d" d="m36.422268 204.34775l23.27433 -25.9971l23.274334 25.9971z" fill-rule="evenodd"/><path fill="#6aa84f" d="m39.719463 194.17157l19.977135 -24.444504l19.97713 24.444504z" fill-rule="evenodd"/><path fill="#274e13" d="m161.62366 230.37886l25.378708 -33.164352l25.378723 33.164352z" fill-rule="evenodd"/><path fill="#38761d" d="m163.72804 219.64302l23.274323 -25.9971l23.274338 25.9971z" fill-rule="evenodd"/><path fill="#6aa84f" d="m167.02524 209.46684l19.977127 -24.444504l19.977142 24.444504z" fill-rule="evenodd"/><path fill="#274e13" d="m201.87563 230.29225l25.378708 -33.164368l25.378723 33.164368z" fill-rule="evenodd"/><path fill="#38761d" d="m203.98001 219.55641l23.274323 -25.9971l23.274338 25.9971z" fill-rule="evenodd"/><path fill="#6aa84f" d="m207.2772 209.38023l19.977127 -24.444504l19.977142 24.444504z" fill-rule="evenodd"/><path fill="#274e13" d="m225.87563 252.52585l25.378708 -33.164368l25.378723 33.164368z" fill-rule="evenodd"/><path fill="#38761d" d="m227.98001 241.79001l23.274323 -25.9971l23.274353 25.9971z" fill-rule="evenodd"/><path fill="#6aa84f" d="m231.2772 231.61383l19.977127 -24.444504l19.977142 24.444504z" fill-rule="evenodd"/><path fill="#274e13" d="m177.62366 252.52585l25.378708 -33.164368l25.378723 33.164368z" fill-rule="evenodd"/><path fill="#38761d" d="m179.72804 241.79001l23.274323 -25.9971l23.274338 25.9971z" fill-rule="evenodd"/><path fill="#6aa84f" d="m183.02524 231.61383l19.977127 -24.444504l19.977142 24.444504z" fill-rule="evenodd"/><path fill="#000000" fill-opacity="0.0" d="m109.32809 196.35301c-1.5721817 5.5021973 -8.773804E-4 26.724854 -9.433075 33.013123c-9.432198 6.2882843 -37.92432 -2.9470673 -47.160103 4.7165375c-9.235783 7.6636047 3.1430435 32.618988 -8.254593 41.265106c-11.39764 8.646088 -47.161858 2.9475098 -60.131233 10.611542c-12.969379 7.664032 -7.073929 27.512238 -17.685038 35.37271c-10.611111 7.860443 -38.318027 9.825012 -45.981632 11.790009" fill-rule="evenodd"/><path stroke="#6d9eeb" stroke-width="12.0" stroke-linejoin="round" stroke-linecap="butt" d="m109.32809 196.35301c-1.5721817 5.5021973 -8.773804E-4 26.724854 -9.433075 33.013123c-9.432198 6.2882843 -37.92432 -2.9470673 -47.160103 4.7165375c-9.235783 7.6636047 3.1430435 32.618988 -8.254593 41.265106c-11.39764 8.646088 -47.161858 2.9475098 -60.131233 10.611542c-12.969379 7.664032 -7.073929 27.512238 -17.685038 35.37271c-10.611111 7.860443 -38.318027 9.825012 -45.981632 11.790009" fill-rule="evenodd"/><path fill="#274e13" d="m82.56985 215.08359l25.378716 -33.164352l25.378723 33.164352z" fill-rule="evenodd"/><path fill="#38761d" d="m84.67423 204.34775l23.27433 -25.9971l23.274338 25.9971z" fill-rule="evenodd"/><path fill="#6aa84f" d="m87.971436 194.17157l19.977127 -24.444504l19.977135 24.444504z" fill-rule="evenodd"/><path fill="#a61c00" d="m25.452085 290.82922l103.25391 0l0 42.034332l-103.25391 0z" fill-rule="evenodd"/><path fill="#d9d9d9" d="m21.726196 332.61218l112.791275 0l0 4.7012024l-112.791275 0z" fill-rule="evenodd"/><path fill="#efefef" d="m35.709553 330.35583l32.18018 0l0 6.850708l-32.18018 0z" fill-rule="evenodd"/><path fill="#d9d9d9" d="m39.62427 303.78268l24.350742 0l0 26.57315l-24.350742 0z" fill-rule="evenodd"/><path fill="#1c4587" d="m15.57228 291.65274l17.32148 -17.019897l85.60573 0l17.32148 17.019897z" fill-rule="evenodd"/><path fill="#999999" d="m43.682728 302.52588l8.116917 -6.850708l8.116913 6.850708z" fill-rule="evenodd"/><path fill="#073763" d="m15.57228 288.59595l120.24869 0l0 3.2933655l-120.24869 0z" fill-rule="evenodd"/><path fill="#efefef" d="m35.709553 304.14093l16.090092 -17.019897l16.090088 17.019897z" fill-rule="evenodd"/><path fill="#666666" d="m43.682728 301.26657l7.8519783 -9.377258l8.381851 9.377258z" fill-rule="evenodd"/><path fill="#b45f06" d="m43.682728 305.0114l16.23383 0l0 24.473938l-16.23383 0z" fill-rule="evenodd"/><path fill="#073763" d="m53.19499 285.35458l15.963261 18.792267l-3.7709808 1.7472229l-15.963261 -18.792267z" fill-rule="evenodd"/><path fill="#073763" d="m51.838078 286.88394l-16.149277 18.716858l-2.5365334 -1.2192993l16.149277 -18.716858z" fill-rule="evenodd"/><path fill="#3d85c6" d="m86.38812 303.22333l27.2593 0l0 12.067261l-27.2593 0z" fill-rule="evenodd"/><path fill="#9fc5e8" d="m90.68332 308.4399l19.734245 0l0 6.8506775l-19.734245 0z" fill-rule="evenodd"/><path fill="#cc0000" d="m89.64898 300.44324l1.0146179 0l0 18.100922l-1.0146179 0z" fill-rule="evenodd"/><path fill="#cc0000" d="m98.23938 300.44324l1.0146103 0l0 18.100922l-1.0146103 0z" fill-rule="evenodd"/><path fill="#cc0000" d="m106.82978 300.44324l1.0146103 0l0 18.100922l-1.0146103 0z" fill-rule="evenodd"/><path fill="#a61c00" d="m122.2956 306.00446l0 0.678772l-35.73133 0l0 -0.678772z" fill-rule="evenodd"/><path fill="#a61c00" d="m118.0004 312.39005l0 0.6788025l-35.731323 0l0 -0.6788025z" fill-rule="evenodd"/><path fill="#f3f3f3" d="m118.0004 315.58286l0 1.8100891l-35.731323 0l0 -1.8100891z" fill-rule="evenodd"/><path fill="#6aa84f" d="m902.4783 298.67883l0 0c-0.3381958 -2.6734009 0.7722168 -5.3199463 2.8600464 -6.8165283c2.0878296 -1.4966125 4.7869263 -1.5808411 6.9520264 -0.21694946l0 0c0.76690674 -1.5544434 2.1705933 -2.627655 3.786499 -2.89505c1.6158447 -0.26739502 3.2540894 0.30245972 4.4192505 1.5371704l0 0c0.6533203 -1.4093628 1.9360962 -2.3562622 3.3931885 -2.5046997c1.4570923 -0.1484375 2.8822632 0.522583 3.7697754 1.7749634l0 0c1.1802979 -1.493927 3.0582275 -2.1229248 4.821167 -1.6148376c1.7629395 0.50808716 3.0942383 2.0619812 3.4178467 3.9893494l0 0c1.446106 0.4242859 2.6506348 1.5028381 3.3024902 2.9570312c0.65179443 1.4541931 0.68688965 3.1413574 0.09625244 4.62558l0 0c1.4240112 1.9934692 1.7570801 4.6497498 0.875 6.9775696c-0.8820801 2.3277893 -2.8468018 3.977417 -5.1610107 4.3332214c-0.016296387 2.184723 -1.130249 4.1894226 -2.9124146 5.2413635c-1.7822266 1.0519409 -3.9543457 0.98687744 -5.6792603 -0.17010498c-0.7346802 2.6165771 -2.8026733 4.54187 -5.310425 4.9440002c-2.5078125 0.40216064 -5.0057983 -0.79089355 -6.414856 -3.0637207c-1.7271729 1.1202698 -3.7996216 1.4429932 -5.749878 0.8953552c-1.9502563 -0.54763794 -3.6140137 -1.9195251 -4.615967 -3.8061523l0 0c-1.7650146 0.22213745 -3.4714355 -0.7614441 -4.272522 -2.462616c-0.8010864 -1.7011719 -0.5262451 -3.7578125 0.6881714 -5.1492004l0 0c-1.5744019 -0.9967041 -2.3777466 -2.9745483 -1.9911499 -4.90213c0.38659668 -1.9275513 1.8755493 -3.3680725 3.6904297 -3.5703735z" fill-rule="evenodd"/><path fill="#000000" fill-opacity="0.0" d="m900.7441 307.2544l0 0c0.74298096 0.4703369 1.6012573 0.6837158 2.4596558 0.6114502m1.1243286 7.000519c0.3690796 -0.04647827 0.73095703 -0.14486694 1.0761108 -0.29263306m9.289246 3.203308c-0.25964355 -0.41879272 -0.47705078 -0.8663025 -0.6484375 -1.3348999m12.3741455 -0.5454407l0 0c0.13397217 -0.47705078 0.22076416 -0.9680481 0.25891113 -1.4647827m8.3324585 -3.6062927c0.017333984 -2.3259888 -1.2108765 -4.4556885 -3.1571045 -5.4743347m7.443054 -5.836212c-0.31518555 0.7920227 -0.7963257 1.4946289 -1.4057617 2.0527344m-1.9927368 -9.635559l0 0c0.053710938 0.31985474 0.07861328 0.64450073 0.07421875 0.9694519m-8.313049 -3.343872l0 0c-0.2944336 0.37265015 -0.53704834 0.789093 -0.72021484 1.2363281m-6.44281 -0.5067444l0 0c-0.15692139 0.33847046 -0.2741089 0.6966553 -0.34881592 1.0662537m-7.8571167 0.2916565l0 0c0.45812988 0.28860474 0.881958 0.6359558 1.262207 1.0344543m-11.074097 5.999054l0 0c0.04663086 0.36846924 0.12030029 0.73239136 0.22027588 1.0883789" fill-rule="evenodd"/><path fill="#b45f06" d="m917.3524 307.6695l0 0c0 -0.28656006 0.2322998 -0.51885986 0.5187988 -0.51885986l2.0753174 0l0 0c0.13763428 0 0.2695923 0.054656982 0.36688232 0.15197754c0.09729004 0.09729004 0.15197754 0.22927856 0.15197754 0.36688232l0 32.10309c0 0.28656006 -0.2322998 0.51885986 -0.51885986 0.51885986l-2.0753174 0c-0.28649902 0 -0.5187988 -0.2322998 -0.5187988 -0.51885986z" fill-rule="evenodd"/><path fill="#b45f06" d="m922.9913 305.88696l0 0c0 -3.0517578E-5 0 -3.0517578E-5 0 -3.0517578E-5l2.7033691 1.3644104c0 3.0517578E-5 0 3.0517578E-5 0 3.0517578E-5c0 0 0 0 0 3.0517578E-5l-5.638916 8.557434c0 0 0 3.0517578E-5 0 0l-2.7033691 -1.3644104l0 0c0 0 -6.1035156E-5 -3.0517578E-5 0 -3.0517578E-5z" fill-rule="evenodd"/><path fill="#6aa84f" d="m-8.391076 391.58267l1023.5275 0l0 75.590546l-1023.5275 0z" fill-rule="evenodd"/><path fill="#6aa84f" d="m921.8405 294.69458l0 0c-0.33825684 -2.6734009 0.77215576 -5.3199463 2.8600464 -6.8165283c2.0878296 -1.4966125 4.7869263 -1.5808411 6.9519653 -0.21694946l0 0c0.76690674 -1.5544434 2.1705933 -2.627655 3.786499 -2.89505c1.6158447 -0.26739502 3.2541504 0.30245972 4.4192505 1.5371704l0 0c0.6533203 -1.4093628 1.9361572 -2.3562622 3.3931885 -2.5046997c1.4570923 -0.1484375 2.8822632 0.522583 3.7697754 1.7749634l0 0c1.1802979 -1.493927 3.0582275 -2.1229248 4.821167 -1.6148376c1.7629395 0.50808716 3.0942383 2.0620117 3.4178467 3.9893494l0 0c1.446106 0.4242859 2.6506958 1.5028381 3.3024902 2.9570312c0.65179443 1.4541931 0.6869507 3.1413574 0.09631348 4.62558l0 0c1.4239502 1.9934692 1.7570801 4.6497498 0.875 6.9775696c-0.8820801 2.3277893 -2.8468628 3.977417 -5.1610107 4.3332214c-0.016357422 2.184723 -1.130249 4.1894226 -2.9124756 5.2413635c-1.7821655 1.0519409 -3.9543457 0.98687744 -5.679199 -0.17010498c-0.7347412 2.6165771 -2.8026733 4.54187 -5.310486 4.9440002c-2.5077515 0.40216064 -5.0057983 -0.79089355 -6.414795 -3.0637207c-1.7272339 1.1202698 -3.7996826 1.4429932 -5.749939 0.8953552c-1.9502563 -0.54763794 -3.6140137 -1.9195251 -4.615967 -3.8061523l0 0c-1.7649536 0.22213745 -3.4714355 -0.7614441 -4.272522 -2.462616c-0.8010864 -1.7011719 -0.5261841 -3.7578125 0.6881714 -5.1492004l0 0c-1.5744019 -0.9967041 -2.3777466 -2.9745483 -1.9910889 -4.90213c0.38659668 -1.9275513 1.8755493 -3.3680725 3.6904297 -3.5703735z" fill-rule="evenodd"/><path fill="#000000" fill-opacity="0.0" d="m920.1063 303.27014l0 0c0.7429199 0.4703369 1.6012573 0.6837158 2.4595947 0.6114502m1.1243286 7.000519c0.36914062 -0.04647827 0.73095703 -0.14486694 1.0761108 -0.29263306m9.289246 3.203308c-0.25964355 -0.41879272 -0.47698975 -0.8663025 -0.6484375 -1.3348999m12.3741455 -0.5454407l0 0c0.13397217 -0.47705078 0.22076416 -0.9680481 0.25891113 -1.4647522m8.3324585 -3.6063232c0.01739502 -2.3259888 -1.2108154 -4.4556885 -3.1571045 -5.4743347m7.443115 -5.836212c-0.31524658 0.7920227 -0.7963867 1.4946289 -1.4058228 2.0527344m-1.9926758 -9.635559l0 0c0.053710938 0.31985474 0.078552246 0.64450073 0.07421875 0.9694519m-8.31311 -3.343872l0 0c-0.2944336 0.37265015 -0.5369873 0.789093 -0.7201538 1.2363281m-6.442871 -0.5067444l0 0c-0.15692139 0.33847046 -0.2741089 0.6966553 -0.34881592 1.0662537m-7.8570557 0.2916565l0 0c0.45812988 0.28860474 0.881958 0.6359558 1.262146 1.0344543m-11.074036 5.999054l0 0c0.046569824 0.36846924 0.12023926 0.73239136 0.22027588 1.0883789" fill-rule="evenodd"/><path fill="#b45f06" d="m936.7146 303.68524l0 0c0 -0.28656006 0.2322998 -0.51885986 0.51885986 -0.51885986l2.0753174 0l0 0c0.13757324 0 0.26953125 0.054656982 0.36688232 0.15197754c0.09729004 0.09729004 0.1519165 0.22927856 0.1519165 0.36688232l0 32.10309c0 0.28656006 -0.23223877 0.51885986 -0.5187988 0.51885986l-2.0753174 0c-0.28656006 0 -0.51885986 -0.2322998 -0.51885986 -0.51885986z" fill-rule="evenodd"/><path fill="#b45f06" d="m942.35345 301.9027l0 0c0 -3.0517578E-5 0 -3.0517578E-5 6.1035156E-5 -3.0517578E-5l2.7033691 1.3644409c0 0 0 0 0 0c0 0 0 0 0 3.0517578E-5l-5.638916 8.557434c0 0 -6.1035156E-5 3.0517578E-5 -6.1035156E-5 0l-2.7033691 -1.3644104l0 0c0 0 0 -3.0517578E-5 0 -3.0517578E-5z" fill-rule="evenodd"/><path fill="#6aa84f" d="m555.15546 294.69458l0 0c-0.3381958 -2.6734009 0.7722168 -5.3199463 2.8600464 -6.8165283c2.0878296 -1.4966125 4.7869263 -1.5808411 6.9519653 -0.21694946l0 0c0.7669678 -1.5544434 2.1706543 -2.627655 3.786499 -2.89505c1.6159058 -0.26739502 3.2541504 0.30245972 4.4192505 1.5371704l0 0c0.6533203 -1.4093628 1.9361572 -2.3562622 3.3932495 -2.5046997c1.4570923 -0.1484375 2.8822021 0.522583 3.7697144 1.7749634l0 0c1.1803589 -1.493927 3.0582275 -2.1229248 4.821167 -1.6148376c1.7629395 0.50808716 3.0942383 2.0620117 3.4178467 3.9893494l0 0c1.446106 0.4242859 2.6506958 1.5028381 3.3024902 2.9570312c0.65185547 1.4541931 0.6869507 3.1413574 0.09631348 4.62558l0 0c1.4239502 1.9934692 1.7570801 4.6497498 0.875 6.9775696c-0.8820801 2.3277893 -2.8468018 3.977417 -5.1610107 4.3332214c-0.016296387 2.184723 -1.130249 4.1894226 -2.9124146 5.2413635c-1.7822266 1.0519409 -3.9544067 0.98687744 -5.6792603 -0.17010498c-0.7347412 2.6165771 -2.8026733 4.54187 -5.310486 4.9440002c-2.5077515 0.40216064 -5.0057983 -0.79089355 -6.414795 -3.0637207c-1.7271729 1.1202698 -3.7996826 1.4429932 -5.749939 0.8953552c-1.9502563 -0.54763794 -3.6140137 -1.9195251 -4.615967 -3.8061523l0 0c-1.7649536 0.22213745 -3.4714355 -0.7614441 -4.272461 -2.462616c-0.8010864 -1.7011719 -0.5262451 -3.7578125 0.6881714 -5.1492004l0 0c-1.5744019 -0.9967041 -2.3777466 -2.9745483 -1.9911499 -4.90213c0.38659668 -1.9275513 1.8755493 -3.3680725 3.6904297 -3.5703735z" fill-rule="evenodd"/><path fill="#000000" fill-opacity="0.0" d="m553.42126 303.27014l0 0c0.74298096 0.4703369 1.6012573 0.6837158 2.4596558 0.6114502m1.1242676 7.000519c0.36914062 -0.04647827 0.73095703 -0.14486694 1.0761719 -0.29263306m9.289185 3.203308c-0.25958252 -0.41879272 -0.47698975 -0.8663025 -0.64837646 -1.3348999m12.3741455 -0.5454407l0 0c0.13391113 -0.47705078 0.22070312 -0.9680481 0.25891113 -1.4647522m8.3324585 -3.6063232c0.017333984 -2.3259888 -1.2108765 -4.4556885 -3.1571655 -5.4743347m7.443115 -5.836212c-0.31518555 0.7920227 -0.7963867 1.4946289 -1.4058228 2.0527344m-1.9926758 -9.635559l0 0c0.053710938 0.31985474 0.078552246 0.64450073 0.07421875 0.9694519m-8.31311 -3.343872l0 0c-0.2944336 0.37265015 -0.5369873 0.789093 -0.7201538 1.2363281m-6.442871 -0.5067444l0 0c-0.15692139 0.33847046 -0.27404785 0.6966553 -0.34881592 1.0662537m-7.8570557 0.2916565l0 0c0.45812988 0.28860474 0.881958 0.6359558 1.262146 1.0344543m-11.074036 5.999054l0 0c0.04663086 0.36846924 0.12023926 0.73239136 0.22027588 1.0883789" fill-rule="evenodd"/><path fill="#b45f06" d="m570.02954 311.68524l0 0c0 -0.28656006 0.2322998 -0.51885986 0.51885986 -0.51885986l2.0753174 0l0 0c0.13763428 0 0.2695923 0.054656982 0.36688232 0.15197754c0.09729004 0.09729004 0.15197754 0.22927856 0.15197754 0.36688232l0 32.10309c0 0.28656006 -0.2322998 0.51885986 -0.51885986 0.51885986l-2.0753174 0c-0.28656006 0 -0.51885986 -0.2322998 -0.51885986 -0.51885986z" fill-rule="evenodd"/><path fill="#b45f06" d="m575.6684 309.9027l0 0c6.1035156E-5 -3.0517578E-5 6.1035156E-5 -3.0517578E-5 6.1035156E-5 -3.0517578E-5l2.7033691 1.3644409c0 0 0 0 0 0c0 0 0 0 0 3.0517578E-5l-5.638916 8.557434c0 0 0 3.0517578E-5 -6.1035156E-5 0l-2.7033691 -1.3644104l0 0c0 0 0 -3.0517578E-5 0 -3.0517578E-5z" fill-rule="evenodd"/><path fill="#6aa84f" d="m523.15546 294.69458l0 0c-0.3381958 -2.6734009 0.7722168 -5.3199463 2.8600464 -6.8165283c2.0878296 -1.4966125 4.7869263 -1.5808411 6.9519653 -0.21694946l0 0c0.7669678 -1.5544434 2.1706543 -2.627655 3.786499 -2.89505c1.6159058 -0.26739502 3.2541504 0.30245972 4.4192505 1.5371704l0 0c0.6533203 -1.4093628 1.9361572 -2.3562622 3.3932495 -2.5046997c1.4570923 -0.1484375 2.8822021 0.522583 3.7697144 1.7749634l0 0c1.1803589 -1.493927 3.0582275 -2.1229248 4.821167 -1.6148376c1.7629395 0.50808716 3.0942383 2.0620117 3.4178467 3.9893494l0 0c1.446106 0.4242859 2.6506958 1.5028381 3.3024902 2.9570312c0.65185547 1.4541931 0.6869507 3.1413574 0.09631348 4.62558l0 0c1.4239502 1.9934692 1.7570801 4.6497498 0.875 6.9775696c-0.8820801 2.3277893 -2.8468018 3.977417 -5.1610107 4.3332214c-0.016296387 2.184723 -1.130249 4.1894226 -2.9124146 5.2413635c-1.7822266 1.0519409 -3.9544067 0.98687744 -5.6792603 -0.17010498c-0.7347412 2.6165771 -2.8026733 4.54187 -5.310486 4.9440002c-2.5077515 0.40216064 -5.0057983 -0.79089355 -6.414795 -3.0637207c-1.7271729 1.1202698 -3.7996826 1.4429932 -5.749939 0.8953552c-1.9502563 -0.54763794 -3.6140137 -1.9195251 -4.615967 -3.8061523l0 0c-1.7649536 0.22213745 -3.4714355 -0.7614441 -4.272461 -2.462616c-0.8010864 -1.7011719 -0.5262451 -3.7578125 0.6881714 -5.1492004l0 0c-1.5744019 -0.9967041 -2.3777466 -2.9745483 -1.9911499 -4.90213c0.38659668 -1.9275513 1.8755493 -3.3680725 3.6904297 -3.5703735z" fill-rule="evenodd"/><path fill="#000000" fill-opacity="0.0" d="m521.42126 303.27014l0 0c0.74298096 0.4703369 1.6012573 0.6837158 2.4596558 0.6114502m1.1242676 7.000519c0.36914062 -0.04647827 0.73095703 -0.14486694 1.0761719 -0.29263306m9.289185 3.203308c-0.25958252 -0.41879272 -0.47698975 -0.8663025 -0.64837646 -1.3348999m12.3741455 -0.5454407l0 0c0.13391113 -0.47705078 0.22070312 -0.9680481 0.25891113 -1.4647522m8.3324585 -3.6063232c0.017333984 -2.3259888 -1.2108765 -4.4556885 -3.1571655 -5.4743347m7.443115 -5.836212c-0.31518555 0.7920227 -0.7963867 1.4946289 -1.4058228 2.0527344m-1.9926758 -9.635559l0 0c0.053710938 0.31985474 0.078552246 0.64450073 0.07421875 0.9694519m-8.31311 -3.343872l0 0c-0.2944336 0.37265015 -0.5369873 0.789093 -0.7201538 1.2363281m-6.442871 -0.5067444l0 0c-0.15692139 0.33847046 -0.27404785 0.6966553 -0.34881592 1.0662537m-7.8570557 0.2916565l0 0c0.45812988 0.28860474 0.881958 0.6359558 1.262146 1.0344543m-11.074036 5.999054l0 0c0.04663086 0.36846924 0.12023926 0.73239136 0.22027588 1.0883789" fill-rule="evenodd"/><path fill="#b45f06" d="m538.02954 303.68524l0 0c0 -0.28656006 0.2322998 -0.51885986 0.51885986 -0.51885986l2.0753174 0l0 0c0.13763428 0 0.2695923 0.054656982 0.36688232 0.15197754c0.09729004 0.09729004 0.15197754 0.22927856 0.15197754 0.36688232l0 32.10309c0 0.28656006 -0.2322998 0.51885986 -0.51885986 0.51885986l-2.0753174 0c-0.28656006 0 -0.51885986 -0.2322998 -0.51885986 -0.51885986z" fill-rule="evenodd"/><path fill="#b45f06" d="m543.6684 301.9027l0 0c6.1035156E-5 -3.0517578E-5 6.1035156E-5 -3.0517578E-5 6.1035156E-5 -3.0517578E-5l2.7033691 1.3644409c0 0 0 0 0 0c0 0 0 0 0 3.0517578E-5l-5.638916 8.557434c0 0 0 3.0517578E-5 -6.1035156E-5 0l-2.7033691 -1.3644104l0 0c0 0 0 -3.0517578E-5 0 -3.0517578E-5z" fill-rule="evenodd"/><path fill="#666666" d="m-91.99213 336.54068l1107.1182 0l0 60.629913l-1107.1182 0z" fill-rule="evenodd"/><path fill="#000000" fill-opacity="0.0" d="m10.753281 365.937l964.126 0" fill-rule="evenodd"/><path stroke="#ffffff" stroke-width="3.0" stroke-linejoin="round" stroke-linecap="butt" stroke-dasharray="24.0,9.0" d="m10.753281 365.937l964.126 0" fill-rule="evenodd"/><path fill="#fff2cc" d="m211.0269 337.30896l0 -44.049652l17.483139 -17.483154l17.483139 17.483154l0 44.049652z" fill-rule="evenodd"/><path fill="#f9cb9c" d="m166.81773 298.29633l44.3732 0l0 38.94104l-44.3732 0z" fill-rule="evenodd"/><path fill="#cc4125" d="m164.36702 299.2636l22.996918 -24.149567l43.47702 0.9187012l-22.996918 24.149567z" fill-rule="evenodd"/><path fill="#ea9999" d="m224.46938 300.31647l0 0c0 -2.5610962 2.3062286 -4.637268 5.151108 -4.637268l0 0c2.8448944 0 5.151123 2.0761719 5.151123 4.637268l0 0c0 2.5610962 -2.3062286 4.6372375 -5.151123 4.6372375l0 0c-2.8448792 0 -5.151108 -2.0761414 -5.151108 -4.6372375z" fill-rule="evenodd"/><path fill="#fff2cc" d="m478.34973 332.67377l0 -44.049652l17.483124 -17.483124l17.483124 17.483124l0 44.049652z" fill-rule="evenodd"/><path fill="#f9cb9c" d="m434.14056 293.66116l44.3732 0l0 38.94104l-44.3732 0z" fill-rule="evenodd"/><path fill="#cc4125" d="m431.68985 294.62845l22.996918 -24.149567l43.47702 0.9187012l-22.996918 24.149536z" fill-rule="evenodd"/><path fill="#ffd966" d="m491.7922 295.6813l0 0c0 -2.5610962 2.306244 -4.637268 5.151123 -4.637268l0 0c2.8448792 0 5.151123 2.0761719 5.151123 4.637268l0 0c0 2.5610657 -2.306244 4.6372375 -5.151123 4.6372375l0 0c-2.8448792 0 -5.151123 -2.0761719 -5.151123 -4.6372375z" fill-rule="evenodd"/><path fill="#999999" d="m-2.4278216 397.1706l960.0 0l0 5.2913513l-960.0 0z" fill-rule="evenodd"/><path stroke="#595959" stroke-width="1.0" stroke-linejoin="round" stroke-linecap="butt" d="m-2.4278216 397.1706l960.0 0l0 5.2913513l-960.0 0z" fill-rule="evenodd"/><path fill="#38761d" d="m-9.753281 461.55118l980.9134 0l0 15.338593l-980.9134 0z" fill-rule="evenodd"/><path fill="#0b5394" d="m1.0341207 469.55118l966.96063 0l0 75.590546l-966.96063 0z" fill-rule="evenodd"/><path fill="#e69138" d="m322.74435 516.0111l0 0c0 3.3485107 9.793335 6.0629883 21.874023 6.0629883l0 0c12.080688 0 21.874023 -2.7144775 21.874023 -6.0629883l0 0c0 -3.3485107 -9.793335 -6.063019 -21.874023 -6.063019l0 0c-12.080688 0 -21.874023 2.714508 -21.874023 6.063019z" fill-rule="evenodd"/><path fill="#000000" d="m357.75394 516.82214l0 0c0 0.67840576 0.42303467 1.2283325 0.94488525 1.2283325l0 0c0.25061035 0 0.49093628 -0.12939453 0.66815186 -0.35980225c0.17718506 -0.23034668 0.2767334 -0.54278564 0.2767334 -0.8685303l0 0c0 -0.67840576 -0.42303467 -1.2283936 -0.94488525 -1.2283936l0 0c-0.5218506 0 -0.94488525 0.5499878 -0.94488525 1.2283936z" fill-rule="evenodd"/><path fill="#000000" fill-opacity="0.0" d="m324.35065 518.2757c-0.7993164 2.2495117 -2.8980103 4.2591553 -5.2474365 5.1399536c-0.8417969 0.3156128 -1.9830322 1.2713013 -2.624176 0.6706543c-0.5622864 -0.52679443 0.35577393 -1.5687866 0 -2.2351074c-0.67678833 -1.2675781 -1.1462708 -3.1123047 -0.23858643 -4.246155c1.5539856 -1.9412842 4.80484 -2.2346802 7.3948364 -2.2346802" fill-rule="evenodd"/><path stroke="#cc0000" stroke-width="3.0" stroke-linejoin="round" stroke-linecap="butt" d="m324.35065 518.2757c-0.7993164 2.2495117 -2.8980103 4.2591553 -5.2474365 5.1399536c-0.8417969 0.3156128 -1.9830322 1.2713013 -2.624176 0.6706543c-0.5622864 -0.52679443 0.35577393 -1.5687866 0 -2.2351074c-0.67678833 -1.2675781 -1.1462708 -3.1123047 -0.23858643 -4.246155c1.5539856 -1.9412842 4.80484 -2.2346802 7.3948364 -2.2346802" fill-rule="evenodd"/><path fill="#000000" fill-opacity="0.0" d="m324.35065 514.9642c-0.7993164 -2.2495117 -2.8980103 -4.2591553 -5.2474365 -5.139984c-0.8417969 -0.31558228 -1.9830322 -1.2713013 -2.624176 -0.6706238c-0.5622864 0.52679443 0.35577393 1.5687561 0 2.235077c-0.67678833 1.2676086 -1.1462708 3.1122742 -0.23858643 4.2461853c1.5539856 1.9412842 4.80484 2.2346191 7.3948364 2.2346191" fill-rule="evenodd"/><path stroke="#cc0000" stroke-width="3.0" stroke-linejoin="round" stroke-linecap="butt" d="m324.35065 514.9642c-0.7993164 -2.2495117 -2.8980103 -4.2591553 -5.2474365 -5.139984c-0.8417969 -0.31558228 -1.9830322 -1.2713013 -2.624176 -0.6706238c-0.5622864 0.52679443 0.35577393 1.5687561 0 2.235077c-0.67678833 1.2676086 -1.1462708 3.1122742 -0.23858643 4.2461853c1.5539856 1.9412842 4.80484 2.2346191 7.3948364 2.2346191" fill-rule="evenodd"/><path fill="#e69138" d="m466.74435 492.01108l0 0c0 3.3485107 9.793335 6.063019 21.874023 6.063019l0 0c12.080688 0 21.874023 -2.714508 21.874023 -6.063019l0 0c0 -3.3484802 -9.793335 -6.0629883 -21.874023 -6.0629883l0 0c-12.080688 0 -21.874023 2.714508 -21.874023 6.0629883z" fill-rule="evenodd"/><path fill="#000000" d="m503.6437 492.8221l0 0c0 0.67840576 -0.42303467 1.228363 -0.94488525 1.228363l0 0c-0.25057983 0 -0.49093628 -0.12942505 -0.66812134 -0.35977173c-0.17721558 -0.2303772 -0.27676392 -0.54281616 -0.27676392 -0.8685913l0 0c0 -0.67837524 0.42303467 -1.2283325 0.94488525 -1.2283325l0 0c0.5218506 0 0.94488525 0.5499573 0.94488525 1.2283325z" fill-rule="evenodd"/><path fill="#000000" fill-opacity="0.0" d="m468.35065 494.2757c-0.7993164 2.2495117 -2.8980103 4.2591248 -5.2474365 5.1399536c-0.8417969 0.31558228 -1.9830322 1.2713318 -2.624176 0.6706543c-0.5622864 -0.52682495 0.35577393 -1.5687866 0 -2.235077c-0.67678833 -1.2676086 -1.1462708 -3.1123047 -0.23858643 -4.2461853c1.5539856 -1.9412842 4.80484 -2.2346497 7.3948364 -2.2346497" fill-rule="evenodd"/><path stroke="#cc0000" stroke-width="3.0" stroke-linejoin="round" stroke-linecap="butt" d="m468.35065 494.2757c-0.7993164 2.2495117 -2.8980103 4.2591248 -5.2474365 5.1399536c-0.8417969 0.31558228 -1.9830322 1.2713318 -2.624176 0.6706543c-0.5622864 -0.52682495 0.35577393 -1.5687866 0 -2.235077c-0.67678833 -1.2676086 -1.1462708 -3.1123047 -0.23858643 -4.2461853c1.5539856 -1.9412842 4.80484 -2.2346497 7.3948364 -2.2346497" fill-rule="evenodd"/><path fill="#000000" fill-opacity="0.0" d="m468.35065 490.96417c-0.7993164 -2.2495117 -2.8980103 -4.2591553 -5.2474365 -5.139984c-0.8417969 -0.31558228 -1.9830322 -1.2713013 -2.624176 -0.6706238c-0.5622864 0.52679443 0.35577393 1.5687561 0 2.235077c-0.67678833 1.2675781 -1.1462708 3.1122742 -0.23858643 4.246155c1.5539856 1.9412842 4.80484 2.2346802 7.3948364 2.2346802" fill-rule="evenodd"/><path stroke="#cc0000" stroke-width="3.0" stroke-linejoin="round" stroke-linecap="butt" d="m468.35065 490.96417c-0.7993164 -2.2495117 -2.8980103 -4.2591553 -5.2474365 -5.139984c-0.8417969 -0.31558228 -1.9830322 -1.2713013 -2.624176 -0.6706238c-0.5622864 0.52679443 0.35577393 1.5687561 0 2.235077c-0.67678833 1.2675781 -1.1462708 3.1122742 -0.23858643 4.246155c1.5539856 1.9412842 4.80484 2.2346802 7.3948364 2.2346802" fill-rule="evenodd"/><path fill="#e69138" d="m202.74435 492.01108l0 0c0 3.3485107 9.793335 6.063019 21.874023 6.063019l0 0c12.080688 0 21.874008 -2.714508 21.874008 -6.063019l0 0c0 -3.3484802 -9.79332 -6.0629883 -21.874008 -6.0629883l0 0c-12.080688 0 -21.874023 2.714508 -21.874023 6.0629883z" fill-rule="evenodd"/><path fill="#000000" d="m237.75395 492.8221l0 0c0 0.67840576 0.42303467 1.228363 0.94487 1.228363l0 0c0.25061035 0 0.49093628 -0.12942505 0.6681366 -0.35977173c0.17720032 -0.2303772 0.27674866 -0.54281616 0.27674866 -0.8685913l0 0c0 -0.67837524 -0.42303467 -1.2283325 -0.94488525 -1.2283325l0 0c-0.5218353 0 -0.94487 0.5499573 -0.94487 1.2283325z" fill-rule="evenodd"/><path fill="#000000" fill-opacity="0.0" d="m204.35065 494.2757c-0.7993164 2.2495117 -2.8980255 4.2591248 -5.2474365 5.1399536c-0.8417816 0.31558228 -1.9830475 1.2713318 -2.6241608 0.6706543c-0.5622864 -0.52682495 0.3557434 -1.5687866 0 -2.235077c-0.6768036 -1.2676086 -1.146286 -3.1123047 -0.23860168 -4.2461853c1.5539856 -1.9412842 4.8048553 -2.2346497 7.3948517 -2.2346497" fill-rule="evenodd"/><path stroke="#cc0000" stroke-width="3.0" stroke-linejoin="round" stroke-linecap="butt" d="m204.35065 494.2757c-0.7993164 2.2495117 -2.8980255 4.2591248 -5.2474365 5.1399536c-0.8417816 0.31558228 -1.9830475 1.2713318 -2.6241608 0.6706543c-0.5622864 -0.52682495 0.3557434 -1.5687866 0 -2.235077c-0.6768036 -1.2676086 -1.146286 -3.1123047 -0.23860168 -4.2461853c1.5539856 -1.9412842 4.8048553 -2.2346497 7.3948517 -2.2346497" fill-rule="evenodd"/><path fill="#000000" fill-opacity="0.0" d="m204.35065 490.96417c-0.7993164 -2.2495117 -2.8980255 -4.2591553 -5.2474365 -5.139984c-0.8417816 -0.31558228 -1.9830475 -1.2713013 -2.6241608 -0.6706238c-0.5622864 0.52679443 0.3557434 1.5687561 0 2.235077c-0.6768036 1.2675781 -1.146286 3.1122742 -0.23860168 4.246155c1.5539856 1.9412842 4.8048553 2.2346802 7.3948517 2.2346802" fill-rule="evenodd"/><path stroke="#cc0000" stroke-width="3.0" stroke-linejoin="round" stroke-linecap="butt" d="m204.35065 490.96417c-0.7993164 -2.2495117 -2.8980255 -4.2591553 -5.2474365 -5.139984c-0.8417816 -0.31558228 -1.9830475 -1.2713013 -2.6241608 -0.6706238c-0.5622864 0.52679443 0.3557434 1.5687561 0 2.235077c-0.6768036 1.2675781 -1.146286 3.1122742 -0.23860168 4.246155c1.5539856 1.9412842 4.8048553 2.2346802 7.3948517 2.2346802" fill-rule="evenodd"/><path fill="#e69138" d="m538.7444 516.0111l0 0c0 3.3485107 9.793274 6.0629883 21.873962 6.0629883l0 0c12.080688 0 21.874023 -2.7144775 21.874023 -6.0629883l0 0c0 -3.3485107 -9.793335 -6.063019 -21.874023 -6.063019l0 0c-12.080688 0 -21.873962 2.714508 -21.873962 6.063019z" fill-rule="evenodd"/><path fill="#000000" d="m573.75397 516.82214l0 0c0 0.67840576 0.42303467 1.2283325 0.94488525 1.2283325l0 0c0.25054932 0 0.49090576 -0.12939453 0.6680908 -0.35980225c0.1772461 -0.23034668 0.27679443 -0.54278564 0.27679443 -0.8685303l0 0c0 -0.67840576 -0.4230957 -1.2283936 -0.94488525 -1.2283936l0 0c-0.5218506 0 -0.94488525 0.5499878 -0.94488525 1.2283936z" fill-rule="evenodd"/><path fill="#000000" fill-opacity="0.0" d="m540.35065 518.2757c-0.7993164 2.2495117 -2.8980103 4.2591553 -5.2474365 5.1399536c-0.8417969 0.3156128 -1.9830322 1.2713013 -2.6241455 0.6706543c-0.5623169 -0.52679443 0.3557129 -1.5687866 0 -2.2351074c-0.67681885 -1.2675781 -1.1463013 -3.1123047 -0.23864746 -4.246155c1.5540161 -1.9412842 4.8048706 -2.2346802 7.3948975 -2.2346802" fill-rule="evenodd"/><path stroke="#cc0000" stroke-width="3.0" stroke-linejoin="round" stroke-linecap="butt" d="m540.35065 518.2757c-0.7993164 2.2495117 -2.8980103 4.2591553 -5.2474365 5.1399536c-0.8417969 0.3156128 -1.9830322 1.2713013 -2.6241455 0.6706543c-0.5623169 -0.52679443 0.3557129 -1.5687866 0 -2.2351074c-0.67681885 -1.2675781 -1.1463013 -3.1123047 -0.23864746 -4.246155c1.5540161 -1.9412842 4.8048706 -2.2346802 7.3948975 -2.2346802" fill-rule="evenodd"/><path fill="#000000" fill-opacity="0.0" d="m540.35065 514.9642c-0.7993164 -2.2495117 -2.8980103 -4.2591553 -5.2474365 -5.139984c-0.8417969 -0.31558228 -1.9830322 -1.2713013 -2.6241455 -0.6706238c-0.5623169 0.52679443 0.3557129 1.5687561 0 2.235077c-0.67681885 1.2676086 -1.1463013 3.1122742 -0.23864746 4.2461853c1.5540161 1.9412842 4.8048706 2.2346191 7.3948975 2.2346191" fill-rule="evenodd"/><path stroke="#cc0000" stroke-width="3.0" stroke-linejoin="round" stroke-linecap="butt" d="m540.35065 514.9642c-0.7993164 -2.2495117 -2.8980103 -4.2591553 -5.2474365 -5.139984c-0.8417969 -0.31558228 -1.9830322 -1.2713013 -2.6241455 -0.6706238c-0.5623169 0.52679443 0.3557129 1.5687561 0 2.235077c-0.67681885 1.2676086 -1.1463013 3.1122742 -0.23864746 4.2461853c1.5540161 1.9412842 4.8048706 2.2346191 7.3948975 2.2346191" fill-rule="evenodd"/><path fill="#e69138" d="m759.4695 508.01108l0 0c0 3.3485107 -9.793335 6.063019 -21.874023 6.063019l0 0c-12.080688 0 -21.874023 -2.714508 -21.874023 -6.063019l0 0c0 -3.3484802 9.793335 -6.0629883 21.874023 -6.0629883l0 0c12.080688 0 21.874023 2.714508 21.874023 6.0629883z" fill-rule="evenodd"/><path fill="#000000" d="m724.4599 508.8221l0 0c0 0.67840576 -0.42303467 1.228363 -0.94488525 1.228363l0 0c-0.25061035 0 -0.4909668 -0.12942505 -0.66815186 -0.35977173c-0.17718506 -0.2303772 -0.2767334 -0.54281616 -0.2767334 -0.8685913l0 0c0 -0.67837524 0.42303467 -1.2283325 0.94488525 -1.2283325l0 0c0.5218506 0 0.94488525 0.5499573 0.94488525 1.2283325z" fill-rule="evenodd"/><path fill="#000000" fill-opacity="0.0" d="m757.8632 510.2757c0.7993164 2.2495117 2.8980103 4.2591553 5.2474365 5.1399536c0.84173584 0.3156128 1.9830322 1.2713013 2.6241455 0.6706543c0.56225586 -0.52679443 -0.35577393 -1.5687866 0 -2.2351074c0.6767578 -1.2675781 1.1462402 -3.1122742 0.23858643 -4.246155c-1.5540161 -1.9412842 -4.8048706 -2.2346497 -7.3948364 -2.2346497" fill-rule="evenodd"/><path stroke="#cc0000" stroke-width="3.0" stroke-linejoin="round" stroke-linecap="butt" d="m757.8632 510.2757c0.7993164 2.2495117 2.8980103 4.2591553 5.2474365 5.1399536c0.84173584 0.3156128 1.9830322 1.2713013 2.6241455 0.6706543c0.56225586 -0.52679443 -0.35577393 -1.5687866 0 -2.2351074c0.6767578 -1.2675781 1.1462402 -3.1122742 0.23858643 -4.246155c-1.5540161 -1.9412842 -4.8048706 -2.2346497 -7.3948364 -2.2346497" fill-rule="evenodd"/><path fill="#000000" fill-opacity="0.0" d="m757.8632 506.96417c0.7993164 -2.2495117 2.8980103 -4.2591553 5.2474365 -5.139984c0.84173584 -0.31558228 1.9830322 -1.2713013 2.6241455 -0.6706238c0.56225586 0.52679443 -0.35577393 1.5687561 0 2.235077c0.6767578 1.2675781 1.1462402 3.1122742 0.23858643 4.246155c-1.5540161 1.9412842 -4.8048706 2.2346802 -7.3948364 2.2346802" fill-rule="evenodd"/><path stroke="#cc0000" stroke-width="3.0" stroke-linejoin="round" stroke-linecap="butt" d="m757.8632 506.96417c0.7993164 -2.2495117 2.8980103 -4.2591553 5.2474365 -5.139984c0.84173584 -0.31558228 1.9830322 -1.2713013 2.6241455 -0.6706238c0.56225586 0.52679443 -0.35577393 1.5687561 0 2.235077c0.6767578 1.2675781 1.1462402 3.1122742 0.23858643 4.246155c-1.5540161 1.9412842 -4.8048706 2.2346802 -7.3948364 2.2346802" fill-rule="evenodd"/></g></svg>