<?xml version="1.0" encoding="utf-8"?>
<!-- Generator: Adobe Illustrator 24.3.0, SVG Export Plug-In . SVG Version: 6.00 Build 0)  -->
<svg version="1.1" id="Calque_1" xmlns="http://www.w3.org/2000/svg" xmlns:xlink="http://www.w3.org/1999/xlink" x="0px" y="0px"
	 viewBox="0 0 267 219" style="enable-background:new 0 0 267 219;" xml:space="preserve">
<style type="text/css">
	.st0{fill-rule:evenodd;clip-rule:evenodd;fill:#CC0000;}
	.st1{fill:none;stroke:#FFFFFF;stroke-linejoin:round;stroke-miterlimit:10;}
	.st2{fill-rule:evenodd;clip-rule:evenodd;fill:#38761D;}
	.st3{fill-rule:evenodd;clip-rule:evenodd;fill:#F1C232;}
	.st4{fill-rule:evenodd;clip-rule:evenodd;fill:#1155CC;}
</style>
<g>
	<g>
		<path class="st0" d="M6.9,83.2L6.9,83.2c0-10.4,8.5-18.9,18.9-18.9l0,0c5,0,9.8,2,13.4,5.5s5.5,8.4,5.5,13.4l0,0
			c0,10.4-8.5,18.9-18.9,18.9l0,0C15.3,102.1,6.9,93.6,6.9,83.2z"/>
		<path class="st1" d="M6.9,83.2L6.9,83.2c0-10.4,8.5-18.9,18.9-18.9l0,0c5,0,9.8,2,13.4,5.5s5.5,8.4,5.5,13.4l0,0
			c0,10.4-8.5,18.9-18.9,18.9l0,0C15.3,102.1,6.9,93.6,6.9,83.2z"/>
		<path class="st2" d="M46.9,83.2L46.9,83.2c0-10.4,8.5-18.9,18.9-18.9l0,0c5,0,9.8,2,13.4,5.5s5.5,8.4,5.5,13.4l0,0
			c0,10.4-8.5,18.9-18.9,18.9l0,0C55.3,102.1,46.9,93.6,46.9,83.2z"/>
		<path class="st1" d="M46.9,83.2L46.9,83.2c0-10.4,8.5-18.9,18.9-18.9l0,0c5,0,9.8,2,13.4,5.5s5.5,8.4,5.5,13.4l0,0
			c0,10.4-8.5,18.9-18.9,18.9l0,0C55.3,102.1,46.9,93.6,46.9,83.2z"/>
		<path class="st3" d="M102.9,83.2L102.9,83.2c0-10.4,8.5-18.9,18.9-18.9l0,0c5,0,9.8,2,13.4,5.5c3.5,3.5,5.5,8.4,5.5,13.4l0,0
			c0,10.4-8.5,18.9-18.9,18.9l0,0C111.3,102.1,102.9,93.6,102.9,83.2z"/>
		<path class="st1" d="M102.9,83.2L102.9,83.2c0-10.4,8.5-18.9,18.9-18.9l0,0c5,0,9.8,2,13.4,5.5c3.5,3.5,5.5,8.4,5.5,13.4l0,0
			c0,10.4-8.5,18.9-18.9,18.9l0,0C111.3,102.1,102.9,93.6,102.9,83.2z"/>
		<path class="st4" d="M158.9,83.2L158.9,83.2c0-10.4,8.5-18.9,18.9-18.9l0,0c5,0,9.8,2,13.4,5.5c3.5,3.5,5.5,8.4,5.5,13.4l0,0
			c0,10.4-8.5,18.9-18.9,18.9l0,0C167.3,102.1,158.9,93.6,158.9,83.2z"/>
		<path class="st1" d="M158.9,83.2L158.9,83.2c0-10.4,8.5-18.9,18.9-18.9l0,0c5,0,9.8,2,13.4,5.5c3.5,3.5,5.5,8.4,5.5,13.4l0,0
			c0,10.4-8.5,18.9-18.9,18.9l0,0C167.3,102.1,158.9,93.6,158.9,83.2z"/>
		<path class="st0" d="M38.9,55.2L38.9,55.2c0-10.4,8.5-18.9,18.9-18.9l0,0c5,0,9.8,2,13.4,5.5s5.5,8.4,5.5,13.4l0,0
			c0,10.4-8.5,18.9-18.9,18.9l0,0C47.3,74.1,38.9,65.6,38.9,55.2z"/>
		<path class="st1" d="M38.9,55.2L38.9,55.2c0-10.4,8.5-18.9,18.9-18.9l0,0c5,0,9.8,2,13.4,5.5s5.5,8.4,5.5,13.4l0,0
			c0,10.4-8.5,18.9-18.9,18.9l0,0C47.3,74.1,38.9,65.6,38.9,55.2z"/>
		<path class="st0" d="M221.8,60.3L221.8,60.3c10.4,0,18.9,8.5,18.9,18.9l0,0c0,5-2,9.8-5.5,13.4c-3.5,3.5-8.4,5.5-13.4,5.5l0,0
			c-10.4,0-18.9-8.5-18.9-18.9l0,0C202.9,68.7,211.3,60.3,221.8,60.3z"/>
		<path class="st1" d="M221.8,60.3L221.8,60.3c10.4,0,18.9,8.5,18.9,18.9l0,0c0,5-2,9.8-5.5,13.4c-3.5,3.5-8.4,5.5-13.4,5.5l0,0
			c-10.4,0-18.9-8.5-18.9-18.9l0,0C202.9,68.7,211.3,60.3,221.8,60.3z"/>
		<path class="st0" d="M77.8,28.3L77.8,28.3c10.4,0,18.9,8.5,18.9,18.9l0,0c0,5-2,9.8-5.5,13.4c-3.5,3.5-8.4,5.5-13.4,5.5l0,0
			c-10.4,0-18.9-8.5-18.9-18.9l0,0C58.9,36.7,67.3,28.3,77.8,28.3z"/>
		<path class="st1" d="M77.8,28.3L77.8,28.3c10.4,0,18.9,8.5,18.9,18.9l0,0c0,5-2,9.8-5.5,13.4c-3.5,3.5-8.4,5.5-13.4,5.5l0,0
			c-10.4,0-18.9-8.5-18.9-18.9l0,0C58.9,36.7,67.3,28.3,77.8,28.3z"/>
		<path class="st0" d="M228.6,55.2L228.6,55.2c0,10.4-8.5,18.9-18.9,18.9l0,0c-5,0-9.8-2-13.4-5.5c-3.5-3.5-5.5-8.4-5.5-13.4l0,0
			c0-10.4,8.5-18.9,18.9-18.9l0,0C220.2,36.3,228.6,44.7,228.6,55.2z"/>
		<path class="st1" d="M228.6,55.2L228.6,55.2c0,10.4-8.5,18.9-18.9,18.9l0,0c-5,0-9.8-2-13.4-5.5c-3.5-3.5-5.5-8.4-5.5-13.4l0,0
			c0-10.4,8.5-18.9,18.9-18.9l0,0C220.2,36.3,228.6,44.7,228.6,55.2z"/>
		<path class="st0" d="M213.8,52.3L213.8,52.3c10.4,0,18.9,8.5,18.9,18.9l0,0c0,5-2,9.8-5.5,13.4c-3.5,3.5-8.4,5.5-13.4,5.5l0,0
			c-10.4,0-18.9-8.5-18.9-18.9l0,0C194.9,60.7,203.3,52.3,213.8,52.3z"/>
		<path class="st1" d="M213.8,52.3L213.8,52.3c10.4,0,18.9,8.5,18.9,18.9l0,0c0,5-2,9.8-5.5,13.4c-3.5,3.5-8.4,5.5-13.4,5.5l0,0
			c-10.4,0-18.9-8.5-18.9-18.9l0,0C194.9,60.7,203.3,52.3,213.8,52.3z"/>
		<path class="st0" d="M189.8,68.3L189.8,68.3c10.4,0,18.9,8.5,18.9,18.9l0,0c0,5-2,9.8-5.5,13.4c-3.5,3.5-8.4,5.5-13.4,5.5l0,0
			c-10.4,0-18.9-8.5-18.9-18.9l0,0C170.9,76.7,179.3,68.3,189.8,68.3z"/>
		<path class="st1" d="M189.8,68.3L189.8,68.3c10.4,0,18.9,8.5,18.9,18.9l0,0c0,5-2,9.8-5.5,13.4c-3.5,3.5-8.4,5.5-13.4,5.5l0,0
			c-10.4,0-18.9-8.5-18.9-18.9l0,0C170.9,76.7,179.3,68.3,189.8,68.3z"/>
		<path class="st0" d="M118.9,123.2L118.9,123.2c0-10.4,8.5-18.9,18.9-18.9l0,0c5,0,9.8,2,13.4,5.5c3.5,3.5,5.5,8.4,5.5,13.4l0,0
			c0,10.4-8.5,18.9-18.9,18.9l0,0C127.3,142.1,118.9,133.6,118.9,123.2z"/>
		<path class="st1" d="M118.9,123.2L118.9,123.2c0-10.4,8.5-18.9,18.9-18.9l0,0c5,0,9.8,2,13.4,5.5c3.5,3.5,5.5,8.4,5.5,13.4l0,0
			c0,10.4-8.5,18.9-18.9,18.9l0,0C127.3,142.1,118.9,133.6,118.9,123.2z"/>
		<path class="st0" d="M110.9,67.2L110.9,67.2c0-10.4,8.5-18.9,18.9-18.9l0,0c5,0,9.8,2,13.4,5.5c3.5,3.5,5.5,8.4,5.5,13.4l0,0
			c0,10.4-8.5,18.9-18.9,18.9l0,0C119.3,86.1,110.9,77.6,110.9,67.2z"/>
		<path class="st1" d="M110.9,67.2L110.9,67.2c0-10.4,8.5-18.9,18.9-18.9l0,0c5,0,9.8,2,13.4,5.5c3.5,3.5,5.5,8.4,5.5,13.4l0,0
			c0,10.4-8.5,18.9-18.9,18.9l0,0C119.3,86.1,110.9,77.6,110.9,67.2z"/>
		<path class="st0" d="M145.8,64.3L145.8,64.3c10.4,0,18.9,8.5,18.9,18.9l0,0c0,5-2,9.8-5.5,13.4c-3.5,3.5-8.4,5.5-13.4,5.5l0,0
			c-10.4,0-18.9-8.5-18.9-18.9l0,0C126.9,72.7,135.3,64.3,145.8,64.3z"/>
		<path class="st1" d="M145.8,64.3L145.8,64.3c10.4,0,18.9,8.5,18.9,18.9l0,0c0,5-2,9.8-5.5,13.4c-3.5,3.5-8.4,5.5-13.4,5.5l0,0
			c-10.4,0-18.9-8.5-18.9-18.9l0,0C126.9,72.7,135.3,64.3,145.8,64.3z"/>
		<path class="st0" d="M117.8,60.3L117.8,60.3c10.4,0,18.9,8.5,18.9,18.9l0,0c0,5-2,9.8-5.5,13.4c-3.5,3.5-8.4,5.5-13.4,5.5l0,0
			c-10.4,0-18.9-8.5-18.9-18.9l0,0C98.9,68.7,107.3,60.3,117.8,60.3z"/>
		<path class="st1" d="M117.8,60.3L117.8,60.3c10.4,0,18.9,8.5,18.9,18.9l0,0c0,5-2,9.8-5.5,13.4c-3.5,3.5-8.4,5.5-13.4,5.5l0,0
			c-10.4,0-18.9-8.5-18.9-18.9l0,0C98.9,68.7,107.3,60.3,117.8,60.3z"/>
		<path class="st0" d="M221.8,158.1L221.8,158.1c-10.4,0-18.9-8.5-18.9-18.9l0,0c0-5,2-9.8,5.5-13.4c3.5-3.5,8.4-5.5,13.4-5.5l0,0
			c10.4,0,18.9,8.5,18.9,18.9l0,0C240.6,149.6,232.2,158.1,221.8,158.1z"/>
		<path class="st1" d="M221.8,158.1L221.8,158.1c-10.4,0-18.9-8.5-18.9-18.9l0,0c0-5,2-9.8,5.5-13.4c3.5-3.5,8.4-5.5,13.4-5.5l0,0
			c10.4,0,18.9,8.5,18.9,18.9l0,0C240.6,149.6,232.2,158.1,221.8,158.1z"/>
		<path class="st2" d="M54.9,27.2L54.9,27.2c0-10.4,8.5-18.9,18.9-18.9l0,0c5,0,9.8,2,13.4,5.5c3.5,3.5,5.5,8.4,5.5,13.4l0,0
			c0,10.4-8.5,18.9-18.9,18.9l0,0C63.3,46.1,54.9,37.6,54.9,27.2z"/>
		<path class="st1" d="M54.9,27.2L54.9,27.2c0-10.4,8.5-18.9,18.9-18.9l0,0c5,0,9.8,2,13.4,5.5c3.5,3.5,5.5,8.4,5.5,13.4l0,0
			c0,10.4-8.5,18.9-18.9,18.9l0,0C63.3,46.1,54.9,37.6,54.9,27.2z"/>
		<path class="st2" d="M204.6,87.2L204.6,87.2c0,10.4-8.5,18.9-18.9,18.9l0,0c-5,0-9.8-2-13.4-5.5c-3.5-3.5-5.5-8.4-5.5-13.4l0,0
			c0-10.4,8.5-18.9,18.9-18.9l0,0C196.2,68.3,204.6,76.7,204.6,87.2z"/>
		<path class="st1" d="M204.6,87.2L204.6,87.2c0,10.4-8.5,18.9-18.9,18.9l0,0c-5,0-9.8-2-13.4-5.5c-3.5-3.5-5.5-8.4-5.5-13.4l0,0
			c0-10.4,8.5-18.9,18.9-18.9l0,0C196.2,68.3,204.6,76.7,204.6,87.2z"/>
		<path class="st2" d="M121.8,56.3L121.8,56.3c10.4,0,18.9,8.5,18.9,18.9l0,0c0,5-2,9.8-5.5,13.4c-3.5,3.5-8.4,5.5-13.4,5.5l0,0
			c-10.4,0-18.9-8.5-18.9-18.9l0,0C102.9,64.7,111.3,56.3,121.8,56.3z"/>
		<path class="st1" d="M121.8,56.3L121.8,56.3c10.4,0,18.9,8.5,18.9,18.9l0,0c0,5-2,9.8-5.5,13.4c-3.5,3.5-8.4,5.5-13.4,5.5l0,0
			c-10.4,0-18.9-8.5-18.9-18.9l0,0C102.9,64.7,111.3,56.3,121.8,56.3z"/>
		<path class="st3" d="M110.9,27.2L110.9,27.2c0-10.4,8.5-18.9,18.9-18.9l0,0c5,0,9.8,2,13.4,5.5c3.5,3.5,5.5,8.4,5.5,13.4l0,0
			c0,10.4-8.5,18.9-18.9,18.9l0,0C119.3,46.1,110.9,37.6,110.9,27.2z"/>
		<path class="st1" d="M110.9,27.2L110.9,27.2c0-10.4,8.5-18.9,18.9-18.9l0,0c5,0,9.8,2,13.4,5.5c3.5,3.5,5.5,8.4,5.5,13.4l0,0
			c0,10.4-8.5,18.9-18.9,18.9l0,0C119.3,46.1,110.9,37.6,110.9,27.2z"/>
		<path class="st4" d="M166.9,27.2L166.9,27.2c0-10.4,8.5-18.9,18.9-18.9l0,0c5,0,9.8,2,13.4,5.5c3.5,3.5,5.5,8.4,5.5,13.4l0,0
			c0,10.4-8.5,18.9-18.9,18.9l0,0C175.3,46.1,166.9,37.6,166.9,27.2z"/>
		<path class="st1" d="M166.9,27.2L166.9,27.2c0-10.4,8.5-18.9,18.9-18.9l0,0c5,0,9.8,2,13.4,5.5c3.5,3.5,5.5,8.4,5.5,13.4l0,0
			c0,10.4-8.5,18.9-18.9,18.9l0,0C175.3,46.1,166.9,37.6,166.9,27.2z"/>
		<path class="st3" d="M212.6,175.2L212.6,175.2c0,10.4-8.5,18.9-18.9,18.9l0,0c-5,0-9.8-2-13.4-5.5c-3.5-3.5-5.5-8.4-5.5-13.4l0,0
			c0-10.4,8.5-18.9,18.9-18.9l0,0C204.2,156.3,212.6,164.7,212.6,175.2z"/>
		<path class="st1" d="M212.6,175.2L212.6,175.2c0,10.4-8.5,18.9-18.9,18.9l0,0c-5,0-9.8-2-13.4-5.5c-3.5-3.5-5.5-8.4-5.5-13.4l0,0
			c0-10.4,8.5-18.9,18.9-18.9l0,0C204.2,156.3,212.6,164.7,212.6,175.2z"/>
		<path class="st4" d="M173.8,100.3L173.8,100.3c10.4,0,18.9,8.5,18.9,18.9l0,0c0,5-2,9.8-5.5,13.4c-3.5,3.5-8.4,5.5-13.4,5.5l0,0
			c-10.4,0-18.9-8.5-18.9-18.9l0,0C154.9,108.7,163.3,100.3,173.8,100.3z"/>
		<path class="st1" d="M173.8,100.3L173.8,100.3c10.4,0,18.9,8.5,18.9,18.9l0,0c0,5-2,9.8-5.5,13.4c-3.5,3.5-8.4,5.5-13.4,5.5l0,0
			c-10.4,0-18.9-8.5-18.9-18.9l0,0C154.9,108.7,163.3,100.3,173.8,100.3z"/>
		<path class="st3" d="M105.8,178.1L105.8,178.1c-10.4,0-18.9-8.5-18.9-18.9l0,0c0-5,2-9.8,5.5-13.4c3.5-3.5,8.4-5.5,13.4-5.5l0,0
			c10.4,0,18.9,8.5,18.9,18.9l0,0C124.6,169.6,116.2,178.1,105.8,178.1z"/>
		<path class="st1" d="M105.8,178.1L105.8,178.1c-10.4,0-18.9-8.5-18.9-18.9l0,0c0-5,2-9.8,5.5-13.4c3.5-3.5,8.4-5.5,13.4-5.5l0,0
			c10.4,0,18.9,8.5,18.9,18.9l0,0C124.6,169.6,116.2,178.1,105.8,178.1z"/>
		<path class="st4" d="M165.8,106.1L165.8,106.1c-10.4,0-18.9-8.5-18.9-18.9l0,0c0-5,2-9.8,5.5-13.4c3.5-3.5,8.4-5.5,13.4-5.5l0,0
			c10.4,0,18.9,8.5,18.9,18.9l0,0C184.6,97.6,176.2,106.1,165.8,106.1z"/>
		<path class="st1" d="M165.8,106.1L165.8,106.1c-10.4,0-18.9-8.5-18.9-18.9l0,0c0-5,2-9.8,5.5-13.4c3.5-3.5,8.4-5.5,13.4-5.5l0,0
			c10.4,0,18.9,8.5,18.9,18.9l0,0C184.6,97.6,176.2,106.1,165.8,106.1z"/>
		<path class="st3" d="M221.8,76.3L221.8,76.3c10.4,0,18.9,8.5,18.9,18.9l0,0c0,5-2,9.8-5.5,13.4c-3.5,3.5-8.4,5.5-13.4,5.5l0,0
			c-10.4,0-18.9-8.5-18.9-18.9l0,0C202.9,84.7,211.3,76.3,221.8,76.3z"/>
		<path class="st1" d="M221.8,76.3L221.8,76.3c10.4,0,18.9,8.5,18.9,18.9l0,0c0,5-2,9.8-5.5,13.4c-3.5,3.5-8.4,5.5-13.4,5.5l0,0
			c-10.4,0-18.9-8.5-18.9-18.9l0,0C202.9,84.7,211.3,76.3,221.8,76.3z"/>
		<path class="st4" d="M214.9,75.2L214.9,75.2c0-10.4,8.5-18.9,18.9-18.9l0,0c5,0,9.8,2,13.4,5.5c3.5,3.5,5.5,8.4,5.5,13.4l0,0
			c0,10.4-8.5,18.9-18.9,18.9l0,0C223.3,94.1,214.9,85.6,214.9,75.2z"/>
		<path class="st1" d="M214.9,75.2L214.9,75.2c0-10.4,8.5-18.9,18.9-18.9l0,0c5,0,9.8,2,13.4,5.5c3.5,3.5,5.5,8.4,5.5,13.4l0,0
			c0,10.4-8.5,18.9-18.9,18.9l0,0C223.3,94.1,214.9,85.6,214.9,75.2z"/>
		<path class="st3" d="M189.8,58.1L189.8,58.1c-10.4,0-18.9-8.5-18.9-18.9l0,0c0-5,2-9.8,5.5-13.4c3.5-3.5,8.4-5.5,13.4-5.5l0,0
			c10.4,0,18.9,8.5,18.9,18.9l0,0C208.6,49.6,200.2,58.1,189.8,58.1z"/>
		<path class="st1" d="M189.8,58.1L189.8,58.1c-10.4,0-18.9-8.5-18.9-18.9l0,0c0-5,2-9.8,5.5-13.4c3.5-3.5,8.4-5.5,13.4-5.5l0,0
			c10.4,0,18.9,8.5,18.9,18.9l0,0C208.6,49.6,200.2,58.1,189.8,58.1z"/>
		<path class="st4" d="M149.8,172.3L149.8,172.3c10.4,0,18.9,8.5,18.9,18.9l0,0c0,5-2,9.8-5.5,13.4c-3.5,3.5-8.4,5.5-13.4,5.5l0,0
			c-10.4,0-18.9-8.5-18.9-18.9l0,0C130.9,180.7,139.3,172.3,149.8,172.3z"/>
		<path class="st1" d="M149.8,172.3L149.8,172.3c10.4,0,18.9,8.5,18.9,18.9l0,0c0,5-2,9.8-5.5,13.4c-3.5,3.5-8.4,5.5-13.4,5.5l0,0
			c-10.4,0-18.9-8.5-18.9-18.9l0,0C130.9,180.7,139.3,172.3,149.8,172.3z"/>
		<path class="st3" d="M153.8,130.1L153.8,130.1c-10.4,0-18.9-8.5-18.9-18.9l0,0c0-5,2-9.8,5.5-13.4c3.5-3.5,8.4-5.5,13.4-5.5l0,0
			c10.4,0,18.9,8.5,18.9,18.9l0,0C172.6,121.6,164.2,130.1,153.8,130.1z"/>
		<path class="st1" d="M153.8,130.1L153.8,130.1c-10.4,0-18.9-8.5-18.9-18.9l0,0c0-5,2-9.8,5.5-13.4c3.5-3.5,8.4-5.5,13.4-5.5l0,0
			c10.4,0,18.9,8.5,18.9,18.9l0,0C172.6,121.6,164.2,130.1,153.8,130.1z"/>
		<path class="st4" d="M88.6,115.2L88.6,115.2c0,10.4-8.5,18.9-18.9,18.9l0,0c-5,0-9.8-2-13.4-5.5s-5.5-8.4-5.5-13.4l0,0
			c0-10.4,8.5-18.9,18.9-18.9l0,0C80.2,96.3,88.6,104.7,88.6,115.2z"/>
		<path class="st1" d="M88.6,115.2L88.6,115.2c0,10.4-8.5,18.9-18.9,18.9l0,0c-5,0-9.8-2-13.4-5.5s-5.5-8.4-5.5-13.4l0,0
			c0-10.4,8.5-18.9,18.9-18.9l0,0C80.2,96.3,88.6,104.7,88.6,115.2z"/>
		<path class="st3" d="M125.8,128.3L125.8,128.3c10.4,0,18.9,8.5,18.9,18.9l0,0c0,5-2,9.8-5.5,13.4c-3.5,3.5-8.4,5.5-13.4,5.5l0,0
			c-10.4,0-18.9-8.5-18.9-18.9l0,0C106.9,136.7,115.3,128.3,125.8,128.3z"/>
		<path class="st1" d="M125.8,128.3L125.8,128.3c10.4,0,18.9,8.5,18.9,18.9l0,0c0,5-2,9.8-5.5,13.4c-3.5,3.5-8.4,5.5-13.4,5.5l0,0
			c-10.4,0-18.9-8.5-18.9-18.9l0,0C106.9,136.7,115.3,128.3,125.8,128.3z"/>
		<path class="st4" d="M229.8,54.1L229.8,54.1c-10.4,0-18.9-8.5-18.9-18.9l0,0c0-5,2-9.8,5.5-13.4c3.5-3.5,8.4-5.5,13.4-5.5l0,0
			c10.4,0,18.9,8.5,18.9,18.9l0,0C248.6,45.6,240.2,54.1,229.8,54.1z"/>
		<path class="st1" d="M229.8,54.1L229.8,54.1c-10.4,0-18.9-8.5-18.9-18.9l0,0c0-5,2-9.8,5.5-13.4c3.5-3.5,8.4-5.5,13.4-5.5l0,0
			c10.4,0,18.9,8.5,18.9,18.9l0,0C248.6,45.6,240.2,54.1,229.8,54.1z"/>
		<path class="st3" d="M222.9,139.2L222.9,139.2c0-10.4,8.5-18.9,18.9-18.9l0,0c5,0,9.8,2,13.4,5.5c3.5,3.5,5.5,8.4,5.5,13.4l0,0
			c0,10.4-8.5,18.9-18.9,18.9l0,0C231.3,158.1,222.9,149.6,222.9,139.2z"/>
		<path class="st1" d="M222.9,139.2L222.9,139.2c0-10.4,8.5-18.9,18.9-18.9l0,0c5,0,9.8,2,13.4,5.5c3.5,3.5,5.5,8.4,5.5,13.4l0,0
			c0,10.4-8.5,18.9-18.9,18.9l0,0C231.3,158.1,222.9,149.6,222.9,139.2z"/>
		<path class="st4" d="M202.9,175.2L202.9,175.2c0-10.4,8.5-18.9,18.9-18.9l0,0c5,0,9.8,2,13.4,5.5c3.5,3.5,5.5,8.4,5.5,13.4l0,0
			c0,10.4-8.5,18.9-18.9,18.9l0,0C211.3,194.1,202.9,185.6,202.9,175.2z"/>
		<path class="st1" d="M202.9,175.2L202.9,175.2c0-10.4,8.5-18.9,18.9-18.9l0,0c5,0,9.8,2,13.4,5.5c3.5,3.5,5.5,8.4,5.5,13.4l0,0
			c0,10.4-8.5,18.9-18.9,18.9l0,0C211.3,194.1,202.9,185.6,202.9,175.2z"/>
	</g>
</g>
</svg>
