<!-- Generator: Adobe Illustrator 23.0.1, SVG Export Plug-In . SVG Version: 6.00 Build 0)  -->
<svg version="1.1" id="Calque_1" xmlns="http://www.w3.org/2000/svg" xmlns:xlink="http://www.w3.org/1999/xlink" x="0px" y="0px"
	 viewBox="0 0 363.2 488.6" style="enable-background:new 0 0 363.2 488.6;" xml:space="preserve">
<style type="text/css">
	.st0{fill:none;}
	.st1{fill-rule:evenodd;clip-rule:evenodd;fill:#073763;}
	.st2{fill-rule:evenodd;clip-rule:evenodd;fill:#9FC5E8;}
	.st3{fill:#0B5394;}
	.st4{font-family:'Andika';}
	.st5{font-size:13px;}
	.st6{fill-rule:evenodd;clip-rule:evenodd;fill:#CC0000;}
	.st7{fill-rule:evenodd;clip-rule:evenodd;fill:#38761D;}
	.st8{fill-rule:evenodd;clip-rule:evenodd;fill:#F1C232;}
	.st9{fill-rule:evenodd;clip-rule:evenodd;fill:#1155CC;}
	.st10{fill-rule:evenodd;clip-rule:evenodd;fill:#FFFFFF;}
	.st11{stroke:#000000;stroke-width:1.5;}
	.st12{fill:none;stroke:#000000;stroke-width:1.5;}
	.st13{stroke:#000000;stroke-width:0.5;}
	.st14{fill:#9FC5E8;}
	.st15{font-size:17px;}
</style>
<rect x="-260.4" y="-25.1" class="st0" width="960" height="540"/>
<path class="st1" d="M0,60.5L0,60.5C0,27.1,27.1,0,60.5,0h242.1l0,0c16.1,0,31.5,6.4,42.8,17.7c11.4,11.4,17.7,26.7,17.7,42.8v367.6
	c0,33.4-27.1,60.5-60.5,60.5H60.5C27.1,488.6,0,461.5,0,428.1V60.5z"/>
<path class="st1" d="M0,60.5L0,60.5C0,27.1,27.1,0,60.5,0h242.1l0,0c16.1,0,31.5,6.4,42.8,17.7c11.4,11.4,17.7,26.7,17.7,42.8v367.6
	c0,33.4-27.1,60.5-60.5,60.5H60.5C27.1,488.6,0,461.5,0,428.1V60.5z"/>
<path class="st2" d="M44,219.1L44,219.1c0-7,5.6-12.6,12.6-12.6h263.9c3.3,0,6.5,1.3,8.9,3.7c2.4,2.4,3.7,5.6,3.7,8.9v50.4
	c0,7-5.6,12.6-12.6,12.6H56.6c-7,0-12.6-5.6-12.6-12.6V219.1z"/>
<text transform="matrix(1 0 0 1 71.9265 223.4433)" class="st3 st4 st5">Quelle souche rend Nounours malade ?</text>
<path class="st2" d="M33,342.5L33,342.5c0-13.3,10.8-24,24-24h252c6.4,0,12.5,2.5,17,7s7,10.6,7,17v96c0,13.3-10.8,24-24,24H57l0,0
	c-13.3,0-24-10.8-24-24V342.5z"/>
<path class="st2" d="M46.4,56.8L46.4,56.8c0-2.7,2.2-5,4.9-5H223c1.3,0,2.5,0.5,3.5,1.5c0.9,0.9,1.4,2.2,1.4,3.5v19.8
	c0,2.7-2.2,5-4.9,5H51.3c-2.7,0-4.9-2.2-4.9-5V56.8z"/>
<g>
	<path class="st2" d="M44,111.1L44,111.1c0-7,5.6-12.6,12.6-12.6h263.9c3.3,0,6.5,1.3,8.9,3.7c2.4,2.4,3.7,5.6,3.7,8.9v50.4
		c0,7-5.6,12.6-12.6,12.6H56.6c-7,0-12.6-5.6-12.6-12.6V111.1z"/>
	<g>
		<path class="st6" d="M85.7,142.1L85.7,142.1c0-10.4,8.5-18.9,18.9-18.9l0,0c5,0,9.8,2,13.4,5.5c3.5,3.5,5.5,8.4,5.5,13.4l0,0
			c0,10.4-8.5,18.9-18.9,18.9l0,0C94.1,161,85.7,152.5,85.7,142.1z"/>
		<path class="st7" d="M141.7,142.1L141.7,142.1c0-10.4,8.5-18.9,18.9-18.9l0,0c5,0,9.8,2,13.4,5.5c3.5,3.5,5.5,8.4,5.5,13.4l0,0
			c0,10.4-8.5,18.9-18.9,18.9l0,0C150.1,161,141.7,152.5,141.7,142.1z"/>
		<path class="st8" d="M197.7,142.1L197.7,142.1c0-10.4,8.5-18.9,18.9-18.9l0,0c5,0,9.8,2,13.4,5.5c3.5,3.5,5.5,8.4,5.5,13.4l0,0
			c0,10.4-8.5,18.9-18.9,18.9l0,0C206.1,161,197.7,152.5,197.7,142.1z"/>
		<path class="st9" d="M253.7,142.1L253.7,142.1c0-10.4,8.5-18.9,18.9-18.9l0,0c5,0,9.8,2,13.4,5.5c3.5,3.5,5.5,8.4,5.5,13.4l0,0
			c0,10.4-8.5,18.9-18.9,18.9l0,0C262.1,161,253.7,152.5,253.7,142.1z"/>
	</g>
	<text transform="matrix(1 0 0 1 72.7829 113.7013)" class="st3 st4 st5">Quelle famille provoque la blastouille ?</text>
</g>
<g>
	<g>
		<path class="st10" d="M85.7,250.1L85.7,250.1c0-10.4,8.5-18.9,18.9-18.9l0,0c5,0,9.8,2,13.4,5.5c3.5,3.5,5.5,8.4,5.5,13.4l0,0
			c0,10.4-8.5,18.9-18.9,18.9l0,0C94.1,269,85.7,260.5,85.7,250.1z"/>
		<g>
			<ellipse id="path983" class="st11" cx="96.5" cy="237.5" rx="2" ry="2.1"/>
			<path id="path1004-0" class="st12" d="M87.6,244.5c1.4,0,2.7,0,3.4,1.6c0.7,1.6,0.7,4.7,0.1,6.3s-2,1.6-3.3,1.6"/>
			<path id="path1004-0-7" class="st12" d="M89.4,256.6c1-1,1.9-1.9,3.5-1.3c1.6,0.6,3.8,2.8,4.5,4.4c0.6,1.6-0.3,2.5-1.3,3.5"/>
			<path id="path1004-0-7-9" class="st12" d="M100,264.9c0-1.4-0.1-2.7,1.5-3.5c1.6-0.7,4.7-0.8,6.3-0.2s1.6,2,1.7,3.3"/>
			<path id="path1004-0-7-9-2" class="st12" d="M112.9,263.8c-0.9-1-1.8-2-1.1-3.6s3-3.7,4.7-4.2c1.6-0.6,2.5,0.4,3.4,1.5"/>
			<path id="path1004-0-7-9-2-9" class="st12" d="M121.5,253.3c-1.4,0.1-2.9,0.1-3.7-1.4s-0.9-4.7-0.3-6.3c0.6-1.6,2.1-1.7,3.5-1.7"
				/>
			<ellipse id="path983-75" class="st11" cx="111.8" cy="237.4" rx="2" ry="2.1"/>
		</g>
	</g>
	<g>
		<path class="st10" d="M141.7,250.1L141.7,250.1c0-10.4,8.5-18.9,18.9-18.9l0,0c5,0,9.8,2,13.4,5.5c3.5,3.5,5.5,8.4,5.5,13.4l0,0
			c0,10.4-8.5,18.9-18.9,18.9l0,0C150.1,269,141.7,260.5,141.7,250.1z"/>
		<g>
			<path id="path836-6" class="st13" d="M162.8,237.8l5,0l5,0l-2.5,4.3l-2.5,4.3l-2.5-4.4L162.8,237.8z"/>
			<path id="path836-6-3" class="st13" d="M148.2,237.3l5,0.1l5,0.1l-2.6,4.3l-2.6,4.3l-2.5-4.4L148.2,237.3z"/>
			<path id="path836-6-3-6" class="st13" d="M155.5,256.1l5,0.1l5,0.1l-2.6,4.3l-2.6,4.3l-2.5-4.4L155.5,256.1z"/>
		</g>
	</g>
	<g>
		<path class="st10" d="M197.7,250.1L197.7,250.1c0-10.4,8.5-18.9,18.9-18.9l0,0c5,0,9.8,2,13.4,5.5c3.5,3.5,5.5,8.4,5.5,13.4l0,0
			c0,10.4-8.5,18.9-18.9,18.9l0,0C206.1,269,197.7,260.5,197.7,250.1z"/>
		<g>
			<path id="path1272" class="st12" d="M205.5,238l8.2,6.2"/>
			<path id="path1276" class="st12" d="M202.7,258.5l4.1-4.2l-0.7,6.9l5-4.4l1.2,5.6l3.7-5.2l2.8,4.9l1.7-5.5l2.8,4.3l1-5.2l2.7,3.9
				l-0.1-5.4l3.4,2.6"/>
			<path id="path1272-1" class="st12" d="M227.9,237.6l-7.6,7"/>
		</g>
	</g>
	<g>
		<path class="st10" d="M253.7,250.1L253.7,250.1c0-10.4,8.5-18.9,18.9-18.9l0,0c5,0,9.8,2,13.4,5.5c3.5,3.5,5.5,8.4,5.5,13.4l0,0
			c0,10.4-8.5,18.9-18.9,18.9l0,0C262.1,269,253.7,260.5,253.7,250.1z"/>
		<g>
			<ellipse id="path1196" class="st12" cx="272.9" cy="260.5" rx="1.9" ry="3.4"/>
			<path id="path1202" class="st12" d="M260.7,242.4c1.5,0.7,2.9,1.4,3.8,3.4c0.9,2,1.1,5.3,0.5,7.9c-0.6,2.6-2,4.5-3.5,6.4"/>
			<ellipse id="path983-3" class="st11" cx="266.4" cy="238.1" rx="1.7" ry="1.8"/>
			<ellipse id="path983-75-5" class="st11" cx="279.3" cy="238.1" rx="1.7" ry="1.8"/>
			<path id="path1202-2" class="st12" d="M284.4,260.3c-1.5-0.7-2.9-1.4-3.8-3.4c-0.9-2-1.2-5.3-0.6-7.9c0.6-2.6,2-4.5,3.4-6.4"/>
		</g>
	</g>
</g>
<text transform="matrix(1 0 0 1 31.5957 36.3102)" class="st14 st4 st15">Qu’est-ce qui rend Nounours malade ?</text>
<text transform="matrix(1 0 0 1 59.2253 337.52)" class="st3 st4 st5">Quelle protéine bloque les antibiotiques ?</text>
<rect x="49.6" y="60" class="st0" width="173.4" height="24.7"/>
<text transform="matrix(1 0 0 1 51 72)" class="st3 st4 st15"><?php echo $_SESSION['explorerName']; ?></text>
</svg>
