<?xml version="1.0" encoding="utf-8"?>
<!-- Generator: Adobe Illustrator 24.3.0, SVG Export Plug-In . SVG Version: 6.00 Build 0)  -->
<svg version="1.1" id="Calque_1" xmlns="http://www.w3.org/2000/svg" xmlns:xlink="http://www.w3.org/1999/xlink" x="0px" y="0px"
	 viewBox="0 0 363.2 488.6" style="enable-background:new 0 0 363.2 488.6;" xml:space="preserve">
<style type="text/css">
	.st0{fill-rule:evenodd;clip-rule:evenodd;fill:#073763;}
	.st1{fill-rule:evenodd;clip-rule:evenodd;fill:#9FC5E8;}
	.st2{fill-rule:evenodd;clip-rule:evenodd;fill:#CC0000;}
	.st3{fill-rule:evenodd;clip-rule:evenodd;fill:#38761D;}
	.st4{fill-rule:evenodd;clip-rule:evenodd;fill:#F1C232;}
	.st5{fill-rule:evenodd;clip-rule:evenodd;fill:#1155CC;}
	.st6{fill:#0B5394;}
	.st7{font-family:'Andika-Regular';}
	.st8{font-size:13px;}
	.st9{fill-rule:evenodd;clip-rule:evenodd;fill:#FFFFFF;}
	.st10{stroke:#000000;stroke-width:1.5;}
	.st11{fill:none;stroke:#000000;stroke-width:1.5;}
	.st12{stroke:#000000;stroke-width:0.5;}
	.st13{fill:#9FC5E8;}
	.st14{font-size:17px;}
	.st15{fill:none;}
	.st16{font-size:16px;}
	.st17{fill-rule:evenodd;clip-rule:evenodd;fill:none;}
	.st18{font-size:10px;}
</style>
<path class="st0" d="M0,60.5L0,60.5C0,27.1,27.1,0,60.5,0h242.1l0,0c16.1,0,31.5,6.4,42.8,17.7c11.4,11.4,17.7,26.7,17.7,42.8v367.6
	c0,33.4-27.1,60.5-60.5,60.5H60.5C27.1,488.6,0,461.5,0,428.1V60.5z"/>
<path class="st0" d="M0,60.5L0,60.5C0,27.1,27.1,0,60.5,0h242.1l0,0c16.1,0,31.5,6.4,42.8,17.7c11.4,11.4,17.7,26.7,17.7,42.8v367.6
	c0,33.4-27.1,60.5-60.5,60.5H60.5C27.1,488.6,0,461.5,0,428.1V60.5z"/>
<g>
	<path class="st1" d="M37,127.8L37,127.8c0-7,5.6-12.6,12.6-12.6h263.9c3.3,0,6.5,1.3,8.9,3.7c2.4,2.4,3.7,5.6,3.7,8.9v50.4
		c0,7-5.6,12.6-12.6,12.6H49.6c-7,0-12.6-5.6-12.6-12.6V127.8z"/>
	<g>
		<path class="st2" d="M78.7,158.8L78.7,158.8c0-10.4,8.5-18.9,18.9-18.9l0,0c5,0,9.8,2,13.4,5.5c3.5,3.5,5.5,8.4,5.5,13.4l0,0
			c0,10.4-8.5,18.9-18.9,18.9l0,0C87.1,177.7,78.7,169.2,78.7,158.8z"/>
		<path class="st3" d="M134.7,158.8L134.7,158.8c0-10.4,8.5-18.9,18.9-18.9l0,0c5,0,9.8,2,13.4,5.5c3.5,3.5,5.5,8.4,5.5,13.4l0,0
			c0,10.4-8.5,18.9-18.9,18.9l0,0C143.1,177.7,134.7,169.2,134.7,158.8z"/>
		<path class="st4" d="M190.7,158.8L190.7,158.8c0-10.4,8.5-18.9,18.9-18.9l0,0c5,0,9.8,2,13.4,5.5c3.5,3.5,5.5,8.4,5.5,13.4l0,0
			c0,10.4-8.5,18.9-18.9,18.9l0,0C199.1,177.7,190.7,169.2,190.7,158.8z"/>
		<path class="st5" d="M246.7,158.8L246.7,158.8c0-10.4,8.5-18.9,18.9-18.9l0,0c5,0,9.8,2,13.4,5.5c3.5,3.5,5.5,8.4,5.5,13.4l0,0
			c0,10.4-8.5,18.9-18.9,18.9l0,0C255.1,177.7,246.7,169.2,246.7,158.8z"/>
	</g>
	<text transform="matrix(1 0 0 1 65.7829 130.368)" class="st6 st7 st8">Quelle famille provoque la blastouille ?</text>
</g>
<g>
	<path class="st1" d="M37,218.9L37,218.9c0-7,5.6-12.6,12.6-12.6h263.9c3.3,0,6.5,1.3,8.9,3.7s3.7,5.6,3.7,8.9v50.4
		c0,7-5.6,12.6-12.6,12.6H49.6c-7,0-12.6-5.6-12.6-12.6V218.9z"/>
	<text transform="matrix(1 0 0 1 64.9265 223.2766)" class="st6 st7 st8">Quelle souche rend Nounours malade ?</text>
	<g>
		<g>
			<path class="st9" d="M78.7,249.9L78.7,249.9c0-10.4,8.5-18.9,18.9-18.9l0,0c5,0,9.8,2,13.4,5.5c3.5,3.5,5.5,8.4,5.5,13.4l0,0
				c0,10.4-8.5,18.9-18.9,18.9l0,0C87.1,268.8,78.7,260.3,78.7,249.9z"/>
			<g>
				<ellipse id="path983" class="st10" cx="89.5" cy="237.3" rx="2" ry="2.1"/>
				<path id="path1004-0" class="st11" d="M80.6,244.3c1.4,0,2.7,0,3.4,1.6c0.7,1.6,0.7,4.7,0.1,6.3s-2,1.6-3.3,1.6"/>
				<path id="path1004-0-7" class="st11" d="M82.4,256.4c1-1,1.9-1.9,3.5-1.3c1.6,0.6,3.8,2.8,4.5,4.4c0.6,1.6-0.3,2.5-1.3,3.5"/>
				<path id="path1004-0-7-9" class="st11" d="M93,264.7c0-1.4-0.1-2.7,1.5-3.5c1.6-0.7,4.7-0.8,6.3-0.2s1.6,2,1.7,3.3"/>
				<path id="path1004-0-7-9-2" class="st11" d="M105.9,263.6c-0.9-1-1.8-2-1.1-3.6s3-3.7,4.7-4.2c1.6-0.6,2.5,0.4,3.4,1.5"/>
				<path id="path1004-0-7-9-2-9" class="st11" d="M114.5,253.1c-1.4,0.1-2.9,0.1-3.7-1.4s-0.9-4.7-0.3-6.3s2.1-1.7,3.5-1.7"/>
				<ellipse id="path983-75" class="st10" cx="104.8" cy="237.2" rx="2" ry="2.1"/>
			</g>
		</g>
		<g>
			<path class="st9" d="M134.7,249.9L134.7,249.9c0-10.4,8.5-18.9,18.9-18.9l0,0c5,0,9.8,2,13.4,5.5c3.5,3.5,5.5,8.4,5.5,13.4l0,0
				c0,10.4-8.5,18.9-18.9,18.9l0,0C143.1,268.8,134.7,260.3,134.7,249.9z"/>
			<g>
				<path id="path836-6" class="st12" d="M155.8,237.6h5h5l-2.5,4.3l-2.5,4.3l-2.5-4.4L155.8,237.6z"/>
				<path id="path836-6-3" class="st12" d="M141.2,237.1l5,0.1l5,0.1l-2.6,4.3l-2.6,4.3l-2.5-4.4L141.2,237.1z"/>
				<path id="path836-6-3-6" class="st12" d="M148.5,255.9l5,0.1l5,0.1l-2.6,4.3l-2.6,4.3l-2.5-4.4L148.5,255.9z"/>
			</g>
		</g>
		<g>
			<path class="st9" d="M190.7,249.9L190.7,249.9c0-10.4,8.5-18.9,18.9-18.9l0,0c5,0,9.8,2,13.4,5.5c3.5,3.5,5.5,8.4,5.5,13.4l0,0
				c0,10.4-8.5,18.9-18.9,18.9l0,0C199.1,268.8,190.7,260.3,190.7,249.9z"/>
			<g>
				<path id="path1272" class="st11" d="M198.5,237.8l8.2,6.2"/>
				<path id="path1276" class="st11" d="M195.7,258.3l4.1-4.2l-0.7,6.9l5-4.4l1.2,5.6l3.7-5.2l2.8,4.9l1.7-5.5l2.8,4.3l1-5.2
					l2.7,3.9l-0.1-5.4l3.4,2.6"/>
				<path id="path1272-1" class="st11" d="M220.9,237.4l-7.6,7"/>
			</g>
		</g>
		<g>
			<path class="st9" d="M246.7,249.9L246.7,249.9c0-10.4,8.5-18.9,18.9-18.9l0,0c5,0,9.8,2,13.4,5.5c3.5,3.5,5.5,8.4,5.5,13.4l0,0
				c0,10.4-8.5,18.9-18.9,18.9l0,0C255.1,268.8,246.7,260.3,246.7,249.9z"/>
			<g>
				<ellipse id="path1196" class="st11" cx="265.9" cy="260.3" rx="1.9" ry="3.4"/>
				<path id="path1202" class="st11" d="M253.7,242.2c1.5,0.7,2.9,1.4,3.8,3.4s1.1,5.3,0.5,7.9c-0.6,2.6-2,4.5-3.5,6.4"/>
				<ellipse id="path983-3" class="st10" cx="259.4" cy="237.9" rx="1.7" ry="1.8"/>
				<ellipse id="path983-75-5" class="st10" cx="272.3" cy="237.9" rx="1.7" ry="1.8"/>
				<path id="path1202-2" class="st11" d="M277.4,260.1c-1.5-0.7-2.9-1.4-3.8-3.4c-0.9-2-1.2-5.3-0.6-7.9c0.6-2.6,2-4.5,3.4-6.4"/>
			</g>
		</g>
	</g>
</g>
<text transform="matrix(1 0 0 1 31.5549 36.3102)" class="st13 st7 st14">Qu’est-ce qui rend Nounours malade ?</text>
<g>
	<path class="st1" d="M37,74.8L37,74.8c0-2.7,2.2-5,4.9-5h171.7c1.3,0,2.5,0.5,3.5,1.5c0.9,0.9,1.4,2.2,1.4,3.5v19.8
		c0,2.7-2.2,5-4.9,5H41.9c-2.7,0-4.9-2.2-4.9-5C37,94.6,37,74.8,37,74.8z"/>
	<rect x="40.9" y="56.6" class="st15" width="108.5" height="26.5"/>
	<text transform="matrix(1 0 0 1 40.9362 66.7116)" class="st13 st7 st8">Nom de l’expert</text>
	<rect x="42.6" y="71.8" class="st15" width="170.3" height="25.4"/>
	<text transform="matrix(1 0 0 1 110.6408 90.7916)" class="st6 st7 st16">Toto</text>
</g>
<g>
	<path class="st1" d="M37,326.6L37,326.6c0-16.1,10.4-29.1,23.1-29.1H303c6.2,0,12,3,16.4,8.5c4.3,5.5,6.7,12.8,6.7,20.6v116.3
		c0,16.1-10.4,29.1-23.1,29.1H60.1l0,0c-12.8,0-23.1-13.1-23.1-29.1V326.6z"/>
	<text transform="matrix(1 0 0 1 57.7753 313.52)" class="st6 st7 st8">Quelle protéine bloque les antibiotiques ?</text>
	<rect x="41.4" y="374.5" class="st17" width="51.7" height="11.8"/>
	<text transform="matrix(1 0 0 1 43.4687 382.3515)" class="st7 st18">Protéine 1</text>
	
		<image style="overflow:visible;" width="1492" height="1179" xlink:href="proteomique/prot-2.png"  transform="matrix(3.392706e-02 0 0 3.392706e-02 41.963 323.6959)">
	</image>
	
		<image style="overflow:visible;" width="832" height="1087" xlink:href="proteomique/prot-3.png"  transform="matrix(3.679853e-02 0 0 3.679853e-02 138.8731 323.6959)">
	</image>
	
		<image style="overflow:visible;" width="1957" height="743" xlink:href="proteomique/prot-4.png"  transform="matrix(5.383580e-02 0 0 5.383580e-02 215.7804 323.6959)">
	</image>
	
		<image style="overflow:visible;" width="1496" height="1179" xlink:href="proteomique/prot-5.png"  transform="matrix(3.392706e-02 0 0 3.392706e-02 52.872 402.5886)">
	</image>
	
		<image style="overflow:visible;" width="1495" height="1366" xlink:href="proteomique/prot-6.png"  transform="matrix(2.928258e-02 0 0 2.928258e-02 155.336 402.5886)">
	</image>
	
		<image style="overflow:visible;" width="1399" height="942" xlink:href="proteomique/prot-7.png"  transform="matrix(4.246284e-02 0 0 4.246284e-02 250.8225 402.5886)">
	</image>
	<rect x="128.3" y="374.5" class="st17" width="51.7" height="11.8"/>
	<text transform="matrix(1 0 0 1 130.3774 382.3515)" class="st7 st18">Protéine 2</text>
	<rect x="242.6" y="374.5" class="st17" width="51.7" height="11.8"/>
	<text transform="matrix(1 0 0 1 244.6549 382.3515)" class="st7 st18">Protéine 3</text>
	<rect x="52.4" y="450.5" class="st17" width="51.7" height="11.8"/>
	<text transform="matrix(1 0 0 1 54.4456 458.3328)" class="st7 st18">Protéine 4</text>
	<rect x="151.4" y="450.5" class="st17" width="51.7" height="11.8"/>
	<text transform="matrix(1 0 0 1 153.4208 458.3327)" class="st7 st18">Protéine 5</text>
	<rect x="254.7" y="450.5" class="st17" width="51.7" height="11.8"/>
	<text transform="matrix(1 0 0 1 256.7214 458.3328)" class="st7 st18">Protéine 6</text>
</g>
</svg>
