<?xml version="1.0" encoding="utf-8"?>
<!-- Generator: Adobe Illustrator 23.0.1, SVG Export Plug-In . SVG Version: 6.00 Build 0)  -->
<svg version="1.1" id="Calque_1" xmlns="http://www.w3.org/2000/svg" xmlns:xlink="http://www.w3.org/1999/xlink" x="0px" y="0px"
	 viewBox="0 0 63 59" style="enable-background:new 0 0 63 59;" xml:space="preserve">
<style type="text/css">
	.st0{stroke:#000000;}
	.st1{fill:none;stroke:#000000;stroke-width:2;}
</style>
<g>
	<ellipse id="path983" class="st0" cx="17.75" cy="7.94" rx="3.41" ry="3.68"/>
	<path id="path1004-0" class="st1" d="M2.48,19.87c2.33,0,4.67,0,5.86,2.69c1.2,2.69,1.26,8.08,0.14,10.77
		c-1.12,2.69-3.42,2.69-5.72,2.69"/>
	<path id="path1004-0-7" class="st1" d="M5.6,40.72c1.66-1.64,3.32-3.28,6.07-2.2c2.74,1.08,6.57,4.87,7.66,7.57
		s-0.54,4.32-2.18,5.93"/>
	<path id="path1004-0-7-9" class="st1" d="M23.69,54.87c-0.05-2.33-0.11-4.67,2.56-5.93c2.66-1.26,8.05-1.45,10.77-0.39
		c2.72,1.06,2.77,3.35,2.83,5.65"/>
	<path id="path1004-0-7-9-2" class="st1" d="M45.83,52.98c-1.55-1.75-3.1-3.49-1.88-6.17c1.22-2.68,5.21-6.31,7.96-7.26
		c2.76-0.95,4.28,0.77,5.81,2.49"/>
	<path id="path1004-0-7-9-2-9" class="st1" d="M60.52,35.05c-2.48,0.09-4.96,0.18-6.31-2.47c-1.35-2.65-1.58-8.05-0.47-10.8
		c1.11-2.75,3.55-2.84,5.99-2.93"/>
	<ellipse id="path983-75" class="st0" cx="43.99" cy="7.81" rx="3.41" ry="3.68"/>
</g>
</svg>
