<?xml version="1.0" encoding="utf-8"?>
<!-- Generator: Adobe Illustrator 24.3.0, SVG Export Plug-In . SVG Version: 6.00 Build 0)  -->
<svg version="1.1" id="Calque_1" xmlns="http://www.w3.org/2000/svg" xmlns:xlink="http://www.w3.org/1999/xlink" x="0px" y="0px"
	 viewBox="0 0 540 299" style="enable-background:new 0 0 540 299;" xml:space="preserve">
<style type="text/css">
	.st0{fill-rule:evenodd;clip-rule:evenodd;fill:#CC0000;}
	.st1{fill:none;stroke:#FFFFFF;stroke-linejoin:round;stroke-miterlimit:10;}
	.st2{fill-rule:evenodd;clip-rule:evenodd;fill:#1155CC;}
	.st3{fill-rule:evenodd;clip-rule:evenodd;fill:#F1C232;}
	.st4{fill-rule:evenodd;clip-rule:evenodd;fill:#EFC22E;}
	.st5{fill:#EFC22E;stroke:#FFFFFF;stroke-linejoin:round;stroke-miterlimit:10;}
	.st6{fill-rule:evenodd;clip-rule:evenodd;fill:#38761D;}
</style>
<g>
	<g>
		<path class="st0" d="M158.4,169.4L158.4,169.4c0-10.4,8.5-18.9,18.9-18.9l0,0c5,0,9.8,2,13.4,5.5c3.5,3.5,5.5,8.4,5.5,13.4l0,0
			c0,10.4-8.5,18.9-18.9,18.9l0,0C166.9,188.3,158.4,179.8,158.4,169.4z"/>
		<path class="st1" d="M158.4,169.4L158.4,169.4c0-10.4,8.5-18.9,18.9-18.9l0,0c5,0,9.8,2,13.4,5.5c3.5,3.5,5.5,8.4,5.5,13.4l0,0
			c0,10.4-8.5,18.9-18.9,18.9l0,0C166.9,188.3,158.4,179.8,158.4,169.4z"/>
	</g>
	<g>
		<path class="st0" d="M196.2,123L196.2,123c0,10.4-8.5,18.9-18.9,18.9l0,0c-5,0-9.8-2-13.4-5.5c-3.5-3.5-5.5-8.4-5.5-13.4l0,0
			c0-10.4,8.5-18.9,18.9-18.9l0,0C187.8,104.1,196.2,112.5,196.2,123z"/>
		<path class="st1" d="M196.2,123L196.2,123c0,10.4-8.5,18.9-18.9,18.9l0,0c-5,0-9.8-2-13.4-5.5c-3.5-3.5-5.5-8.4-5.5-13.4l0,0
			c0-10.4,8.5-18.9,18.9-18.9l0,0C187.8,104.1,196.2,112.5,196.2,123z"/>
	</g>
	<g>
		<path class="st0" d="M225.3,150.5L225.3,150.5c10.4,0,18.9,8.5,18.9,18.9l0,0c0,5-2,9.8-5.5,13.4c-3.5,3.5-8.4,5.5-13.4,5.5l0,0
			c-10.4,0-18.9-8.5-18.9-18.9l0,0C206.4,158.9,214.9,150.5,225.3,150.5z"/>
		<path class="st1" d="M225.3,150.5L225.3,150.5c10.4,0,18.9,8.5,18.9,18.9l0,0c0,5-2,9.8-5.5,13.4c-3.5,3.5-8.4,5.5-13.4,5.5l0,0
			c-10.4,0-18.9-8.5-18.9-18.9l0,0C206.4,158.9,214.9,150.5,225.3,150.5z"/>
	</g>
	<g>
		<path class="st0" d="M244.2,123L244.2,123c0,10.4-8.5,18.9-18.9,18.9l0,0c-5,0-9.8-2-13.4-5.5c-3.5-3.5-5.5-8.4-5.5-13.4l0,0
			c0-10.4,8.5-18.9,18.9-18.9l0,0C235.8,104.1,244.2,112.5,244.2,123z"/>
		<path class="st1" d="M244.2,123L244.2,123c0,10.4-8.5,18.9-18.9,18.9l0,0c-5,0-9.8-2-13.4-5.5c-3.5-3.5-5.5-8.4-5.5-13.4l0,0
			c0-10.4,8.5-18.9,18.9-18.9l0,0C235.8,104.1,244.2,112.5,244.2,123z"/>
	</g>
	<g>
		<path class="st0" d="M158.4,76.6L158.4,76.6c0-10.4,8.5-18.9,18.9-18.9l0,0c5,0,9.8,2,13.4,5.5c3.5,3.5,5.5,8.4,5.5,13.4l0,0
			c0,10.4-8.5,18.9-18.9,18.9l0,0C166.9,95.5,158.4,87,158.4,76.6z"/>
		<path class="st1" d="M158.4,76.6L158.4,76.6c0-10.4,8.5-18.9,18.9-18.9l0,0c5,0,9.8,2,13.4,5.5c3.5,3.5,5.5,8.4,5.5,13.4l0,0
			c0,10.4-8.5,18.9-18.9,18.9l0,0C166.9,95.5,158.4,87,158.4,76.6z"/>
	</g>
	<g>
		<path class="st0" d="M225.3,57.7L225.3,57.7c10.4,0,18.9,8.5,18.9,18.9l0,0c0,5-2,9.8-5.5,13.4c-3.5,3.5-8.4,5.5-13.4,5.5l0,0
			c-10.4,0-18.9-8.5-18.9-18.9l0,0C206.4,66.1,214.9,57.7,225.3,57.7z"/>
		<path class="st1" d="M225.3,57.7L225.3,57.7c10.4,0,18.9,8.5,18.9,18.9l0,0c0,5-2,9.8-5.5,13.4c-3.5,3.5-8.4,5.5-13.4,5.5l0,0
			c-10.4,0-18.9-8.5-18.9-18.9l0,0C206.4,66.1,214.9,57.7,225.3,57.7z"/>
	</g>
	<g>
		<path class="st0" d="M158.4,262.2L158.4,262.2c0-10.4,8.5-18.9,18.9-18.9l0,0c5,0,9.8,2,13.4,5.5c3.5,3.5,5.5,8.4,5.5,13.4l0,0
			c0,10.4-8.5,18.9-18.9,18.9l0,0C166.9,281.1,158.4,272.6,158.4,262.2z"/>
		<path class="st1" d="M158.4,262.2L158.4,262.2c0-10.4,8.5-18.9,18.9-18.9l0,0c5,0,9.8,2,13.4,5.5c3.5,3.5,5.5,8.4,5.5,13.4l0,0
			c0,10.4-8.5,18.9-18.9,18.9l0,0C166.9,281.1,158.4,272.6,158.4,262.2z"/>
	</g>
	<g>
		<path class="st0" d="M196.2,215.8L196.2,215.8c0,10.4-8.5,18.9-18.9,18.9l0,0c-5,0-9.8-2-13.4-5.5c-3.5-3.5-5.5-8.4-5.5-13.4l0,0
			c0-10.4,8.5-18.9,18.9-18.9l0,0C187.8,196.9,196.2,205.3,196.2,215.8z"/>
		<path class="st1" d="M196.2,215.8L196.2,215.8c0,10.4-8.5,18.9-18.9,18.9l0,0c-5,0-9.8-2-13.4-5.5c-3.5-3.5-5.5-8.4-5.5-13.4l0,0
			c0-10.4,8.5-18.9,18.9-18.9l0,0C187.8,196.9,196.2,205.3,196.2,215.8z"/>
	</g>
	<g>
		<path class="st0" d="M225.3,243.3L225.3,243.3c10.4,0,18.9,8.5,18.9,18.9l0,0c0,5-2,9.8-5.5,13.4c-3.5,3.5-8.4,5.5-13.4,5.5l0,0
			c-10.4,0-18.9-8.5-18.9-18.9l0,0C206.4,251.7,214.9,243.3,225.3,243.3z"/>
		<path class="st1" d="M225.3,243.3L225.3,243.3c10.4,0,18.9,8.5,18.9,18.9l0,0c0,5-2,9.8-5.5,13.4c-3.5,3.5-8.4,5.5-13.4,5.5l0,0
			c-10.4,0-18.9-8.5-18.9-18.9l0,0C206.4,251.7,214.9,243.3,225.3,243.3z"/>
	</g>
	<g>
		<path class="st0" d="M244.2,215.8L244.2,215.8c0,10.4-8.5,18.9-18.9,18.9l0,0c-5,0-9.8-2-13.4-5.5c-3.5-3.5-5.5-8.4-5.5-13.4l0,0
			c0-10.4,8.5-18.9,18.9-18.9l0,0C235.8,196.9,244.2,205.3,244.2,215.8z"/>
		<path class="st1" d="M244.2,215.8L244.2,215.8c0,10.4-8.5,18.9-18.9,18.9l0,0c-5,0-9.8-2-13.4-5.5c-3.5-3.5-5.5-8.4-5.5-13.4l0,0
			c0-10.4,8.5-18.9,18.9-18.9l0,0C235.8,196.9,244.2,205.3,244.2,215.8z"/>
	</g>
</g>
<g>
	<g>
		<path class="st2" d="M292.5,169.4L292.5,169.4c0-10.4,8.5-18.9,18.9-18.9l0,0c5,0,9.8,2,13.4,5.5c3.5,3.5,5.5,8.4,5.5,13.4l0,0
			c0,10.4-8.5,18.9-18.9,18.9l0,0C301,188.3,292.5,179.8,292.5,169.4z"/>
		<path class="st1" d="M292.5,169.4L292.5,169.4c0-10.4,8.5-18.9,18.9-18.9l0,0c5,0,9.8,2,13.4,5.5c3.5,3.5,5.5,8.4,5.5,13.4l0,0
			c0,10.4-8.5,18.9-18.9,18.9l0,0C301,188.3,292.5,179.8,292.5,169.4z"/>
	</g>
	<g>
		<path class="st2" d="M359.4,150.5L359.4,150.5c10.4,0,18.9,8.5,18.9,18.9l0,0c0,5-2,9.8-5.5,13.4c-3.5,3.5-8.4,5.5-13.4,5.5l0,0
			c-10.4,0-18.9-8.5-18.9-18.9l0,0C340.5,158.9,349,150.5,359.4,150.5z"/>
		<path class="st1" d="M359.4,150.5L359.4,150.5c10.4,0,18.9,8.5,18.9,18.9l0,0c0,5-2,9.8-5.5,13.4c-3.5,3.5-8.4,5.5-13.4,5.5l0,0
			c-10.4,0-18.9-8.5-18.9-18.9l0,0C340.5,158.9,349,150.5,359.4,150.5z"/>
	</g>
	<g>
		<path class="st2" d="M292.5,262.2L292.5,262.2c0-10.4,8.5-18.9,18.9-18.9l0,0c5,0,9.8,2,13.4,5.5c3.5,3.5,5.5,8.4,5.5,13.4l0,0
			c0,10.4-8.5,18.9-18.9,18.9l0,0C301,281.1,292.5,272.6,292.5,262.2z"/>
		<path class="st1" d="M292.5,262.2L292.5,262.2c0-10.4,8.5-18.9,18.9-18.9l0,0c5,0,9.8,2,13.4,5.5c3.5,3.5,5.5,8.4,5.5,13.4l0,0
			c0,10.4-8.5,18.9-18.9,18.9l0,0C301,281.1,292.5,272.6,292.5,262.2z"/>
	</g>
	<g>
		<path class="st2" d="M330.3,215.8L330.3,215.8c0,10.4-8.5,18.9-18.9,18.9l0,0c-5,0-9.8-2-13.4-5.5c-3.5-3.5-5.5-8.4-5.5-13.4l0,0
			c0-10.4,8.5-18.9,18.9-18.9l0,0C321.8,196.9,330.3,205.3,330.3,215.8z"/>
		<path class="st1" d="M330.3,215.8L330.3,215.8c0,10.4-8.5,18.9-18.9,18.9l0,0c-5,0-9.8-2-13.4-5.5c-3.5-3.5-5.5-8.4-5.5-13.4l0,0
			c0-10.4,8.5-18.9,18.9-18.9l0,0C321.8,196.9,330.3,205.3,330.3,215.8z"/>
	</g>
	<g>
		<path class="st2" d="M359.4,243.3L359.4,243.3c10.4,0,18.9,8.5,18.9,18.9l0,0c0,5-2,9.8-5.5,13.4c-3.5,3.5-8.4,5.5-13.4,5.5l0,0
			c-10.4,0-18.9-8.5-18.9-18.9l0,0C340.5,251.7,349,243.3,359.4,243.3z"/>
		<path class="st1" d="M359.4,243.3L359.4,243.3c10.4,0,18.9,8.5,18.9,18.9l0,0c0,5-2,9.8-5.5,13.4c-3.5,3.5-8.4,5.5-13.4,5.5l0,0
			c-10.4,0-18.9-8.5-18.9-18.9l0,0C340.5,251.7,349,243.3,359.4,243.3z"/>
	</g>
	<g>
		<path class="st2" d="M378.3,215.8L378.3,215.8c0,10.4-8.5,18.9-18.9,18.9l0,0c-5,0-9.8-2-13.4-5.5c-3.5-3.5-5.5-8.4-5.5-13.4l0,0
			c0-10.4,8.5-18.9,18.9-18.9l0,0C369.8,196.9,378.3,205.3,378.3,215.8z"/>
		<path class="st1" d="M378.3,215.8L378.3,215.8c0,10.4-8.5,18.9-18.9,18.9l0,0c-5,0-9.8-2-13.4-5.5c-3.5-3.5-5.5-8.4-5.5-13.4l0,0
			c0-10.4,8.5-18.9,18.9-18.9l0,0C369.8,196.9,378.3,205.3,378.3,215.8z"/>
	</g>
</g>
<g>
	<g>
		<path class="st3" d="M426.6,169.4L426.6,169.4c0-10.4,8.5-18.9,18.9-18.9l0,0c5,0,9.8,2,13.4,5.5c3.5,3.5,5.5,8.4,5.5,13.4l0,0
			c0,10.4-8.5,18.9-18.9,18.9l0,0C435,188.3,426.6,179.8,426.6,169.4z"/>
		<path class="st1" d="M426.6,169.4L426.6,169.4c0-10.4,8.5-18.9,18.9-18.9l0,0c5,0,9.8,2,13.4,5.5c3.5,3.5,5.5,8.4,5.5,13.4l0,0
			c0,10.4-8.5,18.9-18.9,18.9l0,0C435,188.3,426.6,179.8,426.6,169.4z"/>
	</g>
	<g>
		<path class="st4" d="M464.4,123L464.4,123c0,10.4-8.5,18.9-18.9,18.9l0,0c-5,0-9.8-2-13.4-5.5c-3.5-3.5-5.5-8.4-5.5-13.4l0,0
			c0-10.4,8.5-18.9,18.9-18.9l0,0C455.9,104.1,464.4,112.5,464.4,123z"/>
		<path class="st5" d="M464.4,123L464.4,123c0,10.4-8.5,18.9-18.9,18.9l0,0c-5,0-9.8-2-13.4-5.5c-3.5-3.5-5.5-8.4-5.5-13.4l0,0
			c0-10.4,8.5-18.9,18.9-18.9l0,0C455.9,104.1,464.4,112.5,464.4,123z"/>
	</g>
	<g>
		<path class="st3" d="M493.5,150.5L493.5,150.5c10.4,0,18.9,8.5,18.9,18.9l0,0c0,5-2,9.8-5.5,13.4c-3.5,3.5-8.4,5.5-13.4,5.5l0,0
			c-10.4,0-18.9-8.5-18.9-18.9l0,0C474.6,158.9,483,150.5,493.5,150.5z"/>
		<path class="st1" d="M493.5,150.5L493.5,150.5c10.4,0,18.9,8.5,18.9,18.9l0,0c0,5-2,9.8-5.5,13.4c-3.5,3.5-8.4,5.5-13.4,5.5l0,0
			c-10.4,0-18.9-8.5-18.9-18.9l0,0C474.6,158.9,483,150.5,493.5,150.5z"/>
	</g>
	<g>
		<path class="st3" d="M426.6,262.2L426.6,262.2c0-10.4,8.5-18.9,18.9-18.9l0,0c5,0,9.8,2,13.4,5.5c3.5,3.5,5.5,8.4,5.5,13.4l0,0
			c0,10.4-8.5,18.9-18.9,18.9l0,0C435,281.1,426.6,272.6,426.6,262.2z"/>
		<path class="st1" d="M426.6,262.2L426.6,262.2c0-10.4,8.5-18.9,18.9-18.9l0,0c5,0,9.8,2,13.4,5.5c3.5,3.5,5.5,8.4,5.5,13.4l0,0
			c0,10.4-8.5,18.9-18.9,18.9l0,0C435,281.1,426.6,272.6,426.6,262.2z"/>
	</g>
	<g>
		<path class="st3" d="M464.4,215.8L464.4,215.8c0,10.4-8.5,18.9-18.9,18.9l0,0c-5,0-9.8-2-13.4-5.5c-3.5-3.5-5.5-8.4-5.5-13.4l0,0
			c0-10.4,8.5-18.9,18.9-18.9l0,0C455.9,196.9,464.4,205.3,464.4,215.8z"/>
		<path class="st1" d="M464.4,215.8L464.4,215.8c0,10.4-8.5,18.9-18.9,18.9l0,0c-5,0-9.8-2-13.4-5.5c-3.5-3.5-5.5-8.4-5.5-13.4l0,0
			c0-10.4,8.5-18.9,18.9-18.9l0,0C455.9,196.9,464.4,205.3,464.4,215.8z"/>
	</g>
	<g>
		<path class="st3" d="M493.5,243.3L493.5,243.3c10.4,0,18.9,8.5,18.9,18.9l0,0c0,5-2,9.8-5.5,13.4c-3.5,3.5-8.4,5.5-13.4,5.5l0,0
			c-10.4,0-18.9-8.5-18.9-18.9l0,0C474.6,251.7,483,243.3,493.5,243.3z"/>
		<path class="st1" d="M493.5,243.3L493.5,243.3c10.4,0,18.9,8.5,18.9,18.9l0,0c0,5-2,9.8-5.5,13.4c-3.5,3.5-8.4,5.5-13.4,5.5l0,0
			c-10.4,0-18.9-8.5-18.9-18.9l0,0C474.6,251.7,483,243.3,493.5,243.3z"/>
	</g>
	<g>
		<path class="st3" d="M512.4,215.8L512.4,215.8c0,10.4-8.5,18.9-18.9,18.9l0,0c-5,0-9.8-2-13.4-5.5c-3.5-3.5-5.5-8.4-5.5-13.4l0,0
			c0-10.4,8.5-18.9,18.9-18.9l0,0C503.9,196.9,512.4,205.3,512.4,215.8z"/>
		<path class="st1" d="M512.4,215.8L512.4,215.8c0,10.4-8.5,18.9-18.9,18.9l0,0c-5,0-9.8-2-13.4-5.5c-3.5-3.5-5.5-8.4-5.5-13.4l0,0
			c0-10.4,8.5-18.9,18.9-18.9l0,0C503.9,196.9,512.4,205.3,512.4,215.8z"/>
	</g>
</g>
<g>
	<g>
		<path class="st6" d="M24.4,262.2L24.4,262.2c0-10.4,8.5-18.9,18.9-18.9l0,0c5,0,9.8,2,13.4,5.5c3.5,3.5,5.5,8.4,5.5,13.4l0,0
			c0,10.4-8.5,18.9-18.9,18.9l0,0C32.8,281.1,24.4,272.6,24.4,262.2z"/>
		<path class="st1" d="M24.4,262.2L24.4,262.2c0-10.4,8.5-18.9,18.9-18.9l0,0c5,0,9.8,2,13.4,5.5c3.5,3.5,5.5,8.4,5.5,13.4l0,0
			c0,10.4-8.5,18.9-18.9,18.9l0,0C32.8,281.1,24.4,272.6,24.4,262.2z"/>
	</g>
	<g>
		<path class="st6" d="M62.2,215.8L62.2,215.8c0,10.4-8.5,18.9-18.9,18.9l0,0c-5,0-9.8-2-13.4-5.5c-3.5-3.5-5.5-8.4-5.5-13.4l0,0
			c0-10.4,8.5-18.9,18.9-18.9l0,0C53.7,196.9,62.2,205.3,62.2,215.8z"/>
		<path class="st1" d="M62.2,215.8L62.2,215.8c0,10.4-8.5,18.9-18.9,18.9l0,0c-5,0-9.8-2-13.4-5.5c-3.5-3.5-5.5-8.4-5.5-13.4l0,0
			c0-10.4,8.5-18.9,18.9-18.9l0,0C53.7,196.9,62.2,205.3,62.2,215.8z"/>
	</g>
	<g>
		<path class="st6" d="M91.3,243.3L91.3,243.3c10.4,0,18.9,8.5,18.9,18.9l0,0c0,5-2,9.8-5.5,13.4c-3.5,3.5-8.4,5.5-13.4,5.5l0,0
			c-10.4,0-18.9-8.5-18.9-18.9l0,0C72.4,251.7,80.8,243.3,91.3,243.3z"/>
		<path class="st1" d="M91.3,243.3L91.3,243.3c10.4,0,18.9,8.5,18.9,18.9l0,0c0,5-2,9.8-5.5,13.4c-3.5,3.5-8.4,5.5-13.4,5.5l0,0
			c-10.4,0-18.9-8.5-18.9-18.9l0,0C72.4,251.7,80.8,243.3,91.3,243.3z"/>
	</g>
	<g>
		<path class="st6" d="M110.2,215.8L110.2,215.8c0,10.4-8.5,18.9-18.9,18.9l0,0c-5,0-9.8-2-13.4-5.5c-3.5-3.5-5.5-8.4-5.5-13.4l0,0
			c0-10.4,8.5-18.9,18.9-18.9l0,0C101.7,196.9,110.2,205.3,110.2,215.8z"/>
		<path class="st1" d="M110.2,215.8L110.2,215.8c0,10.4-8.5,18.9-18.9,18.9l0,0c-5,0-9.8-2-13.4-5.5c-3.5-3.5-5.5-8.4-5.5-13.4l0,0
			c0-10.4,8.5-18.9,18.9-18.9l0,0C101.7,196.9,110.2,205.3,110.2,215.8z"/>
	</g>
	<g>
		<path class="st6" d="M24.4,169.4L24.4,169.4c0-10.4,8.5-18.9,18.9-18.9l0,0c5,0,9.8,2,13.4,5.5c3.5,3.5,5.5,8.4,5.5,13.4l0,0
			c0,10.4-8.5,18.9-18.9,18.9l0,0C32.8,188.3,24.4,179.8,24.4,169.4z"/>
		<path class="st1" d="M24.4,169.4L24.4,169.4c0-10.4,8.5-18.9,18.9-18.9l0,0c5,0,9.8,2,13.4,5.5c3.5,3.5,5.5,8.4,5.5,13.4l0,0
			c0,10.4-8.5,18.9-18.9,18.9l0,0C32.8,188.3,24.4,179.8,24.4,169.4z"/>
	</g>
	<g>
		<path class="st6" d="M62.2,123L62.2,123c0,10.4-8.5,18.9-18.9,18.9l0,0c-5,0-9.8-2-13.4-5.5c-3.5-3.5-5.5-8.4-5.5-13.4l0,0
			c0-10.4,8.5-18.9,18.9-18.9l0,0C53.7,104.1,62.2,112.5,62.2,123z"/>
		<path class="st1" d="M62.2,123L62.2,123c0,10.4-8.5,18.9-18.9,18.9l0,0c-5,0-9.8-2-13.4-5.5c-3.5-3.5-5.5-8.4-5.5-13.4l0,0
			c0-10.4,8.5-18.9,18.9-18.9l0,0C53.7,104.1,62.2,112.5,62.2,123z"/>
	</g>
	<g>
		<path class="st6" d="M91.3,150.5L91.3,150.5c10.4,0,18.9,8.5,18.9,18.9l0,0c0,5-2,9.8-5.5,13.4c-3.5,3.5-8.4,5.5-13.4,5.5l0,0
			c-10.4,0-18.9-8.5-18.9-18.9l0,0C72.4,158.9,80.8,150.5,91.3,150.5z"/>
		<path class="st1" d="M91.3,150.5L91.3,150.5c10.4,0,18.9,8.5,18.9,18.9l0,0c0,5-2,9.8-5.5,13.4c-3.5,3.5-8.4,5.5-13.4,5.5l0,0
			c-10.4,0-18.9-8.5-18.9-18.9l0,0C72.4,158.9,80.8,150.5,91.3,150.5z"/>
	</g>
	<g>
		<path class="st6" d="M110.2,123L110.2,123c0,10.4-8.5,18.9-18.9,18.9l0,0c-5,0-9.8-2-13.4-5.5c-3.5-3.5-5.5-8.4-5.5-13.4l0,0
			c0-10.4,8.5-18.9,18.9-18.9l0,0C101.7,104.1,110.2,112.5,110.2,123z"/>
		<path class="st1" d="M110.2,123L110.2,123c0,10.4-8.5,18.9-18.9,18.9l0,0c-5,0-9.8-2-13.4-5.5c-3.5-3.5-5.5-8.4-5.5-13.4l0,0
			c0-10.4,8.5-18.9,18.9-18.9l0,0C101.7,104.1,110.2,112.5,110.2,123z"/>
	</g>
	<g>
		<path class="st6" d="M24.4,76.6L24.4,76.6c0-10.4,8.5-18.9,18.9-18.9l0,0c5,0,9.8,2,13.4,5.5c3.5,3.5,5.5,8.4,5.5,13.4l0,0
			c0,10.4-8.5,18.9-18.9,18.9l0,0C32.8,95.5,24.4,87,24.4,76.6z"/>
		<path class="st1" d="M24.4,76.6L24.4,76.6c0-10.4,8.5-18.9,18.9-18.9l0,0c5,0,9.8,2,13.4,5.5c3.5,3.5,5.5,8.4,5.5,13.4l0,0
			c0,10.4-8.5,18.9-18.9,18.9l0,0C32.8,95.5,24.4,87,24.4,76.6z"/>
	</g>
	<g>
		<path class="st6" d="M91.3,57.7L91.3,57.7c10.4,0,18.9,8.5,18.9,18.9l0,0c0,5-2,9.8-5.5,13.4c-3.5,3.5-8.4,5.5-13.4,5.5l0,0
			c-10.4,0-18.9-8.5-18.9-18.9l0,0C72.4,66.1,80.8,57.7,91.3,57.7z"/>
		<path class="st1" d="M91.3,57.7L91.3,57.7c10.4,0,18.9,8.5,18.9,18.9l0,0c0,5-2,9.8-5.5,13.4c-3.5,3.5-8.4,5.5-13.4,5.5l0,0
			c-10.4,0-18.9-8.5-18.9-18.9l0,0C72.4,66.1,80.8,57.7,91.3,57.7z"/>
	</g>
	<g>
		<path class="st6" d="M43.3,11.3L43.3,11.3c10.4,0,18.9,8.5,18.9,18.9l0,0c0,5-2,9.8-5.5,13.4s-8.4,5.5-13.4,5.5l0,0
			c-10.4,0-18.9-8.5-18.9-18.9l0,0C24.4,19.7,32.8,11.3,43.3,11.3z"/>
		<path class="st1" d="M43.3,11.3L43.3,11.3c10.4,0,18.9,8.5,18.9,18.9l0,0c0,5-2,9.8-5.5,13.4s-8.4,5.5-13.4,5.5l0,0
			c-10.4,0-18.9-8.5-18.9-18.9l0,0C24.4,19.7,32.8,11.3,43.3,11.3z"/>
	</g>
</g>
</svg>
