<?xml version="1.0" encoding="utf-8"?>
<!-- Generator: Adobe Illustrator 24.3.0, SVG Export Plug-In . SVG Version: 6.00 Build 0)  -->
<svg version="1.1" id="Calque_1" xmlns="http://www.w3.org/2000/svg" xmlns:xlink="http://www.w3.org/1999/xlink" x="0px" y="0px"
	 viewBox="0 0 540 675" style="enable-background:new 0 0 540 675;" xml:space="preserve">
<style type="text/css">
	.st0{fill-rule:evenodd;clip-rule:evenodd;fill:#CC0000;}
	.st1{fill:none;stroke:#FFFFFF;stroke-linejoin:round;stroke-miterlimit:10;}
	.st2{fill-rule:evenodd;clip-rule:evenodd;fill:#1155CC;}
	.st3{fill-rule:evenodd;clip-rule:evenodd;fill:#F1C232;}
	.st4{fill-rule:evenodd;clip-rule:evenodd;fill:#EFC22E;}
	.st5{fill:#EFC22E;stroke:#FFFFFF;stroke-linejoin:round;stroke-miterlimit:10;}
	.st6{fill-rule:evenodd;clip-rule:evenodd;fill:#38761D;}
	.st7{fill:none;}
	.st8{font-family:'Andika';}
	.st9{font-size:31px;}
</style>
<g>
	<path class="st0" d="M158.4,206.4L158.4,206.4c0-10.4,8.5-18.9,18.9-18.9l0,0c5,0,9.8,2,13.4,5.5c3.5,3.5,5.5,8.4,5.5,13.4l0,0
		c0,10.4-8.5,18.9-18.9,18.9l0,0C166.9,225.3,158.4,216.8,158.4,206.4z"/>
	<path class="st1" d="M158.4,206.4L158.4,206.4c0-10.4,8.5-18.9,18.9-18.9l0,0c5,0,9.8,2,13.4,5.5c3.5,3.5,5.5,8.4,5.5,13.4l0,0
		c0,10.4-8.5,18.9-18.9,18.9l0,0C166.9,225.3,158.4,216.8,158.4,206.4z"/>
</g>
<g>
	<path class="st0" d="M196.2,160L196.2,160c0,10.4-8.5,18.9-18.9,18.9l0,0c-5,0-9.8-2-13.4-5.5c-3.5-3.5-5.5-8.4-5.5-13.4l0,0
		c0-10.4,8.5-18.9,18.9-18.9l0,0C187.8,141.1,196.2,149.5,196.2,160z"/>
	<path class="st1" d="M196.2,160L196.2,160c0,10.4-8.5,18.9-18.9,18.9l0,0c-5,0-9.8-2-13.4-5.5c-3.5-3.5-5.5-8.4-5.5-13.4l0,0
		c0-10.4,8.5-18.9,18.9-18.9l0,0C187.8,141.1,196.2,149.5,196.2,160z"/>
</g>
<g>
	<path class="st0" d="M225.3,187.5L225.3,187.5c10.4,0,18.9,8.5,18.9,18.9l0,0c0,5-2,9.8-5.5,13.4c-3.5,3.5-8.4,5.5-13.4,5.5l0,0
		c-10.4,0-18.9-8.5-18.9-18.9l0,0C206.4,195.9,214.9,187.5,225.3,187.5z"/>
	<path class="st1" d="M225.3,187.5L225.3,187.5c10.4,0,18.9,8.5,18.9,18.9l0,0c0,5-2,9.8-5.5,13.4c-3.5,3.5-8.4,5.5-13.4,5.5l0,0
		c-10.4,0-18.9-8.5-18.9-18.9l0,0C206.4,195.9,214.9,187.5,225.3,187.5z"/>
</g>
<g>
	<path class="st0" d="M244.2,160L244.2,160c0,10.4-8.5,18.9-18.9,18.9l0,0c-5,0-9.8-2-13.4-5.5c-3.5-3.5-5.5-8.4-5.5-13.4l0,0
		c0-10.4,8.5-18.9,18.9-18.9l0,0C235.8,141.1,244.2,149.5,244.2,160z"/>
	<path class="st1" d="M244.2,160L244.2,160c0,10.4-8.5,18.9-18.9,18.9l0,0c-5,0-9.8-2-13.4-5.5c-3.5-3.5-5.5-8.4-5.5-13.4l0,0
		c0-10.4,8.5-18.9,18.9-18.9l0,0C235.8,141.1,244.2,149.5,244.2,160z"/>
</g>
<g>
	<path class="st0" d="M158.4,113.6L158.4,113.6c0-10.4,8.5-18.9,18.9-18.9l0,0c5,0,9.8,2,13.4,5.5c3.5,3.5,5.5,8.4,5.5,13.4l0,0
		c0,10.4-8.5,18.9-18.9,18.9l0,0C166.9,132.5,158.4,124,158.4,113.6z"/>
	<path class="st1" d="M158.4,113.6L158.4,113.6c0-10.4,8.5-18.9,18.9-18.9l0,0c5,0,9.8,2,13.4,5.5c3.5,3.5,5.5,8.4,5.5,13.4l0,0
		c0,10.4-8.5,18.9-18.9,18.9l0,0C166.9,132.5,158.4,124,158.4,113.6z"/>
</g>
<g>
	<path class="st0" d="M225.3,94.7L225.3,94.7c10.4,0,18.9,8.5,18.9,18.9l0,0c0,5-2,9.8-5.5,13.4c-3.5,3.5-8.4,5.5-13.4,5.5l0,0
		c-10.4,0-18.9-8.5-18.9-18.9l0,0C206.4,103.1,214.9,94.7,225.3,94.7z"/>
	<path class="st1" d="M225.3,94.7L225.3,94.7c10.4,0,18.9,8.5,18.9,18.9l0,0c0,5-2,9.8-5.5,13.4c-3.5,3.5-8.4,5.5-13.4,5.5l0,0
		c-10.4,0-18.9-8.5-18.9-18.9l0,0C206.4,103.1,214.9,94.7,225.3,94.7z"/>
</g>
<g>
	<path class="st0" d="M158.4,299.2L158.4,299.2c0-10.4,8.5-18.9,18.9-18.9l0,0c5,0,9.8,2,13.4,5.5c3.5,3.5,5.5,8.4,5.5,13.4l0,0
		c0,10.4-8.5,18.9-18.9,18.9l0,0C166.9,318.1,158.4,309.6,158.4,299.2z"/>
	<path class="st1" d="M158.4,299.2L158.4,299.2c0-10.4,8.5-18.9,18.9-18.9l0,0c5,0,9.8,2,13.4,5.5c3.5,3.5,5.5,8.4,5.5,13.4l0,0
		c0,10.4-8.5,18.9-18.9,18.9l0,0C166.9,318.1,158.4,309.6,158.4,299.2z"/>
</g>
<g>
	<path class="st0" d="M196.2,252.8L196.2,252.8c0,10.4-8.5,18.9-18.9,18.9l0,0c-5,0-9.8-2-13.4-5.5c-3.5-3.5-5.5-8.4-5.5-13.4l0,0
		c0-10.4,8.5-18.9,18.9-18.9l0,0C187.8,233.9,196.2,242.3,196.2,252.8z"/>
	<path class="st1" d="M196.2,252.8L196.2,252.8c0,10.4-8.5,18.9-18.9,18.9l0,0c-5,0-9.8-2-13.4-5.5c-3.5-3.5-5.5-8.4-5.5-13.4l0,0
		c0-10.4,8.5-18.9,18.9-18.9l0,0C187.8,233.9,196.2,242.3,196.2,252.8z"/>
</g>
<g>
	<path class="st0" d="M225.3,280.3L225.3,280.3c10.4,0,18.9,8.5,18.9,18.9l0,0c0,5-2,9.8-5.5,13.4c-3.5,3.5-8.4,5.5-13.4,5.5l0,0
		c-10.4,0-18.9-8.5-18.9-18.9l0,0C206.4,288.7,214.9,280.3,225.3,280.3z"/>
	<path class="st1" d="M225.3,280.3L225.3,280.3c10.4,0,18.9,8.5,18.9,18.9l0,0c0,5-2,9.8-5.5,13.4c-3.5,3.5-8.4,5.5-13.4,5.5l0,0
		c-10.4,0-18.9-8.5-18.9-18.9l0,0C206.4,288.7,214.9,280.3,225.3,280.3z"/>
</g>
<g>
	<path class="st0" d="M244.2,252.8L244.2,252.8c0,10.4-8.5,18.9-18.9,18.9l0,0c-5,0-9.8-2-13.4-5.5c-3.5-3.5-5.5-8.4-5.5-13.4l0,0
		c0-10.4,8.5-18.9,18.9-18.9l0,0C235.8,233.9,244.2,242.3,244.2,252.8z"/>
	<path class="st1" d="M244.2,252.8L244.2,252.8c0,10.4-8.5,18.9-18.9,18.9l0,0c-5,0-9.8-2-13.4-5.5c-3.5-3.5-5.5-8.4-5.5-13.4l0,0
		c0-10.4,8.5-18.9,18.9-18.9l0,0C235.8,233.9,244.2,242.3,244.2,252.8z"/>
</g>
<g>
	<path class="st2" d="M292.5,206.4L292.5,206.4c0-10.4,8.5-18.9,18.9-18.9l0,0c5,0,9.8,2,13.4,5.5c3.5,3.5,5.5,8.4,5.5,13.4l0,0
		c0,10.4-8.5,18.9-18.9,18.9l0,0C301,225.3,292.5,216.8,292.5,206.4z"/>
	<path class="st1" d="M292.5,206.4L292.5,206.4c0-10.4,8.5-18.9,18.9-18.9l0,0c5,0,9.8,2,13.4,5.5c3.5,3.5,5.5,8.4,5.5,13.4l0,0
		c0,10.4-8.5,18.9-18.9,18.9l0,0C301,225.3,292.5,216.8,292.5,206.4z"/>
</g>
<g>
	<path class="st2" d="M359.4,187.5L359.4,187.5c10.4,0,18.9,8.5,18.9,18.9l0,0c0,5-2,9.8-5.5,13.4c-3.5,3.5-8.4,5.5-13.4,5.5l0,0
		c-10.4,0-18.9-8.5-18.9-18.9l0,0C340.5,195.9,349,187.5,359.4,187.5z"/>
	<path class="st1" d="M359.4,187.5L359.4,187.5c10.4,0,18.9,8.5,18.9,18.9l0,0c0,5-2,9.8-5.5,13.4c-3.5,3.5-8.4,5.5-13.4,5.5l0,0
		c-10.4,0-18.9-8.5-18.9-18.9l0,0C340.5,195.9,349,187.5,359.4,187.5z"/>
</g>
<g>
	<path class="st2" d="M292.5,299.2L292.5,299.2c0-10.4,8.5-18.9,18.9-18.9l0,0c5,0,9.8,2,13.4,5.5c3.5,3.5,5.5,8.4,5.5,13.4l0,0
		c0,10.4-8.5,18.9-18.9,18.9l0,0C301,318.1,292.5,309.6,292.5,299.2z"/>
	<path class="st1" d="M292.5,299.2L292.5,299.2c0-10.4,8.5-18.9,18.9-18.9l0,0c5,0,9.8,2,13.4,5.5c3.5,3.5,5.5,8.4,5.5,13.4l0,0
		c0,10.4-8.5,18.9-18.9,18.9l0,0C301,318.1,292.5,309.6,292.5,299.2z"/>
</g>
<g>
	<path class="st2" d="M330.3,252.8L330.3,252.8c0,10.4-8.5,18.9-18.9,18.9l0,0c-5,0-9.8-2-13.4-5.5c-3.5-3.5-5.5-8.4-5.5-13.4l0,0
		c0-10.4,8.5-18.9,18.9-18.9l0,0C321.8,233.9,330.3,242.3,330.3,252.8z"/>
	<path class="st1" d="M330.3,252.8L330.3,252.8c0,10.4-8.5,18.9-18.9,18.9l0,0c-5,0-9.8-2-13.4-5.5c-3.5-3.5-5.5-8.4-5.5-13.4l0,0
		c0-10.4,8.5-18.9,18.9-18.9l0,0C321.8,233.9,330.3,242.3,330.3,252.8z"/>
</g>
<g>
	<path class="st2" d="M359.4,280.3L359.4,280.3c10.4,0,18.9,8.5,18.9,18.9l0,0c0,5-2,9.8-5.5,13.4c-3.5,3.5-8.4,5.5-13.4,5.5l0,0
		c-10.4,0-18.9-8.5-18.9-18.9l0,0C340.5,288.7,349,280.3,359.4,280.3z"/>
	<path class="st1" d="M359.4,280.3L359.4,280.3c10.4,0,18.9,8.5,18.9,18.9l0,0c0,5-2,9.8-5.5,13.4c-3.5,3.5-8.4,5.5-13.4,5.5l0,0
		c-10.4,0-18.9-8.5-18.9-18.9l0,0C340.5,288.7,349,280.3,359.4,280.3z"/>
</g>
<g>
	<path class="st2" d="M378.3,252.8L378.3,252.8c0,10.4-8.5,18.9-18.9,18.9l0,0c-5,0-9.8-2-13.4-5.5c-3.5-3.5-5.5-8.4-5.5-13.4l0,0
		c0-10.4,8.5-18.9,18.9-18.9l0,0C369.8,233.9,378.3,242.3,378.3,252.8z"/>
	<path class="st1" d="M378.3,252.8L378.3,252.8c0,10.4-8.5,18.9-18.9,18.9l0,0c-5,0-9.8-2-13.4-5.5c-3.5-3.5-5.5-8.4-5.5-13.4l0,0
		c0-10.4,8.5-18.9,18.9-18.9l0,0C369.8,233.9,378.3,242.3,378.3,252.8z"/>
</g>
<g>
	<path class="st3" d="M426.6,206.4L426.6,206.4c0-10.4,8.5-18.9,18.9-18.9l0,0c5,0,9.8,2,13.4,5.5c3.5,3.5,5.5,8.4,5.5,13.4l0,0
		c0,10.4-8.5,18.9-18.9,18.9l0,0C435,225.3,426.6,216.8,426.6,206.4z"/>
	<path class="st1" d="M426.6,206.4L426.6,206.4c0-10.4,8.5-18.9,18.9-18.9l0,0c5,0,9.8,2,13.4,5.5c3.5,3.5,5.5,8.4,5.5,13.4l0,0
		c0,10.4-8.5,18.9-18.9,18.9l0,0C435,225.3,426.6,216.8,426.6,206.4z"/>
</g>
<g>
	<path class="st4" d="M464.4,160L464.4,160c0,10.4-8.5,18.9-18.9,18.9l0,0c-5,0-9.8-2-13.4-5.5c-3.5-3.5-5.5-8.4-5.5-13.4l0,0
		c0-10.4,8.5-18.9,18.9-18.9l0,0C455.9,141.1,464.4,149.5,464.4,160z"/>
	<path class="st5" d="M464.4,160L464.4,160c0,10.4-8.5,18.9-18.9,18.9l0,0c-5,0-9.8-2-13.4-5.5c-3.5-3.5-5.5-8.4-5.5-13.4l0,0
		c0-10.4,8.5-18.9,18.9-18.9l0,0C455.9,141.1,464.4,149.5,464.4,160z"/>
</g>
<g>
	<path class="st3" d="M493.5,187.5L493.5,187.5c10.4,0,18.9,8.5,18.9,18.9l0,0c0,5-2,9.8-5.5,13.4c-3.5,3.5-8.4,5.5-13.4,5.5l0,0
		c-10.4,0-18.9-8.5-18.9-18.9l0,0C474.6,195.9,483,187.5,493.5,187.5z"/>
	<path class="st1" d="M493.5,187.5L493.5,187.5c10.4,0,18.9,8.5,18.9,18.9l0,0c0,5-2,9.8-5.5,13.4c-3.5,3.5-8.4,5.5-13.4,5.5l0,0
		c-10.4,0-18.9-8.5-18.9-18.9l0,0C474.6,195.9,483,187.5,493.5,187.5z"/>
</g>
<g>
	<path class="st3" d="M426.6,299.2L426.6,299.2c0-10.4,8.5-18.9,18.9-18.9l0,0c5,0,9.8,2,13.4,5.5c3.5,3.5,5.5,8.4,5.5,13.4l0,0
		c0,10.4-8.5,18.9-18.9,18.9l0,0C435,318.1,426.6,309.6,426.6,299.2z"/>
	<path class="st1" d="M426.6,299.2L426.6,299.2c0-10.4,8.5-18.9,18.9-18.9l0,0c5,0,9.8,2,13.4,5.5c3.5,3.5,5.5,8.4,5.5,13.4l0,0
		c0,10.4-8.5,18.9-18.9,18.9l0,0C435,318.1,426.6,309.6,426.6,299.2z"/>
</g>
<g>
	<path class="st3" d="M464.4,252.8L464.4,252.8c0,10.4-8.5,18.9-18.9,18.9l0,0c-5,0-9.8-2-13.4-5.5c-3.5-3.5-5.5-8.4-5.5-13.4l0,0
		c0-10.4,8.5-18.9,18.9-18.9l0,0C455.9,233.9,464.4,242.3,464.4,252.8z"/>
	<path class="st1" d="M464.4,252.8L464.4,252.8c0,10.4-8.5,18.9-18.9,18.9l0,0c-5,0-9.8-2-13.4-5.5c-3.5-3.5-5.5-8.4-5.5-13.4l0,0
		c0-10.4,8.5-18.9,18.9-18.9l0,0C455.9,233.9,464.4,242.3,464.4,252.8z"/>
</g>
<g>
	<path class="st3" d="M493.5,280.3L493.5,280.3c10.4,0,18.9,8.5,18.9,18.9l0,0c0,5-2,9.8-5.5,13.4c-3.5,3.5-8.4,5.5-13.4,5.5l0,0
		c-10.4,0-18.9-8.5-18.9-18.9l0,0C474.6,288.7,483,280.3,493.5,280.3z"/>
	<path class="st1" d="M493.5,280.3L493.5,280.3c10.4,0,18.9,8.5,18.9,18.9l0,0c0,5-2,9.8-5.5,13.4c-3.5,3.5-8.4,5.5-13.4,5.5l0,0
		c-10.4,0-18.9-8.5-18.9-18.9l0,0C474.6,288.7,483,280.3,493.5,280.3z"/>
</g>
<g>
	<path class="st3" d="M512.4,252.8L512.4,252.8c0,10.4-8.5,18.9-18.9,18.9l0,0c-5,0-9.8-2-13.4-5.5c-3.5-3.5-5.5-8.4-5.5-13.4l0,0
		c0-10.4,8.5-18.9,18.9-18.9l0,0C503.9,233.9,512.4,242.3,512.4,252.8z"/>
	<path class="st1" d="M512.4,252.8L512.4,252.8c0,10.4-8.5,18.9-18.9,18.9l0,0c-5,0-9.8-2-13.4-5.5c-3.5-3.5-5.5-8.4-5.5-13.4l0,0
		c0-10.4,8.5-18.9,18.9-18.9l0,0C503.9,233.9,512.4,242.3,512.4,252.8z"/>
</g>
<g>
	<path class="st6" d="M24.4,299.2L24.4,299.2c0-10.4,8.5-18.9,18.9-18.9l0,0c5,0,9.8,2,13.4,5.5c3.5,3.5,5.5,8.4,5.5,13.4l0,0
		c0,10.4-8.5,18.9-18.9,18.9l0,0C32.8,318.1,24.4,309.6,24.4,299.2z"/>
	<path class="st1" d="M24.4,299.2L24.4,299.2c0-10.4,8.5-18.9,18.9-18.9l0,0c5,0,9.8,2,13.4,5.5c3.5,3.5,5.5,8.4,5.5,13.4l0,0
		c0,10.4-8.5,18.9-18.9,18.9l0,0C32.8,318.1,24.4,309.6,24.4,299.2z"/>
</g>
<g>
	<path class="st6" d="M62.2,252.8L62.2,252.8c0,10.4-8.5,18.9-18.9,18.9l0,0c-5,0-9.8-2-13.4-5.5c-3.5-3.5-5.5-8.4-5.5-13.4l0,0
		c0-10.4,8.5-18.9,18.9-18.9l0,0C53.7,233.9,62.2,242.3,62.2,252.8z"/>
	<path class="st1" d="M62.2,252.8L62.2,252.8c0,10.4-8.5,18.9-18.9,18.9l0,0c-5,0-9.8-2-13.4-5.5c-3.5-3.5-5.5-8.4-5.5-13.4l0,0
		c0-10.4,8.5-18.9,18.9-18.9l0,0C53.7,233.9,62.2,242.3,62.2,252.8z"/>
</g>
<g>
	<path class="st6" d="M91.3,280.3L91.3,280.3c10.4,0,18.9,8.5,18.9,18.9l0,0c0,5-2,9.8-5.5,13.4c-3.5,3.5-8.4,5.5-13.4,5.5l0,0
		c-10.4,0-18.9-8.5-18.9-18.9l0,0C72.4,288.7,80.8,280.3,91.3,280.3z"/>
	<path class="st1" d="M91.3,280.3L91.3,280.3c10.4,0,18.9,8.5,18.9,18.9l0,0c0,5-2,9.8-5.5,13.4c-3.5,3.5-8.4,5.5-13.4,5.5l0,0
		c-10.4,0-18.9-8.5-18.9-18.9l0,0C72.4,288.7,80.8,280.3,91.3,280.3z"/>
</g>
<g>
	<path class="st6" d="M110.2,252.8L110.2,252.8c0,10.4-8.5,18.9-18.9,18.9l0,0c-5,0-9.8-2-13.4-5.5c-3.5-3.5-5.5-8.4-5.5-13.4l0,0
		c0-10.4,8.5-18.9,18.9-18.9l0,0C101.7,233.9,110.2,242.3,110.2,252.8z"/>
	<path class="st1" d="M110.2,252.8L110.2,252.8c0,10.4-8.5,18.9-18.9,18.9l0,0c-5,0-9.8-2-13.4-5.5c-3.5-3.5-5.5-8.4-5.5-13.4l0,0
		c0-10.4,8.5-18.9,18.9-18.9l0,0C101.7,233.9,110.2,242.3,110.2,252.8z"/>
</g>
<g>
	<path class="st6" d="M24.4,206.4L24.4,206.4c0-10.4,8.5-18.9,18.9-18.9l0,0c5,0,9.8,2,13.4,5.5c3.5,3.5,5.5,8.4,5.5,13.4l0,0
		c0,10.4-8.5,18.9-18.9,18.9l0,0C32.8,225.3,24.4,216.8,24.4,206.4z"/>
	<path class="st1" d="M24.4,206.4L24.4,206.4c0-10.4,8.5-18.9,18.9-18.9l0,0c5,0,9.8,2,13.4,5.5c3.5,3.5,5.5,8.4,5.5,13.4l0,0
		c0,10.4-8.5,18.9-18.9,18.9l0,0C32.8,225.3,24.4,216.8,24.4,206.4z"/>
</g>
<g>
	<path class="st6" d="M62.2,160L62.2,160c0,10.4-8.5,18.9-18.9,18.9l0,0c-5,0-9.8-2-13.4-5.5c-3.5-3.5-5.5-8.4-5.5-13.4l0,0
		c0-10.4,8.5-18.9,18.9-18.9l0,0C53.7,141.1,62.2,149.5,62.2,160z"/>
	<path class="st1" d="M62.2,160L62.2,160c0,10.4-8.5,18.9-18.9,18.9l0,0c-5,0-9.8-2-13.4-5.5c-3.5-3.5-5.5-8.4-5.5-13.4l0,0
		c0-10.4,8.5-18.9,18.9-18.9l0,0C53.7,141.1,62.2,149.5,62.2,160z"/>
</g>
<g>
	<path class="st6" d="M91.3,187.5L91.3,187.5c10.4,0,18.9,8.5,18.9,18.9l0,0c0,5-2,9.8-5.5,13.4c-3.5,3.5-8.4,5.5-13.4,5.5l0,0
		c-10.4,0-18.9-8.5-18.9-18.9l0,0C72.4,195.9,80.8,187.5,91.3,187.5z"/>
	<path class="st1" d="M91.3,187.5L91.3,187.5c10.4,0,18.9,8.5,18.9,18.9l0,0c0,5-2,9.8-5.5,13.4c-3.5,3.5-8.4,5.5-13.4,5.5l0,0
		c-10.4,0-18.9-8.5-18.9-18.9l0,0C72.4,195.9,80.8,187.5,91.3,187.5z"/>
</g>
<g>
	<path class="st6" d="M110.2,160L110.2,160c0,10.4-8.5,18.9-18.9,18.9l0,0c-5,0-9.8-2-13.4-5.5c-3.5-3.5-5.5-8.4-5.5-13.4l0,0
		c0-10.4,8.5-18.9,18.9-18.9l0,0C101.7,141.1,110.2,149.5,110.2,160z"/>
	<path class="st1" d="M110.2,160L110.2,160c0,10.4-8.5,18.9-18.9,18.9l0,0c-5,0-9.8-2-13.4-5.5c-3.5-3.5-5.5-8.4-5.5-13.4l0,0
		c0-10.4,8.5-18.9,18.9-18.9l0,0C101.7,141.1,110.2,149.5,110.2,160z"/>
</g>
<g>
	<path class="st6" d="M24.4,113.6L24.4,113.6c0-10.4,8.5-18.9,18.9-18.9l0,0c5,0,9.8,2,13.4,5.5c3.5,3.5,5.5,8.4,5.5,13.4l0,0
		c0,10.4-8.5,18.9-18.9,18.9l0,0C32.8,132.5,24.4,124,24.4,113.6z"/>
	<path class="st1" d="M24.4,113.6L24.4,113.6c0-10.4,8.5-18.9,18.9-18.9l0,0c5,0,9.8,2,13.4,5.5c3.5,3.5,5.5,8.4,5.5,13.4l0,0
		c0,10.4-8.5,18.9-18.9,18.9l0,0C32.8,132.5,24.4,124,24.4,113.6z"/>
</g>
<g>
	<path class="st6" d="M91.3,94.7L91.3,94.7c10.4,0,18.9,8.5,18.9,18.9l0,0c0,5-2,9.8-5.5,13.4c-3.5,3.5-8.4,5.5-13.4,5.5l0,0
		c-10.4,0-18.9-8.5-18.9-18.9l0,0C72.4,103.1,80.8,94.7,91.3,94.7z"/>
	<path class="st1" d="M91.3,94.7L91.3,94.7c10.4,0,18.9,8.5,18.9,18.9l0,0c0,5-2,9.8-5.5,13.4c-3.5,3.5-8.4,5.5-13.4,5.5l0,0
		c-10.4,0-18.9-8.5-18.9-18.9l0,0C72.4,103.1,80.8,94.7,91.3,94.7z"/>
</g>
<g>
	<path class="st6" d="M43.3,48.3L43.3,48.3c10.4,0,18.9,8.5,18.9,18.9l0,0c0,5-2,9.8-5.5,13.4s-8.4,5.5-13.4,5.5l0,0
		c-10.4,0-18.9-8.5-18.9-18.9l0,0C24.4,56.7,32.8,48.3,43.3,48.3z"/>
	<path class="st1" d="M43.3,48.3L43.3,48.3c10.4,0,18.9,8.5,18.9,18.9l0,0c0,5-2,9.8-5.5,13.4s-8.4,5.5-13.4,5.5l0,0
		c-10.4,0-18.9-8.5-18.9-18.9l0,0C24.4,56.7,32.8,48.3,43.3,48.3z"/>
</g>
<g>
	<path class="st6" d="M24.4,643L24.4,643c0-10.4,8.5-18.9,18.9-18.9l0,0c5,0,9.8,2,13.4,5.5c3.5,3.5,5.5,8.4,5.5,13.4l0,0
		c0,10.4-8.5,18.9-18.9,18.9l0,0C32.8,661.8,24.4,653.3,24.4,643z"/>
	<path class="st1" d="M24.4,643L24.4,643c0-10.4,8.5-18.9,18.9-18.9l0,0c5,0,9.8,2,13.4,5.5c3.5,3.5,5.5,8.4,5.5,13.4l0,0
		c0,10.4-8.5,18.9-18.9,18.9l0,0C32.8,661.8,24.4,653.3,24.4,643z"/>
</g>
<g>
	<path class="st6" d="M62.2,598.6L62.2,598.6c0,10.4-8.5,18.9-18.9,18.9l0,0c-5,0-9.8-2-13.4-5.5c-3.5-3.5-5.5-8.4-5.5-13.4l0,0
		c0-10.4,8.5-18.9,18.9-18.9l0,0C53.7,579.7,62.2,588.1,62.2,598.6z"/>
	<path class="st1" d="M62.2,598.6L62.2,598.6c0,10.4-8.5,18.9-18.9,18.9l0,0c-5,0-9.8-2-13.4-5.5c-3.5-3.5-5.5-8.4-5.5-13.4l0,0
		c0-10.4,8.5-18.9,18.9-18.9l0,0C53.7,579.7,62.2,588.1,62.2,598.6z"/>
</g>
<g>
	<path class="st6" d="M91.3,624L91.3,624c10.4,0,18.9,8.5,18.9,18.9l0,0c0,5-2,9.8-5.5,13.4c-3.5,3.5-8.4,5.5-13.4,5.5l0,0
		c-10.4,0-18.9-8.5-18.9-18.9l0,0C72.4,632.5,80.8,624,91.3,624z"/>
	<path class="st1" d="M91.3,624L91.3,624c10.4,0,18.9,8.5,18.9,18.9l0,0c0,5-2,9.8-5.5,13.4c-3.5,3.5-8.4,5.5-13.4,5.5l0,0
		c-10.4,0-18.9-8.5-18.9-18.9l0,0C72.4,632.5,80.8,624,91.3,624z"/>
</g>
<g>
	<path class="st6" d="M110.2,598.6L110.2,598.6c0,10.4-8.5,18.9-18.9,18.9l0,0c-5,0-9.8-2-13.4-5.5c-3.5-3.5-5.5-8.4-5.5-13.4l0,0
		c0-10.4,8.5-18.9,18.9-18.9l0,0C101.7,579.7,110.2,588.1,110.2,598.6z"/>
	<path class="st1" d="M110.2,598.6L110.2,598.6c0,10.4-8.5,18.9-18.9,18.9l0,0c-5,0-9.8-2-13.4-5.5c-3.5-3.5-5.5-8.4-5.5-13.4l0,0
		c0-10.4,8.5-18.9,18.9-18.9l0,0C101.7,579.7,110.2,588.1,110.2,598.6z"/>
</g>
<g>
	<path class="st0" d="M158.4,554.2L158.4,554.2c0-10.4,8.5-18.9,18.9-18.9l0,0c5,0,9.8,2,13.4,5.5c3.5,3.5,5.5,8.4,5.5,13.4l0,0
		c0,10.4-8.5,18.9-18.9,18.9l0,0C166.8,573.1,158.4,564.6,158.4,554.2z"/>
	<path class="st1" d="M158.4,554.2L158.4,554.2c0-10.4,8.5-18.9,18.9-18.9l0,0c5,0,9.8,2,13.4,5.5c3.5,3.5,5.5,8.4,5.5,13.4l0,0
		c0,10.4-8.5,18.9-18.9,18.9l0,0C166.8,573.1,158.4,564.6,158.4,554.2z"/>
</g>
<g>
	<path class="st0" d="M196.2,509.8L196.2,509.8c0,10.4-8.5,18.9-18.9,18.9l0,0c-5,0-9.8-2-13.4-5.5c-3.5-3.5-5.5-8.4-5.5-13.4l0,0
		c0-10.4,8.5-18.9,18.9-18.9l0,0C187.7,490.9,196.2,499.3,196.2,509.8z"/>
	<path class="st1" d="M196.2,509.8L196.2,509.8c0,10.4-8.5,18.9-18.9,18.9l0,0c-5,0-9.8-2-13.4-5.5c-3.5-3.5-5.5-8.4-5.5-13.4l0,0
		c0-10.4,8.5-18.9,18.9-18.9l0,0C187.7,490.9,196.2,499.3,196.2,509.8z"/>
</g>
<g>
	<path class="st0" d="M225.3,535.3L225.3,535.3c10.4,0,18.9,8.5,18.9,18.9l0,0c0,5-2,9.8-5.5,13.4c-3.5,3.5-8.4,5.5-13.4,5.5l0,0
		c-10.4,0-18.9-8.5-18.9-18.9l0,0C206.4,543.7,214.8,535.3,225.3,535.3z"/>
	<path class="st1" d="M225.3,535.3L225.3,535.3c10.4,0,18.9,8.5,18.9,18.9l0,0c0,5-2,9.8-5.5,13.4c-3.5,3.5-8.4,5.5-13.4,5.5l0,0
		c-10.4,0-18.9-8.5-18.9-18.9l0,0C206.4,543.7,214.8,535.3,225.3,535.3z"/>
</g>
<g>
	<path class="st0" d="M244.2,509.8L244.2,509.8c0,10.4-8.5,18.9-18.9,18.9l0,0c-5,0-9.8-2-13.4-5.5c-3.5-3.5-5.5-8.4-5.5-13.4l0,0
		c0-10.4,8.5-18.9,18.9-18.9l0,0C235.7,490.9,244.2,499.3,244.2,509.8z"/>
	<path class="st1" d="M244.2,509.8L244.2,509.8c0,10.4-8.5,18.9-18.9,18.9l0,0c-5,0-9.8-2-13.4-5.5c-3.5-3.5-5.5-8.4-5.5-13.4l0,0
		c0-10.4,8.5-18.9,18.9-18.9l0,0C235.7,490.9,244.2,499.3,244.2,509.8z"/>
</g>
<g>
	<path class="st0" d="M158.4,465.4L158.4,465.4c0-10.4,8.5-18.9,18.9-18.9l0,0c5,0,9.8,2,13.4,5.5c3.5,3.5,5.5,8.4,5.5,13.4l0,0
		c0,10.4-8.5,18.9-18.9,18.9l0,0C166.8,484.3,158.4,475.8,158.4,465.4z"/>
	<path class="st1" d="M158.4,465.4L158.4,465.4c0-10.4,8.5-18.9,18.9-18.9l0,0c5,0,9.8,2,13.4,5.5c3.5,3.5,5.5,8.4,5.5,13.4l0,0
		c0,10.4-8.5,18.9-18.9,18.9l0,0C166.8,484.3,158.4,475.8,158.4,465.4z"/>
</g>
<g>
	<path class="st0" d="M196.2,421L196.2,421c0,10.4-8.5,18.9-18.9,18.9l0,0c-5,0-9.8-2-13.4-5.5c-3.5-3.5-5.5-8.4-5.5-13.4l0,0
		c0-10.4,8.5-18.9,18.9-18.9l0,0C187.7,402.1,196.2,410.5,196.2,421z"/>
	<path class="st1" d="M196.2,421L196.2,421c0,10.4-8.5,18.9-18.9,18.9l0,0c-5,0-9.8-2-13.4-5.5c-3.5-3.5-5.5-8.4-5.5-13.4l0,0
		c0-10.4,8.5-18.9,18.9-18.9l0,0C187.7,402.1,196.2,410.5,196.2,421z"/>
</g>
<g>
	<path class="st0" d="M225.3,446.5L225.3,446.5c10.4,0,18.9,8.5,18.9,18.9l0,0c0,5-2,9.8-5.5,13.4c-3.5,3.5-8.4,5.5-13.4,5.5l0,0
		c-10.4,0-18.9-8.5-18.9-18.9l0,0C206.4,454.9,214.8,446.5,225.3,446.5z"/>
	<path class="st1" d="M225.3,446.5L225.3,446.5c10.4,0,18.9,8.5,18.9,18.9l0,0c0,5-2,9.8-5.5,13.4c-3.5,3.5-8.4,5.5-13.4,5.5l0,0
		c-10.4,0-18.9-8.5-18.9-18.9l0,0C206.4,454.9,214.8,446.5,225.3,446.5z"/>
</g>
<g>
	<path class="st0" d="M244.2,421L244.2,421c0,10.4-8.5,18.9-18.9,18.9l0,0c-5,0-9.8-2-13.4-5.5c-3.5-3.5-5.5-8.4-5.5-13.4l0,0
		c0-10.4,8.5-18.9,18.9-18.9l0,0C235.7,402.1,244.2,410.5,244.2,421z"/>
	<path class="st1" d="M244.2,421L244.2,421c0,10.4-8.5,18.9-18.9,18.9l0,0c-5,0-9.8-2-13.4-5.5c-3.5-3.5-5.5-8.4-5.5-13.4l0,0
		c0-10.4,8.5-18.9,18.9-18.9l0,0C235.7,402.1,244.2,410.5,244.2,421z"/>
</g>
<g>
	<path class="st0" d="M158.4,643L158.4,643c0-10.4,8.5-18.9,18.9-18.9l0,0c5,0,9.8,2,13.4,5.5c3.5,3.5,5.5,8.4,5.5,13.4l0,0
		c0,10.4-8.5,18.9-18.9,18.9l0,0C166.8,661.8,158.4,653.3,158.4,643z"/>
	<path class="st1" d="M158.4,643L158.4,643c0-10.4,8.5-18.9,18.9-18.9l0,0c5,0,9.8,2,13.4,5.5c3.5,3.5,5.5,8.4,5.5,13.4l0,0
		c0,10.4-8.5,18.9-18.9,18.9l0,0C166.8,661.8,158.4,653.3,158.4,643z"/>
</g>
<g>
	<path class="st0" d="M196.2,598.6L196.2,598.6c0,10.4-8.5,18.9-18.9,18.9l0,0c-5,0-9.8-2-13.4-5.5c-3.5-3.5-5.5-8.4-5.5-13.4l0,0
		c0-10.4,8.5-18.9,18.9-18.9l0,0C187.7,579.7,196.2,588.1,196.2,598.6z"/>
	<path class="st1" d="M196.2,598.6L196.2,598.6c0,10.4-8.5,18.9-18.9,18.9l0,0c-5,0-9.8-2-13.4-5.5c-3.5-3.5-5.5-8.4-5.5-13.4l0,0
		c0-10.4,8.5-18.9,18.9-18.9l0,0C187.7,579.7,196.2,588.1,196.2,598.6z"/>
</g>
<g>
	<path class="st0" d="M225.3,624L225.3,624c10.4,0,18.9,8.5,18.9,18.9l0,0c0,5-2,9.8-5.5,13.4c-3.5,3.5-8.4,5.5-13.4,5.5l0,0
		c-10.4,0-18.9-8.5-18.9-18.9l0,0C206.4,632.5,214.8,624,225.3,624z"/>
	<path class="st1" d="M225.3,624L225.3,624c10.4,0,18.9,8.5,18.9,18.9l0,0c0,5-2,9.8-5.5,13.4c-3.5,3.5-8.4,5.5-13.4,5.5l0,0
		c-10.4,0-18.9-8.5-18.9-18.9l0,0C206.4,632.5,214.8,624,225.3,624z"/>
</g>
<g>
	<path class="st0" d="M244.2,598.6L244.2,598.6c0,10.4-8.5,18.9-18.9,18.9l0,0c-5,0-9.8-2-13.4-5.5c-3.5-3.5-5.5-8.4-5.5-13.4l0,0
		c0-10.4,8.5-18.9,18.9-18.9l0,0C235.7,579.7,244.2,588.1,244.2,598.6z"/>
	<path class="st1" d="M244.2,598.6L244.2,598.6c0,10.4-8.5,18.9-18.9,18.9l0,0c-5,0-9.8-2-13.4-5.5c-3.5-3.5-5.5-8.4-5.5-13.4l0,0
		c0-10.4,8.5-18.9,18.9-18.9l0,0C235.7,579.7,244.2,588.1,244.2,598.6z"/>
</g>
<g>
	<path class="st2" d="M292.5,554.2L292.5,554.2c0-10.4,8.5-18.9,18.9-18.9l0,0c5,0,9.8,2,13.4,5.5c3.5,3.5,5.5,8.4,5.5,13.4l0,0
		c0,10.4-8.5,18.9-18.9,18.9l0,0C300.9,573.1,292.5,564.6,292.5,554.2z"/>
	<path class="st1" d="M292.5,554.2L292.5,554.2c0-10.4,8.5-18.9,18.9-18.9l0,0c5,0,9.8,2,13.4,5.5c3.5,3.5,5.5,8.4,5.5,13.4l0,0
		c0,10.4-8.5,18.9-18.9,18.9l0,0C300.9,573.1,292.5,564.6,292.5,554.2z"/>
</g>
<g>
	<path class="st2" d="M330.3,509.8L330.3,509.8c0,10.4-8.5,18.9-18.9,18.9l0,0c-5,0-9.8-2-13.4-5.5c-3.5-3.5-5.5-8.4-5.5-13.4l0,0
		c0-10.4,8.5-18.9,18.9-18.9l0,0C321.8,490.9,330.3,499.3,330.3,509.8z"/>
	<path class="st1" d="M330.3,509.8L330.3,509.8c0,10.4-8.5,18.9-18.9,18.9l0,0c-5,0-9.8-2-13.4-5.5c-3.5-3.5-5.5-8.4-5.5-13.4l0,0
		c0-10.4,8.5-18.9,18.9-18.9l0,0C321.8,490.9,330.3,499.3,330.3,509.8z"/>
</g>
<g>
	<path class="st2" d="M359.4,535.3L359.4,535.3c10.4,0,18.9,8.5,18.9,18.9l0,0c0,5-2,9.8-5.5,13.4c-3.5,3.5-8.4,5.5-13.4,5.5l0,0
		c-10.4,0-18.9-8.5-18.9-18.9l0,0C340.5,543.7,348.9,535.3,359.4,535.3z"/>
	<path class="st1" d="M359.4,535.3L359.4,535.3c10.4,0,18.9,8.5,18.9,18.9l0,0c0,5-2,9.8-5.5,13.4c-3.5,3.5-8.4,5.5-13.4,5.5l0,0
		c-10.4,0-18.9-8.5-18.9-18.9l0,0C340.5,543.7,348.9,535.3,359.4,535.3z"/>
</g>
<g>
	<path class="st2" d="M292.5,643L292.5,643c0-10.4,8.5-18.9,18.9-18.9l0,0c5,0,9.8,2,13.4,5.5c3.5,3.5,5.5,8.4,5.5,13.4l0,0
		c0,10.4-8.5,18.9-18.9,18.9l0,0C300.9,661.8,292.5,653.3,292.5,643z"/>
	<path class="st1" d="M292.5,643L292.5,643c0-10.4,8.5-18.9,18.9-18.9l0,0c5,0,9.8,2,13.4,5.5c3.5,3.5,5.5,8.4,5.5,13.4l0,0
		c0,10.4-8.5,18.9-18.9,18.9l0,0C300.9,661.8,292.5,653.3,292.5,643z"/>
</g>
<g>
	<path class="st2" d="M330.3,598.6L330.3,598.6c0,10.4-8.5,18.9-18.9,18.9l0,0c-5,0-9.8-2-13.4-5.5c-3.5-3.5-5.5-8.4-5.5-13.4l0,0
		c0-10.4,8.5-18.9,18.9-18.9l0,0C321.8,579.7,330.3,588.1,330.3,598.6z"/>
	<path class="st1" d="M330.3,598.6L330.3,598.6c0,10.4-8.5,18.9-18.9,18.9l0,0c-5,0-9.8-2-13.4-5.5c-3.5-3.5-5.5-8.4-5.5-13.4l0,0
		c0-10.4,8.5-18.9,18.9-18.9l0,0C321.8,579.7,330.3,588.1,330.3,598.6z"/>
</g>
<g>
	<path class="st2" d="M359.4,624L359.4,624c10.4,0,18.9,8.5,18.9,18.9l0,0c0,5-2,9.8-5.5,13.4c-3.5,3.5-8.4,5.5-13.4,5.5l0,0
		c-10.4,0-18.9-8.5-18.9-18.9l0,0C340.5,632.5,348.9,624,359.4,624z"/>
	<path class="st1" d="M359.4,624L359.4,624c10.4,0,18.9,8.5,18.9,18.9l0,0c0,5-2,9.8-5.5,13.4c-3.5,3.5-8.4,5.5-13.4,5.5l0,0
		c-10.4,0-18.9-8.5-18.9-18.9l0,0C340.5,632.5,348.9,624,359.4,624z"/>
</g>
<g>
	<path class="st2" d="M378.3,598.6L378.3,598.6c0,10.4-8.5,18.9-18.9,18.9l0,0c-5,0-9.8-2-13.4-5.5c-3.5-3.5-5.5-8.4-5.5-13.4l0,0
		c0-10.4,8.5-18.9,18.9-18.9l0,0C369.8,579.7,378.3,588.1,378.3,598.6z"/>
	<path class="st1" d="M378.3,598.6L378.3,598.6c0,10.4-8.5,18.9-18.9,18.9l0,0c-5,0-9.8-2-13.4-5.5c-3.5-3.5-5.5-8.4-5.5-13.4l0,0
		c0-10.4,8.5-18.9,18.9-18.9l0,0C369.8,579.7,378.3,588.1,378.3,598.6z"/>
</g>
<g>
	<path class="st3" d="M426.6,554.2L426.6,554.2c0-10.4,8.5-18.9,18.9-18.9l0,0c5,0,9.8,2,13.4,5.5c3.5,3.5,5.5,8.4,5.5,13.4l0,0
		c0,10.4-8.5,18.9-18.9,18.9l0,0C435,573.1,426.6,564.6,426.6,554.2z"/>
	<path class="st1" d="M426.6,554.2L426.6,554.2c0-10.4,8.5-18.9,18.9-18.9l0,0c5,0,9.8,2,13.4,5.5c3.5,3.5,5.5,8.4,5.5,13.4l0,0
		c0,10.4-8.5,18.9-18.9,18.9l0,0C435,573.1,426.6,564.6,426.6,554.2z"/>
</g>
<g>
	<path class="st3" d="M464.4,509.8L464.4,509.8c0,10.4-8.5,18.9-18.9,18.9l0,0c-5,0-9.8-2-13.4-5.5c-3.5-3.5-5.5-8.4-5.5-13.4l0,0
		c0-10.4,8.5-18.9,18.9-18.9l0,0C455.9,490.9,464.4,499.3,464.4,509.8z"/>
	<path class="st1" d="M464.4,509.8L464.4,509.8c0,10.4-8.5,18.9-18.9,18.9l0,0c-5,0-9.8-2-13.4-5.5c-3.5-3.5-5.5-8.4-5.5-13.4l0,0
		c0-10.4,8.5-18.9,18.9-18.9l0,0C455.9,490.9,464.4,499.3,464.4,509.8z"/>
</g>
<g>
	<path class="st3" d="M493.5,535.3L493.5,535.3c10.4,0,18.9,8.5,18.9,18.9l0,0c0,5-2,9.8-5.5,13.4c-3.5,3.5-8.4,5.5-13.4,5.5l0,0
		c-10.4,0-18.9-8.5-18.9-18.9l0,0C474.6,543.7,483,535.3,493.5,535.3z"/>
	<path class="st1" d="M493.5,535.3L493.5,535.3c10.4,0,18.9,8.5,18.9,18.9l0,0c0,5-2,9.8-5.5,13.4c-3.5,3.5-8.4,5.5-13.4,5.5l0,0
		c-10.4,0-18.9-8.5-18.9-18.9l0,0C474.6,543.7,483,535.3,493.5,535.3z"/>
</g>
<g>
	<path class="st3" d="M512.4,509.8L512.4,509.8c0,10.4-8.5,18.9-18.9,18.9l0,0c-5,0-9.8-2-13.4-5.5c-3.5-3.5-5.5-8.4-5.5-13.4l0,0
		c0-10.4,8.5-18.9,18.9-18.9l0,0C503.9,490.9,512.4,499.3,512.4,509.8z"/>
	<path class="st1" d="M512.4,509.8L512.4,509.8c0,10.4-8.5,18.9-18.9,18.9l0,0c-5,0-9.8-2-13.4-5.5c-3.5-3.5-5.5-8.4-5.5-13.4l0,0
		c0-10.4,8.5-18.9,18.9-18.9l0,0C503.9,490.9,512.4,499.3,512.4,509.8z"/>
</g>
<g>
	<path class="st3" d="M426.6,465.4L426.6,465.4c0-10.4,8.5-18.9,18.9-18.9l0,0c5,0,9.8,2,13.4,5.5c3.5,3.5,5.5,8.4,5.5,13.4l0,0
		c0,10.4-8.5,18.9-18.9,18.9l0,0C435,484.3,426.6,475.8,426.6,465.4z"/>
	<path class="st1" d="M426.6,465.4L426.6,465.4c0-10.4,8.5-18.9,18.9-18.9l0,0c5,0,9.8,2,13.4,5.5c3.5,3.5,5.5,8.4,5.5,13.4l0,0
		c0,10.4-8.5,18.9-18.9,18.9l0,0C435,484.3,426.6,475.8,426.6,465.4z"/>
</g>
<g>
	<path class="st3" d="M426.6,643L426.6,643c0-10.4,8.5-18.9,18.9-18.9l0,0c5,0,9.8,2,13.4,5.5c3.5,3.5,5.5,8.4,5.5,13.4l0,0
		c0,10.4-8.5,18.9-18.9,18.9l0,0C435,661.8,426.6,653.3,426.6,643z"/>
	<path class="st1" d="M426.6,643L426.6,643c0-10.4,8.5-18.9,18.9-18.9l0,0c5,0,9.8,2,13.4,5.5c3.5,3.5,5.5,8.4,5.5,13.4l0,0
		c0,10.4-8.5,18.9-18.9,18.9l0,0C435,661.8,426.6,653.3,426.6,643z"/>
</g>
<g>
	<path class="st3" d="M464.4,598.6L464.4,598.6c0,10.4-8.5,18.9-18.9,18.9l0,0c-5,0-9.8-2-13.4-5.5c-3.5-3.5-5.5-8.4-5.5-13.4l0,0
		c0-10.4,8.5-18.9,18.9-18.9l0,0C455.9,579.7,464.4,588.1,464.4,598.6z"/>
	<path class="st1" d="M464.4,598.6L464.4,598.6c0,10.4-8.5,18.9-18.9,18.9l0,0c-5,0-9.8-2-13.4-5.5c-3.5-3.5-5.5-8.4-5.5-13.4l0,0
		c0-10.4,8.5-18.9,18.9-18.9l0,0C455.9,579.7,464.4,588.1,464.4,598.6z"/>
</g>
<g>
	<path class="st3" d="M493.5,624L493.5,624c10.4,0,18.9,8.5,18.9,18.9l0,0c0,5-2,9.8-5.5,13.4c-3.5,3.5-8.4,5.5-13.4,5.5l0,0
		c-10.4,0-18.9-8.5-18.9-18.9l0,0C474.6,632.5,483,624,493.5,624z"/>
	<path class="st1" d="M493.5,624L493.5,624c10.4,0,18.9,8.5,18.9,18.9l0,0c0,5-2,9.8-5.5,13.4c-3.5,3.5-8.4,5.5-13.4,5.5l0,0
		c-10.4,0-18.9-8.5-18.9-18.9l0,0C474.6,632.5,483,624,493.5,624z"/>
</g>
<g>
	<path class="st3" d="M512.4,598.6L512.4,598.6c0,10.4-8.5,18.9-18.9,18.9l0,0c-5,0-9.8-2-13.4-5.5c-3.5-3.5-5.5-8.4-5.5-13.4l0,0
		c0-10.4,8.5-18.9,18.9-18.9l0,0C503.9,579.7,512.4,588.1,512.4,598.6z"/>
	<path class="st1" d="M512.4,598.6L512.4,598.6c0,10.4-8.5,18.9-18.9,18.9l0,0c-5,0-9.8-2-13.4-5.5c-3.5-3.5-5.5-8.4-5.5-13.4l0,0
		c0-10.4,8.5-18.9,18.9-18.9l0,0C503.9,579.7,512.4,588.1,512.4,598.6z"/>
</g>
<rect x="118.5" y="7" class="st7" width="303" height="30"/>
<text transform="matrix(1 0 0 1 221.5322 28.9941)" class="st8 st9">Nounours</text>
<rect x="118.5" y="361" class="st7" width="303" height="30"/>
<text transform="matrix(1 0 0 1 235.7607 382.9941)" class="st8 st9">Snippy</text>
</svg>
