<?xml version="1.0" encoding="utf-8"?>
<!-- Generator: Adobe Illustrator 24.3.0, SVG Export Plug-In . SVG Version: 6.00 Build 0)  -->
<svg version="1.1" id="Calque_1" xmlns="http://www.w3.org/2000/svg" xmlns:xlink="http://www.w3.org/1999/xlink" x="0px" y="0px"
	 viewBox="0 0 1094.2 337.5" style="enable-background:new 0 0 1094.2 337.5;" xml:space="preserve">
<style type="text/css">
	.st0{fill-rule:evenodd;clip-rule:evenodd;fill:#CC0000;}
	.st1{fill:none;stroke:#FFFFFF;stroke-linejoin:round;stroke-miterlimit:10;}
	.st2{fill-rule:evenodd;clip-rule:evenodd;fill:#1155CC;}
	.st3{fill-rule:evenodd;clip-rule:evenodd;fill:#F1C232;}
	.st4{fill-rule:evenodd;clip-rule:evenodd;fill:#EFC22E;}
	.st5{fill:#EFC22E;stroke:#FFFFFF;stroke-linejoin:round;stroke-miterlimit:10;}
	.st6{fill-rule:evenodd;clip-rule:evenodd;fill:#38761D;}
	.st7{font-family:'Andika';}
	.st8{font-size:31px;}
	.st9{fill:none;stroke:#000000;stroke-width:2;stroke-miterlimit:10;}
</style>
<g>
	<path class="st0" d="M158.4,206.4L158.4,206.4c0-10.4,8.5-18.9,18.9-18.9l0,0c5,0,9.8,2,13.4,5.5c3.5,3.5,5.5,8.4,5.5,13.4l0,0
		c0,10.4-8.5,18.9-18.9,18.9l0,0C166.9,225.3,158.4,216.8,158.4,206.4z"/>
	<path class="st1" d="M158.4,206.4L158.4,206.4c0-10.4,8.5-18.9,18.9-18.9l0,0c5,0,9.8,2,13.4,5.5c3.5,3.5,5.5,8.4,5.5,13.4l0,0
		c0,10.4-8.5,18.9-18.9,18.9l0,0C166.9,225.3,158.4,216.8,158.4,206.4z"/>
</g>
<g>
	<path class="st0" d="M196.2,160L196.2,160c0,10.4-8.5,18.9-18.9,18.9l0,0c-5,0-9.8-2-13.4-5.5c-3.5-3.5-5.5-8.4-5.5-13.4l0,0
		c0-10.4,8.5-18.9,18.9-18.9l0,0C187.8,141.1,196.2,149.5,196.2,160z"/>
	<path class="st1" d="M196.2,160L196.2,160c0,10.4-8.5,18.9-18.9,18.9l0,0c-5,0-9.8-2-13.4-5.5c-3.5-3.5-5.5-8.4-5.5-13.4l0,0
		c0-10.4,8.5-18.9,18.9-18.9l0,0C187.8,141.1,196.2,149.5,196.2,160z"/>
</g>
<g>
	<path class="st0" d="M225.3,187.5L225.3,187.5c10.4,0,18.9,8.5,18.9,18.9l0,0c0,5-2,9.8-5.5,13.4c-3.5,3.5-8.4,5.5-13.4,5.5l0,0
		c-10.4,0-18.9-8.5-18.9-18.9l0,0C206.4,195.9,214.9,187.5,225.3,187.5z"/>
	<path class="st1" d="M225.3,187.5L225.3,187.5c10.4,0,18.9,8.5,18.9,18.9l0,0c0,5-2,9.8-5.5,13.4c-3.5,3.5-8.4,5.5-13.4,5.5l0,0
		c-10.4,0-18.9-8.5-18.9-18.9l0,0C206.4,195.9,214.9,187.5,225.3,187.5z"/>
</g>
<g>
	<path class="st0" d="M244.2,160L244.2,160c0,10.4-8.5,18.9-18.9,18.9l0,0c-5,0-9.8-2-13.4-5.5c-3.5-3.5-5.5-8.4-5.5-13.4l0,0
		c0-10.4,8.5-18.9,18.9-18.9l0,0C235.8,141.1,244.2,149.5,244.2,160z"/>
	<path class="st1" d="M244.2,160L244.2,160c0,10.4-8.5,18.9-18.9,18.9l0,0c-5,0-9.8-2-13.4-5.5c-3.5-3.5-5.5-8.4-5.5-13.4l0,0
		c0-10.4,8.5-18.9,18.9-18.9l0,0C235.8,141.1,244.2,149.5,244.2,160z"/>
</g>
<g>
	<path class="st0" d="M158.4,113.6L158.4,113.6c0-10.4,8.5-18.9,18.9-18.9l0,0c5,0,9.8,2,13.4,5.5c3.5,3.5,5.5,8.4,5.5,13.4l0,0
		c0,10.4-8.5,18.9-18.9,18.9l0,0C166.9,132.5,158.4,124,158.4,113.6z"/>
	<path class="st1" d="M158.4,113.6L158.4,113.6c0-10.4,8.5-18.9,18.9-18.9l0,0c5,0,9.8,2,13.4,5.5c3.5,3.5,5.5,8.4,5.5,13.4l0,0
		c0,10.4-8.5,18.9-18.9,18.9l0,0C166.9,132.5,158.4,124,158.4,113.6z"/>
</g>
<g>
	<path class="st0" d="M225.3,94.7L225.3,94.7c10.4,0,18.9,8.5,18.9,18.9l0,0c0,5-2,9.8-5.5,13.4c-3.5,3.5-8.4,5.5-13.4,5.5l0,0
		c-10.4,0-18.9-8.5-18.9-18.9l0,0C206.4,103.1,214.9,94.7,225.3,94.7z"/>
	<path class="st1" d="M225.3,94.7L225.3,94.7c10.4,0,18.9,8.5,18.9,18.9l0,0c0,5-2,9.8-5.5,13.4c-3.5,3.5-8.4,5.5-13.4,5.5l0,0
		c-10.4,0-18.9-8.5-18.9-18.9l0,0C206.4,103.1,214.9,94.7,225.3,94.7z"/>
</g>
<g>
	<path class="st0" d="M158.4,299.2L158.4,299.2c0-10.4,8.5-18.9,18.9-18.9l0,0c5,0,9.8,2,13.4,5.5c3.5,3.5,5.5,8.4,5.5,13.4l0,0
		c0,10.4-8.5,18.9-18.9,18.9l0,0C166.9,318.1,158.4,309.6,158.4,299.2z"/>
	<path class="st1" d="M158.4,299.2L158.4,299.2c0-10.4,8.5-18.9,18.9-18.9l0,0c5,0,9.8,2,13.4,5.5c3.5,3.5,5.5,8.4,5.5,13.4l0,0
		c0,10.4-8.5,18.9-18.9,18.9l0,0C166.9,318.1,158.4,309.6,158.4,299.2z"/>
</g>
<g>
	<path class="st0" d="M196.2,252.8L196.2,252.8c0,10.4-8.5,18.9-18.9,18.9l0,0c-5,0-9.8-2-13.4-5.5c-3.5-3.5-5.5-8.4-5.5-13.4l0,0
		c0-10.4,8.5-18.9,18.9-18.9l0,0C187.8,233.9,196.2,242.3,196.2,252.8z"/>
	<path class="st1" d="M196.2,252.8L196.2,252.8c0,10.4-8.5,18.9-18.9,18.9l0,0c-5,0-9.8-2-13.4-5.5c-3.5-3.5-5.5-8.4-5.5-13.4l0,0
		c0-10.4,8.5-18.9,18.9-18.9l0,0C187.8,233.9,196.2,242.3,196.2,252.8z"/>
</g>
<g>
	<path class="st0" d="M225.3,280.3L225.3,280.3c10.4,0,18.9,8.5,18.9,18.9l0,0c0,5-2,9.8-5.5,13.4c-3.5,3.5-8.4,5.5-13.4,5.5l0,0
		c-10.4,0-18.9-8.5-18.9-18.9l0,0C206.4,288.7,214.9,280.3,225.3,280.3z"/>
	<path class="st1" d="M225.3,280.3L225.3,280.3c10.4,0,18.9,8.5,18.9,18.9l0,0c0,5-2,9.8-5.5,13.4c-3.5,3.5-8.4,5.5-13.4,5.5l0,0
		c-10.4,0-18.9-8.5-18.9-18.9l0,0C206.4,288.7,214.9,280.3,225.3,280.3z"/>
</g>
<g>
	<path class="st0" d="M244.2,252.8L244.2,252.8c0,10.4-8.5,18.9-18.9,18.9l0,0c-5,0-9.8-2-13.4-5.5c-3.5-3.5-5.5-8.4-5.5-13.4l0,0
		c0-10.4,8.5-18.9,18.9-18.9l0,0C235.8,233.9,244.2,242.3,244.2,252.8z"/>
	<path class="st1" d="M244.2,252.8L244.2,252.8c0,10.4-8.5,18.9-18.9,18.9l0,0c-5,0-9.8-2-13.4-5.5c-3.5-3.5-5.5-8.4-5.5-13.4l0,0
		c0-10.4,8.5-18.9,18.9-18.9l0,0C235.8,233.9,244.2,242.3,244.2,252.8z"/>
</g>
<g>
	<path class="st2" d="M292.5,206.4L292.5,206.4c0-10.4,8.5-18.9,18.9-18.9l0,0c5,0,9.8,2,13.4,5.5c3.5,3.5,5.5,8.4,5.5,13.4l0,0
		c0,10.4-8.5,18.9-18.9,18.9l0,0C301,225.3,292.5,216.8,292.5,206.4z"/>
	<path class="st1" d="M292.5,206.4L292.5,206.4c0-10.4,8.5-18.9,18.9-18.9l0,0c5,0,9.8,2,13.4,5.5c3.5,3.5,5.5,8.4,5.5,13.4l0,0
		c0,10.4-8.5,18.9-18.9,18.9l0,0C301,225.3,292.5,216.8,292.5,206.4z"/>
</g>
<g>
	<path class="st2" d="M359.4,187.5L359.4,187.5c10.4,0,18.9,8.5,18.9,18.9l0,0c0,5-2,9.8-5.5,13.4c-3.5,3.5-8.4,5.5-13.4,5.5l0,0
		c-10.4,0-18.9-8.5-18.9-18.9l0,0C340.5,195.9,349,187.5,359.4,187.5z"/>
	<path class="st1" d="M359.4,187.5L359.4,187.5c10.4,0,18.9,8.5,18.9,18.9l0,0c0,5-2,9.8-5.5,13.4c-3.5,3.5-8.4,5.5-13.4,5.5l0,0
		c-10.4,0-18.9-8.5-18.9-18.9l0,0C340.5,195.9,349,187.5,359.4,187.5z"/>
</g>
<g>
	<path class="st2" d="M292.5,299.2L292.5,299.2c0-10.4,8.5-18.9,18.9-18.9l0,0c5,0,9.8,2,13.4,5.5c3.5,3.5,5.5,8.4,5.5,13.4l0,0
		c0,10.4-8.5,18.9-18.9,18.9l0,0C301,318.1,292.5,309.6,292.5,299.2z"/>
	<path class="st1" d="M292.5,299.2L292.5,299.2c0-10.4,8.5-18.9,18.9-18.9l0,0c5,0,9.8,2,13.4,5.5c3.5,3.5,5.5,8.4,5.5,13.4l0,0
		c0,10.4-8.5,18.9-18.9,18.9l0,0C301,318.1,292.5,309.6,292.5,299.2z"/>
</g>
<g>
	<path class="st2" d="M330.3,252.8L330.3,252.8c0,10.4-8.5,18.9-18.9,18.9l0,0c-5,0-9.8-2-13.4-5.5c-3.5-3.5-5.5-8.4-5.5-13.4l0,0
		c0-10.4,8.5-18.9,18.9-18.9l0,0C321.8,233.9,330.3,242.3,330.3,252.8z"/>
	<path class="st1" d="M330.3,252.8L330.3,252.8c0,10.4-8.5,18.9-18.9,18.9l0,0c-5,0-9.8-2-13.4-5.5c-3.5-3.5-5.5-8.4-5.5-13.4l0,0
		c0-10.4,8.5-18.9,18.9-18.9l0,0C321.8,233.9,330.3,242.3,330.3,252.8z"/>
</g>
<g>
	<path class="st2" d="M359.4,280.3L359.4,280.3c10.4,0,18.9,8.5,18.9,18.9l0,0c0,5-2,9.8-5.5,13.4c-3.5,3.5-8.4,5.5-13.4,5.5l0,0
		c-10.4,0-18.9-8.5-18.9-18.9l0,0C340.5,288.7,349,280.3,359.4,280.3z"/>
	<path class="st1" d="M359.4,280.3L359.4,280.3c10.4,0,18.9,8.5,18.9,18.9l0,0c0,5-2,9.8-5.5,13.4c-3.5,3.5-8.4,5.5-13.4,5.5l0,0
		c-10.4,0-18.9-8.5-18.9-18.9l0,0C340.5,288.7,349,280.3,359.4,280.3z"/>
</g>
<g>
	<path class="st2" d="M378.3,252.8L378.3,252.8c0,10.4-8.5,18.9-18.9,18.9l0,0c-5,0-9.8-2-13.4-5.5c-3.5-3.5-5.5-8.4-5.5-13.4l0,0
		c0-10.4,8.5-18.9,18.9-18.9l0,0C369.8,233.9,378.3,242.3,378.3,252.8z"/>
	<path class="st1" d="M378.3,252.8L378.3,252.8c0,10.4-8.5,18.9-18.9,18.9l0,0c-5,0-9.8-2-13.4-5.5c-3.5-3.5-5.5-8.4-5.5-13.4l0,0
		c0-10.4,8.5-18.9,18.9-18.9l0,0C369.8,233.9,378.3,242.3,378.3,252.8z"/>
</g>
<g>
	<path class="st3" d="M426.6,206.4L426.6,206.4c0-10.4,8.5-18.9,18.9-18.9l0,0c5,0,9.8,2,13.4,5.5c3.5,3.5,5.5,8.4,5.5,13.4l0,0
		c0,10.4-8.5,18.9-18.9,18.9l0,0C435,225.3,426.6,216.8,426.6,206.4z"/>
	<path class="st1" d="M426.6,206.4L426.6,206.4c0-10.4,8.5-18.9,18.9-18.9l0,0c5,0,9.8,2,13.4,5.5c3.5,3.5,5.5,8.4,5.5,13.4l0,0
		c0,10.4-8.5,18.9-18.9,18.9l0,0C435,225.3,426.6,216.8,426.6,206.4z"/>
</g>
<g>
	<path class="st4" d="M464.4,160L464.4,160c0,10.4-8.5,18.9-18.9,18.9l0,0c-5,0-9.8-2-13.4-5.5c-3.5-3.5-5.5-8.4-5.5-13.4l0,0
		c0-10.4,8.5-18.9,18.9-18.9l0,0C455.9,141.1,464.4,149.5,464.4,160z"/>
	<path class="st5" d="M464.4,160L464.4,160c0,10.4-8.5,18.9-18.9,18.9l0,0c-5,0-9.8-2-13.4-5.5c-3.5-3.5-5.5-8.4-5.5-13.4l0,0
		c0-10.4,8.5-18.9,18.9-18.9l0,0C455.9,141.1,464.4,149.5,464.4,160z"/>
</g>
<g>
	<path class="st3" d="M493.5,187.5L493.5,187.5c10.4,0,18.9,8.5,18.9,18.9l0,0c0,5-2,9.8-5.5,13.4c-3.5,3.5-8.4,5.5-13.4,5.5l0,0
		c-10.4,0-18.9-8.5-18.9-18.9l0,0C474.6,195.9,483,187.5,493.5,187.5z"/>
	<path class="st1" d="M493.5,187.5L493.5,187.5c10.4,0,18.9,8.5,18.9,18.9l0,0c0,5-2,9.8-5.5,13.4c-3.5,3.5-8.4,5.5-13.4,5.5l0,0
		c-10.4,0-18.9-8.5-18.9-18.9l0,0C474.6,195.9,483,187.5,493.5,187.5z"/>
</g>
<g>
	<path class="st3" d="M426.6,299.2L426.6,299.2c0-10.4,8.5-18.9,18.9-18.9l0,0c5,0,9.8,2,13.4,5.5c3.5,3.5,5.5,8.4,5.5,13.4l0,0
		c0,10.4-8.5,18.9-18.9,18.9l0,0C435,318.1,426.6,309.6,426.6,299.2z"/>
	<path class="st1" d="M426.6,299.2L426.6,299.2c0-10.4,8.5-18.9,18.9-18.9l0,0c5,0,9.8,2,13.4,5.5c3.5,3.5,5.5,8.4,5.5,13.4l0,0
		c0,10.4-8.5,18.9-18.9,18.9l0,0C435,318.1,426.6,309.6,426.6,299.2z"/>
</g>
<g>
	<path class="st3" d="M464.4,252.8L464.4,252.8c0,10.4-8.5,18.9-18.9,18.9l0,0c-5,0-9.8-2-13.4-5.5c-3.5-3.5-5.5-8.4-5.5-13.4l0,0
		c0-10.4,8.5-18.9,18.9-18.9l0,0C455.9,233.9,464.4,242.3,464.4,252.8z"/>
	<path class="st1" d="M464.4,252.8L464.4,252.8c0,10.4-8.5,18.9-18.9,18.9l0,0c-5,0-9.8-2-13.4-5.5c-3.5-3.5-5.5-8.4-5.5-13.4l0,0
		c0-10.4,8.5-18.9,18.9-18.9l0,0C455.9,233.9,464.4,242.3,464.4,252.8z"/>
</g>
<g>
	<path class="st3" d="M493.5,280.3L493.5,280.3c10.4,0,18.9,8.5,18.9,18.9l0,0c0,5-2,9.8-5.5,13.4c-3.5,3.5-8.4,5.5-13.4,5.5l0,0
		c-10.4,0-18.9-8.5-18.9-18.9l0,0C474.6,288.7,483,280.3,493.5,280.3z"/>
	<path class="st1" d="M493.5,280.3L493.5,280.3c10.4,0,18.9,8.5,18.9,18.9l0,0c0,5-2,9.8-5.5,13.4c-3.5,3.5-8.4,5.5-13.4,5.5l0,0
		c-10.4,0-18.9-8.5-18.9-18.9l0,0C474.6,288.7,483,280.3,493.5,280.3z"/>
</g>
<g>
	<path class="st3" d="M512.4,252.8L512.4,252.8c0,10.4-8.5,18.9-18.9,18.9l0,0c-5,0-9.8-2-13.4-5.5c-3.5-3.5-5.5-8.4-5.5-13.4l0,0
		c0-10.4,8.5-18.9,18.9-18.9l0,0C503.9,233.9,512.4,242.3,512.4,252.8z"/>
	<path class="st1" d="M512.4,252.8L512.4,252.8c0,10.4-8.5,18.9-18.9,18.9l0,0c-5,0-9.8-2-13.4-5.5c-3.5-3.5-5.5-8.4-5.5-13.4l0,0
		c0-10.4,8.5-18.9,18.9-18.9l0,0C503.9,233.9,512.4,242.3,512.4,252.8z"/>
</g>
<g>
	<path class="st6" d="M24.4,299.2L24.4,299.2c0-10.4,8.5-18.9,18.9-18.9l0,0c5,0,9.8,2,13.4,5.5c3.5,3.5,5.5,8.4,5.5,13.4l0,0
		c0,10.4-8.5,18.9-18.9,18.9l0,0C32.8,318.1,24.4,309.6,24.4,299.2z"/>
	<path class="st1" d="M24.4,299.2L24.4,299.2c0-10.4,8.5-18.9,18.9-18.9l0,0c5,0,9.8,2,13.4,5.5c3.5,3.5,5.5,8.4,5.5,13.4l0,0
		c0,10.4-8.5,18.9-18.9,18.9l0,0C32.8,318.1,24.4,309.6,24.4,299.2z"/>
</g>
<g>
	<path class="st6" d="M62.2,252.8L62.2,252.8c0,10.4-8.5,18.9-18.9,18.9l0,0c-5,0-9.8-2-13.4-5.5c-3.5-3.5-5.5-8.4-5.5-13.4l0,0
		c0-10.4,8.5-18.9,18.9-18.9l0,0C53.7,233.9,62.2,242.3,62.2,252.8z"/>
	<path class="st1" d="M62.2,252.8L62.2,252.8c0,10.4-8.5,18.9-18.9,18.9l0,0c-5,0-9.8-2-13.4-5.5c-3.5-3.5-5.5-8.4-5.5-13.4l0,0
		c0-10.4,8.5-18.9,18.9-18.9l0,0C53.7,233.9,62.2,242.3,62.2,252.8z"/>
</g>
<g>
	<path class="st6" d="M91.3,280.3L91.3,280.3c10.4,0,18.9,8.5,18.9,18.9l0,0c0,5-2,9.8-5.5,13.4c-3.5,3.5-8.4,5.5-13.4,5.5l0,0
		c-10.4,0-18.9-8.5-18.9-18.9l0,0C72.4,288.7,80.8,280.3,91.3,280.3z"/>
	<path class="st1" d="M91.3,280.3L91.3,280.3c10.4,0,18.9,8.5,18.9,18.9l0,0c0,5-2,9.8-5.5,13.4c-3.5,3.5-8.4,5.5-13.4,5.5l0,0
		c-10.4,0-18.9-8.5-18.9-18.9l0,0C72.4,288.7,80.8,280.3,91.3,280.3z"/>
</g>
<g>
	<path class="st6" d="M110.2,252.8L110.2,252.8c0,10.4-8.5,18.9-18.9,18.9l0,0c-5,0-9.8-2-13.4-5.5c-3.5-3.5-5.5-8.4-5.5-13.4l0,0
		c0-10.4,8.5-18.9,18.9-18.9l0,0C101.7,233.9,110.2,242.3,110.2,252.8z"/>
	<path class="st1" d="M110.2,252.8L110.2,252.8c0,10.4-8.5,18.9-18.9,18.9l0,0c-5,0-9.8-2-13.4-5.5c-3.5-3.5-5.5-8.4-5.5-13.4l0,0
		c0-10.4,8.5-18.9,18.9-18.9l0,0C101.7,233.9,110.2,242.3,110.2,252.8z"/>
</g>
<g>
	<path class="st6" d="M24.4,206.4L24.4,206.4c0-10.4,8.5-18.9,18.9-18.9l0,0c5,0,9.8,2,13.4,5.5c3.5,3.5,5.5,8.4,5.5,13.4l0,0
		c0,10.4-8.5,18.9-18.9,18.9l0,0C32.8,225.3,24.4,216.8,24.4,206.4z"/>
	<path class="st1" d="M24.4,206.4L24.4,206.4c0-10.4,8.5-18.9,18.9-18.9l0,0c5,0,9.8,2,13.4,5.5c3.5,3.5,5.5,8.4,5.5,13.4l0,0
		c0,10.4-8.5,18.9-18.9,18.9l0,0C32.8,225.3,24.4,216.8,24.4,206.4z"/>
</g>
<g>
	<path class="st6" d="M62.2,160L62.2,160c0,10.4-8.5,18.9-18.9,18.9l0,0c-5,0-9.8-2-13.4-5.5c-3.5-3.5-5.5-8.4-5.5-13.4l0,0
		c0-10.4,8.5-18.9,18.9-18.9l0,0C53.7,141.1,62.2,149.5,62.2,160z"/>
	<path class="st1" d="M62.2,160L62.2,160c0,10.4-8.5,18.9-18.9,18.9l0,0c-5,0-9.8-2-13.4-5.5c-3.5-3.5-5.5-8.4-5.5-13.4l0,0
		c0-10.4,8.5-18.9,18.9-18.9l0,0C53.7,141.1,62.2,149.5,62.2,160z"/>
</g>
<g>
	<path class="st6" d="M91.3,187.5L91.3,187.5c10.4,0,18.9,8.5,18.9,18.9l0,0c0,5-2,9.8-5.5,13.4c-3.5,3.5-8.4,5.5-13.4,5.5l0,0
		c-10.4,0-18.9-8.5-18.9-18.9l0,0C72.4,195.9,80.8,187.5,91.3,187.5z"/>
	<path class="st1" d="M91.3,187.5L91.3,187.5c10.4,0,18.9,8.5,18.9,18.9l0,0c0,5-2,9.8-5.5,13.4c-3.5,3.5-8.4,5.5-13.4,5.5l0,0
		c-10.4,0-18.9-8.5-18.9-18.9l0,0C72.4,195.9,80.8,187.5,91.3,187.5z"/>
</g>
<g>
	<path class="st6" d="M110.2,160L110.2,160c0,10.4-8.5,18.9-18.9,18.9l0,0c-5,0-9.8-2-13.4-5.5c-3.5-3.5-5.5-8.4-5.5-13.4l0,0
		c0-10.4,8.5-18.9,18.9-18.9l0,0C101.7,141.1,110.2,149.5,110.2,160z"/>
	<path class="st1" d="M110.2,160L110.2,160c0,10.4-8.5,18.9-18.9,18.9l0,0c-5,0-9.8-2-13.4-5.5c-3.5-3.5-5.5-8.4-5.5-13.4l0,0
		c0-10.4,8.5-18.9,18.9-18.9l0,0C101.7,141.1,110.2,149.5,110.2,160z"/>
</g>
<g>
	<path class="st6" d="M24.4,113.6L24.4,113.6c0-10.4,8.5-18.9,18.9-18.9l0,0c5,0,9.8,2,13.4,5.5c3.5,3.5,5.5,8.4,5.5,13.4l0,0
		c0,10.4-8.5,18.9-18.9,18.9l0,0C32.8,132.5,24.4,124,24.4,113.6z"/>
	<path class="st1" d="M24.4,113.6L24.4,113.6c0-10.4,8.5-18.9,18.9-18.9l0,0c5,0,9.8,2,13.4,5.5c3.5,3.5,5.5,8.4,5.5,13.4l0,0
		c0,10.4-8.5,18.9-18.9,18.9l0,0C32.8,132.5,24.4,124,24.4,113.6z"/>
</g>
<g>
	<path class="st6" d="M91.3,94.7L91.3,94.7c10.4,0,18.9,8.5,18.9,18.9l0,0c0,5-2,9.8-5.5,13.4c-3.5,3.5-8.4,5.5-13.4,5.5l0,0
		c-10.4,0-18.9-8.5-18.9-18.9l0,0C72.4,103.1,80.8,94.7,91.3,94.7z"/>
	<path class="st1" d="M91.3,94.7L91.3,94.7c10.4,0,18.9,8.5,18.9,18.9l0,0c0,5-2,9.8-5.5,13.4c-3.5,3.5-8.4,5.5-13.4,5.5l0,0
		c-10.4,0-18.9-8.5-18.9-18.9l0,0C72.4,103.1,80.8,94.7,91.3,94.7z"/>
</g>
<g>
	<path class="st6" d="M43.3,48.3L43.3,48.3c10.4,0,18.9,8.5,18.9,18.9l0,0c0,5-2,9.8-5.5,13.4s-8.4,5.5-13.4,5.5l0,0
		c-10.4,0-18.9-8.5-18.9-18.9l0,0C24.4,56.7,32.8,48.3,43.3,48.3z"/>
	<path class="st1" d="M43.3,48.3L43.3,48.3c10.4,0,18.9,8.5,18.9,18.9l0,0c0,5-2,9.8-5.5,13.4s-8.4,5.5-13.4,5.5l0,0
		c-10.4,0-18.9-8.5-18.9-18.9l0,0C24.4,56.7,32.8,48.3,43.3,48.3z"/>
</g>
<g>
	<path class="st6" d="M568.4,299.2L568.4,299.2c0-10.4,8.5-18.9,18.9-18.9l0,0c5,0,9.8,2,13.4,5.5c3.5,3.5,5.5,8.4,5.5,13.4l0,0
		c0,10.4-8.5,18.9-18.9,18.9l0,0C576.8,318,568.4,309.5,568.4,299.2z"/>
	<path class="st1" d="M568.4,299.2L568.4,299.2c0-10.4,8.5-18.9,18.9-18.9l0,0c5,0,9.8,2,13.4,5.5c3.5,3.5,5.5,8.4,5.5,13.4l0,0
		c0,10.4-8.5,18.9-18.9,18.9l0,0C576.8,318,568.4,309.5,568.4,299.2z"/>
</g>
<g>
	<path class="st6" d="M606.2,252.8L606.2,252.8c0,10.4-8.5,18.9-18.9,18.9l0,0c-5,0-9.8-2-13.4-5.5c-3.5-3.5-5.5-8.4-5.5-13.4l0,0
		c0-10.4,8.5-18.9,18.9-18.9l0,0C597.7,233.9,606.2,242.3,606.2,252.8z"/>
	<path class="st1" d="M606.2,252.8L606.2,252.8c0,10.4-8.5,18.9-18.9,18.9l0,0c-5,0-9.8-2-13.4-5.5c-3.5-3.5-5.5-8.4-5.5-13.4l0,0
		c0-10.4,8.5-18.9,18.9-18.9l0,0C597.7,233.9,606.2,242.3,606.2,252.8z"/>
</g>
<g>
	<path class="st6" d="M635.3,280.3L635.3,280.3c10.4,0,18.9,8.5,18.9,18.9l0,0c0,5-2,9.8-5.5,13.4c-3.5,3.5-8.4,5.5-13.4,5.5l0,0
		c-10.4,0-18.9-8.5-18.9-18.9l0,0C616.4,288.8,624.8,280.3,635.3,280.3z"/>
	<path class="st1" d="M635.3,280.3L635.3,280.3c10.4,0,18.9,8.5,18.9,18.9l0,0c0,5-2,9.8-5.5,13.4c-3.5,3.5-8.4,5.5-13.4,5.5l0,0
		c-10.4,0-18.9-8.5-18.9-18.9l0,0C616.4,288.8,624.8,280.3,635.3,280.3z"/>
</g>
<g>
	<path class="st6" d="M654.2,252.8L654.2,252.8c0,10.4-8.5,18.9-18.9,18.9l0,0c-5,0-9.8-2-13.4-5.5c-3.5-3.5-5.5-8.4-5.5-13.4l0,0
		c0-10.4,8.5-18.9,18.9-18.9l0,0C645.7,233.9,654.2,242.3,654.2,252.8z"/>
	<path class="st1" d="M654.2,252.8L654.2,252.8c0,10.4-8.5,18.9-18.9,18.9l0,0c-5,0-9.8-2-13.4-5.5c-3.5-3.5-5.5-8.4-5.5-13.4l0,0
		c0-10.4,8.5-18.9,18.9-18.9l0,0C645.7,233.9,654.2,242.3,654.2,252.8z"/>
</g>
<g>
	<path class="st0" d="M702.4,206.4L702.4,206.4c0-10.4,8.5-18.9,18.9-18.9l0,0c5,0,9.8,2,13.4,5.5c3.5,3.5,5.5,8.4,5.5,13.4l0,0
		c0,10.4-8.5,18.9-18.9,18.9l0,0C710.8,225.3,702.4,216.8,702.4,206.4z"/>
	<path class="st1" d="M702.4,206.4L702.4,206.4c0-10.4,8.5-18.9,18.9-18.9l0,0c5,0,9.8,2,13.4,5.5c3.5,3.5,5.5,8.4,5.5,13.4l0,0
		c0,10.4-8.5,18.9-18.9,18.9l0,0C710.8,225.3,702.4,216.8,702.4,206.4z"/>
</g>
<g>
	<path class="st0" d="M740.2,160L740.2,160c0,10.4-8.5,18.9-18.9,18.9l0,0c-5,0-9.8-2-13.4-5.5c-3.5-3.5-5.5-8.4-5.5-13.4l0,0
		c0-10.4,8.5-18.9,18.9-18.9l0,0C731.7,141.1,740.2,149.5,740.2,160z"/>
	<path class="st1" d="M740.2,160L740.2,160c0,10.4-8.5,18.9-18.9,18.9l0,0c-5,0-9.8-2-13.4-5.5c-3.5-3.5-5.5-8.4-5.5-13.4l0,0
		c0-10.4,8.5-18.9,18.9-18.9l0,0C731.7,141.1,740.2,149.5,740.2,160z"/>
</g>
<g>
	<path class="st0" d="M769.3,187.5L769.3,187.5c10.4,0,18.9,8.5,18.9,18.9l0,0c0,5-2,9.8-5.5,13.4c-3.5,3.5-8.4,5.5-13.4,5.5l0,0
		c-10.4,0-18.9-8.5-18.9-18.9l0,0C750.4,195.9,758.8,187.5,769.3,187.5z"/>
	<path class="st1" d="M769.3,187.5L769.3,187.5c10.4,0,18.9,8.5,18.9,18.9l0,0c0,5-2,9.8-5.5,13.4c-3.5,3.5-8.4,5.5-13.4,5.5l0,0
		c-10.4,0-18.9-8.5-18.9-18.9l0,0C750.4,195.9,758.8,187.5,769.3,187.5z"/>
</g>
<g>
	<path class="st0" d="M788.2,160L788.2,160c0,10.4-8.5,18.9-18.9,18.9l0,0c-5,0-9.8-2-13.4-5.5c-3.5-3.5-5.5-8.4-5.5-13.4l0,0
		c0-10.4,8.5-18.9,18.9-18.9l0,0C779.7,141.1,788.2,149.5,788.2,160z"/>
	<path class="st1" d="M788.2,160L788.2,160c0,10.4-8.5,18.9-18.9,18.9l0,0c-5,0-9.8-2-13.4-5.5c-3.5-3.5-5.5-8.4-5.5-13.4l0,0
		c0-10.4,8.5-18.9,18.9-18.9l0,0C779.7,141.1,788.2,149.5,788.2,160z"/>
</g>
<g>
	<path class="st0" d="M702.4,113.6L702.4,113.6c0-10.4,8.5-18.9,18.9-18.9l0,0c5,0,9.8,2,13.4,5.5c3.5,3.5,5.5,8.4,5.5,13.4l0,0
		c0,10.4-8.5,18.9-18.9,18.9l0,0C710.8,132.5,702.4,124,702.4,113.6z"/>
	<path class="st1" d="M702.4,113.6L702.4,113.6c0-10.4,8.5-18.9,18.9-18.9l0,0c5,0,9.8,2,13.4,5.5c3.5,3.5,5.5,8.4,5.5,13.4l0,0
		c0,10.4-8.5,18.9-18.9,18.9l0,0C710.8,132.5,702.4,124,702.4,113.6z"/>
</g>
<g>
	<path class="st0" d="M740.2,67.2L740.2,67.2c0,10.4-8.5,18.9-18.9,18.9l0,0c-5,0-9.8-2-13.4-5.5c-3.5-3.5-5.5-8.4-5.5-13.4l0,0
		c0-10.4,8.5-18.9,18.9-18.9l0,0C731.7,48.3,740.2,56.7,740.2,67.2z"/>
	<path class="st1" d="M740.2,67.2L740.2,67.2c0,10.4-8.5,18.9-18.9,18.9l0,0c-5,0-9.8-2-13.4-5.5c-3.5-3.5-5.5-8.4-5.5-13.4l0,0
		c0-10.4,8.5-18.9,18.9-18.9l0,0C731.7,48.3,740.2,56.7,740.2,67.2z"/>
</g>
<g>
	<path class="st0" d="M769.3,94.7L769.3,94.7c10.4,0,18.9,8.5,18.9,18.9l0,0c0,5-2,9.8-5.5,13.4c-3.5,3.5-8.4,5.5-13.4,5.5l0,0
		c-10.4,0-18.9-8.5-18.9-18.9l0,0C750.4,103.1,758.8,94.7,769.3,94.7z"/>
	<path class="st1" d="M769.3,94.7L769.3,94.7c10.4,0,18.9,8.5,18.9,18.9l0,0c0,5-2,9.8-5.5,13.4c-3.5,3.5-8.4,5.5-13.4,5.5l0,0
		c-10.4,0-18.9-8.5-18.9-18.9l0,0C750.4,103.1,758.8,94.7,769.3,94.7z"/>
</g>
<g>
	<path class="st0" d="M788.2,67.2L788.2,67.2c0,10.4-8.5,18.9-18.9,18.9l0,0c-5,0-9.8-2-13.4-5.5c-3.5-3.5-5.5-8.4-5.5-13.4l0,0
		c0-10.4,8.5-18.9,18.9-18.9l0,0C779.7,48.3,788.2,56.7,788.2,67.2z"/>
	<path class="st1" d="M788.2,67.2L788.2,67.2c0,10.4-8.5,18.9-18.9,18.9l0,0c-5,0-9.8-2-13.4-5.5c-3.5-3.5-5.5-8.4-5.5-13.4l0,0
		c0-10.4,8.5-18.9,18.9-18.9l0,0C779.7,48.3,788.2,56.7,788.2,67.2z"/>
</g>
<g>
	<path class="st0" d="M702.4,299.2L702.4,299.2c0-10.4,8.5-18.9,18.9-18.9l0,0c5,0,9.8,2,13.4,5.5c3.5,3.5,5.5,8.4,5.5,13.4l0,0
		c0,10.4-8.5,18.9-18.9,18.9l0,0C710.8,318,702.4,309.5,702.4,299.2z"/>
	<path class="st1" d="M702.4,299.2L702.4,299.2c0-10.4,8.5-18.9,18.9-18.9l0,0c5,0,9.8,2,13.4,5.5c3.5,3.5,5.5,8.4,5.5,13.4l0,0
		c0,10.4-8.5,18.9-18.9,18.9l0,0C710.8,318,702.4,309.5,702.4,299.2z"/>
</g>
<g>
	<path class="st0" d="M740.2,252.8L740.2,252.8c0,10.4-8.5,18.9-18.9,18.9l0,0c-5,0-9.8-2-13.4-5.5c-3.5-3.5-5.5-8.4-5.5-13.4l0,0
		c0-10.4,8.5-18.9,18.9-18.9l0,0C731.7,233.9,740.2,242.3,740.2,252.8z"/>
	<path class="st1" d="M740.2,252.8L740.2,252.8c0,10.4-8.5,18.9-18.9,18.9l0,0c-5,0-9.8-2-13.4-5.5c-3.5-3.5-5.5-8.4-5.5-13.4l0,0
		c0-10.4,8.5-18.9,18.9-18.9l0,0C731.7,233.9,740.2,242.3,740.2,252.8z"/>
</g>
<g>
	<path class="st0" d="M769.3,280.3L769.3,280.3c10.4,0,18.9,8.5,18.9,18.9l0,0c0,5-2,9.8-5.5,13.4c-3.5,3.5-8.4,5.5-13.4,5.5l0,0
		c-10.4,0-18.9-8.5-18.9-18.9l0,0C750.4,288.8,758.8,280.3,769.3,280.3z"/>
	<path class="st1" d="M769.3,280.3L769.3,280.3c10.4,0,18.9,8.5,18.9,18.9l0,0c0,5-2,9.8-5.5,13.4c-3.5,3.5-8.4,5.5-13.4,5.5l0,0
		c-10.4,0-18.9-8.5-18.9-18.9l0,0C750.4,288.8,758.8,280.3,769.3,280.3z"/>
</g>
<g>
	<path class="st0" d="M788.2,252.8L788.2,252.8c0,10.4-8.5,18.9-18.9,18.9l0,0c-5,0-9.8-2-13.4-5.5c-3.5-3.5-5.5-8.4-5.5-13.4l0,0
		c0-10.4,8.5-18.9,18.9-18.9l0,0C779.7,233.9,788.2,242.3,788.2,252.8z"/>
	<path class="st1" d="M788.2,252.8L788.2,252.8c0,10.4-8.5,18.9-18.9,18.9l0,0c-5,0-9.8-2-13.4-5.5c-3.5-3.5-5.5-8.4-5.5-13.4l0,0
		c0-10.4,8.5-18.9,18.9-18.9l0,0C779.7,233.9,788.2,242.3,788.2,252.8z"/>
</g>
<g>
	<path class="st2" d="M836.5,206.4L836.5,206.4c0-10.4,8.5-18.9,18.9-18.9l0,0c5,0,9.8,2,13.4,5.5c3.5,3.5,5.5,8.4,5.5,13.4l0,0
		c0,10.4-8.5,18.9-18.9,18.9l0,0C844.9,225.3,836.5,216.8,836.5,206.4z"/>
	<path class="st1" d="M836.5,206.4L836.5,206.4c0-10.4,8.5-18.9,18.9-18.9l0,0c5,0,9.8,2,13.4,5.5c3.5,3.5,5.5,8.4,5.5,13.4l0,0
		c0,10.4-8.5,18.9-18.9,18.9l0,0C844.9,225.3,836.5,216.8,836.5,206.4z"/>
</g>
<g>
	<path class="st2" d="M874.3,160L874.3,160c0,10.4-8.5,18.9-18.9,18.9l0,0c-5,0-9.8-2-13.4-5.5c-3.5-3.5-5.5-8.4-5.5-13.4l0,0
		c0-10.4,8.5-18.9,18.9-18.9l0,0C865.8,141.1,874.3,149.5,874.3,160z"/>
	<path class="st1" d="M874.3,160L874.3,160c0,10.4-8.5,18.9-18.9,18.9l0,0c-5,0-9.8-2-13.4-5.5c-3.5-3.5-5.5-8.4-5.5-13.4l0,0
		c0-10.4,8.5-18.9,18.9-18.9l0,0C865.8,141.1,874.3,149.5,874.3,160z"/>
</g>
<g>
	<path class="st2" d="M903.4,187.5L903.4,187.5c10.4,0,18.9,8.5,18.9,18.9l0,0c0,5-2,9.8-5.5,13.4c-3.5,3.5-8.4,5.5-13.4,5.5l0,0
		c-10.4,0-18.9-8.5-18.9-18.9l0,0C884.5,195.9,892.9,187.5,903.4,187.5z"/>
	<path class="st1" d="M903.4,187.5L903.4,187.5c10.4,0,18.9,8.5,18.9,18.9l0,0c0,5-2,9.8-5.5,13.4c-3.5,3.5-8.4,5.5-13.4,5.5l0,0
		c-10.4,0-18.9-8.5-18.9-18.9l0,0C884.5,195.9,892.9,187.5,903.4,187.5z"/>
</g>
<g>
	<path class="st2" d="M836.5,299.2L836.5,299.2c0-10.4,8.5-18.9,18.9-18.9l0,0c5,0,9.8,2,13.4,5.5c3.5,3.5,5.5,8.4,5.5,13.4l0,0
		c0,10.4-8.5,18.9-18.9,18.9l0,0C844.9,318,836.5,309.5,836.5,299.2z"/>
	<path class="st1" d="M836.5,299.2L836.5,299.2c0-10.4,8.5-18.9,18.9-18.9l0,0c5,0,9.8,2,13.4,5.5c3.5,3.5,5.5,8.4,5.5,13.4l0,0
		c0,10.4-8.5,18.9-18.9,18.9l0,0C844.9,318,836.5,309.5,836.5,299.2z"/>
</g>
<g>
	<path class="st2" d="M874.3,252.8L874.3,252.8c0,10.4-8.5,18.9-18.9,18.9l0,0c-5,0-9.8-2-13.4-5.5c-3.5-3.5-5.5-8.4-5.5-13.4l0,0
		c0-10.4,8.5-18.9,18.9-18.9l0,0C865.8,233.9,874.3,242.3,874.3,252.8z"/>
	<path class="st1" d="M874.3,252.8L874.3,252.8c0,10.4-8.5,18.9-18.9,18.9l0,0c-5,0-9.8-2-13.4-5.5c-3.5-3.5-5.5-8.4-5.5-13.4l0,0
		c0-10.4,8.5-18.9,18.9-18.9l0,0C865.8,233.9,874.3,242.3,874.3,252.8z"/>
</g>
<g>
	<path class="st2" d="M903.4,280.3L903.4,280.3c10.4,0,18.9,8.5,18.9,18.9l0,0c0,5-2,9.8-5.5,13.4c-3.5,3.5-8.4,5.5-13.4,5.5l0,0
		c-10.4,0-18.9-8.5-18.9-18.9l0,0C884.5,288.8,892.9,280.3,903.4,280.3z"/>
	<path class="st1" d="M903.4,280.3L903.4,280.3c10.4,0,18.9,8.5,18.9,18.9l0,0c0,5-2,9.8-5.5,13.4c-3.5,3.5-8.4,5.5-13.4,5.5l0,0
		c-10.4,0-18.9-8.5-18.9-18.9l0,0C884.5,288.8,892.9,280.3,903.4,280.3z"/>
</g>
<g>
	<path class="st2" d="M922.3,252.8L922.3,252.8c0,10.4-8.5,18.9-18.9,18.9l0,0c-5,0-9.8-2-13.4-5.5c-3.5-3.5-5.5-8.4-5.5-13.4l0,0
		c0-10.4,8.5-18.9,18.9-18.9l0,0C913.8,233.9,922.3,242.3,922.3,252.8z"/>
	<path class="st1" d="M922.3,252.8L922.3,252.8c0,10.4-8.5,18.9-18.9,18.9l0,0c-5,0-9.8-2-13.4-5.5c-3.5-3.5-5.5-8.4-5.5-13.4l0,0
		c0-10.4,8.5-18.9,18.9-18.9l0,0C913.8,233.9,922.3,242.3,922.3,252.8z"/>
</g>
<g>
	<path class="st3" d="M970.6,206.4L970.6,206.4c0-10.4,8.5-18.9,18.9-18.9l0,0c5,0,9.8,2,13.4,5.5c3.5,3.5,5.5,8.4,5.5,13.4l0,0
		c0,10.4-8.5,18.9-18.9,18.9l0,0C979,225.3,970.6,216.8,970.6,206.4z"/>
	<path class="st1" d="M970.6,206.4L970.6,206.4c0-10.4,8.5-18.9,18.9-18.9l0,0c5,0,9.8,2,13.4,5.5c3.5,3.5,5.5,8.4,5.5,13.4l0,0
		c0,10.4-8.5,18.9-18.9,18.9l0,0C979,225.3,970.6,216.8,970.6,206.4z"/>
</g>
<g>
	<path class="st3" d="M1008.4,160L1008.4,160c0,10.4-8.5,18.9-18.9,18.9l0,0c-5,0-9.8-2-13.4-5.5c-3.5-3.5-5.5-8.4-5.5-13.4l0,0
		c0-10.4,8.5-18.9,18.9-18.9l0,0C999.9,141.1,1008.4,149.5,1008.4,160z"/>
	<path class="st1" d="M1008.4,160L1008.4,160c0,10.4-8.5,18.9-18.9,18.9l0,0c-5,0-9.8-2-13.4-5.5c-3.5-3.5-5.5-8.4-5.5-13.4l0,0
		c0-10.4,8.5-18.9,18.9-18.9l0,0C999.9,141.1,1008.4,149.5,1008.4,160z"/>
</g>
<g>
	<path class="st3" d="M1037.5,187.5L1037.5,187.5c10.4,0,18.9,8.5,18.9,18.9l0,0c0,5-2,9.8-5.5,13.4c-3.5,3.5-8.4,5.5-13.4,5.5l0,0
		c-10.4,0-18.9-8.5-18.9-18.9l0,0C1018.6,195.9,1027,187.5,1037.5,187.5z"/>
	<path class="st1" d="M1037.5,187.5L1037.5,187.5c10.4,0,18.9,8.5,18.9,18.9l0,0c0,5-2,9.8-5.5,13.4c-3.5,3.5-8.4,5.5-13.4,5.5l0,0
		c-10.4,0-18.9-8.5-18.9-18.9l0,0C1018.6,195.9,1027,187.5,1037.5,187.5z"/>
</g>
<g>
	<path class="st3" d="M1056.4,160L1056.4,160c0,10.4-8.5,18.9-18.9,18.9l0,0c-5,0-9.8-2-13.4-5.5c-3.5-3.5-5.5-8.4-5.5-13.4l0,0
		c0-10.4,8.5-18.9,18.9-18.9l0,0C1047.9,141.1,1056.4,149.5,1056.4,160z"/>
	<path class="st1" d="M1056.4,160L1056.4,160c0,10.4-8.5,18.9-18.9,18.9l0,0c-5,0-9.8-2-13.4-5.5c-3.5-3.5-5.5-8.4-5.5-13.4l0,0
		c0-10.4,8.5-18.9,18.9-18.9l0,0C1047.9,141.1,1056.4,149.5,1056.4,160z"/>
</g>
<g>
	<path class="st3" d="M970.6,119.1L970.6,119.1c0-10.4,8.5-18.9,18.9-18.9l0,0c5,0,9.8,2,13.4,5.5c3.5,3.5,5.5,8.4,5.5,13.4l0,0
		c0,10.4-8.5,18.9-18.9,18.9l0,0C979,138,970.6,129.5,970.6,119.1z"/>
	<path class="st1" d="M970.6,119.1L970.6,119.1c0-10.4,8.5-18.9,18.9-18.9l0,0c5,0,9.8,2,13.4,5.5c3.5,3.5,5.5,8.4,5.5,13.4l0,0
		c0,10.4-8.5,18.9-18.9,18.9l0,0C979,138,970.6,129.5,970.6,119.1z"/>
</g>
<g>
	<path class="st3" d="M970.6,299.2L970.6,299.2c0-10.4,8.5-18.9,18.9-18.9l0,0c5,0,9.8,2,13.4,5.5c3.5,3.5,5.5,8.4,5.5,13.4l0,0
		c0,10.4-8.5,18.9-18.9,18.9l0,0C979,318,970.6,309.5,970.6,299.2z"/>
	<path class="st1" d="M970.6,299.2L970.6,299.2c0-10.4,8.5-18.9,18.9-18.9l0,0c5,0,9.8,2,13.4,5.5c3.5,3.5,5.5,8.4,5.5,13.4l0,0
		c0,10.4-8.5,18.9-18.9,18.9l0,0C979,318,970.6,309.5,970.6,299.2z"/>
</g>
<g>
	<path class="st3" d="M1008.4,252.8L1008.4,252.8c0,10.4-8.5,18.9-18.9,18.9l0,0c-5,0-9.8-2-13.4-5.5c-3.5-3.5-5.5-8.4-5.5-13.4l0,0
		c0-10.4,8.5-18.9,18.9-18.9l0,0C999.9,233.9,1008.4,242.3,1008.4,252.8z"/>
	<path class="st1" d="M1008.4,252.8L1008.4,252.8c0,10.4-8.5,18.9-18.9,18.9l0,0c-5,0-9.8-2-13.4-5.5c-3.5-3.5-5.5-8.4-5.5-13.4l0,0
		c0-10.4,8.5-18.9,18.9-18.9l0,0C999.9,233.9,1008.4,242.3,1008.4,252.8z"/>
</g>
<g>
	<path class="st3" d="M1037.5,280.3L1037.5,280.3c10.4,0,18.9,8.5,18.9,18.9l0,0c0,5-2,9.8-5.5,13.4c-3.5,3.5-8.4,5.5-13.4,5.5l0,0
		c-10.4,0-18.9-8.5-18.9-18.9l0,0C1018.6,288.8,1027,280.3,1037.5,280.3z"/>
	<path class="st1" d="M1037.5,280.3L1037.5,280.3c10.4,0,18.9,8.5,18.9,18.9l0,0c0,5-2,9.8-5.5,13.4c-3.5,3.5-8.4,5.5-13.4,5.5l0,0
		c-10.4,0-18.9-8.5-18.9-18.9l0,0C1018.6,288.8,1027,280.3,1037.5,280.3z"/>
</g>
<g>
	<path class="st3" d="M1056.4,252.8L1056.4,252.8c0,10.4-8.5,18.9-18.9,18.9l0,0c-5,0-9.8-2-13.4-5.5c-3.5-3.5-5.5-8.4-5.5-13.4l0,0
		c0-10.4,8.5-18.9,18.9-18.9l0,0C1047.9,233.9,1056.4,242.3,1056.4,252.8z"/>
	<path class="st1" d="M1056.4,252.8L1056.4,252.8c0,10.4-8.5,18.9-18.9,18.9l0,0c-5,0-9.8-2-13.4-5.5c-3.5-3.5-5.5-8.4-5.5-13.4l0,0
		c0-10.4,8.5-18.9,18.9-18.9l0,0C1047.9,233.9,1056.4,242.3,1056.4,252.8z"/>
</g>
<text transform="matrix(1 0 0 1 221.5322 28.9941)" class="st7 st8">Nounours</text>
<text transform="matrix(1 0 0 1 779.7607 28.9941)" class="st7 st8">Snippy</text>
<line class="st9" x1="537.6" y1="319.3" x2="536.5" y2="18.2"/>
</svg>
