<?xml version="1.0" encoding="utf-8"?>
<!-- Generator: Adobe Illustrator 24.3.0, SVG Export Plug-In . SVG Version: 6.00 Build 0)  -->
<svg version="1.1" id="Calque_1" xmlns="http://www.w3.org/2000/svg" xmlns:xlink="http://www.w3.org/1999/xlink" x="0px" y="0px"
	 viewBox="0 0 519 298" style="enable-background:new 0 0 519 298;" xml:space="preserve">
<style type="text/css">
	.st0{fill-rule:evenodd;clip-rule:evenodd;fill:#38761D;}
	.st1{fill:none;stroke:#FFFFFF;stroke-linejoin:round;stroke-miterlimit:10;}
	.st2{fill-rule:evenodd;clip-rule:evenodd;fill:#CC0000;}
	.st3{fill-rule:evenodd;clip-rule:evenodd;fill:#1155CC;}
	.st4{fill-rule:evenodd;clip-rule:evenodd;fill:#F1C232;}
</style>
<g>
	<g>
		<path class="st0" d="M15.6,263.2L15.6,263.2c0-10.4,8.5-18.9,18.9-18.9l0,0c5,0,9.8,2,13.4,5.5c3.5,3.5,5.5,8.4,5.5,13.4l0,0
			c0,10.4-8.5,18.9-18.9,18.9l0,0C24,282.1,15.6,273.6,15.6,263.2z"/>
		<path class="st1" d="M15.6,263.2L15.6,263.2c0-10.4,8.5-18.9,18.9-18.9l0,0c5,0,9.8,2,13.4,5.5c3.5,3.5,5.5,8.4,5.5,13.4l0,0
			c0,10.4-8.5,18.9-18.9,18.9l0,0C24,282.1,15.6,273.6,15.6,263.2z"/>
		<path class="st0" d="M53.4,217.3L53.4,217.3c0,10.4-8.5,18.9-18.9,18.9l0,0c-5,0-9.8-2-13.4-5.5c-3.5-3.5-5.5-8.4-5.5-13.4l0,0
			c0-10.4,8.5-18.9,18.9-18.9l0,0C44.9,198.4,53.4,206.8,53.4,217.3z"/>
		<path class="st1" d="M53.4,217.3L53.4,217.3c0,10.4-8.5,18.9-18.9,18.9l0,0c-5,0-9.8-2-13.4-5.5c-3.5-3.5-5.5-8.4-5.5-13.4l0,0
			c0-10.4,8.5-18.9,18.9-18.9l0,0C44.9,198.4,53.4,206.8,53.4,217.3z"/>
		<path class="st0" d="M80.3,244.3L80.3,244.3c10.4,0,18.9,8.5,18.9,18.9l0,0c0,5-2,9.8-5.5,13.4c-3.5,3.5-8.4,5.5-13.4,5.5l0,0
			c-10.4,0-18.9-8.5-18.9-18.9l0,0C61.4,252.7,69.8,244.3,80.3,244.3z"/>
		<path class="st1" d="M80.3,244.3L80.3,244.3c10.4,0,18.9,8.5,18.9,18.9l0,0c0,5-2,9.8-5.5,13.4c-3.5,3.5-8.4,5.5-13.4,5.5l0,0
			c-10.4,0-18.9-8.5-18.9-18.9l0,0C61.4,252.7,69.8,244.3,80.3,244.3z"/>
		<path class="st0" d="M101.4,217.3L101.4,217.3c0,10.4-8.5,18.9-18.9,18.9l0,0c-5,0-9.8-2-13.4-5.5c-3.5-3.5-5.5-8.4-5.5-13.4l0,0
			c0-10.4,8.5-18.9,18.9-18.9l0,0C92.9,198.4,101.4,206.8,101.4,217.3z"/>
		<path class="st1" d="M101.4,217.3L101.4,217.3c0,10.4-8.5,18.9-18.9,18.9l0,0c-5,0-9.8-2-13.4-5.5c-3.5-3.5-5.5-8.4-5.5-13.4l0,0
			c0-10.4,8.5-18.9,18.9-18.9l0,0C92.9,198.4,101.4,206.8,101.4,217.3z"/>
		<path class="st2" d="M143.6,175.2L143.6,175.2c0-10.4,8.5-18.9,18.9-18.9l0,0c5,0,9.8,2,13.4,5.5c3.5,3.5,5.5,8.4,5.5,13.4l0,0
			c0,10.4-8.5,18.9-18.9,18.9l0,0C152,194.1,143.6,185.6,143.6,175.2z"/>
		<path class="st1" d="M143.6,175.2L143.6,175.2c0-10.4,8.5-18.9,18.9-18.9l0,0c5,0,9.8,2,13.4,5.5c3.5,3.5,5.5,8.4,5.5,13.4l0,0
			c0,10.4-8.5,18.9-18.9,18.9l0,0C152,194.1,143.6,185.6,143.6,175.2z"/>
		<path class="st2" d="M181.4,129.3L181.4,129.3c0,10.4-8.5,18.9-18.9,18.9l0,0c-5,0-9.8-2-13.4-5.5c-3.5-3.5-5.5-8.4-5.5-13.4l0,0
			c0-10.4,8.5-18.9,18.9-18.9l0,0C172.9,110.4,181.4,118.8,181.4,129.3z"/>
		<path class="st1" d="M181.4,129.3L181.4,129.3c0,10.4-8.5,18.9-18.9,18.9l0,0c-5,0-9.8-2-13.4-5.5c-3.5-3.5-5.5-8.4-5.5-13.4l0,0
			c0-10.4,8.5-18.9,18.9-18.9l0,0C172.9,110.4,181.4,118.8,181.4,129.3z"/>
		<path class="st2" d="M210.5,154.4L210.5,154.4c10.4,0,18.9,8.5,18.9,18.9l0,0c0,5-2,9.8-5.5,13.4c-3.5,3.5-8.4,5.5-13.4,5.5l0,0
			c-10.4,0-18.9-8.5-18.9-18.9l0,0C191.6,162.8,200,154.4,210.5,154.4z"/>
		<path class="st1" d="M210.5,154.4L210.5,154.4c10.4,0,18.9,8.5,18.9,18.9l0,0c0,5-2,9.8-5.5,13.4c-3.5,3.5-8.4,5.5-13.4,5.5l0,0
			c-10.4,0-18.9-8.5-18.9-18.9l0,0C191.6,162.8,200,154.4,210.5,154.4z"/>
		<path class="st2" d="M229.4,129.3L229.4,129.3c0,10.4-8.5,18.9-18.9,18.9l0,0c-5,0-9.8-2-13.4-5.5c-3.5-3.5-5.5-8.4-5.5-13.4l0,0
			c0-10.4,8.5-18.9,18.9-18.9l0,0C220.9,110.4,229.4,118.8,229.4,129.3z"/>
		<path class="st1" d="M229.4,129.3L229.4,129.3c0,10.4-8.5,18.9-18.9,18.9l0,0c-5,0-9.8-2-13.4-5.5c-3.5-3.5-5.5-8.4-5.5-13.4l0,0
			c0-10.4,8.5-18.9,18.9-18.9l0,0C220.9,110.4,229.4,118.8,229.4,129.3z"/>
		<path class="st2" d="M143.6,87.2L143.6,87.2c0-10.4,8.5-18.9,18.9-18.9l0,0c5,0,9.8,2,13.4,5.5c3.5,3.5,5.5,8.4,5.5,13.4l0,0
			c0,10.4-8.5,18.9-18.9,18.9l0,0C152,106.1,143.6,97.6,143.6,87.2z"/>
		<path class="st1" d="M143.6,87.2L143.6,87.2c0-10.4,8.5-18.9,18.9-18.9l0,0c5,0,9.8,2,13.4,5.5c3.5,3.5,5.5,8.4,5.5,13.4l0,0
			c0,10.4-8.5,18.9-18.9,18.9l0,0C152,106.1,143.6,97.6,143.6,87.2z"/>
		<path class="st2" d="M181.4,41.3L181.4,41.3c0,10.4-8.5,18.9-18.9,18.9l0,0c-5,0-9.8-2-13.4-5.5c-3.5-3.5-5.5-8.4-5.5-13.4l0,0
			c0-10.4,8.5-18.9,18.9-18.9l0,0C172.9,22.4,181.4,30.8,181.4,41.3z"/>
		<path class="st1" d="M181.4,41.3L181.4,41.3c0,10.4-8.5,18.9-18.9,18.9l0,0c-5,0-9.8-2-13.4-5.5c-3.5-3.5-5.5-8.4-5.5-13.4l0,0
			c0-10.4,8.5-18.9,18.9-18.9l0,0C172.9,22.4,181.4,30.8,181.4,41.3z"/>
		<path class="st2" d="M210.5,66.4L210.5,66.4c10.4,0,18.9,8.5,18.9,18.9l0,0c0,5-2,9.8-5.5,13.4c-3.5,3.5-8.4,5.5-13.4,5.5l0,0
			c-10.4,0-18.9-8.5-18.9-18.9l0,0C191.6,74.8,200,66.4,210.5,66.4z"/>
		<path class="st1" d="M210.5,66.4L210.5,66.4c10.4,0,18.9,8.5,18.9,18.9l0,0c0,5-2,9.8-5.5,13.4c-3.5,3.5-8.4,5.5-13.4,5.5l0,0
			c-10.4,0-18.9-8.5-18.9-18.9l0,0C191.6,74.8,200,66.4,210.5,66.4z"/>
		<path class="st2" d="M229.4,41.3L229.4,41.3c0,10.4-8.5,18.9-18.9,18.9l0,0c-5,0-9.8-2-13.4-5.5c-3.5-3.5-5.5-8.4-5.5-13.4l0,0
			c0-10.4,8.5-18.9,18.9-18.9l0,0C220.9,22.4,229.4,30.8,229.4,41.3z"/>
		<path class="st1" d="M229.4,41.3L229.4,41.3c0,10.4-8.5,18.9-18.9,18.9l0,0c-5,0-9.8-2-13.4-5.5c-3.5-3.5-5.5-8.4-5.5-13.4l0,0
			c0-10.4,8.5-18.9,18.9-18.9l0,0C220.9,22.4,229.4,30.8,229.4,41.3z"/>
		<path class="st2" d="M143.6,263.2L143.6,263.2c0-10.4,8.5-18.9,18.9-18.9l0,0c5,0,9.8,2,13.4,5.5c3.5,3.5,5.5,8.4,5.5,13.4l0,0
			c0,10.4-8.5,18.9-18.9,18.9l0,0C152,282.1,143.6,273.6,143.6,263.2z"/>
		<path class="st1" d="M143.6,263.2L143.6,263.2c0-10.4,8.5-18.9,18.9-18.9l0,0c5,0,9.8,2,13.4,5.5c3.5,3.5,5.5,8.4,5.5,13.4l0,0
			c0,10.4-8.5,18.9-18.9,18.9l0,0C152,282.1,143.6,273.6,143.6,263.2z"/>
		<path class="st2" d="M181.4,217.3L181.4,217.3c0,10.4-8.5,18.9-18.9,18.9l0,0c-5,0-9.8-2-13.4-5.5c-3.5-3.5-5.5-8.4-5.5-13.4l0,0
			c0-10.4,8.5-18.9,18.9-18.9l0,0C172.9,198.4,181.4,206.8,181.4,217.3z"/>
		<path class="st1" d="M181.4,217.3L181.4,217.3c0,10.4-8.5,18.9-18.9,18.9l0,0c-5,0-9.8-2-13.4-5.5c-3.5-3.5-5.5-8.4-5.5-13.4l0,0
			c0-10.4,8.5-18.9,18.9-18.9l0,0C172.9,198.4,181.4,206.8,181.4,217.3z"/>
		<path class="st2" d="M210.5,244.4L210.5,244.4c10.4,0,18.9,8.5,18.9,18.9l0,0c0,5-2,9.8-5.5,13.4c-3.5,3.5-8.4,5.5-13.4,5.5l0,0
			c-10.4,0-18.9-8.5-18.9-18.9l0,0C191.6,252.8,200,244.4,210.5,244.4z"/>
		<path class="st1" d="M210.5,244.4L210.5,244.4c10.4,0,18.9,8.5,18.9,18.9l0,0c0,5-2,9.8-5.5,13.4c-3.5,3.5-8.4,5.5-13.4,5.5l0,0
			c-10.4,0-18.9-8.5-18.9-18.9l0,0C191.6,252.8,200,244.4,210.5,244.4z"/>
		<path class="st2" d="M229.4,217.3L229.4,217.3c0,10.4-8.5,18.9-18.9,18.9l0,0c-5,0-9.8-2-13.4-5.5c-3.5-3.5-5.5-8.4-5.5-13.4l0,0
			c0-10.4,8.5-18.9,18.9-18.9l0,0C220.9,198.4,229.4,206.8,229.4,217.3z"/>
		<path class="st1" d="M229.4,217.3L229.4,217.3c0,10.4-8.5,18.9-18.9,18.9l0,0c-5,0-9.8-2-13.4-5.5c-3.5-3.5-5.5-8.4-5.5-13.4l0,0
			c0-10.4,8.5-18.9,18.9-18.9l0,0C220.9,198.4,229.4,206.8,229.4,217.3z"/>
		<path class="st3" d="M279.6,175.2L279.6,175.2c0-10.4,8.5-18.9,18.9-18.9l0,0c5,0,9.8,2,13.4,5.5c3.5,3.5,5.5,8.4,5.5,13.4l0,0
			c0,10.4-8.5,18.9-18.9,18.9l0,0C288,194.1,279.6,185.6,279.6,175.2z"/>
		<path class="st1" d="M279.6,175.2L279.6,175.2c0-10.4,8.5-18.9,18.9-18.9l0,0c5,0,9.8,2,13.4,5.5c3.5,3.5,5.5,8.4,5.5,13.4l0,0
			c0,10.4-8.5,18.9-18.9,18.9l0,0C288,194.1,279.6,185.6,279.6,175.2z"/>
		<path class="st3" d="M317.4,129.3L317.4,129.3c0,10.4-8.5,18.9-18.9,18.9l0,0c-5,0-9.8-2-13.4-5.5c-3.5-3.5-5.5-8.4-5.5-13.4l0,0
			c0-10.4,8.5-18.9,18.9-18.9l0,0C308.9,110.4,317.4,118.8,317.4,129.3z"/>
		<path class="st1" d="M317.4,129.3L317.4,129.3c0,10.4-8.5,18.9-18.9,18.9l0,0c-5,0-9.8-2-13.4-5.5c-3.5-3.5-5.5-8.4-5.5-13.4l0,0
			c0-10.4,8.5-18.9,18.9-18.9l0,0C308.9,110.4,317.4,118.8,317.4,129.3z"/>
		<path class="st3" d="M346.5,154.4L346.5,154.4c10.4,0,18.9,8.5,18.9,18.9l0,0c0,5-2,9.8-5.5,13.4c-3.5,3.5-8.4,5.5-13.4,5.5l0,0
			c-10.4,0-18.9-8.5-18.9-18.9l0,0C327.6,162.8,336,154.4,346.5,154.4z"/>
		<path class="st1" d="M346.5,154.4L346.5,154.4c10.4,0,18.9,8.5,18.9,18.9l0,0c0,5-2,9.8-5.5,13.4c-3.5,3.5-8.4,5.5-13.4,5.5l0,0
			c-10.4,0-18.9-8.5-18.9-18.9l0,0C327.6,162.8,336,154.4,346.5,154.4z"/>
		<path class="st3" d="M279.6,263.2L279.6,263.2c0-10.4,8.5-18.9,18.9-18.9l0,0c5,0,9.8,2,13.4,5.5c3.5,3.5,5.5,8.4,5.5,13.4l0,0
			c0,10.4-8.5,18.9-18.9,18.9l0,0C288,282.1,279.6,273.6,279.6,263.2z"/>
		<path class="st1" d="M279.6,263.2L279.6,263.2c0-10.4,8.5-18.9,18.9-18.9l0,0c5,0,9.8,2,13.4,5.5c3.5,3.5,5.5,8.4,5.5,13.4l0,0
			c0,10.4-8.5,18.9-18.9,18.9l0,0C288,282.1,279.6,273.6,279.6,263.2z"/>
		<path class="st3" d="M317.4,217.3L317.4,217.3c0,10.4-8.5,18.9-18.9,18.9l0,0c-5,0-9.8-2-13.4-5.5c-3.5-3.5-5.5-8.4-5.5-13.4l0,0
			c0-10.4,8.5-18.9,18.9-18.9l0,0C308.9,198.4,317.4,206.8,317.4,217.3z"/>
		<path class="st1" d="M317.4,217.3L317.4,217.3c0,10.4-8.5,18.9-18.9,18.9l0,0c-5,0-9.8-2-13.4-5.5c-3.5-3.5-5.5-8.4-5.5-13.4l0,0
			c0-10.4,8.5-18.9,18.9-18.9l0,0C308.9,198.4,317.4,206.8,317.4,217.3z"/>
		<path class="st3" d="M346.5,244.4L346.5,244.4c10.4,0,18.9,8.5,18.9,18.9l0,0c0,5-2,9.8-5.5,13.4c-3.5,3.5-8.4,5.5-13.4,5.5l0,0
			c-10.4,0-18.9-8.5-18.9-18.9l0,0C327.6,252.8,336,244.4,346.5,244.4z"/>
		<path class="st1" d="M346.5,244.4L346.5,244.4c10.4,0,18.9,8.5,18.9,18.9l0,0c0,5-2,9.8-5.5,13.4c-3.5,3.5-8.4,5.5-13.4,5.5l0,0
			c-10.4,0-18.9-8.5-18.9-18.9l0,0C327.6,252.8,336,244.4,346.5,244.4z"/>
		<path class="st3" d="M365.4,217.3L365.4,217.3c0,10.4-8.5,18.9-18.9,18.9l0,0c-5,0-9.8-2-13.4-5.5c-3.5-3.5-5.5-8.4-5.5-13.4l0,0
			c0-10.4,8.5-18.9,18.9-18.9l0,0C356.9,198.4,365.4,206.8,365.4,217.3z"/>
		<path class="st1" d="M365.4,217.3L365.4,217.3c0,10.4-8.5,18.9-18.9,18.9l0,0c-5,0-9.8-2-13.4-5.5c-3.5-3.5-5.5-8.4-5.5-13.4l0,0
			c0-10.4,8.5-18.9,18.9-18.9l0,0C356.9,198.4,365.4,206.8,365.4,217.3z"/>
		<path class="st4" d="M415.6,175.2L415.6,175.2c0-10.4,8.5-18.9,18.9-18.9l0,0c5,0,9.8,2,13.4,5.5c3.5,3.5,5.5,8.4,5.5,13.4l0,0
			c0,10.4-8.5,18.9-18.9,18.9l0,0C424,194.1,415.6,185.6,415.6,175.2z"/>
		<path class="st1" d="M415.6,175.2L415.6,175.2c0-10.4,8.5-18.9,18.9-18.9l0,0c5,0,9.8,2,13.4,5.5c3.5,3.5,5.5,8.4,5.5,13.4l0,0
			c0,10.4-8.5,18.9-18.9,18.9l0,0C424,194.1,415.6,185.6,415.6,175.2z"/>
		<path class="st4" d="M453.4,129.3L453.4,129.3c0,10.4-8.5,18.9-18.9,18.9l0,0c-5,0-9.8-2-13.4-5.5c-3.5-3.5-5.5-8.4-5.5-13.4l0,0
			c0-10.4,8.5-18.9,18.9-18.9l0,0C444.9,110.4,453.4,118.8,453.4,129.3z"/>
		<path class="st1" d="M453.4,129.3L453.4,129.3c0,10.4-8.5,18.9-18.9,18.9l0,0c-5,0-9.8-2-13.4-5.5c-3.5-3.5-5.5-8.4-5.5-13.4l0,0
			c0-10.4,8.5-18.9,18.9-18.9l0,0C444.9,110.4,453.4,118.8,453.4,129.3z"/>
		<path class="st4" d="M482.5,154.4L482.5,154.4c10.4,0,18.9,8.5,18.9,18.9l0,0c0,5-2,9.8-5.5,13.4c-3.5,3.5-8.4,5.5-13.4,5.5l0,0
			c-10.4,0-18.9-8.5-18.9-18.9l0,0C463.6,162.8,472,154.4,482.5,154.4z"/>
		<path class="st1" d="M482.5,154.4L482.5,154.4c10.4,0,18.9,8.5,18.9,18.9l0,0c0,5-2,9.8-5.5,13.4c-3.5,3.5-8.4,5.5-13.4,5.5l0,0
			c-10.4,0-18.9-8.5-18.9-18.9l0,0C463.6,162.8,472,154.4,482.5,154.4z"/>
		<path class="st4" d="M501.4,129.3L501.4,129.3c0,10.4-8.5,18.9-18.9,18.9l0,0c-5,0-9.8-2-13.4-5.5c-3.5-3.5-5.5-8.4-5.5-13.4l0,0
			c0-10.4,8.5-18.9,18.9-18.9l0,0C492.9,110.4,501.4,118.8,501.4,129.3z"/>
		<path class="st1" d="M501.4,129.3L501.4,129.3c0,10.4-8.5,18.9-18.9,18.9l0,0c-5,0-9.8-2-13.4-5.5c-3.5-3.5-5.5-8.4-5.5-13.4l0,0
			c0-10.4,8.5-18.9,18.9-18.9l0,0C492.9,110.4,501.4,118.8,501.4,129.3z"/>
		<path class="st4" d="M415.6,87.2L415.6,87.2c0-10.4,8.5-18.9,18.9-18.9l0,0c5,0,9.8,2,13.4,5.5c3.5,3.5,5.5,8.4,5.5,13.4l0,0
			c0,10.4-8.5,18.9-18.9,18.9l0,0C424,106.1,415.6,97.6,415.6,87.2z"/>
		<path class="st1" d="M415.6,87.2L415.6,87.2c0-10.4,8.5-18.9,18.9-18.9l0,0c5,0,9.8,2,13.4,5.5c3.5,3.5,5.5,8.4,5.5,13.4l0,0
			c0,10.4-8.5,18.9-18.9,18.9l0,0C424,106.1,415.6,97.6,415.6,87.2z"/>
		<path class="st4" d="M415.6,263.2L415.6,263.2c0-10.4,8.5-18.9,18.9-18.9l0,0c5,0,9.8,2,13.4,5.5c3.5,3.5,5.5,8.4,5.5,13.4l0,0
			c0,10.4-8.5,18.9-18.9,18.9l0,0C424,282.1,415.6,273.6,415.6,263.2z"/>
		<path class="st1" d="M415.6,263.2L415.6,263.2c0-10.4,8.5-18.9,18.9-18.9l0,0c5,0,9.8,2,13.4,5.5c3.5,3.5,5.5,8.4,5.5,13.4l0,0
			c0,10.4-8.5,18.9-18.9,18.9l0,0C424,282.1,415.6,273.6,415.6,263.2z"/>
		<path class="st4" d="M453.4,217.3L453.4,217.3c0,10.4-8.5,18.9-18.9,18.9l0,0c-5,0-9.8-2-13.4-5.5c-3.5-3.5-5.5-8.4-5.5-13.4l0,0
			c0-10.4,8.5-18.9,18.9-18.9l0,0C444.9,198.4,453.4,206.8,453.4,217.3z"/>
		<path class="st1" d="M453.4,217.3L453.4,217.3c0,10.4-8.5,18.9-18.9,18.9l0,0c-5,0-9.8-2-13.4-5.5c-3.5-3.5-5.5-8.4-5.5-13.4l0,0
			c0-10.4,8.5-18.9,18.9-18.9l0,0C444.9,198.4,453.4,206.8,453.4,217.3z"/>
		<path class="st4" d="M482.5,244.4L482.5,244.4c10.4,0,18.9,8.5,18.9,18.9l0,0c0,5-2,9.8-5.5,13.4c-3.5,3.5-8.4,5.5-13.4,5.5l0,0
			c-10.4,0-18.9-8.5-18.9-18.9l0,0C463.6,252.8,472,244.4,482.5,244.4z"/>
		<path class="st1" d="M482.5,244.4L482.5,244.4c10.4,0,18.9,8.5,18.9,18.9l0,0c0,5-2,9.8-5.5,13.4c-3.5,3.5-8.4,5.5-13.4,5.5l0,0
			c-10.4,0-18.9-8.5-18.9-18.9l0,0C463.6,252.8,472,244.4,482.5,244.4z"/>
		<path class="st4" d="M501.4,217.3L501.4,217.3c0,10.4-8.5,18.9-18.9,18.9l0,0c-5,0-9.8-2-13.4-5.5c-3.5-3.5-5.5-8.4-5.5-13.4l0,0
			c0-10.4,8.5-18.9,18.9-18.9l0,0C492.9,198.4,501.4,206.8,501.4,217.3z"/>
		<path class="st1" d="M501.4,217.3L501.4,217.3c0,10.4-8.5,18.9-18.9,18.9l0,0c-5,0-9.8-2-13.4-5.5c-3.5-3.5-5.5-8.4-5.5-13.4l0,0
			c0-10.4,8.5-18.9,18.9-18.9l0,0C492.9,198.4,501.4,206.8,501.4,217.3z"/>
	</g>
</g>
</svg>
